G04 #@! TF.GenerationSoftware,KiCad,Pcbnew,(5.0.0)*
G04 #@! TF.CreationDate,2018-10-19T16:20:16+03:00*
G04 #@! TF.ProjectId,side_1,736964655F312E6B696361645F706362,rev?*
G04 #@! TF.SameCoordinates,Original*
G04 #@! TF.FileFunction,Paste,Top*
G04 #@! TF.FilePolarity,Positive*
%FSLAX46Y46*%
G04 Gerber Fmt 4.6, Leading zero omitted, Abs format (unit mm)*
G04 Created by KiCad (PCBNEW (5.0.0)) date 10/19/18 16:20:16*
%MOMM*%
%LPD*%
G01*
G04 APERTURE LIST*
%ADD10R,1.600000X2.000000*%
%ADD11R,0.850000X1.600000*%
G04 APERTURE END LIST*
D10*
G04 #@! TO.C,P1*
X117620000Y-117800000D03*
X120160000Y-117800000D03*
X122700000Y-117800000D03*
G04 #@! TD*
G04 #@! TO.C,P1*
X122700000Y-113350000D03*
X120160000Y-113350000D03*
X117620000Y-113350000D03*
G04 #@! TD*
G04 #@! TO.C,P1*
X157450000Y-117800000D03*
X159990000Y-117800000D03*
X162530000Y-117800000D03*
G04 #@! TD*
G04 #@! TO.C,P1*
X162530000Y-113350000D03*
X159990000Y-113350000D03*
X157450000Y-113350000D03*
G04 #@! TD*
D11*
G04 #@! TO.C,1HL5*
X170275000Y-106350000D03*
X168525000Y-106350000D03*
X170275000Y-109850000D03*
X168525000Y-109850000D03*
G04 #@! TD*
G04 #@! TO.C,1HL6*
X156775000Y-109850000D03*
X158525000Y-109850000D03*
X156775000Y-106350000D03*
X158525000Y-106350000D03*
G04 #@! TD*
G04 #@! TO.C,1HL7*
X146775000Y-106350000D03*
X145025000Y-106350000D03*
X146775000Y-109850000D03*
X145025000Y-109850000D03*
G04 #@! TD*
G04 #@! TO.C,1HL8*
X133225000Y-109850000D03*
X134975000Y-109850000D03*
X133225000Y-106350000D03*
X134975000Y-106350000D03*
G04 #@! TD*
G04 #@! TO.C,1HL9*
X123225000Y-106350000D03*
X121475000Y-106350000D03*
X123225000Y-109850000D03*
X121475000Y-109850000D03*
G04 #@! TD*
G04 #@! TO.C,1HL10*
X111475000Y-106350000D03*
X109725000Y-106350000D03*
X111475000Y-109850000D03*
X109725000Y-109850000D03*
G04 #@! TD*
G04 #@! TO.C,1HL11*
X121475000Y-97750000D03*
X123225000Y-97750000D03*
X121475000Y-94250000D03*
X123225000Y-94250000D03*
G04 #@! TD*
G04 #@! TO.C,1HL12*
X134975000Y-94250000D03*
X133225000Y-94250000D03*
X134975000Y-97750000D03*
X133225000Y-97750000D03*
G04 #@! TD*
G04 #@! TO.C,1HL13*
X145025000Y-97750000D03*
X146775000Y-97750000D03*
X145025000Y-94250000D03*
X146775000Y-94250000D03*
G04 #@! TD*
G04 #@! TO.C,1HL14*
X158525000Y-94250000D03*
X156775000Y-94250000D03*
X158525000Y-97750000D03*
X156775000Y-97750000D03*
G04 #@! TD*
G04 #@! TO.C,1HL15*
X156775000Y-85650000D03*
X158525000Y-85650000D03*
X156775000Y-82150000D03*
X158525000Y-82150000D03*
G04 #@! TD*
G04 #@! TO.C,1HL16*
X146775000Y-82150000D03*
X145025000Y-82150000D03*
X146775000Y-85650000D03*
X145025000Y-85650000D03*
G04 #@! TD*
G04 #@! TO.C,1HL17*
X133225000Y-85650000D03*
X134975000Y-85650000D03*
X133225000Y-82150000D03*
X134975000Y-82150000D03*
G04 #@! TD*
G04 #@! TO.C,1HL18*
X123225000Y-82150000D03*
X121475000Y-82150000D03*
X123225000Y-85650000D03*
X121475000Y-85650000D03*
G04 #@! TD*
G04 #@! TO.C,1HL19*
X121475000Y-73550000D03*
X123225000Y-73550000D03*
X121475000Y-70050000D03*
X123225000Y-70050000D03*
G04 #@! TD*
G04 #@! TO.C,1HL20*
X134975000Y-70050000D03*
X133225000Y-70050000D03*
X134975000Y-73550000D03*
X133225000Y-73550000D03*
G04 #@! TD*
G04 #@! TO.C,1HL21*
X145025000Y-73550000D03*
X146775000Y-73550000D03*
X145025000Y-70050000D03*
X146775000Y-70050000D03*
G04 #@! TD*
G04 #@! TO.C,1HL22*
X158525000Y-70050000D03*
X156775000Y-70050000D03*
X158525000Y-73550000D03*
X156775000Y-73550000D03*
G04 #@! TD*
G04 #@! TO.C,1HL23*
X145025000Y-61450000D03*
X146775000Y-61450000D03*
X145025000Y-57950000D03*
X146775000Y-57950000D03*
G04 #@! TD*
G04 #@! TO.C,1HL24*
X134975000Y-57950000D03*
X133225000Y-57950000D03*
X134975000Y-61450000D03*
X133225000Y-61450000D03*
G04 #@! TD*
G04 #@! TO.C,1HL1*
X123225000Y-121300000D03*
X121475000Y-121300000D03*
X123225000Y-124800000D03*
X121475000Y-124800000D03*
G04 #@! TD*
G04 #@! TO.C,1HL2*
X133225000Y-124800000D03*
X134975000Y-124800000D03*
X133225000Y-121300000D03*
X134975000Y-121300000D03*
G04 #@! TD*
G04 #@! TO.C,1HL3*
X146775000Y-121300000D03*
X145025000Y-121300000D03*
X146775000Y-124800000D03*
X145025000Y-124800000D03*
G04 #@! TD*
G04 #@! TO.C,1HL4*
X156775000Y-124800000D03*
X158525000Y-124800000D03*
X156775000Y-121300000D03*
X158525000Y-121300000D03*
G04 #@! TD*
M02*
