M48
;DRILL file {KiCad (5.0.0)} date 10/19/18 16:20:20
;FORMAT={-:-/ absolute / metric / decimal}
FMAT,2
METRIC,TZ
T1C0.300
T2C0.800
T3C0.900
T4C1.016
%
G90
G05
M71
T1
X112.535Y-111.481
X115.578Y-117.8
X115.636Y-113.35
X116.218Y-120.701
X119.037Y-68.618
X119.291Y-120.169
X119.863Y-109.931
X120.307Y-75.374
X121.349Y-91.859
X121.475Y-88.734
X121.475Y-111.442
X121.895Y-102.044
X124.181Y-127.8
X124.854Y-76.86
X125.082Y-99.377
X126.174Y-129.807
X126.238Y-73.812
X127.305Y-95.288
X127.305Y-125.793
X127.546Y-86.563
X128.207Y-65.824
X129.286Y-68.847
X129.54Y-72.809
X130.637Y-61.45
X131.127Y-75.362
X131.661Y-109.957
X132.321Y-67.818
X133.225Y-88.699
X133.225Y-99.379
X133.225Y-111.47
X133.225Y-127.747
X136.487Y-72.047
X136.906Y-57.848
X137.008Y-85.344
X142.977Y-54.915
X143.358Y-109.957
X143.497Y-59.55
X143.612Y-67.894
X145.025Y-65.262
X145.025Y-88.731
X145.025Y-99.386
X145.025Y-111.477
X145.025Y-127.746
X148.12Y-75.197
X148.73Y-95.567
X151.727Y-73.635
X153.861Y-106.286
X154.127Y-113.106
X154.635Y-85.103
X155.13Y-110.071
X156.743Y-91.186
X156.775Y-75.228
X156.775Y-99.346
X156.775Y-111.461
X156.775Y-127.756
X158.775Y-76.543
X160.198Y-101.105
X162.796Y-109.85
X164.465Y-111.557
X164.528Y-81.102
X164.528Y-86.589
X164.655Y-118.897
X165.925Y-113.386
X167.386Y-111.1
X169.355Y-112.078
X172.1Y-124.254
X177.457Y-104.419
T2
X117.843Y-128.765
X117.843Y-131.265
X162.154Y-128.422
X162.154Y-130.922
T3
X153.416Y-75.264
X153.416Y-80.264
X108.712Y-124.413
X108.712Y-129.413
X127.127Y-75.264
X127.127Y-80.264
X151.638Y-99.394
X151.638Y-104.394
X128.524Y-99.394
X128.524Y-104.394
T4
X169.56Y-121.7
X172.1Y-121.7
X174.64Y-121.7
T0
M30
