G04 #@! TF.GenerationSoftware,KiCad,Pcbnew,(5.0.0)*
G04 #@! TF.CreationDate,2018-10-19T16:20:16+03:00*
G04 #@! TF.ProjectId,side_1,736964655F312E6B696361645F706362,rev?*
G04 #@! TF.SameCoordinates,Original*
G04 #@! TF.FileFunction,Legend,Top*
G04 #@! TF.FilePolarity,Positive*
%FSLAX46Y46*%
G04 Gerber Fmt 4.6, Leading zero omitted, Abs format (unit mm)*
G04 Created by KiCad (PCBNEW (5.0.0)) date 10/19/18 16:20:16*
%MOMM*%
%LPD*%
G01*
G04 APERTURE LIST*
%ADD10C,0.200000*%
%ADD11C,0.300000*%
%ADD12C,0.150000*%
%ADD13C,0.120000*%
%ADD14C,0.010000*%
G04 APERTURE END LIST*
D10*
X140970000Y-85090000D02*
X140970000Y-133350000D01*
X139065000Y-85090000D02*
X139065000Y-133350000D01*
D11*
X149721428Y-116248571D02*
X149721428Y-114748571D01*
X150578571Y-116248571D01*
X150578571Y-114748571D01*
X151292857Y-115462857D02*
X151792857Y-115462857D01*
X152007142Y-116248571D02*
X151292857Y-116248571D01*
X151292857Y-114748571D01*
X152007142Y-114748571D01*
X152935714Y-114748571D02*
X153221428Y-114748571D01*
X153364285Y-114820000D01*
X153507142Y-114962857D01*
X153578571Y-115248571D01*
X153578571Y-115748571D01*
X153507142Y-116034285D01*
X153364285Y-116177142D01*
X153221428Y-116248571D01*
X152935714Y-116248571D01*
X152792857Y-116177142D01*
X152650000Y-116034285D01*
X152578571Y-115748571D01*
X152578571Y-115248571D01*
X152650000Y-114962857D01*
X152792857Y-114820000D01*
X152935714Y-114748571D01*
X154221428Y-116248571D02*
X154221428Y-114748571D01*
X155078571Y-116248571D01*
X155078571Y-114748571D01*
D12*
G04 #@! TO.C,REF\002A\002A*
X129377000Y-74764000D02*
X129377000Y-80764000D01*
X124877000Y-80764000D02*
X124877000Y-74764000D01*
X151166000Y-80764000D02*
X151166000Y-74764000D01*
X155666000Y-74764000D02*
X155666000Y-80764000D01*
X110962000Y-123913000D02*
X110962000Y-129913000D01*
X106462000Y-129913000D02*
X106462000Y-123913000D01*
X126274000Y-104894000D02*
X126274000Y-98894000D01*
X130774000Y-98894000D02*
X130774000Y-104894000D01*
D13*
G04 #@! TO.C,1HL5*
X167450000Y-111050000D02*
X168525000Y-111050000D01*
X167450000Y-105150000D02*
X167450000Y-111050000D01*
X171350000Y-105150000D02*
X171350000Y-111050000D01*
G04 #@! TO.C,1HL6*
X159600000Y-105150000D02*
X159600000Y-111050000D01*
X155700000Y-105150000D02*
X155700000Y-111050000D01*
X155700000Y-111050000D02*
X156775000Y-111050000D01*
G04 #@! TO.C,1HL7*
X143950000Y-111050000D02*
X145025000Y-111050000D01*
X143950000Y-105150000D02*
X143950000Y-111050000D01*
X147850000Y-105150000D02*
X147850000Y-111050000D01*
G04 #@! TO.C,1HL8*
X136050000Y-105150000D02*
X136050000Y-111050000D01*
X132150000Y-105150000D02*
X132150000Y-111050000D01*
X132150000Y-111050000D02*
X133225000Y-111050000D01*
G04 #@! TO.C,1HL9*
X120400000Y-111050000D02*
X121475000Y-111050000D01*
X120400000Y-105150000D02*
X120400000Y-111050000D01*
X124300000Y-105150000D02*
X124300000Y-111050000D01*
G04 #@! TO.C,1HL10*
X108650000Y-111050000D02*
X109725000Y-111050000D01*
X108650000Y-105150000D02*
X108650000Y-111050000D01*
X112550000Y-105150000D02*
X112550000Y-111050000D01*
G04 #@! TO.C,1HL11*
X124300000Y-93050000D02*
X124300000Y-98950000D01*
X120400000Y-93050000D02*
X120400000Y-98950000D01*
X120400000Y-98950000D02*
X121475000Y-98950000D01*
G04 #@! TO.C,1HL12*
X132150000Y-98950000D02*
X133225000Y-98950000D01*
X132150000Y-93050000D02*
X132150000Y-98950000D01*
X136050000Y-93050000D02*
X136050000Y-98950000D01*
G04 #@! TO.C,1HL13*
X147850000Y-93050000D02*
X147850000Y-98950000D01*
X143950000Y-93050000D02*
X143950000Y-98950000D01*
X143950000Y-98950000D02*
X145025000Y-98950000D01*
G04 #@! TO.C,1HL14*
X155700000Y-98950000D02*
X156775000Y-98950000D01*
X155700000Y-93050000D02*
X155700000Y-98950000D01*
X159600000Y-93050000D02*
X159600000Y-98950000D01*
G04 #@! TO.C,1HL15*
X159600000Y-80950000D02*
X159600000Y-86850000D01*
X155700000Y-80950000D02*
X155700000Y-86850000D01*
X155700000Y-86850000D02*
X156775000Y-86850000D01*
G04 #@! TO.C,1HL16*
X143950000Y-86850000D02*
X145025000Y-86850000D01*
X143950000Y-80950000D02*
X143950000Y-86850000D01*
X147850000Y-80950000D02*
X147850000Y-86850000D01*
G04 #@! TO.C,1HL17*
X136050000Y-80950000D02*
X136050000Y-86850000D01*
X132150000Y-80950000D02*
X132150000Y-86850000D01*
X132150000Y-86850000D02*
X133225000Y-86850000D01*
G04 #@! TO.C,1HL18*
X120400000Y-86850000D02*
X121475000Y-86850000D01*
X120400000Y-80950000D02*
X120400000Y-86850000D01*
X124300000Y-80950000D02*
X124300000Y-86850000D01*
G04 #@! TO.C,1HL19*
X124300000Y-68850000D02*
X124300000Y-74750000D01*
X120400000Y-68850000D02*
X120400000Y-74750000D01*
X120400000Y-74750000D02*
X121475000Y-74750000D01*
D12*
G04 #@! TO.C,XP1*
X176190000Y-120400000D02*
X174640000Y-120400000D01*
X176190000Y-121700000D02*
X176190000Y-120400000D01*
X174767000Y-125891000D02*
X174767000Y-131733000D01*
X174767000Y-131733000D02*
X174513000Y-131733000D01*
X174513000Y-131733000D02*
X174513000Y-125891000D01*
X174513000Y-125891000D02*
X174640000Y-125891000D01*
X174640000Y-125891000D02*
X174640000Y-131733000D01*
X174894000Y-123224000D02*
X174894000Y-122843000D01*
X174386000Y-123224000D02*
X174386000Y-122843000D01*
X172354000Y-123224000D02*
X172354000Y-122843000D01*
X171846000Y-123224000D02*
X171846000Y-122843000D01*
X169814000Y-123224000D02*
X169814000Y-122843000D01*
X169306000Y-123224000D02*
X169306000Y-122843000D01*
X173370000Y-125764000D02*
X175910000Y-125764000D01*
X174386000Y-131860000D02*
X174386000Y-125764000D01*
X174894000Y-131860000D02*
X174386000Y-131860000D01*
X174894000Y-125764000D02*
X174894000Y-131860000D01*
X173370000Y-123224000D02*
X173370000Y-125764000D01*
X175910000Y-123224000D02*
X173370000Y-123224000D01*
X175910000Y-123224000D02*
X175910000Y-125764000D01*
X170830000Y-123224000D02*
X170830000Y-125764000D01*
X170830000Y-123224000D02*
X168290000Y-123224000D01*
X169814000Y-125764000D02*
X169814000Y-131860000D01*
X169814000Y-131860000D02*
X169306000Y-131860000D01*
X169306000Y-131860000D02*
X169306000Y-125764000D01*
X168290000Y-125764000D02*
X170830000Y-125764000D01*
X170830000Y-125764000D02*
X173370000Y-125764000D01*
X171846000Y-131860000D02*
X171846000Y-125764000D01*
X172354000Y-131860000D02*
X171846000Y-131860000D01*
X172354000Y-125764000D02*
X172354000Y-131860000D01*
X170830000Y-123224000D02*
X170830000Y-125764000D01*
X173370000Y-123224000D02*
X170830000Y-123224000D01*
X173370000Y-123224000D02*
X173370000Y-125764000D01*
X168290000Y-123224000D02*
X168290000Y-125764000D01*
D13*
G04 #@! TO.C,1HL20*
X132150000Y-74750000D02*
X133225000Y-74750000D01*
X132150000Y-68850000D02*
X132150000Y-74750000D01*
X136050000Y-68850000D02*
X136050000Y-74750000D01*
G04 #@! TO.C,1HL21*
X147850000Y-68850000D02*
X147850000Y-74750000D01*
X143950000Y-68850000D02*
X143950000Y-74750000D01*
X143950000Y-74750000D02*
X145025000Y-74750000D01*
G04 #@! TO.C,1HL22*
X155700000Y-74750000D02*
X156775000Y-74750000D01*
X155700000Y-68850000D02*
X155700000Y-74750000D01*
X159600000Y-68850000D02*
X159600000Y-74750000D01*
G04 #@! TO.C,1HL23*
X147850000Y-56750000D02*
X147850000Y-62650000D01*
X143950000Y-56750000D02*
X143950000Y-62650000D01*
X143950000Y-62650000D02*
X145025000Y-62650000D01*
G04 #@! TO.C,1HL24*
X132150000Y-62650000D02*
X133225000Y-62650000D01*
X132150000Y-56750000D02*
X132150000Y-62650000D01*
X136050000Y-56750000D02*
X136050000Y-62650000D01*
G04 #@! TO.C,1HL1*
X120400000Y-126000000D02*
X121475000Y-126000000D01*
X120400000Y-120100000D02*
X120400000Y-126000000D01*
X124300000Y-120100000D02*
X124300000Y-126000000D01*
G04 #@! TO.C,1HL2*
X136050000Y-120100000D02*
X136050000Y-126000000D01*
X132150000Y-120100000D02*
X132150000Y-126000000D01*
X132150000Y-126000000D02*
X133225000Y-126000000D01*
G04 #@! TO.C,1HL3*
X143950000Y-126000000D02*
X145025000Y-126000000D01*
X143950000Y-120100000D02*
X143950000Y-126000000D01*
X147850000Y-120100000D02*
X147850000Y-126000000D01*
G04 #@! TO.C,1HL4*
X159600000Y-120100000D02*
X159600000Y-126000000D01*
X155700000Y-120100000D02*
X155700000Y-126000000D01*
X155700000Y-126000000D02*
X156775000Y-126000000D01*
D12*
G04 #@! TO.C,C1*
X164652600Y-129747400D02*
X159654600Y-129747400D01*
X164644600Y-129887400D02*
X159662600Y-129887400D01*
X164628600Y-130027400D02*
X162248600Y-130027400D01*
X162058600Y-130027400D02*
X159678600Y-130027400D01*
X164604600Y-130167400D02*
X162643600Y-130167400D01*
X161663600Y-130167400D02*
X159702600Y-130167400D01*
X164571600Y-130307400D02*
X162810600Y-130307400D01*
X161496600Y-130307400D02*
X159735600Y-130307400D01*
X164530600Y-130447400D02*
X162917600Y-130447400D01*
X161389600Y-130447400D02*
X159776600Y-130447400D01*
X164480600Y-130587400D02*
X162988600Y-130587400D01*
X161318600Y-130587400D02*
X159826600Y-130587400D01*
X164419600Y-130727400D02*
X163032600Y-130727400D01*
X161274600Y-130727400D02*
X159887600Y-130727400D01*
X164349600Y-130867400D02*
X163051600Y-130867400D01*
X161255600Y-130867400D02*
X159957600Y-130867400D01*
X164267600Y-131007400D02*
X163049600Y-131007400D01*
X161257600Y-131007400D02*
X160039600Y-131007400D01*
X164172600Y-131147400D02*
X163024600Y-131147400D01*
X161282600Y-131147400D02*
X160134600Y-131147400D01*
X164061600Y-131287400D02*
X162976600Y-131287400D01*
X161330600Y-131287400D02*
X160245600Y-131287400D01*
X163933600Y-131427400D02*
X162898600Y-131427400D01*
X161408600Y-131427400D02*
X160373600Y-131427400D01*
X163784600Y-131567400D02*
X162781600Y-131567400D01*
X161525600Y-131567400D02*
X160522600Y-131567400D01*
X163605600Y-131707400D02*
X162593600Y-131707400D01*
X161713600Y-131707400D02*
X160701600Y-131707400D01*
X163386600Y-131847400D02*
X160920600Y-131847400D01*
X163097600Y-131987400D02*
X161209600Y-131987400D01*
X162625600Y-132127400D02*
X161681600Y-132127400D01*
X163053600Y-130922400D02*
G75*
G03X163053600Y-130922400I-900000J0D01*
G01*
X164691100Y-129672400D02*
G75*
G03X164691100Y-129672400I-2537500J0D01*
G01*
G04 #@! TO.C,REF\002A\002A*
X153888000Y-98894000D02*
X153888000Y-104894000D01*
X149388000Y-104894000D02*
X149388000Y-98894000D01*
D14*
G04 #@! TO.C,REF\002A\002A\002A*
G36*
X102148410Y-123480348D02*
X102226954Y-123480778D01*
X102283798Y-123481942D01*
X102322605Y-123484207D01*
X102347038Y-123487940D01*
X102360762Y-123493506D01*
X102367440Y-123501273D01*
X102370736Y-123511605D01*
X102371056Y-123512943D01*
X102376062Y-123537079D01*
X102385329Y-123584701D01*
X102397892Y-123650741D01*
X102412787Y-123730128D01*
X102429051Y-123817796D01*
X102429619Y-123820875D01*
X102445910Y-123906789D01*
X102461152Y-123982696D01*
X102474361Y-124044045D01*
X102484554Y-124086282D01*
X102490748Y-124104855D01*
X102491043Y-124105184D01*
X102509288Y-124114253D01*
X102546905Y-124129367D01*
X102595771Y-124147262D01*
X102596043Y-124147358D01*
X102657593Y-124170493D01*
X102730157Y-124199965D01*
X102798557Y-124229597D01*
X102801794Y-124231062D01*
X102913202Y-124281626D01*
X103159899Y-124113160D01*
X103235577Y-124061803D01*
X103304131Y-124015889D01*
X103361588Y-123978030D01*
X103403976Y-123950837D01*
X103427325Y-123936921D01*
X103429542Y-123935889D01*
X103446510Y-123940484D01*
X103478201Y-123962655D01*
X103525852Y-124003447D01*
X103590698Y-124063905D01*
X103656897Y-124128227D01*
X103720714Y-124191612D01*
X103777829Y-124249451D01*
X103824805Y-124298175D01*
X103858203Y-124334210D01*
X103874585Y-124353984D01*
X103875194Y-124355002D01*
X103877005Y-124368572D01*
X103870183Y-124390733D01*
X103853040Y-124424478D01*
X103823893Y-124472800D01*
X103781055Y-124538692D01*
X103723948Y-124623517D01*
X103673266Y-124698177D01*
X103627961Y-124765140D01*
X103590650Y-124820516D01*
X103563952Y-124860420D01*
X103550485Y-124880962D01*
X103549637Y-124882356D01*
X103551281Y-124902038D01*
X103563745Y-124940293D01*
X103584548Y-124989889D01*
X103591962Y-125005728D01*
X103624314Y-125076290D01*
X103658828Y-125156353D01*
X103686865Y-125225629D01*
X103707068Y-125277045D01*
X103723115Y-125316119D01*
X103732388Y-125336541D01*
X103733541Y-125338114D01*
X103750596Y-125340721D01*
X103790798Y-125347863D01*
X103848802Y-125358523D01*
X103919263Y-125371685D01*
X103996835Y-125386333D01*
X104076172Y-125401449D01*
X104151931Y-125416018D01*
X104218764Y-125429022D01*
X104271328Y-125439445D01*
X104304276Y-125446270D01*
X104312357Y-125448199D01*
X104320705Y-125452962D01*
X104327006Y-125463718D01*
X104331545Y-125484098D01*
X104334604Y-125517734D01*
X104336467Y-125568255D01*
X104337418Y-125639292D01*
X104337740Y-125734476D01*
X104337757Y-125773492D01*
X104337757Y-126090799D01*
X104261557Y-126105839D01*
X104219163Y-126113995D01*
X104155900Y-126125899D01*
X104079462Y-126140116D01*
X103997543Y-126155210D01*
X103974900Y-126159355D01*
X103899306Y-126174053D01*
X103833453Y-126188505D01*
X103782866Y-126201375D01*
X103753074Y-126211322D01*
X103748112Y-126214287D01*
X103735926Y-126235283D01*
X103718453Y-126275967D01*
X103699077Y-126328322D01*
X103695234Y-126339600D01*
X103669839Y-126409523D01*
X103638317Y-126488418D01*
X103607469Y-126559266D01*
X103607317Y-126559595D01*
X103555947Y-126670733D01*
X103724899Y-126919253D01*
X103893852Y-127167772D01*
X103676929Y-127385058D01*
X103611319Y-127449726D01*
X103551479Y-127506733D01*
X103500767Y-127553033D01*
X103462546Y-127585584D01*
X103440175Y-127601343D01*
X103436966Y-127602343D01*
X103418126Y-127594469D01*
X103379680Y-127572578D01*
X103325830Y-127539267D01*
X103260776Y-127497131D01*
X103190440Y-127449943D01*
X103119055Y-127401810D01*
X103055408Y-127359928D01*
X103003541Y-127326871D01*
X102967495Y-127305218D01*
X102951367Y-127297543D01*
X102931689Y-127304037D01*
X102894375Y-127321150D01*
X102847121Y-127345326D01*
X102842112Y-127348013D01*
X102778477Y-127379927D01*
X102734841Y-127395579D01*
X102707702Y-127395745D01*
X102693557Y-127381204D01*
X102693475Y-127381000D01*
X102686405Y-127363779D01*
X102669542Y-127322899D01*
X102644195Y-127261525D01*
X102611671Y-127182819D01*
X102573278Y-127089947D01*
X102530322Y-126986072D01*
X102488722Y-126885502D01*
X102443004Y-126774516D01*
X102401026Y-126671703D01*
X102364048Y-126580215D01*
X102333327Y-126503201D01*
X102310122Y-126443815D01*
X102295690Y-126405209D01*
X102291243Y-126390800D01*
X102302396Y-126374272D01*
X102331569Y-126347930D01*
X102370471Y-126318887D01*
X102481257Y-126227039D01*
X102567851Y-126121759D01*
X102629216Y-126005266D01*
X102664315Y-125879776D01*
X102672108Y-125747507D01*
X102666443Y-125686457D01*
X102635578Y-125559795D01*
X102582420Y-125447941D01*
X102510267Y-125352001D01*
X102422417Y-125273076D01*
X102322165Y-125212270D01*
X102212810Y-125170687D01*
X102097647Y-125149428D01*
X101979975Y-125149599D01*
X101863090Y-125172301D01*
X101750289Y-125218638D01*
X101644869Y-125289713D01*
X101600868Y-125329911D01*
X101516479Y-125433129D01*
X101457722Y-125545925D01*
X101424204Y-125665010D01*
X101415535Y-125787095D01*
X101431323Y-125908893D01*
X101471178Y-126027116D01*
X101534707Y-126138475D01*
X101621521Y-126239684D01*
X101718529Y-126318887D01*
X101758937Y-126349162D01*
X101787482Y-126375219D01*
X101797757Y-126390825D01*
X101792377Y-126407843D01*
X101777075Y-126448500D01*
X101753112Y-126509642D01*
X101721744Y-126588119D01*
X101684232Y-126680780D01*
X101641833Y-126784472D01*
X101600163Y-126885526D01*
X101554190Y-126996607D01*
X101511607Y-127099541D01*
X101473721Y-127191165D01*
X101441840Y-127268316D01*
X101417271Y-127327831D01*
X101401320Y-127366544D01*
X101395410Y-127381000D01*
X101381448Y-127395685D01*
X101354440Y-127395642D01*
X101310913Y-127380099D01*
X101247390Y-127348284D01*
X101246888Y-127348013D01*
X101199060Y-127323323D01*
X101160397Y-127305338D01*
X101138595Y-127297614D01*
X101137633Y-127297543D01*
X101121221Y-127305378D01*
X101084987Y-127327165D01*
X101032974Y-127360328D01*
X100969225Y-127402291D01*
X100898560Y-127449943D01*
X100826616Y-127498191D01*
X100761774Y-127540151D01*
X100708235Y-127573227D01*
X100670197Y-127594821D01*
X100652033Y-127602343D01*
X100635308Y-127592457D01*
X100601680Y-127564826D01*
X100554510Y-127522495D01*
X100497158Y-127468505D01*
X100432984Y-127405899D01*
X100411997Y-127384983D01*
X100194999Y-127167623D01*
X100360168Y-126925220D01*
X100410364Y-126850781D01*
X100454419Y-126783972D01*
X100489862Y-126728665D01*
X100514219Y-126688729D01*
X100525022Y-126668036D01*
X100525338Y-126666563D01*
X100519643Y-126647058D01*
X100504326Y-126607822D01*
X100482037Y-126555430D01*
X100466393Y-126520355D01*
X100437141Y-126453201D01*
X100409594Y-126385358D01*
X100388237Y-126328034D01*
X100382435Y-126310572D01*
X100365952Y-126263938D01*
X100349840Y-126227905D01*
X100340990Y-126214287D01*
X100321460Y-126205952D01*
X100278834Y-126194137D01*
X100218645Y-126180181D01*
X100146422Y-126165422D01*
X100114100Y-126159355D01*
X100032022Y-126144273D01*
X99953295Y-126129669D01*
X99885609Y-126116980D01*
X99836660Y-126107642D01*
X99827443Y-126105839D01*
X99751243Y-126090799D01*
X99751243Y-125773492D01*
X99751414Y-125669154D01*
X99752116Y-125590213D01*
X99753634Y-125533038D01*
X99756249Y-125493999D01*
X99760246Y-125469465D01*
X99765909Y-125455805D01*
X99773520Y-125449389D01*
X99776643Y-125448199D01*
X99795478Y-125443980D01*
X99837088Y-125435562D01*
X99896130Y-125423961D01*
X99967257Y-125410195D01*
X100045125Y-125395280D01*
X100124387Y-125380232D01*
X100199698Y-125366069D01*
X100265713Y-125353806D01*
X100317087Y-125344461D01*
X100348475Y-125339050D01*
X100355459Y-125338114D01*
X100361785Y-125325596D01*
X100375790Y-125292246D01*
X100394855Y-125244377D01*
X100402134Y-125225629D01*
X100431496Y-125153195D01*
X100466071Y-125073170D01*
X100497037Y-125005728D01*
X100519823Y-124954159D01*
X100534982Y-124911785D01*
X100540042Y-124885834D01*
X100539236Y-124882356D01*
X100528541Y-124865936D01*
X100504120Y-124829417D01*
X100468595Y-124776687D01*
X100424587Y-124711635D01*
X100374717Y-124638151D01*
X100364856Y-124623645D01*
X100306992Y-124537704D01*
X100264456Y-124472261D01*
X100235554Y-124424304D01*
X100218590Y-124390820D01*
X100211867Y-124368795D01*
X100213690Y-124355217D01*
X100213736Y-124355131D01*
X100228086Y-124337297D01*
X100259823Y-124302817D01*
X100305510Y-124255268D01*
X100361704Y-124198222D01*
X100424968Y-124135255D01*
X100432102Y-124128227D01*
X100511830Y-124051020D01*
X100573357Y-123994330D01*
X100617921Y-123957110D01*
X100646757Y-123938315D01*
X100659458Y-123935889D01*
X100677994Y-123946471D01*
X100716461Y-123970916D01*
X100770886Y-124006612D01*
X100837298Y-124050947D01*
X100911725Y-124101311D01*
X100929101Y-124113160D01*
X101175797Y-124281626D01*
X101287206Y-124231062D01*
X101354957Y-124201595D01*
X101427683Y-124171959D01*
X101490203Y-124148330D01*
X101492957Y-124147358D01*
X101541860Y-124129457D01*
X101579557Y-124114320D01*
X101597925Y-124105210D01*
X101597956Y-124105184D01*
X101603785Y-124088717D01*
X101613692Y-124048219D01*
X101626695Y-123988242D01*
X101641809Y-123913340D01*
X101658052Y-123828064D01*
X101659381Y-123820875D01*
X101675675Y-123733014D01*
X101690633Y-123653260D01*
X101703291Y-123586681D01*
X101712686Y-123538347D01*
X101717854Y-123513325D01*
X101717944Y-123512943D01*
X101721089Y-123502299D01*
X101727204Y-123494262D01*
X101739953Y-123488467D01*
X101763000Y-123484547D01*
X101800009Y-123482135D01*
X101854644Y-123480865D01*
X101930567Y-123480371D01*
X102031444Y-123480286D01*
X102044500Y-123480286D01*
X102148410Y-123480348D01*
X102148410Y-123480348D01*
G37*
X102148410Y-123480348D02*
X102226954Y-123480778D01*
X102283798Y-123481942D01*
X102322605Y-123484207D01*
X102347038Y-123487940D01*
X102360762Y-123493506D01*
X102367440Y-123501273D01*
X102370736Y-123511605D01*
X102371056Y-123512943D01*
X102376062Y-123537079D01*
X102385329Y-123584701D01*
X102397892Y-123650741D01*
X102412787Y-123730128D01*
X102429051Y-123817796D01*
X102429619Y-123820875D01*
X102445910Y-123906789D01*
X102461152Y-123982696D01*
X102474361Y-124044045D01*
X102484554Y-124086282D01*
X102490748Y-124104855D01*
X102491043Y-124105184D01*
X102509288Y-124114253D01*
X102546905Y-124129367D01*
X102595771Y-124147262D01*
X102596043Y-124147358D01*
X102657593Y-124170493D01*
X102730157Y-124199965D01*
X102798557Y-124229597D01*
X102801794Y-124231062D01*
X102913202Y-124281626D01*
X103159899Y-124113160D01*
X103235577Y-124061803D01*
X103304131Y-124015889D01*
X103361588Y-123978030D01*
X103403976Y-123950837D01*
X103427325Y-123936921D01*
X103429542Y-123935889D01*
X103446510Y-123940484D01*
X103478201Y-123962655D01*
X103525852Y-124003447D01*
X103590698Y-124063905D01*
X103656897Y-124128227D01*
X103720714Y-124191612D01*
X103777829Y-124249451D01*
X103824805Y-124298175D01*
X103858203Y-124334210D01*
X103874585Y-124353984D01*
X103875194Y-124355002D01*
X103877005Y-124368572D01*
X103870183Y-124390733D01*
X103853040Y-124424478D01*
X103823893Y-124472800D01*
X103781055Y-124538692D01*
X103723948Y-124623517D01*
X103673266Y-124698177D01*
X103627961Y-124765140D01*
X103590650Y-124820516D01*
X103563952Y-124860420D01*
X103550485Y-124880962D01*
X103549637Y-124882356D01*
X103551281Y-124902038D01*
X103563745Y-124940293D01*
X103584548Y-124989889D01*
X103591962Y-125005728D01*
X103624314Y-125076290D01*
X103658828Y-125156353D01*
X103686865Y-125225629D01*
X103707068Y-125277045D01*
X103723115Y-125316119D01*
X103732388Y-125336541D01*
X103733541Y-125338114D01*
X103750596Y-125340721D01*
X103790798Y-125347863D01*
X103848802Y-125358523D01*
X103919263Y-125371685D01*
X103996835Y-125386333D01*
X104076172Y-125401449D01*
X104151931Y-125416018D01*
X104218764Y-125429022D01*
X104271328Y-125439445D01*
X104304276Y-125446270D01*
X104312357Y-125448199D01*
X104320705Y-125452962D01*
X104327006Y-125463718D01*
X104331545Y-125484098D01*
X104334604Y-125517734D01*
X104336467Y-125568255D01*
X104337418Y-125639292D01*
X104337740Y-125734476D01*
X104337757Y-125773492D01*
X104337757Y-126090799D01*
X104261557Y-126105839D01*
X104219163Y-126113995D01*
X104155900Y-126125899D01*
X104079462Y-126140116D01*
X103997543Y-126155210D01*
X103974900Y-126159355D01*
X103899306Y-126174053D01*
X103833453Y-126188505D01*
X103782866Y-126201375D01*
X103753074Y-126211322D01*
X103748112Y-126214287D01*
X103735926Y-126235283D01*
X103718453Y-126275967D01*
X103699077Y-126328322D01*
X103695234Y-126339600D01*
X103669839Y-126409523D01*
X103638317Y-126488418D01*
X103607469Y-126559266D01*
X103607317Y-126559595D01*
X103555947Y-126670733D01*
X103724899Y-126919253D01*
X103893852Y-127167772D01*
X103676929Y-127385058D01*
X103611319Y-127449726D01*
X103551479Y-127506733D01*
X103500767Y-127553033D01*
X103462546Y-127585584D01*
X103440175Y-127601343D01*
X103436966Y-127602343D01*
X103418126Y-127594469D01*
X103379680Y-127572578D01*
X103325830Y-127539267D01*
X103260776Y-127497131D01*
X103190440Y-127449943D01*
X103119055Y-127401810D01*
X103055408Y-127359928D01*
X103003541Y-127326871D01*
X102967495Y-127305218D01*
X102951367Y-127297543D01*
X102931689Y-127304037D01*
X102894375Y-127321150D01*
X102847121Y-127345326D01*
X102842112Y-127348013D01*
X102778477Y-127379927D01*
X102734841Y-127395579D01*
X102707702Y-127395745D01*
X102693557Y-127381204D01*
X102693475Y-127381000D01*
X102686405Y-127363779D01*
X102669542Y-127322899D01*
X102644195Y-127261525D01*
X102611671Y-127182819D01*
X102573278Y-127089947D01*
X102530322Y-126986072D01*
X102488722Y-126885502D01*
X102443004Y-126774516D01*
X102401026Y-126671703D01*
X102364048Y-126580215D01*
X102333327Y-126503201D01*
X102310122Y-126443815D01*
X102295690Y-126405209D01*
X102291243Y-126390800D01*
X102302396Y-126374272D01*
X102331569Y-126347930D01*
X102370471Y-126318887D01*
X102481257Y-126227039D01*
X102567851Y-126121759D01*
X102629216Y-126005266D01*
X102664315Y-125879776D01*
X102672108Y-125747507D01*
X102666443Y-125686457D01*
X102635578Y-125559795D01*
X102582420Y-125447941D01*
X102510267Y-125352001D01*
X102422417Y-125273076D01*
X102322165Y-125212270D01*
X102212810Y-125170687D01*
X102097647Y-125149428D01*
X101979975Y-125149599D01*
X101863090Y-125172301D01*
X101750289Y-125218638D01*
X101644869Y-125289713D01*
X101600868Y-125329911D01*
X101516479Y-125433129D01*
X101457722Y-125545925D01*
X101424204Y-125665010D01*
X101415535Y-125787095D01*
X101431323Y-125908893D01*
X101471178Y-126027116D01*
X101534707Y-126138475D01*
X101621521Y-126239684D01*
X101718529Y-126318887D01*
X101758937Y-126349162D01*
X101787482Y-126375219D01*
X101797757Y-126390825D01*
X101792377Y-126407843D01*
X101777075Y-126448500D01*
X101753112Y-126509642D01*
X101721744Y-126588119D01*
X101684232Y-126680780D01*
X101641833Y-126784472D01*
X101600163Y-126885526D01*
X101554190Y-126996607D01*
X101511607Y-127099541D01*
X101473721Y-127191165D01*
X101441840Y-127268316D01*
X101417271Y-127327831D01*
X101401320Y-127366544D01*
X101395410Y-127381000D01*
X101381448Y-127395685D01*
X101354440Y-127395642D01*
X101310913Y-127380099D01*
X101247390Y-127348284D01*
X101246888Y-127348013D01*
X101199060Y-127323323D01*
X101160397Y-127305338D01*
X101138595Y-127297614D01*
X101137633Y-127297543D01*
X101121221Y-127305378D01*
X101084987Y-127327165D01*
X101032974Y-127360328D01*
X100969225Y-127402291D01*
X100898560Y-127449943D01*
X100826616Y-127498191D01*
X100761774Y-127540151D01*
X100708235Y-127573227D01*
X100670197Y-127594821D01*
X100652033Y-127602343D01*
X100635308Y-127592457D01*
X100601680Y-127564826D01*
X100554510Y-127522495D01*
X100497158Y-127468505D01*
X100432984Y-127405899D01*
X100411997Y-127384983D01*
X100194999Y-127167623D01*
X100360168Y-126925220D01*
X100410364Y-126850781D01*
X100454419Y-126783972D01*
X100489862Y-126728665D01*
X100514219Y-126688729D01*
X100525022Y-126668036D01*
X100525338Y-126666563D01*
X100519643Y-126647058D01*
X100504326Y-126607822D01*
X100482037Y-126555430D01*
X100466393Y-126520355D01*
X100437141Y-126453201D01*
X100409594Y-126385358D01*
X100388237Y-126328034D01*
X100382435Y-126310572D01*
X100365952Y-126263938D01*
X100349840Y-126227905D01*
X100340990Y-126214287D01*
X100321460Y-126205952D01*
X100278834Y-126194137D01*
X100218645Y-126180181D01*
X100146422Y-126165422D01*
X100114100Y-126159355D01*
X100032022Y-126144273D01*
X99953295Y-126129669D01*
X99885609Y-126116980D01*
X99836660Y-126107642D01*
X99827443Y-126105839D01*
X99751243Y-126090799D01*
X99751243Y-125773492D01*
X99751414Y-125669154D01*
X99752116Y-125590213D01*
X99753634Y-125533038D01*
X99756249Y-125493999D01*
X99760246Y-125469465D01*
X99765909Y-125455805D01*
X99773520Y-125449389D01*
X99776643Y-125448199D01*
X99795478Y-125443980D01*
X99837088Y-125435562D01*
X99896130Y-125423961D01*
X99967257Y-125410195D01*
X100045125Y-125395280D01*
X100124387Y-125380232D01*
X100199698Y-125366069D01*
X100265713Y-125353806D01*
X100317087Y-125344461D01*
X100348475Y-125339050D01*
X100355459Y-125338114D01*
X100361785Y-125325596D01*
X100375790Y-125292246D01*
X100394855Y-125244377D01*
X100402134Y-125225629D01*
X100431496Y-125153195D01*
X100466071Y-125073170D01*
X100497037Y-125005728D01*
X100519823Y-124954159D01*
X100534982Y-124911785D01*
X100540042Y-124885834D01*
X100539236Y-124882356D01*
X100528541Y-124865936D01*
X100504120Y-124829417D01*
X100468595Y-124776687D01*
X100424587Y-124711635D01*
X100374717Y-124638151D01*
X100364856Y-124623645D01*
X100306992Y-124537704D01*
X100264456Y-124472261D01*
X100235554Y-124424304D01*
X100218590Y-124390820D01*
X100211867Y-124368795D01*
X100213690Y-124355217D01*
X100213736Y-124355131D01*
X100228086Y-124337297D01*
X100259823Y-124302817D01*
X100305510Y-124255268D01*
X100361704Y-124198222D01*
X100424968Y-124135255D01*
X100432102Y-124128227D01*
X100511830Y-124051020D01*
X100573357Y-123994330D01*
X100617921Y-123957110D01*
X100646757Y-123938315D01*
X100659458Y-123935889D01*
X100677994Y-123946471D01*
X100716461Y-123970916D01*
X100770886Y-124006612D01*
X100837298Y-124050947D01*
X100911725Y-124101311D01*
X100929101Y-124113160D01*
X101175797Y-124281626D01*
X101287206Y-124231062D01*
X101354957Y-124201595D01*
X101427683Y-124171959D01*
X101490203Y-124148330D01*
X101492957Y-124147358D01*
X101541860Y-124129457D01*
X101579557Y-124114320D01*
X101597925Y-124105210D01*
X101597956Y-124105184D01*
X101603785Y-124088717D01*
X101613692Y-124048219D01*
X101626695Y-123988242D01*
X101641809Y-123913340D01*
X101658052Y-123828064D01*
X101659381Y-123820875D01*
X101675675Y-123733014D01*
X101690633Y-123653260D01*
X101703291Y-123586681D01*
X101712686Y-123538347D01*
X101717854Y-123513325D01*
X101717944Y-123512943D01*
X101721089Y-123502299D01*
X101727204Y-123494262D01*
X101739953Y-123488467D01*
X101763000Y-123484547D01*
X101800009Y-123482135D01*
X101854644Y-123480865D01*
X101930567Y-123480371D01*
X102031444Y-123480286D01*
X102044500Y-123480286D01*
X102148410Y-123480348D01*
G36*
X105198095Y-128204966D02*
X105255521Y-128242497D01*
X105283219Y-128276096D01*
X105305162Y-128337064D01*
X105306905Y-128385308D01*
X105302957Y-128449816D01*
X105154186Y-128514934D01*
X105081849Y-128548202D01*
X105034584Y-128574964D01*
X105010007Y-128598144D01*
X105005737Y-128620667D01*
X105019389Y-128645455D01*
X105034443Y-128661886D01*
X105078246Y-128688235D01*
X105125889Y-128690081D01*
X105169645Y-128669546D01*
X105201789Y-128628752D01*
X105207538Y-128614347D01*
X105235076Y-128569356D01*
X105266758Y-128550182D01*
X105310214Y-128533779D01*
X105310214Y-128595966D01*
X105306372Y-128638283D01*
X105291323Y-128673969D01*
X105259780Y-128714943D01*
X105255092Y-128720267D01*
X105220006Y-128756720D01*
X105189847Y-128776283D01*
X105152115Y-128785283D01*
X105120835Y-128788230D01*
X105064885Y-128788965D01*
X105025055Y-128779660D01*
X105000208Y-128765846D01*
X104961156Y-128735467D01*
X104934125Y-128702613D01*
X104917017Y-128661294D01*
X104907738Y-128605521D01*
X104904193Y-128529305D01*
X104903910Y-128490622D01*
X104904872Y-128444247D01*
X104992507Y-128444247D01*
X104993523Y-128469126D01*
X104996056Y-128473200D01*
X105012774Y-128467665D01*
X105048749Y-128453017D01*
X105096831Y-128432190D01*
X105106886Y-128427714D01*
X105167652Y-128396814D01*
X105201132Y-128369657D01*
X105208490Y-128344220D01*
X105190891Y-128318481D01*
X105176356Y-128307109D01*
X105123910Y-128284364D01*
X105074822Y-128288122D01*
X105033727Y-128315884D01*
X105005258Y-128365152D01*
X104996131Y-128404257D01*
X104992507Y-128444247D01*
X104904872Y-128444247D01*
X104905785Y-128400249D01*
X104912696Y-128333384D01*
X104926384Y-128284695D01*
X104948596Y-128248849D01*
X104981074Y-128220513D01*
X104995233Y-128211355D01*
X105059553Y-128187507D01*
X105129973Y-128186006D01*
X105198095Y-128204966D01*
X105198095Y-128204966D01*
G37*
X105198095Y-128204966D02*
X105255521Y-128242497D01*
X105283219Y-128276096D01*
X105305162Y-128337064D01*
X105306905Y-128385308D01*
X105302957Y-128449816D01*
X105154186Y-128514934D01*
X105081849Y-128548202D01*
X105034584Y-128574964D01*
X105010007Y-128598144D01*
X105005737Y-128620667D01*
X105019389Y-128645455D01*
X105034443Y-128661886D01*
X105078246Y-128688235D01*
X105125889Y-128690081D01*
X105169645Y-128669546D01*
X105201789Y-128628752D01*
X105207538Y-128614347D01*
X105235076Y-128569356D01*
X105266758Y-128550182D01*
X105310214Y-128533779D01*
X105310214Y-128595966D01*
X105306372Y-128638283D01*
X105291323Y-128673969D01*
X105259780Y-128714943D01*
X105255092Y-128720267D01*
X105220006Y-128756720D01*
X105189847Y-128776283D01*
X105152115Y-128785283D01*
X105120835Y-128788230D01*
X105064885Y-128788965D01*
X105025055Y-128779660D01*
X105000208Y-128765846D01*
X104961156Y-128735467D01*
X104934125Y-128702613D01*
X104917017Y-128661294D01*
X104907738Y-128605521D01*
X104904193Y-128529305D01*
X104903910Y-128490622D01*
X104904872Y-128444247D01*
X104992507Y-128444247D01*
X104993523Y-128469126D01*
X104996056Y-128473200D01*
X105012774Y-128467665D01*
X105048749Y-128453017D01*
X105096831Y-128432190D01*
X105106886Y-128427714D01*
X105167652Y-128396814D01*
X105201132Y-128369657D01*
X105208490Y-128344220D01*
X105190891Y-128318481D01*
X105176356Y-128307109D01*
X105123910Y-128284364D01*
X105074822Y-128288122D01*
X105033727Y-128315884D01*
X105005258Y-128365152D01*
X104996131Y-128404257D01*
X104992507Y-128444247D01*
X104904872Y-128444247D01*
X104905785Y-128400249D01*
X104912696Y-128333384D01*
X104926384Y-128284695D01*
X104948596Y-128248849D01*
X104981074Y-128220513D01*
X104995233Y-128211355D01*
X105059553Y-128187507D01*
X105129973Y-128186006D01*
X105198095Y-128204966D01*
G36*
X104697100Y-128196752D02*
X104714448Y-128204334D01*
X104755856Y-128237128D01*
X104791265Y-128284547D01*
X104813164Y-128335151D01*
X104816729Y-128360098D01*
X104804779Y-128394927D01*
X104778567Y-128413357D01*
X104750464Y-128424516D01*
X104737595Y-128426572D01*
X104731329Y-128411649D01*
X104718956Y-128379175D01*
X104713528Y-128364502D01*
X104683090Y-128313744D01*
X104639020Y-128288427D01*
X104582510Y-128289206D01*
X104578325Y-128290203D01*
X104548155Y-128304507D01*
X104525976Y-128332393D01*
X104510827Y-128377287D01*
X104501750Y-128442615D01*
X104497786Y-128531804D01*
X104497414Y-128579261D01*
X104497230Y-128654071D01*
X104496022Y-128705069D01*
X104492809Y-128737471D01*
X104486609Y-128756495D01*
X104476440Y-128767356D01*
X104461319Y-128775272D01*
X104460446Y-128775670D01*
X104431328Y-128787981D01*
X104416903Y-128792514D01*
X104414686Y-128778809D01*
X104412789Y-128740925D01*
X104411347Y-128683715D01*
X104410498Y-128612027D01*
X104410329Y-128559565D01*
X104411192Y-128458047D01*
X104414570Y-128381032D01*
X104421642Y-128324023D01*
X104433588Y-128282526D01*
X104451590Y-128252043D01*
X104476827Y-128228080D01*
X104501747Y-128211355D01*
X104561671Y-128189097D01*
X104631411Y-128184076D01*
X104697100Y-128196752D01*
X104697100Y-128196752D01*
G37*
X104697100Y-128196752D02*
X104714448Y-128204334D01*
X104755856Y-128237128D01*
X104791265Y-128284547D01*
X104813164Y-128335151D01*
X104816729Y-128360098D01*
X104804779Y-128394927D01*
X104778567Y-128413357D01*
X104750464Y-128424516D01*
X104737595Y-128426572D01*
X104731329Y-128411649D01*
X104718956Y-128379175D01*
X104713528Y-128364502D01*
X104683090Y-128313744D01*
X104639020Y-128288427D01*
X104582510Y-128289206D01*
X104578325Y-128290203D01*
X104548155Y-128304507D01*
X104525976Y-128332393D01*
X104510827Y-128377287D01*
X104501750Y-128442615D01*
X104497786Y-128531804D01*
X104497414Y-128579261D01*
X104497230Y-128654071D01*
X104496022Y-128705069D01*
X104492809Y-128737471D01*
X104486609Y-128756495D01*
X104476440Y-128767356D01*
X104461319Y-128775272D01*
X104460446Y-128775670D01*
X104431328Y-128787981D01*
X104416903Y-128792514D01*
X104414686Y-128778809D01*
X104412789Y-128740925D01*
X104411347Y-128683715D01*
X104410498Y-128612027D01*
X104410329Y-128559565D01*
X104411192Y-128458047D01*
X104414570Y-128381032D01*
X104421642Y-128324023D01*
X104433588Y-128282526D01*
X104451590Y-128252043D01*
X104476827Y-128228080D01*
X104501747Y-128211355D01*
X104561671Y-128189097D01*
X104631411Y-128184076D01*
X104697100Y-128196752D01*
G36*
X104189376Y-128194335D02*
X104231167Y-128213344D01*
X104263969Y-128236378D01*
X104288003Y-128262133D01*
X104304597Y-128295358D01*
X104315077Y-128340800D01*
X104320771Y-128403207D01*
X104323007Y-128487327D01*
X104323243Y-128542721D01*
X104323243Y-128758826D01*
X104286274Y-128775670D01*
X104257156Y-128787981D01*
X104242731Y-128792514D01*
X104239972Y-128779025D01*
X104237782Y-128742653D01*
X104236442Y-128689542D01*
X104236157Y-128647372D01*
X104234934Y-128586447D01*
X104231636Y-128538115D01*
X104226821Y-128508518D01*
X104222996Y-128502229D01*
X104197283Y-128508652D01*
X104156918Y-128525125D01*
X104110179Y-128547458D01*
X104065345Y-128571457D01*
X104030693Y-128592930D01*
X104014502Y-128607685D01*
X104014438Y-128607845D01*
X104015830Y-128635152D01*
X104028318Y-128661219D01*
X104050243Y-128682392D01*
X104082243Y-128689474D01*
X104109592Y-128688649D01*
X104148326Y-128688042D01*
X104168658Y-128697116D01*
X104180869Y-128721092D01*
X104182409Y-128725613D01*
X104187703Y-128759806D01*
X104173547Y-128780568D01*
X104136648Y-128790462D01*
X104096789Y-128792292D01*
X104025062Y-128778727D01*
X103987932Y-128759355D01*
X103942076Y-128713845D01*
X103917756Y-128657983D01*
X103915573Y-128598957D01*
X103936129Y-128543953D01*
X103967049Y-128509486D01*
X103997920Y-128490189D01*
X104046442Y-128465759D01*
X104102985Y-128440985D01*
X104112410Y-128437199D01*
X104174519Y-128409791D01*
X104210322Y-128385634D01*
X104221837Y-128361619D01*
X104211080Y-128334635D01*
X104192614Y-128313543D01*
X104148969Y-128287572D01*
X104100946Y-128285624D01*
X104056906Y-128305637D01*
X104025209Y-128345551D01*
X104021049Y-128355848D01*
X103996827Y-128393724D01*
X103961465Y-128421842D01*
X103916843Y-128444917D01*
X103916843Y-128379485D01*
X103919469Y-128339506D01*
X103930730Y-128307997D01*
X103955699Y-128274378D01*
X103979669Y-128248484D01*
X104016941Y-128211817D01*
X104045901Y-128192121D01*
X104077005Y-128184220D01*
X104112213Y-128182914D01*
X104189376Y-128194335D01*
X104189376Y-128194335D01*
G37*
X104189376Y-128194335D02*
X104231167Y-128213344D01*
X104263969Y-128236378D01*
X104288003Y-128262133D01*
X104304597Y-128295358D01*
X104315077Y-128340800D01*
X104320771Y-128403207D01*
X104323007Y-128487327D01*
X104323243Y-128542721D01*
X104323243Y-128758826D01*
X104286274Y-128775670D01*
X104257156Y-128787981D01*
X104242731Y-128792514D01*
X104239972Y-128779025D01*
X104237782Y-128742653D01*
X104236442Y-128689542D01*
X104236157Y-128647372D01*
X104234934Y-128586447D01*
X104231636Y-128538115D01*
X104226821Y-128508518D01*
X104222996Y-128502229D01*
X104197283Y-128508652D01*
X104156918Y-128525125D01*
X104110179Y-128547458D01*
X104065345Y-128571457D01*
X104030693Y-128592930D01*
X104014502Y-128607685D01*
X104014438Y-128607845D01*
X104015830Y-128635152D01*
X104028318Y-128661219D01*
X104050243Y-128682392D01*
X104082243Y-128689474D01*
X104109592Y-128688649D01*
X104148326Y-128688042D01*
X104168658Y-128697116D01*
X104180869Y-128721092D01*
X104182409Y-128725613D01*
X104187703Y-128759806D01*
X104173547Y-128780568D01*
X104136648Y-128790462D01*
X104096789Y-128792292D01*
X104025062Y-128778727D01*
X103987932Y-128759355D01*
X103942076Y-128713845D01*
X103917756Y-128657983D01*
X103915573Y-128598957D01*
X103936129Y-128543953D01*
X103967049Y-128509486D01*
X103997920Y-128490189D01*
X104046442Y-128465759D01*
X104102985Y-128440985D01*
X104112410Y-128437199D01*
X104174519Y-128409791D01*
X104210322Y-128385634D01*
X104221837Y-128361619D01*
X104211080Y-128334635D01*
X104192614Y-128313543D01*
X104148969Y-128287572D01*
X104100946Y-128285624D01*
X104056906Y-128305637D01*
X104025209Y-128345551D01*
X104021049Y-128355848D01*
X103996827Y-128393724D01*
X103961465Y-128421842D01*
X103916843Y-128444917D01*
X103916843Y-128379485D01*
X103919469Y-128339506D01*
X103930730Y-128307997D01*
X103955699Y-128274378D01*
X103979669Y-128248484D01*
X104016941Y-128211817D01*
X104045901Y-128192121D01*
X104077005Y-128184220D01*
X104112213Y-128182914D01*
X104189376Y-128194335D01*
G36*
X103824333Y-128196663D02*
X103826548Y-128234850D01*
X103828284Y-128292886D01*
X103829399Y-128366180D01*
X103829757Y-128443055D01*
X103829757Y-128703196D01*
X103783826Y-128749127D01*
X103752175Y-128777429D01*
X103724390Y-128788893D01*
X103686415Y-128788168D01*
X103671340Y-128786321D01*
X103624226Y-128780948D01*
X103585256Y-128777869D01*
X103575757Y-128777585D01*
X103543733Y-128779445D01*
X103497932Y-128784114D01*
X103480174Y-128786321D01*
X103436557Y-128789735D01*
X103407245Y-128782320D01*
X103378180Y-128759427D01*
X103367688Y-128749127D01*
X103321757Y-128703196D01*
X103321757Y-128216602D01*
X103358726Y-128199758D01*
X103390559Y-128187282D01*
X103409183Y-128182914D01*
X103413958Y-128196718D01*
X103418421Y-128235286D01*
X103422275Y-128294356D01*
X103425222Y-128369663D01*
X103426643Y-128433286D01*
X103430614Y-128683657D01*
X103465259Y-128688556D01*
X103496768Y-128685131D01*
X103512208Y-128674041D01*
X103516523Y-128653308D01*
X103520208Y-128609145D01*
X103522969Y-128547146D01*
X103524512Y-128472909D01*
X103524735Y-128434706D01*
X103524957Y-128214783D01*
X103570666Y-128198849D01*
X103603018Y-128188015D01*
X103620615Y-128182962D01*
X103621123Y-128182914D01*
X103622888Y-128196648D01*
X103624829Y-128234730D01*
X103626782Y-128292482D01*
X103628584Y-128365227D01*
X103629843Y-128433286D01*
X103633814Y-128683657D01*
X103720900Y-128683657D01*
X103724896Y-128455240D01*
X103728892Y-128226822D01*
X103771347Y-128204868D01*
X103802692Y-128189793D01*
X103821244Y-128182951D01*
X103821779Y-128182914D01*
X103824333Y-128196663D01*
X103824333Y-128196663D01*
G37*
X103824333Y-128196663D02*
X103826548Y-128234850D01*
X103828284Y-128292886D01*
X103829399Y-128366180D01*
X103829757Y-128443055D01*
X103829757Y-128703196D01*
X103783826Y-128749127D01*
X103752175Y-128777429D01*
X103724390Y-128788893D01*
X103686415Y-128788168D01*
X103671340Y-128786321D01*
X103624226Y-128780948D01*
X103585256Y-128777869D01*
X103575757Y-128777585D01*
X103543733Y-128779445D01*
X103497932Y-128784114D01*
X103480174Y-128786321D01*
X103436557Y-128789735D01*
X103407245Y-128782320D01*
X103378180Y-128759427D01*
X103367688Y-128749127D01*
X103321757Y-128703196D01*
X103321757Y-128216602D01*
X103358726Y-128199758D01*
X103390559Y-128187282D01*
X103409183Y-128182914D01*
X103413958Y-128196718D01*
X103418421Y-128235286D01*
X103422275Y-128294356D01*
X103425222Y-128369663D01*
X103426643Y-128433286D01*
X103430614Y-128683657D01*
X103465259Y-128688556D01*
X103496768Y-128685131D01*
X103512208Y-128674041D01*
X103516523Y-128653308D01*
X103520208Y-128609145D01*
X103522969Y-128547146D01*
X103524512Y-128472909D01*
X103524735Y-128434706D01*
X103524957Y-128214783D01*
X103570666Y-128198849D01*
X103603018Y-128188015D01*
X103620615Y-128182962D01*
X103621123Y-128182914D01*
X103622888Y-128196648D01*
X103624829Y-128234730D01*
X103626782Y-128292482D01*
X103628584Y-128365227D01*
X103629843Y-128433286D01*
X103633814Y-128683657D01*
X103720900Y-128683657D01*
X103724896Y-128455240D01*
X103728892Y-128226822D01*
X103771347Y-128204868D01*
X103802692Y-128189793D01*
X103821244Y-128182951D01*
X103821779Y-128182914D01*
X103824333Y-128196663D01*
G36*
X103234617Y-128303358D02*
X103234433Y-128411837D01*
X103233719Y-128495287D01*
X103232175Y-128557704D01*
X103229501Y-128603085D01*
X103225394Y-128635429D01*
X103219555Y-128658733D01*
X103211682Y-128676995D01*
X103205721Y-128687418D01*
X103156355Y-128743945D01*
X103093764Y-128779377D01*
X103024513Y-128792090D01*
X102955168Y-128780463D01*
X102913875Y-128759568D01*
X102870525Y-128723422D01*
X102840981Y-128679276D01*
X102823155Y-128621462D01*
X102814963Y-128544313D01*
X102813802Y-128487714D01*
X102813958Y-128483647D01*
X102915357Y-128483647D01*
X102915976Y-128548550D01*
X102918814Y-128591514D01*
X102925340Y-128619622D01*
X102937023Y-128639953D01*
X102950983Y-128655288D01*
X102997865Y-128684890D01*
X103048201Y-128687419D01*
X103095776Y-128662705D01*
X103099479Y-128659356D01*
X103115283Y-128641935D01*
X103125193Y-128621209D01*
X103130558Y-128590362D01*
X103132728Y-128542577D01*
X103133071Y-128489748D01*
X103132327Y-128423381D01*
X103129248Y-128379106D01*
X103122561Y-128350009D01*
X103110996Y-128329173D01*
X103101513Y-128318107D01*
X103057460Y-128290198D01*
X103006724Y-128286843D01*
X102958296Y-128308159D01*
X102948950Y-128316073D01*
X102933040Y-128333647D01*
X102923110Y-128354587D01*
X102917778Y-128385782D01*
X102915663Y-128434122D01*
X102915357Y-128483647D01*
X102813958Y-128483647D01*
X102817310Y-128396568D01*
X102829226Y-128328086D01*
X102851635Y-128276600D01*
X102886624Y-128236443D01*
X102913875Y-128215861D01*
X102963407Y-128193625D01*
X103020816Y-128183304D01*
X103074182Y-128186067D01*
X103104043Y-128197212D01*
X103115761Y-128200383D01*
X103123537Y-128188557D01*
X103128965Y-128156866D01*
X103133071Y-128108593D01*
X103137567Y-128054829D01*
X103143813Y-128022482D01*
X103155176Y-128003985D01*
X103175028Y-127991770D01*
X103187500Y-127986362D01*
X103234671Y-127966601D01*
X103234617Y-128303358D01*
X103234617Y-128303358D01*
G37*
X103234617Y-128303358D02*
X103234433Y-128411837D01*
X103233719Y-128495287D01*
X103232175Y-128557704D01*
X103229501Y-128603085D01*
X103225394Y-128635429D01*
X103219555Y-128658733D01*
X103211682Y-128676995D01*
X103205721Y-128687418D01*
X103156355Y-128743945D01*
X103093764Y-128779377D01*
X103024513Y-128792090D01*
X102955168Y-128780463D01*
X102913875Y-128759568D01*
X102870525Y-128723422D01*
X102840981Y-128679276D01*
X102823155Y-128621462D01*
X102814963Y-128544313D01*
X102813802Y-128487714D01*
X102813958Y-128483647D01*
X102915357Y-128483647D01*
X102915976Y-128548550D01*
X102918814Y-128591514D01*
X102925340Y-128619622D01*
X102937023Y-128639953D01*
X102950983Y-128655288D01*
X102997865Y-128684890D01*
X103048201Y-128687419D01*
X103095776Y-128662705D01*
X103099479Y-128659356D01*
X103115283Y-128641935D01*
X103125193Y-128621209D01*
X103130558Y-128590362D01*
X103132728Y-128542577D01*
X103133071Y-128489748D01*
X103132327Y-128423381D01*
X103129248Y-128379106D01*
X103122561Y-128350009D01*
X103110996Y-128329173D01*
X103101513Y-128318107D01*
X103057460Y-128290198D01*
X103006724Y-128286843D01*
X102958296Y-128308159D01*
X102948950Y-128316073D01*
X102933040Y-128333647D01*
X102923110Y-128354587D01*
X102917778Y-128385782D01*
X102915663Y-128434122D01*
X102915357Y-128483647D01*
X102813958Y-128483647D01*
X102817310Y-128396568D01*
X102829226Y-128328086D01*
X102851635Y-128276600D01*
X102886624Y-128236443D01*
X102913875Y-128215861D01*
X102963407Y-128193625D01*
X103020816Y-128183304D01*
X103074182Y-128186067D01*
X103104043Y-128197212D01*
X103115761Y-128200383D01*
X103123537Y-128188557D01*
X103128965Y-128156866D01*
X103133071Y-128108593D01*
X103137567Y-128054829D01*
X103143813Y-128022482D01*
X103155176Y-128003985D01*
X103175028Y-127991770D01*
X103187500Y-127986362D01*
X103234671Y-127966601D01*
X103234617Y-128303358D01*
G36*
X102574426Y-128187755D02*
X102640358Y-128212084D01*
X102693773Y-128255117D01*
X102714664Y-128285409D01*
X102737439Y-128340994D01*
X102736966Y-128381186D01*
X102713062Y-128408217D01*
X102704217Y-128412813D01*
X102666030Y-128427144D01*
X102646528Y-128423472D01*
X102639922Y-128399407D01*
X102639586Y-128386114D01*
X102627492Y-128337210D01*
X102595971Y-128302999D01*
X102552159Y-128286476D01*
X102503195Y-128290634D01*
X102463394Y-128312227D01*
X102449950Y-128324544D01*
X102440421Y-128339487D01*
X102433985Y-128362075D01*
X102429817Y-128397328D01*
X102427097Y-128450266D01*
X102425002Y-128525907D01*
X102424460Y-128549857D01*
X102422481Y-128631790D01*
X102420231Y-128689455D01*
X102416857Y-128727608D01*
X102411506Y-128751004D01*
X102403324Y-128764398D01*
X102391459Y-128772545D01*
X102383862Y-128776144D01*
X102351602Y-128788452D01*
X102332611Y-128792514D01*
X102326336Y-128778948D01*
X102322506Y-128737934D01*
X102321100Y-128668999D01*
X102322098Y-128571669D01*
X102322408Y-128556657D01*
X102324601Y-128467859D01*
X102327193Y-128403019D01*
X102330882Y-128357067D01*
X102336364Y-128324935D01*
X102344335Y-128301553D01*
X102355493Y-128281852D01*
X102361330Y-128273410D01*
X102394796Y-128236057D01*
X102432227Y-128207003D01*
X102436809Y-128204467D01*
X102503926Y-128184443D01*
X102574426Y-128187755D01*
X102574426Y-128187755D01*
G37*
X102574426Y-128187755D02*
X102640358Y-128212084D01*
X102693773Y-128255117D01*
X102714664Y-128285409D01*
X102737439Y-128340994D01*
X102736966Y-128381186D01*
X102713062Y-128408217D01*
X102704217Y-128412813D01*
X102666030Y-128427144D01*
X102646528Y-128423472D01*
X102639922Y-128399407D01*
X102639586Y-128386114D01*
X102627492Y-128337210D01*
X102595971Y-128302999D01*
X102552159Y-128286476D01*
X102503195Y-128290634D01*
X102463394Y-128312227D01*
X102449950Y-128324544D01*
X102440421Y-128339487D01*
X102433985Y-128362075D01*
X102429817Y-128397328D01*
X102427097Y-128450266D01*
X102425002Y-128525907D01*
X102424460Y-128549857D01*
X102422481Y-128631790D01*
X102420231Y-128689455D01*
X102416857Y-128727608D01*
X102411506Y-128751004D01*
X102403324Y-128764398D01*
X102391459Y-128772545D01*
X102383862Y-128776144D01*
X102351602Y-128788452D01*
X102332611Y-128792514D01*
X102326336Y-128778948D01*
X102322506Y-128737934D01*
X102321100Y-128668999D01*
X102322098Y-128571669D01*
X102322408Y-128556657D01*
X102324601Y-128467859D01*
X102327193Y-128403019D01*
X102330882Y-128357067D01*
X102336364Y-128324935D01*
X102344335Y-128301553D01*
X102355493Y-128281852D01*
X102361330Y-128273410D01*
X102394796Y-128236057D01*
X102432227Y-128207003D01*
X102436809Y-128204467D01*
X102503926Y-128184443D01*
X102574426Y-128187755D01*
G36*
X102084244Y-128188968D02*
X102141116Y-128210087D01*
X102141767Y-128210493D01*
X102176940Y-128236380D01*
X102202907Y-128266633D01*
X102221170Y-128306058D01*
X102233232Y-128359462D01*
X102240596Y-128431651D01*
X102244764Y-128527432D01*
X102245129Y-128541078D01*
X102250376Y-128746842D01*
X102206216Y-128769678D01*
X102174263Y-128785110D01*
X102154970Y-128792423D01*
X102154078Y-128792514D01*
X102150739Y-128779022D01*
X102148087Y-128742626D01*
X102146456Y-128689452D01*
X102146100Y-128646393D01*
X102146092Y-128576641D01*
X102142903Y-128532837D01*
X102131788Y-128511944D01*
X102108001Y-128510925D01*
X102066796Y-128526741D01*
X102004586Y-128555815D01*
X101958841Y-128579963D01*
X101935313Y-128600913D01*
X101928396Y-128623747D01*
X101928386Y-128624877D01*
X101939799Y-128664212D01*
X101973592Y-128685462D01*
X102025309Y-128688539D01*
X102062561Y-128688006D01*
X102082203Y-128698735D01*
X102094452Y-128724505D01*
X102101502Y-128757337D01*
X102091342Y-128775966D01*
X102087517Y-128778632D01*
X102051501Y-128789340D01*
X102001066Y-128790856D01*
X101949126Y-128783759D01*
X101912322Y-128770788D01*
X101861438Y-128727585D01*
X101832514Y-128667446D01*
X101826786Y-128620462D01*
X101831157Y-128578082D01*
X101846975Y-128543488D01*
X101878297Y-128512763D01*
X101929178Y-128481990D01*
X102003676Y-128447252D01*
X102008214Y-128445288D01*
X102075321Y-128414287D01*
X102116732Y-128388862D01*
X102134481Y-128366014D01*
X102130607Y-128342745D01*
X102107143Y-128316056D01*
X102100127Y-128309914D01*
X102053130Y-128286100D01*
X102004433Y-128287103D01*
X101962022Y-128310451D01*
X101933884Y-128353675D01*
X101931269Y-128362160D01*
X101905808Y-128403308D01*
X101873501Y-128423128D01*
X101826786Y-128442770D01*
X101826786Y-128391950D01*
X101840996Y-128318082D01*
X101883175Y-128250327D01*
X101905124Y-128227661D01*
X101955017Y-128198569D01*
X102018467Y-128185400D01*
X102084244Y-128188968D01*
X102084244Y-128188968D01*
G37*
X102084244Y-128188968D02*
X102141116Y-128210087D01*
X102141767Y-128210493D01*
X102176940Y-128236380D01*
X102202907Y-128266633D01*
X102221170Y-128306058D01*
X102233232Y-128359462D01*
X102240596Y-128431651D01*
X102244764Y-128527432D01*
X102245129Y-128541078D01*
X102250376Y-128746842D01*
X102206216Y-128769678D01*
X102174263Y-128785110D01*
X102154970Y-128792423D01*
X102154078Y-128792514D01*
X102150739Y-128779022D01*
X102148087Y-128742626D01*
X102146456Y-128689452D01*
X102146100Y-128646393D01*
X102146092Y-128576641D01*
X102142903Y-128532837D01*
X102131788Y-128511944D01*
X102108001Y-128510925D01*
X102066796Y-128526741D01*
X102004586Y-128555815D01*
X101958841Y-128579963D01*
X101935313Y-128600913D01*
X101928396Y-128623747D01*
X101928386Y-128624877D01*
X101939799Y-128664212D01*
X101973592Y-128685462D01*
X102025309Y-128688539D01*
X102062561Y-128688006D01*
X102082203Y-128698735D01*
X102094452Y-128724505D01*
X102101502Y-128757337D01*
X102091342Y-128775966D01*
X102087517Y-128778632D01*
X102051501Y-128789340D01*
X102001066Y-128790856D01*
X101949126Y-128783759D01*
X101912322Y-128770788D01*
X101861438Y-128727585D01*
X101832514Y-128667446D01*
X101826786Y-128620462D01*
X101831157Y-128578082D01*
X101846975Y-128543488D01*
X101878297Y-128512763D01*
X101929178Y-128481990D01*
X102003676Y-128447252D01*
X102008214Y-128445288D01*
X102075321Y-128414287D01*
X102116732Y-128388862D01*
X102134481Y-128366014D01*
X102130607Y-128342745D01*
X102107143Y-128316056D01*
X102100127Y-128309914D01*
X102053130Y-128286100D01*
X102004433Y-128287103D01*
X101962022Y-128310451D01*
X101933884Y-128353675D01*
X101931269Y-128362160D01*
X101905808Y-128403308D01*
X101873501Y-128423128D01*
X101826786Y-128442770D01*
X101826786Y-128391950D01*
X101840996Y-128318082D01*
X101883175Y-128250327D01*
X101905124Y-128227661D01*
X101955017Y-128198569D01*
X102018467Y-128185400D01*
X102084244Y-128188968D01*
G36*
X101420386Y-128089289D02*
X101424639Y-128148613D01*
X101429525Y-128183572D01*
X101436295Y-128198820D01*
X101446202Y-128199015D01*
X101449414Y-128197195D01*
X101492144Y-128184015D01*
X101547727Y-128184785D01*
X101604237Y-128198333D01*
X101639582Y-128215861D01*
X101675821Y-128243861D01*
X101702313Y-128275549D01*
X101720499Y-128315813D01*
X101731822Y-128369543D01*
X101737722Y-128441626D01*
X101739643Y-128536951D01*
X101739677Y-128555237D01*
X101739700Y-128760646D01*
X101693991Y-128776580D01*
X101661527Y-128787420D01*
X101643715Y-128792468D01*
X101643191Y-128792514D01*
X101641437Y-128778828D01*
X101639944Y-128741076D01*
X101638826Y-128684224D01*
X101638197Y-128613234D01*
X101638100Y-128570073D01*
X101637898Y-128484973D01*
X101636858Y-128423981D01*
X101634331Y-128382177D01*
X101629664Y-128354642D01*
X101622207Y-128336456D01*
X101611311Y-128322698D01*
X101604507Y-128316073D01*
X101557772Y-128289375D01*
X101506772Y-128287375D01*
X101460501Y-128309955D01*
X101451944Y-128318107D01*
X101439393Y-128333436D01*
X101430688Y-128351618D01*
X101425131Y-128377909D01*
X101422026Y-128417562D01*
X101420676Y-128475832D01*
X101420386Y-128556173D01*
X101420386Y-128760646D01*
X101374677Y-128776580D01*
X101342213Y-128787420D01*
X101324401Y-128792468D01*
X101323877Y-128792514D01*
X101322537Y-128778623D01*
X101321328Y-128739439D01*
X101320301Y-128678700D01*
X101319502Y-128600141D01*
X101318981Y-128507498D01*
X101318786Y-128404509D01*
X101318786Y-128007342D01*
X101365957Y-127987444D01*
X101413129Y-127967547D01*
X101420386Y-128089289D01*
X101420386Y-128089289D01*
G37*
X101420386Y-128089289D02*
X101424639Y-128148613D01*
X101429525Y-128183572D01*
X101436295Y-128198820D01*
X101446202Y-128199015D01*
X101449414Y-128197195D01*
X101492144Y-128184015D01*
X101547727Y-128184785D01*
X101604237Y-128198333D01*
X101639582Y-128215861D01*
X101675821Y-128243861D01*
X101702313Y-128275549D01*
X101720499Y-128315813D01*
X101731822Y-128369543D01*
X101737722Y-128441626D01*
X101739643Y-128536951D01*
X101739677Y-128555237D01*
X101739700Y-128760646D01*
X101693991Y-128776580D01*
X101661527Y-128787420D01*
X101643715Y-128792468D01*
X101643191Y-128792514D01*
X101641437Y-128778828D01*
X101639944Y-128741076D01*
X101638826Y-128684224D01*
X101638197Y-128613234D01*
X101638100Y-128570073D01*
X101637898Y-128484973D01*
X101636858Y-128423981D01*
X101634331Y-128382177D01*
X101629664Y-128354642D01*
X101622207Y-128336456D01*
X101611311Y-128322698D01*
X101604507Y-128316073D01*
X101557772Y-128289375D01*
X101506772Y-128287375D01*
X101460501Y-128309955D01*
X101451944Y-128318107D01*
X101439393Y-128333436D01*
X101430688Y-128351618D01*
X101425131Y-128377909D01*
X101422026Y-128417562D01*
X101420676Y-128475832D01*
X101420386Y-128556173D01*
X101420386Y-128760646D01*
X101374677Y-128776580D01*
X101342213Y-128787420D01*
X101324401Y-128792468D01*
X101323877Y-128792514D01*
X101322537Y-128778623D01*
X101321328Y-128739439D01*
X101320301Y-128678700D01*
X101319502Y-128600141D01*
X101318981Y-128507498D01*
X101318786Y-128404509D01*
X101318786Y-128007342D01*
X101365957Y-127987444D01*
X101413129Y-127967547D01*
X101420386Y-128089289D01*
G36*
X100212803Y-128169239D02*
X100270027Y-128207735D01*
X100314249Y-128263335D01*
X100340667Y-128334086D01*
X100346010Y-128386162D01*
X100345403Y-128407893D01*
X100340322Y-128424531D01*
X100326355Y-128439437D01*
X100299089Y-128455973D01*
X100254112Y-128477498D01*
X100187011Y-128507374D01*
X100186671Y-128507524D01*
X100124907Y-128535813D01*
X100074259Y-128560933D01*
X100039904Y-128580179D01*
X100027018Y-128590848D01*
X100027014Y-128590934D01*
X100038372Y-128614166D01*
X100064931Y-128639774D01*
X100095423Y-128658221D01*
X100110870Y-128661886D01*
X100153015Y-128649212D01*
X100189308Y-128617471D01*
X100207017Y-128582572D01*
X100224052Y-128556845D01*
X100257422Y-128527546D01*
X100296649Y-128502235D01*
X100331256Y-128488471D01*
X100338493Y-128487714D01*
X100346639Y-128500160D01*
X100347130Y-128531972D01*
X100341143Y-128574866D01*
X100329857Y-128620558D01*
X100314450Y-128660761D01*
X100313671Y-128662322D01*
X100267304Y-128727062D01*
X100207211Y-128771097D01*
X100138965Y-128792711D01*
X100068138Y-128790185D01*
X100000304Y-128761804D01*
X99997288Y-128759808D01*
X99943927Y-128711448D01*
X99908840Y-128648352D01*
X99889422Y-128565387D01*
X99886816Y-128542078D01*
X99882201Y-128432055D01*
X99887733Y-128380748D01*
X100027014Y-128380748D01*
X100028824Y-128412753D01*
X100038722Y-128422093D01*
X100063398Y-128415105D01*
X100102295Y-128398587D01*
X100145775Y-128377881D01*
X100146856Y-128377333D01*
X100183709Y-128357949D01*
X100198500Y-128345013D01*
X100194853Y-128331451D01*
X100179495Y-128313632D01*
X100140423Y-128287845D01*
X100098346Y-128285950D01*
X100060603Y-128304717D01*
X100034534Y-128340915D01*
X100027014Y-128380748D01*
X99887733Y-128380748D01*
X99891694Y-128344027D01*
X99916050Y-128274212D01*
X99949956Y-128225302D01*
X100011153Y-128175878D01*
X100078563Y-128151359D01*
X100147380Y-128149797D01*
X100212803Y-128169239D01*
X100212803Y-128169239D01*
G37*
X100212803Y-128169239D02*
X100270027Y-128207735D01*
X100314249Y-128263335D01*
X100340667Y-128334086D01*
X100346010Y-128386162D01*
X100345403Y-128407893D01*
X100340322Y-128424531D01*
X100326355Y-128439437D01*
X100299089Y-128455973D01*
X100254112Y-128477498D01*
X100187011Y-128507374D01*
X100186671Y-128507524D01*
X100124907Y-128535813D01*
X100074259Y-128560933D01*
X100039904Y-128580179D01*
X100027018Y-128590848D01*
X100027014Y-128590934D01*
X100038372Y-128614166D01*
X100064931Y-128639774D01*
X100095423Y-128658221D01*
X100110870Y-128661886D01*
X100153015Y-128649212D01*
X100189308Y-128617471D01*
X100207017Y-128582572D01*
X100224052Y-128556845D01*
X100257422Y-128527546D01*
X100296649Y-128502235D01*
X100331256Y-128488471D01*
X100338493Y-128487714D01*
X100346639Y-128500160D01*
X100347130Y-128531972D01*
X100341143Y-128574866D01*
X100329857Y-128620558D01*
X100314450Y-128660761D01*
X100313671Y-128662322D01*
X100267304Y-128727062D01*
X100207211Y-128771097D01*
X100138965Y-128792711D01*
X100068138Y-128790185D01*
X100000304Y-128761804D01*
X99997288Y-128759808D01*
X99943927Y-128711448D01*
X99908840Y-128648352D01*
X99889422Y-128565387D01*
X99886816Y-128542078D01*
X99882201Y-128432055D01*
X99887733Y-128380748D01*
X100027014Y-128380748D01*
X100028824Y-128412753D01*
X100038722Y-128422093D01*
X100063398Y-128415105D01*
X100102295Y-128398587D01*
X100145775Y-128377881D01*
X100146856Y-128377333D01*
X100183709Y-128357949D01*
X100198500Y-128345013D01*
X100194853Y-128331451D01*
X100179495Y-128313632D01*
X100140423Y-128287845D01*
X100098346Y-128285950D01*
X100060603Y-128304717D01*
X100034534Y-128340915D01*
X100027014Y-128380748D01*
X99887733Y-128380748D01*
X99891694Y-128344027D01*
X99916050Y-128274212D01*
X99949956Y-128225302D01*
X100011153Y-128175878D01*
X100078563Y-128151359D01*
X100147380Y-128149797D01*
X100212803Y-128169239D01*
G36*
X99085615Y-128159962D02*
X99153645Y-128195733D01*
X99203851Y-128253301D01*
X99221685Y-128290312D01*
X99235563Y-128345882D01*
X99242667Y-128416096D01*
X99243340Y-128492727D01*
X99237927Y-128567552D01*
X99226770Y-128632342D01*
X99210214Y-128678873D01*
X99205126Y-128686887D01*
X99144855Y-128746707D01*
X99073269Y-128782535D01*
X98995592Y-128793020D01*
X98917048Y-128776810D01*
X98895189Y-128767092D01*
X98852622Y-128737143D01*
X98815263Y-128697433D01*
X98811732Y-128692397D01*
X98797381Y-128668124D01*
X98787894Y-128642178D01*
X98782290Y-128608022D01*
X98779586Y-128559119D01*
X98778799Y-128488935D01*
X98778786Y-128473200D01*
X98778822Y-128468192D01*
X98923929Y-128468192D01*
X98924773Y-128534430D01*
X98928096Y-128578386D01*
X98935083Y-128606779D01*
X98946916Y-128626325D01*
X98952957Y-128632857D01*
X98987686Y-128657680D01*
X99021403Y-128656548D01*
X99055495Y-128635016D01*
X99075829Y-128612029D01*
X99087871Y-128578478D01*
X99094634Y-128525569D01*
X99095098Y-128519399D01*
X99096252Y-128423513D01*
X99084188Y-128352299D01*
X99059070Y-128306194D01*
X99021060Y-128285635D01*
X99007492Y-128284514D01*
X98971864Y-128290152D01*
X98947494Y-128309686D01*
X98932593Y-128347042D01*
X98925375Y-128406150D01*
X98923929Y-128468192D01*
X98778822Y-128468192D01*
X98779326Y-128398413D01*
X98781596Y-128346159D01*
X98786568Y-128309949D01*
X98795213Y-128283299D01*
X98808505Y-128259722D01*
X98811443Y-128255338D01*
X98860813Y-128196249D01*
X98914609Y-128161947D01*
X98980102Y-128148331D01*
X99002342Y-128147665D01*
X99085615Y-128159962D01*
X99085615Y-128159962D01*
G37*
X99085615Y-128159962D02*
X99153645Y-128195733D01*
X99203851Y-128253301D01*
X99221685Y-128290312D01*
X99235563Y-128345882D01*
X99242667Y-128416096D01*
X99243340Y-128492727D01*
X99237927Y-128567552D01*
X99226770Y-128632342D01*
X99210214Y-128678873D01*
X99205126Y-128686887D01*
X99144855Y-128746707D01*
X99073269Y-128782535D01*
X98995592Y-128793020D01*
X98917048Y-128776810D01*
X98895189Y-128767092D01*
X98852622Y-128737143D01*
X98815263Y-128697433D01*
X98811732Y-128692397D01*
X98797381Y-128668124D01*
X98787894Y-128642178D01*
X98782290Y-128608022D01*
X98779586Y-128559119D01*
X98778799Y-128488935D01*
X98778786Y-128473200D01*
X98778822Y-128468192D01*
X98923929Y-128468192D01*
X98924773Y-128534430D01*
X98928096Y-128578386D01*
X98935083Y-128606779D01*
X98946916Y-128626325D01*
X98952957Y-128632857D01*
X98987686Y-128657680D01*
X99021403Y-128656548D01*
X99055495Y-128635016D01*
X99075829Y-128612029D01*
X99087871Y-128578478D01*
X99094634Y-128525569D01*
X99095098Y-128519399D01*
X99096252Y-128423513D01*
X99084188Y-128352299D01*
X99059070Y-128306194D01*
X99021060Y-128285635D01*
X99007492Y-128284514D01*
X98971864Y-128290152D01*
X98947494Y-128309686D01*
X98932593Y-128347042D01*
X98925375Y-128406150D01*
X98923929Y-128468192D01*
X98778822Y-128468192D01*
X98779326Y-128398413D01*
X98781596Y-128346159D01*
X98786568Y-128309949D01*
X98795213Y-128283299D01*
X98808505Y-128259722D01*
X98811443Y-128255338D01*
X98860813Y-128196249D01*
X98914609Y-128161947D01*
X98980102Y-128148331D01*
X99002342Y-128147665D01*
X99085615Y-128159962D01*
G36*
X100760593Y-128165780D02*
X100807172Y-128192723D01*
X100839557Y-128219466D01*
X100863242Y-128247484D01*
X100879559Y-128281748D01*
X100889839Y-128327227D01*
X100895414Y-128388892D01*
X100897616Y-128471711D01*
X100897871Y-128531246D01*
X100897871Y-128750391D01*
X100836186Y-128778044D01*
X100774500Y-128805697D01*
X100767243Y-128565670D01*
X100764244Y-128476028D01*
X100761098Y-128410962D01*
X100757201Y-128366026D01*
X100751947Y-128336770D01*
X100744731Y-128318748D01*
X100734950Y-128307511D01*
X100731812Y-128305079D01*
X100684261Y-128286083D01*
X100636197Y-128293600D01*
X100607586Y-128313543D01*
X100595947Y-128327675D01*
X100587891Y-128346220D01*
X100582771Y-128374334D01*
X100579941Y-128417173D01*
X100578756Y-128479895D01*
X100578557Y-128545261D01*
X100578518Y-128627268D01*
X100577114Y-128685316D01*
X100572414Y-128724465D01*
X100562487Y-128749780D01*
X100545403Y-128766323D01*
X100519232Y-128779156D01*
X100484275Y-128792491D01*
X100446096Y-128807007D01*
X100450641Y-128549389D01*
X100452471Y-128456519D01*
X100454612Y-128387889D01*
X100457681Y-128338711D01*
X100462294Y-128304198D01*
X100469068Y-128279562D01*
X100478619Y-128260016D01*
X100490134Y-128242770D01*
X100545690Y-128187680D01*
X100613480Y-128155822D01*
X100687213Y-128148191D01*
X100760593Y-128165780D01*
X100760593Y-128165780D01*
G37*
X100760593Y-128165780D02*
X100807172Y-128192723D01*
X100839557Y-128219466D01*
X100863242Y-128247484D01*
X100879559Y-128281748D01*
X100889839Y-128327227D01*
X100895414Y-128388892D01*
X100897616Y-128471711D01*
X100897871Y-128531246D01*
X100897871Y-128750391D01*
X100836186Y-128778044D01*
X100774500Y-128805697D01*
X100767243Y-128565670D01*
X100764244Y-128476028D01*
X100761098Y-128410962D01*
X100757201Y-128366026D01*
X100751947Y-128336770D01*
X100744731Y-128318748D01*
X100734950Y-128307511D01*
X100731812Y-128305079D01*
X100684261Y-128286083D01*
X100636197Y-128293600D01*
X100607586Y-128313543D01*
X100595947Y-128327675D01*
X100587891Y-128346220D01*
X100582771Y-128374334D01*
X100579941Y-128417173D01*
X100578756Y-128479895D01*
X100578557Y-128545261D01*
X100578518Y-128627268D01*
X100577114Y-128685316D01*
X100572414Y-128724465D01*
X100562487Y-128749780D01*
X100545403Y-128766323D01*
X100519232Y-128779156D01*
X100484275Y-128792491D01*
X100446096Y-128807007D01*
X100450641Y-128549389D01*
X100452471Y-128456519D01*
X100454612Y-128387889D01*
X100457681Y-128338711D01*
X100462294Y-128304198D01*
X100469068Y-128279562D01*
X100478619Y-128260016D01*
X100490134Y-128242770D01*
X100545690Y-128187680D01*
X100613480Y-128155822D01*
X100687213Y-128148191D01*
X100760593Y-128165780D01*
G36*
X99644244Y-128157918D02*
X99699701Y-128185568D01*
X99748648Y-128236480D01*
X99762129Y-128255338D01*
X99776814Y-128280015D01*
X99786342Y-128306816D01*
X99791793Y-128342587D01*
X99794247Y-128394169D01*
X99794786Y-128462267D01*
X99792352Y-128555588D01*
X99783894Y-128625657D01*
X99767674Y-128677931D01*
X99741954Y-128717869D01*
X99704997Y-128750929D01*
X99702282Y-128752886D01*
X99665860Y-128772908D01*
X99622002Y-128782815D01*
X99566224Y-128785257D01*
X99475548Y-128785257D01*
X99475510Y-128873283D01*
X99474666Y-128922308D01*
X99469524Y-128951065D01*
X99456087Y-128968311D01*
X99430358Y-128982808D01*
X99424179Y-128985769D01*
X99395264Y-128999648D01*
X99372876Y-129008414D01*
X99356229Y-129009171D01*
X99344536Y-128999023D01*
X99337010Y-128975073D01*
X99332866Y-128934426D01*
X99331315Y-128874186D01*
X99331571Y-128791455D01*
X99332849Y-128683339D01*
X99333248Y-128651000D01*
X99334685Y-128539524D01*
X99335972Y-128466603D01*
X99475471Y-128466603D01*
X99476255Y-128528499D01*
X99479740Y-128568997D01*
X99487624Y-128595708D01*
X99501605Y-128616244D01*
X99511097Y-128626260D01*
X99549904Y-128655567D01*
X99584263Y-128657952D01*
X99619716Y-128633750D01*
X99620614Y-128632857D01*
X99635039Y-128614153D01*
X99643813Y-128588732D01*
X99648239Y-128549584D01*
X99649618Y-128489697D01*
X99649643Y-128476430D01*
X99646312Y-128393901D01*
X99635469Y-128336691D01*
X99615840Y-128301766D01*
X99586150Y-128286094D01*
X99568991Y-128284514D01*
X99528266Y-128291926D01*
X99500332Y-128316330D01*
X99483517Y-128360980D01*
X99476150Y-128429130D01*
X99475471Y-128466603D01*
X99335972Y-128466603D01*
X99336208Y-128453245D01*
X99338177Y-128388333D01*
X99340950Y-128340958D01*
X99344888Y-128307290D01*
X99350349Y-128283498D01*
X99357692Y-128265753D01*
X99367277Y-128250224D01*
X99371387Y-128244381D01*
X99425905Y-128189185D01*
X99494836Y-128157890D01*
X99574572Y-128149165D01*
X99644244Y-128157918D01*
X99644244Y-128157918D01*
G37*
X99644244Y-128157918D02*
X99699701Y-128185568D01*
X99748648Y-128236480D01*
X99762129Y-128255338D01*
X99776814Y-128280015D01*
X99786342Y-128306816D01*
X99791793Y-128342587D01*
X99794247Y-128394169D01*
X99794786Y-128462267D01*
X99792352Y-128555588D01*
X99783894Y-128625657D01*
X99767674Y-128677931D01*
X99741954Y-128717869D01*
X99704997Y-128750929D01*
X99702282Y-128752886D01*
X99665860Y-128772908D01*
X99622002Y-128782815D01*
X99566224Y-128785257D01*
X99475548Y-128785257D01*
X99475510Y-128873283D01*
X99474666Y-128922308D01*
X99469524Y-128951065D01*
X99456087Y-128968311D01*
X99430358Y-128982808D01*
X99424179Y-128985769D01*
X99395264Y-128999648D01*
X99372876Y-129008414D01*
X99356229Y-129009171D01*
X99344536Y-128999023D01*
X99337010Y-128975073D01*
X99332866Y-128934426D01*
X99331315Y-128874186D01*
X99331571Y-128791455D01*
X99332849Y-128683339D01*
X99333248Y-128651000D01*
X99334685Y-128539524D01*
X99335972Y-128466603D01*
X99475471Y-128466603D01*
X99476255Y-128528499D01*
X99479740Y-128568997D01*
X99487624Y-128595708D01*
X99501605Y-128616244D01*
X99511097Y-128626260D01*
X99549904Y-128655567D01*
X99584263Y-128657952D01*
X99619716Y-128633750D01*
X99620614Y-128632857D01*
X99635039Y-128614153D01*
X99643813Y-128588732D01*
X99648239Y-128549584D01*
X99649618Y-128489697D01*
X99649643Y-128476430D01*
X99646312Y-128393901D01*
X99635469Y-128336691D01*
X99615840Y-128301766D01*
X99586150Y-128286094D01*
X99568991Y-128284514D01*
X99528266Y-128291926D01*
X99500332Y-128316330D01*
X99483517Y-128360980D01*
X99476150Y-128429130D01*
X99475471Y-128466603D01*
X99335972Y-128466603D01*
X99336208Y-128453245D01*
X99338177Y-128388333D01*
X99340950Y-128340958D01*
X99344888Y-128307290D01*
X99350349Y-128283498D01*
X99357692Y-128265753D01*
X99367277Y-128250224D01*
X99371387Y-128244381D01*
X99425905Y-128189185D01*
X99494836Y-128157890D01*
X99574572Y-128149165D01*
X99644244Y-128157918D01*
G04 #@! TO.C,1HL5*
D12*
X168425952Y-112847380D02*
X167854523Y-112847380D01*
X168140238Y-112847380D02*
X168140238Y-111847380D01*
X168045000Y-111990238D01*
X167949761Y-112085476D01*
X167854523Y-112133095D01*
X168854523Y-112847380D02*
X168854523Y-111847380D01*
X168854523Y-112323571D02*
X169425952Y-112323571D01*
X169425952Y-112847380D02*
X169425952Y-111847380D01*
X170378333Y-112847380D02*
X169902142Y-112847380D01*
X169902142Y-111847380D01*
X171187857Y-111847380D02*
X170711666Y-111847380D01*
X170664047Y-112323571D01*
X170711666Y-112275952D01*
X170806904Y-112228333D01*
X171045000Y-112228333D01*
X171140238Y-112275952D01*
X171187857Y-112323571D01*
X171235476Y-112418809D01*
X171235476Y-112656904D01*
X171187857Y-112752142D01*
X171140238Y-112799761D01*
X171045000Y-112847380D01*
X170806904Y-112847380D01*
X170711666Y-112799761D01*
X170664047Y-112752142D01*
X170727380Y-104314285D02*
X170727380Y-104885714D01*
X170727380Y-104600000D02*
X169727380Y-104600000D01*
X169870238Y-104695238D01*
X169965476Y-104790476D01*
X170013095Y-104885714D01*
G04 #@! TO.C,1HL6*
X160170952Y-109037380D02*
X159599523Y-109037380D01*
X159885238Y-109037380D02*
X159885238Y-108037380D01*
X159790000Y-108180238D01*
X159694761Y-108275476D01*
X159599523Y-108323095D01*
X160599523Y-109037380D02*
X160599523Y-108037380D01*
X160599523Y-108513571D02*
X161170952Y-108513571D01*
X161170952Y-109037380D02*
X161170952Y-108037380D01*
X162123333Y-109037380D02*
X161647142Y-109037380D01*
X161647142Y-108037380D01*
X162885238Y-108037380D02*
X162694761Y-108037380D01*
X162599523Y-108085000D01*
X162551904Y-108132619D01*
X162456666Y-108275476D01*
X162409047Y-108465952D01*
X162409047Y-108846904D01*
X162456666Y-108942142D01*
X162504285Y-108989761D01*
X162599523Y-109037380D01*
X162790000Y-109037380D01*
X162885238Y-108989761D01*
X162932857Y-108942142D01*
X162980476Y-108846904D01*
X162980476Y-108608809D01*
X162932857Y-108513571D01*
X162885238Y-108465952D01*
X162790000Y-108418333D01*
X162599523Y-108418333D01*
X162504285Y-108465952D01*
X162456666Y-108513571D01*
X162409047Y-108608809D01*
X158977380Y-104314285D02*
X158977380Y-104885714D01*
X158977380Y-104600000D02*
X157977380Y-104600000D01*
X158120238Y-104695238D01*
X158215476Y-104790476D01*
X158263095Y-104885714D01*
G04 #@! TO.C,1HL7*
X144930952Y-112847380D02*
X144359523Y-112847380D01*
X144645238Y-112847380D02*
X144645238Y-111847380D01*
X144550000Y-111990238D01*
X144454761Y-112085476D01*
X144359523Y-112133095D01*
X145359523Y-112847380D02*
X145359523Y-111847380D01*
X145359523Y-112323571D02*
X145930952Y-112323571D01*
X145930952Y-112847380D02*
X145930952Y-111847380D01*
X146883333Y-112847380D02*
X146407142Y-112847380D01*
X146407142Y-111847380D01*
X147121428Y-111847380D02*
X147788095Y-111847380D01*
X147359523Y-112847380D01*
X147227380Y-104314285D02*
X147227380Y-104885714D01*
X147227380Y-104600000D02*
X146227380Y-104600000D01*
X146370238Y-104695238D01*
X146465476Y-104790476D01*
X146513095Y-104885714D01*
G04 #@! TO.C,1HL8*
X132865952Y-112847380D02*
X132294523Y-112847380D01*
X132580238Y-112847380D02*
X132580238Y-111847380D01*
X132485000Y-111990238D01*
X132389761Y-112085476D01*
X132294523Y-112133095D01*
X133294523Y-112847380D02*
X133294523Y-111847380D01*
X133294523Y-112323571D02*
X133865952Y-112323571D01*
X133865952Y-112847380D02*
X133865952Y-111847380D01*
X134818333Y-112847380D02*
X134342142Y-112847380D01*
X134342142Y-111847380D01*
X135294523Y-112275952D02*
X135199285Y-112228333D01*
X135151666Y-112180714D01*
X135104047Y-112085476D01*
X135104047Y-112037857D01*
X135151666Y-111942619D01*
X135199285Y-111895000D01*
X135294523Y-111847380D01*
X135485000Y-111847380D01*
X135580238Y-111895000D01*
X135627857Y-111942619D01*
X135675476Y-112037857D01*
X135675476Y-112085476D01*
X135627857Y-112180714D01*
X135580238Y-112228333D01*
X135485000Y-112275952D01*
X135294523Y-112275952D01*
X135199285Y-112323571D01*
X135151666Y-112371190D01*
X135104047Y-112466428D01*
X135104047Y-112656904D01*
X135151666Y-112752142D01*
X135199285Y-112799761D01*
X135294523Y-112847380D01*
X135485000Y-112847380D01*
X135580238Y-112799761D01*
X135627857Y-112752142D01*
X135675476Y-112656904D01*
X135675476Y-112466428D01*
X135627857Y-112371190D01*
X135580238Y-112323571D01*
X135485000Y-112275952D01*
X135427380Y-104314285D02*
X135427380Y-104885714D01*
X135427380Y-104600000D02*
X134427380Y-104600000D01*
X134570238Y-104695238D01*
X134665476Y-104790476D01*
X134713095Y-104885714D01*
G04 #@! TO.C,1HL9*
X125552380Y-109219047D02*
X125552380Y-109790476D01*
X125552380Y-109504761D02*
X124552380Y-109504761D01*
X124695238Y-109600000D01*
X124790476Y-109695238D01*
X124838095Y-109790476D01*
X125552380Y-108790476D02*
X124552380Y-108790476D01*
X125028571Y-108790476D02*
X125028571Y-108219047D01*
X125552380Y-108219047D02*
X124552380Y-108219047D01*
X125552380Y-107266666D02*
X125552380Y-107742857D01*
X124552380Y-107742857D01*
X125552380Y-106885714D02*
X125552380Y-106695238D01*
X125504761Y-106600000D01*
X125457142Y-106552380D01*
X125314285Y-106457142D01*
X125123809Y-106409523D01*
X124742857Y-106409523D01*
X124647619Y-106457142D01*
X124600000Y-106504761D01*
X124552380Y-106600000D01*
X124552380Y-106790476D01*
X124600000Y-106885714D01*
X124647619Y-106933333D01*
X124742857Y-106980952D01*
X124980952Y-106980952D01*
X125076190Y-106933333D01*
X125123809Y-106885714D01*
X125171428Y-106790476D01*
X125171428Y-106600000D01*
X125123809Y-106504761D01*
X125076190Y-106457142D01*
X124980952Y-106409523D01*
X123677380Y-104314285D02*
X123677380Y-104885714D01*
X123677380Y-104600000D02*
X122677380Y-104600000D01*
X122820238Y-104695238D01*
X122915476Y-104790476D01*
X122963095Y-104885714D01*
G04 #@! TO.C,1HL10*
X108894761Y-112847380D02*
X108323333Y-112847380D01*
X108609047Y-112847380D02*
X108609047Y-111847380D01*
X108513809Y-111990238D01*
X108418571Y-112085476D01*
X108323333Y-112133095D01*
X109323333Y-112847380D02*
X109323333Y-111847380D01*
X109323333Y-112323571D02*
X109894761Y-112323571D01*
X109894761Y-112847380D02*
X109894761Y-111847380D01*
X110847142Y-112847380D02*
X110370952Y-112847380D01*
X110370952Y-111847380D01*
X111704285Y-112847380D02*
X111132857Y-112847380D01*
X111418571Y-112847380D02*
X111418571Y-111847380D01*
X111323333Y-111990238D01*
X111228095Y-112085476D01*
X111132857Y-112133095D01*
X112323333Y-111847380D02*
X112418571Y-111847380D01*
X112513809Y-111895000D01*
X112561428Y-111942619D01*
X112609047Y-112037857D01*
X112656666Y-112228333D01*
X112656666Y-112466428D01*
X112609047Y-112656904D01*
X112561428Y-112752142D01*
X112513809Y-112799761D01*
X112418571Y-112847380D01*
X112323333Y-112847380D01*
X112228095Y-112799761D01*
X112180476Y-112752142D01*
X112132857Y-112656904D01*
X112085238Y-112466428D01*
X112085238Y-112228333D01*
X112132857Y-112037857D01*
X112180476Y-111942619D01*
X112228095Y-111895000D01*
X112323333Y-111847380D01*
X111927380Y-104314285D02*
X111927380Y-104885714D01*
X111927380Y-104600000D02*
X110927380Y-104600000D01*
X111070238Y-104695238D01*
X111165476Y-104790476D01*
X111213095Y-104885714D01*
G04 #@! TO.C,1HL11*
X120959761Y-100782380D02*
X120388333Y-100782380D01*
X120674047Y-100782380D02*
X120674047Y-99782380D01*
X120578809Y-99925238D01*
X120483571Y-100020476D01*
X120388333Y-100068095D01*
X121388333Y-100782380D02*
X121388333Y-99782380D01*
X121388333Y-100258571D02*
X121959761Y-100258571D01*
X121959761Y-100782380D02*
X121959761Y-99782380D01*
X122912142Y-100782380D02*
X122435952Y-100782380D01*
X122435952Y-99782380D01*
X123769285Y-100782380D02*
X123197857Y-100782380D01*
X123483571Y-100782380D02*
X123483571Y-99782380D01*
X123388333Y-99925238D01*
X123293095Y-100020476D01*
X123197857Y-100068095D01*
X124721666Y-100782380D02*
X124150238Y-100782380D01*
X124435952Y-100782380D02*
X124435952Y-99782380D01*
X124340714Y-99925238D01*
X124245476Y-100020476D01*
X124150238Y-100068095D01*
X123677380Y-92214285D02*
X123677380Y-92785714D01*
X123677380Y-92500000D02*
X122677380Y-92500000D01*
X122820238Y-92595238D01*
X122915476Y-92690476D01*
X122963095Y-92785714D01*
G04 #@! TO.C,1HL12*
X132389761Y-100782380D02*
X131818333Y-100782380D01*
X132104047Y-100782380D02*
X132104047Y-99782380D01*
X132008809Y-99925238D01*
X131913571Y-100020476D01*
X131818333Y-100068095D01*
X132818333Y-100782380D02*
X132818333Y-99782380D01*
X132818333Y-100258571D02*
X133389761Y-100258571D01*
X133389761Y-100782380D02*
X133389761Y-99782380D01*
X134342142Y-100782380D02*
X133865952Y-100782380D01*
X133865952Y-99782380D01*
X135199285Y-100782380D02*
X134627857Y-100782380D01*
X134913571Y-100782380D02*
X134913571Y-99782380D01*
X134818333Y-99925238D01*
X134723095Y-100020476D01*
X134627857Y-100068095D01*
X135580238Y-99877619D02*
X135627857Y-99830000D01*
X135723095Y-99782380D01*
X135961190Y-99782380D01*
X136056428Y-99830000D01*
X136104047Y-99877619D01*
X136151666Y-99972857D01*
X136151666Y-100068095D01*
X136104047Y-100210952D01*
X135532619Y-100782380D01*
X136151666Y-100782380D01*
X135427380Y-92214285D02*
X135427380Y-92785714D01*
X135427380Y-92500000D02*
X134427380Y-92500000D01*
X134570238Y-92595238D01*
X134665476Y-92690476D01*
X134713095Y-92785714D01*
G04 #@! TO.C,1HL13*
X144454761Y-100782380D02*
X143883333Y-100782380D01*
X144169047Y-100782380D02*
X144169047Y-99782380D01*
X144073809Y-99925238D01*
X143978571Y-100020476D01*
X143883333Y-100068095D01*
X144883333Y-100782380D02*
X144883333Y-99782380D01*
X144883333Y-100258571D02*
X145454761Y-100258571D01*
X145454761Y-100782380D02*
X145454761Y-99782380D01*
X146407142Y-100782380D02*
X145930952Y-100782380D01*
X145930952Y-99782380D01*
X147264285Y-100782380D02*
X146692857Y-100782380D01*
X146978571Y-100782380D02*
X146978571Y-99782380D01*
X146883333Y-99925238D01*
X146788095Y-100020476D01*
X146692857Y-100068095D01*
X147597619Y-99782380D02*
X148216666Y-99782380D01*
X147883333Y-100163333D01*
X148026190Y-100163333D01*
X148121428Y-100210952D01*
X148169047Y-100258571D01*
X148216666Y-100353809D01*
X148216666Y-100591904D01*
X148169047Y-100687142D01*
X148121428Y-100734761D01*
X148026190Y-100782380D01*
X147740476Y-100782380D01*
X147645238Y-100734761D01*
X147597619Y-100687142D01*
X147227380Y-92214285D02*
X147227380Y-92785714D01*
X147227380Y-92500000D02*
X146227380Y-92500000D01*
X146370238Y-92595238D01*
X146465476Y-92690476D01*
X146513095Y-92785714D01*
G04 #@! TO.C,1HL14*
X155884761Y-100782380D02*
X155313333Y-100782380D01*
X155599047Y-100782380D02*
X155599047Y-99782380D01*
X155503809Y-99925238D01*
X155408571Y-100020476D01*
X155313333Y-100068095D01*
X156313333Y-100782380D02*
X156313333Y-99782380D01*
X156313333Y-100258571D02*
X156884761Y-100258571D01*
X156884761Y-100782380D02*
X156884761Y-99782380D01*
X157837142Y-100782380D02*
X157360952Y-100782380D01*
X157360952Y-99782380D01*
X158694285Y-100782380D02*
X158122857Y-100782380D01*
X158408571Y-100782380D02*
X158408571Y-99782380D01*
X158313333Y-99925238D01*
X158218095Y-100020476D01*
X158122857Y-100068095D01*
X159551428Y-100115714D02*
X159551428Y-100782380D01*
X159313333Y-99734761D02*
X159075238Y-100449047D01*
X159694285Y-100449047D01*
X158977380Y-92214285D02*
X158977380Y-92785714D01*
X158977380Y-92500000D02*
X157977380Y-92500000D01*
X158120238Y-92595238D01*
X158215476Y-92690476D01*
X158263095Y-92785714D01*
G04 #@! TO.C,1HL15*
X155884761Y-88717380D02*
X155313333Y-88717380D01*
X155599047Y-88717380D02*
X155599047Y-87717380D01*
X155503809Y-87860238D01*
X155408571Y-87955476D01*
X155313333Y-88003095D01*
X156313333Y-88717380D02*
X156313333Y-87717380D01*
X156313333Y-88193571D02*
X156884761Y-88193571D01*
X156884761Y-88717380D02*
X156884761Y-87717380D01*
X157837142Y-88717380D02*
X157360952Y-88717380D01*
X157360952Y-87717380D01*
X158694285Y-88717380D02*
X158122857Y-88717380D01*
X158408571Y-88717380D02*
X158408571Y-87717380D01*
X158313333Y-87860238D01*
X158218095Y-87955476D01*
X158122857Y-88003095D01*
X159599047Y-87717380D02*
X159122857Y-87717380D01*
X159075238Y-88193571D01*
X159122857Y-88145952D01*
X159218095Y-88098333D01*
X159456190Y-88098333D01*
X159551428Y-88145952D01*
X159599047Y-88193571D01*
X159646666Y-88288809D01*
X159646666Y-88526904D01*
X159599047Y-88622142D01*
X159551428Y-88669761D01*
X159456190Y-88717380D01*
X159218095Y-88717380D01*
X159122857Y-88669761D01*
X159075238Y-88622142D01*
X158977380Y-80114285D02*
X158977380Y-80685714D01*
X158977380Y-80400000D02*
X157977380Y-80400000D01*
X158120238Y-80495238D01*
X158215476Y-80590476D01*
X158263095Y-80685714D01*
G04 #@! TO.C,1HL16*
X144454761Y-88717380D02*
X143883333Y-88717380D01*
X144169047Y-88717380D02*
X144169047Y-87717380D01*
X144073809Y-87860238D01*
X143978571Y-87955476D01*
X143883333Y-88003095D01*
X144883333Y-88717380D02*
X144883333Y-87717380D01*
X144883333Y-88193571D02*
X145454761Y-88193571D01*
X145454761Y-88717380D02*
X145454761Y-87717380D01*
X146407142Y-88717380D02*
X145930952Y-88717380D01*
X145930952Y-87717380D01*
X147264285Y-88717380D02*
X146692857Y-88717380D01*
X146978571Y-88717380D02*
X146978571Y-87717380D01*
X146883333Y-87860238D01*
X146788095Y-87955476D01*
X146692857Y-88003095D01*
X148121428Y-87717380D02*
X147930952Y-87717380D01*
X147835714Y-87765000D01*
X147788095Y-87812619D01*
X147692857Y-87955476D01*
X147645238Y-88145952D01*
X147645238Y-88526904D01*
X147692857Y-88622142D01*
X147740476Y-88669761D01*
X147835714Y-88717380D01*
X148026190Y-88717380D01*
X148121428Y-88669761D01*
X148169047Y-88622142D01*
X148216666Y-88526904D01*
X148216666Y-88288809D01*
X148169047Y-88193571D01*
X148121428Y-88145952D01*
X148026190Y-88098333D01*
X147835714Y-88098333D01*
X147740476Y-88145952D01*
X147692857Y-88193571D01*
X147645238Y-88288809D01*
X147227380Y-80114285D02*
X147227380Y-80685714D01*
X147227380Y-80400000D02*
X146227380Y-80400000D01*
X146370238Y-80495238D01*
X146465476Y-80590476D01*
X146513095Y-80685714D01*
G04 #@! TO.C,1HL17*
X132389761Y-88717380D02*
X131818333Y-88717380D01*
X132104047Y-88717380D02*
X132104047Y-87717380D01*
X132008809Y-87860238D01*
X131913571Y-87955476D01*
X131818333Y-88003095D01*
X132818333Y-88717380D02*
X132818333Y-87717380D01*
X132818333Y-88193571D02*
X133389761Y-88193571D01*
X133389761Y-88717380D02*
X133389761Y-87717380D01*
X134342142Y-88717380D02*
X133865952Y-88717380D01*
X133865952Y-87717380D01*
X135199285Y-88717380D02*
X134627857Y-88717380D01*
X134913571Y-88717380D02*
X134913571Y-87717380D01*
X134818333Y-87860238D01*
X134723095Y-87955476D01*
X134627857Y-88003095D01*
X135532619Y-87717380D02*
X136199285Y-87717380D01*
X135770714Y-88717380D01*
X135427380Y-80114285D02*
X135427380Y-80685714D01*
X135427380Y-80400000D02*
X134427380Y-80400000D01*
X134570238Y-80495238D01*
X134665476Y-80590476D01*
X134713095Y-80685714D01*
G04 #@! TO.C,1HL18*
X120959761Y-88717380D02*
X120388333Y-88717380D01*
X120674047Y-88717380D02*
X120674047Y-87717380D01*
X120578809Y-87860238D01*
X120483571Y-87955476D01*
X120388333Y-88003095D01*
X121388333Y-88717380D02*
X121388333Y-87717380D01*
X121388333Y-88193571D02*
X121959761Y-88193571D01*
X121959761Y-88717380D02*
X121959761Y-87717380D01*
X122912142Y-88717380D02*
X122435952Y-88717380D01*
X122435952Y-87717380D01*
X123769285Y-88717380D02*
X123197857Y-88717380D01*
X123483571Y-88717380D02*
X123483571Y-87717380D01*
X123388333Y-87860238D01*
X123293095Y-87955476D01*
X123197857Y-88003095D01*
X124340714Y-88145952D02*
X124245476Y-88098333D01*
X124197857Y-88050714D01*
X124150238Y-87955476D01*
X124150238Y-87907857D01*
X124197857Y-87812619D01*
X124245476Y-87765000D01*
X124340714Y-87717380D01*
X124531190Y-87717380D01*
X124626428Y-87765000D01*
X124674047Y-87812619D01*
X124721666Y-87907857D01*
X124721666Y-87955476D01*
X124674047Y-88050714D01*
X124626428Y-88098333D01*
X124531190Y-88145952D01*
X124340714Y-88145952D01*
X124245476Y-88193571D01*
X124197857Y-88241190D01*
X124150238Y-88336428D01*
X124150238Y-88526904D01*
X124197857Y-88622142D01*
X124245476Y-88669761D01*
X124340714Y-88717380D01*
X124531190Y-88717380D01*
X124626428Y-88669761D01*
X124674047Y-88622142D01*
X124721666Y-88526904D01*
X124721666Y-88336428D01*
X124674047Y-88241190D01*
X124626428Y-88193571D01*
X124531190Y-88145952D01*
X123677380Y-80114285D02*
X123677380Y-80685714D01*
X123677380Y-80400000D02*
X122677380Y-80400000D01*
X122820238Y-80495238D01*
X122915476Y-80590476D01*
X122963095Y-80685714D01*
G04 #@! TO.C,1HL19*
X120959761Y-76652380D02*
X120388333Y-76652380D01*
X120674047Y-76652380D02*
X120674047Y-75652380D01*
X120578809Y-75795238D01*
X120483571Y-75890476D01*
X120388333Y-75938095D01*
X121388333Y-76652380D02*
X121388333Y-75652380D01*
X121388333Y-76128571D02*
X121959761Y-76128571D01*
X121959761Y-76652380D02*
X121959761Y-75652380D01*
X122912142Y-76652380D02*
X122435952Y-76652380D01*
X122435952Y-75652380D01*
X123769285Y-76652380D02*
X123197857Y-76652380D01*
X123483571Y-76652380D02*
X123483571Y-75652380D01*
X123388333Y-75795238D01*
X123293095Y-75890476D01*
X123197857Y-75938095D01*
X124245476Y-76652380D02*
X124435952Y-76652380D01*
X124531190Y-76604761D01*
X124578809Y-76557142D01*
X124674047Y-76414285D01*
X124721666Y-76223809D01*
X124721666Y-75842857D01*
X124674047Y-75747619D01*
X124626428Y-75700000D01*
X124531190Y-75652380D01*
X124340714Y-75652380D01*
X124245476Y-75700000D01*
X124197857Y-75747619D01*
X124150238Y-75842857D01*
X124150238Y-76080952D01*
X124197857Y-76176190D01*
X124245476Y-76223809D01*
X124340714Y-76271428D01*
X124531190Y-76271428D01*
X124626428Y-76223809D01*
X124674047Y-76176190D01*
X124721666Y-76080952D01*
X123677380Y-68014285D02*
X123677380Y-68585714D01*
X123677380Y-68300000D02*
X122677380Y-68300000D01*
X122820238Y-68395238D01*
X122915476Y-68490476D01*
X122963095Y-68585714D01*
G04 #@! TO.C,1HL20*
X132389761Y-76652380D02*
X131818333Y-76652380D01*
X132104047Y-76652380D02*
X132104047Y-75652380D01*
X132008809Y-75795238D01*
X131913571Y-75890476D01*
X131818333Y-75938095D01*
X132818333Y-76652380D02*
X132818333Y-75652380D01*
X132818333Y-76128571D02*
X133389761Y-76128571D01*
X133389761Y-76652380D02*
X133389761Y-75652380D01*
X134342142Y-76652380D02*
X133865952Y-76652380D01*
X133865952Y-75652380D01*
X134627857Y-75747619D02*
X134675476Y-75700000D01*
X134770714Y-75652380D01*
X135008809Y-75652380D01*
X135104047Y-75700000D01*
X135151666Y-75747619D01*
X135199285Y-75842857D01*
X135199285Y-75938095D01*
X135151666Y-76080952D01*
X134580238Y-76652380D01*
X135199285Y-76652380D01*
X135818333Y-75652380D02*
X135913571Y-75652380D01*
X136008809Y-75700000D01*
X136056428Y-75747619D01*
X136104047Y-75842857D01*
X136151666Y-76033333D01*
X136151666Y-76271428D01*
X136104047Y-76461904D01*
X136056428Y-76557142D01*
X136008809Y-76604761D01*
X135913571Y-76652380D01*
X135818333Y-76652380D01*
X135723095Y-76604761D01*
X135675476Y-76557142D01*
X135627857Y-76461904D01*
X135580238Y-76271428D01*
X135580238Y-76033333D01*
X135627857Y-75842857D01*
X135675476Y-75747619D01*
X135723095Y-75700000D01*
X135818333Y-75652380D01*
X135427380Y-68014285D02*
X135427380Y-68585714D01*
X135427380Y-68300000D02*
X134427380Y-68300000D01*
X134570238Y-68395238D01*
X134665476Y-68490476D01*
X134713095Y-68585714D01*
G04 #@! TO.C,1HL21*
X144454761Y-76652380D02*
X143883333Y-76652380D01*
X144169047Y-76652380D02*
X144169047Y-75652380D01*
X144073809Y-75795238D01*
X143978571Y-75890476D01*
X143883333Y-75938095D01*
X144883333Y-76652380D02*
X144883333Y-75652380D01*
X144883333Y-76128571D02*
X145454761Y-76128571D01*
X145454761Y-76652380D02*
X145454761Y-75652380D01*
X146407142Y-76652380D02*
X145930952Y-76652380D01*
X145930952Y-75652380D01*
X146692857Y-75747619D02*
X146740476Y-75700000D01*
X146835714Y-75652380D01*
X147073809Y-75652380D01*
X147169047Y-75700000D01*
X147216666Y-75747619D01*
X147264285Y-75842857D01*
X147264285Y-75938095D01*
X147216666Y-76080952D01*
X146645238Y-76652380D01*
X147264285Y-76652380D01*
X148216666Y-76652380D02*
X147645238Y-76652380D01*
X147930952Y-76652380D02*
X147930952Y-75652380D01*
X147835714Y-75795238D01*
X147740476Y-75890476D01*
X147645238Y-75938095D01*
X147227380Y-68014285D02*
X147227380Y-68585714D01*
X147227380Y-68300000D02*
X146227380Y-68300000D01*
X146370238Y-68395238D01*
X146465476Y-68490476D01*
X146513095Y-68585714D01*
G04 #@! TO.C,1HL22*
X155884761Y-76652380D02*
X155313333Y-76652380D01*
X155599047Y-76652380D02*
X155599047Y-75652380D01*
X155503809Y-75795238D01*
X155408571Y-75890476D01*
X155313333Y-75938095D01*
X156313333Y-76652380D02*
X156313333Y-75652380D01*
X156313333Y-76128571D02*
X156884761Y-76128571D01*
X156884761Y-76652380D02*
X156884761Y-75652380D01*
X157837142Y-76652380D02*
X157360952Y-76652380D01*
X157360952Y-75652380D01*
X158122857Y-75747619D02*
X158170476Y-75700000D01*
X158265714Y-75652380D01*
X158503809Y-75652380D01*
X158599047Y-75700000D01*
X158646666Y-75747619D01*
X158694285Y-75842857D01*
X158694285Y-75938095D01*
X158646666Y-76080952D01*
X158075238Y-76652380D01*
X158694285Y-76652380D01*
X159075238Y-75747619D02*
X159122857Y-75700000D01*
X159218095Y-75652380D01*
X159456190Y-75652380D01*
X159551428Y-75700000D01*
X159599047Y-75747619D01*
X159646666Y-75842857D01*
X159646666Y-75938095D01*
X159599047Y-76080952D01*
X159027619Y-76652380D01*
X159646666Y-76652380D01*
X158977380Y-68014285D02*
X158977380Y-68585714D01*
X158977380Y-68300000D02*
X157977380Y-68300000D01*
X158120238Y-68395238D01*
X158215476Y-68490476D01*
X158263095Y-68585714D01*
G04 #@! TO.C,1HL23*
X144454761Y-64587380D02*
X143883333Y-64587380D01*
X144169047Y-64587380D02*
X144169047Y-63587380D01*
X144073809Y-63730238D01*
X143978571Y-63825476D01*
X143883333Y-63873095D01*
X144883333Y-64587380D02*
X144883333Y-63587380D01*
X144883333Y-64063571D02*
X145454761Y-64063571D01*
X145454761Y-64587380D02*
X145454761Y-63587380D01*
X146407142Y-64587380D02*
X145930952Y-64587380D01*
X145930952Y-63587380D01*
X146692857Y-63682619D02*
X146740476Y-63635000D01*
X146835714Y-63587380D01*
X147073809Y-63587380D01*
X147169047Y-63635000D01*
X147216666Y-63682619D01*
X147264285Y-63777857D01*
X147264285Y-63873095D01*
X147216666Y-64015952D01*
X146645238Y-64587380D01*
X147264285Y-64587380D01*
X147597619Y-63587380D02*
X148216666Y-63587380D01*
X147883333Y-63968333D01*
X148026190Y-63968333D01*
X148121428Y-64015952D01*
X148169047Y-64063571D01*
X148216666Y-64158809D01*
X148216666Y-64396904D01*
X148169047Y-64492142D01*
X148121428Y-64539761D01*
X148026190Y-64587380D01*
X147740476Y-64587380D01*
X147645238Y-64539761D01*
X147597619Y-64492142D01*
X147227380Y-55914285D02*
X147227380Y-56485714D01*
X147227380Y-56200000D02*
X146227380Y-56200000D01*
X146370238Y-56295238D01*
X146465476Y-56390476D01*
X146513095Y-56485714D01*
G04 #@! TO.C,1HL24*
X132389761Y-64587380D02*
X131818333Y-64587380D01*
X132104047Y-64587380D02*
X132104047Y-63587380D01*
X132008809Y-63730238D01*
X131913571Y-63825476D01*
X131818333Y-63873095D01*
X132818333Y-64587380D02*
X132818333Y-63587380D01*
X132818333Y-64063571D02*
X133389761Y-64063571D01*
X133389761Y-64587380D02*
X133389761Y-63587380D01*
X134342142Y-64587380D02*
X133865952Y-64587380D01*
X133865952Y-63587380D01*
X134627857Y-63682619D02*
X134675476Y-63635000D01*
X134770714Y-63587380D01*
X135008809Y-63587380D01*
X135104047Y-63635000D01*
X135151666Y-63682619D01*
X135199285Y-63777857D01*
X135199285Y-63873095D01*
X135151666Y-64015952D01*
X134580238Y-64587380D01*
X135199285Y-64587380D01*
X136056428Y-63920714D02*
X136056428Y-64587380D01*
X135818333Y-63539761D02*
X135580238Y-64254047D01*
X136199285Y-64254047D01*
X135427380Y-55914285D02*
X135427380Y-56485714D01*
X135427380Y-56200000D02*
X134427380Y-56200000D01*
X134570238Y-56295238D01*
X134665476Y-56390476D01*
X134713095Y-56485714D01*
G04 #@! TO.C,1HL1*
X121347052Y-128087380D02*
X120775623Y-128087380D01*
X121061338Y-128087380D02*
X121061338Y-127087380D01*
X120966100Y-127230238D01*
X120870861Y-127325476D01*
X120775623Y-127373095D01*
X121775623Y-128087380D02*
X121775623Y-127087380D01*
X121775623Y-127563571D02*
X122347052Y-127563571D01*
X122347052Y-128087380D02*
X122347052Y-127087380D01*
X123299433Y-128087380D02*
X122823242Y-128087380D01*
X122823242Y-127087380D01*
X124156576Y-128087380D02*
X123585147Y-128087380D01*
X123870861Y-128087380D02*
X123870861Y-127087380D01*
X123775623Y-127230238D01*
X123680385Y-127325476D01*
X123585147Y-127373095D01*
X123677380Y-119264285D02*
X123677380Y-119835714D01*
X123677380Y-119550000D02*
X122677380Y-119550000D01*
X122820238Y-119645238D01*
X122915476Y-119740476D01*
X122963095Y-119835714D01*
G04 #@! TO.C,1HL2*
X132865952Y-128087380D02*
X132294523Y-128087380D01*
X132580238Y-128087380D02*
X132580238Y-127087380D01*
X132485000Y-127230238D01*
X132389761Y-127325476D01*
X132294523Y-127373095D01*
X133294523Y-128087380D02*
X133294523Y-127087380D01*
X133294523Y-127563571D02*
X133865952Y-127563571D01*
X133865952Y-128087380D02*
X133865952Y-127087380D01*
X134818333Y-128087380D02*
X134342142Y-128087380D01*
X134342142Y-127087380D01*
X135104047Y-127182619D02*
X135151666Y-127135000D01*
X135246904Y-127087380D01*
X135485000Y-127087380D01*
X135580238Y-127135000D01*
X135627857Y-127182619D01*
X135675476Y-127277857D01*
X135675476Y-127373095D01*
X135627857Y-127515952D01*
X135056428Y-128087380D01*
X135675476Y-128087380D01*
X135427380Y-119264285D02*
X135427380Y-119835714D01*
X135427380Y-119550000D02*
X134427380Y-119550000D01*
X134570238Y-119645238D01*
X134665476Y-119740476D01*
X134713095Y-119835714D01*
G04 #@! TO.C,1HL3*
X144930952Y-128087380D02*
X144359523Y-128087380D01*
X144645238Y-128087380D02*
X144645238Y-127087380D01*
X144550000Y-127230238D01*
X144454761Y-127325476D01*
X144359523Y-127373095D01*
X145359523Y-128087380D02*
X145359523Y-127087380D01*
X145359523Y-127563571D02*
X145930952Y-127563571D01*
X145930952Y-128087380D02*
X145930952Y-127087380D01*
X146883333Y-128087380D02*
X146407142Y-128087380D01*
X146407142Y-127087380D01*
X147121428Y-127087380D02*
X147740476Y-127087380D01*
X147407142Y-127468333D01*
X147550000Y-127468333D01*
X147645238Y-127515952D01*
X147692857Y-127563571D01*
X147740476Y-127658809D01*
X147740476Y-127896904D01*
X147692857Y-127992142D01*
X147645238Y-128039761D01*
X147550000Y-128087380D01*
X147264285Y-128087380D01*
X147169047Y-128039761D01*
X147121428Y-127992142D01*
X147227380Y-119264285D02*
X147227380Y-119835714D01*
X147227380Y-119550000D02*
X146227380Y-119550000D01*
X146370238Y-119645238D01*
X146465476Y-119740476D01*
X146513095Y-119835714D01*
G04 #@! TO.C,1HL4*
X156360952Y-128087380D02*
X155789523Y-128087380D01*
X156075238Y-128087380D02*
X156075238Y-127087380D01*
X155980000Y-127230238D01*
X155884761Y-127325476D01*
X155789523Y-127373095D01*
X156789523Y-128087380D02*
X156789523Y-127087380D01*
X156789523Y-127563571D02*
X157360952Y-127563571D01*
X157360952Y-128087380D02*
X157360952Y-127087380D01*
X158313333Y-128087380D02*
X157837142Y-128087380D01*
X157837142Y-127087380D01*
X159075238Y-127420714D02*
X159075238Y-128087380D01*
X158837142Y-127039761D02*
X158599047Y-127754047D01*
X159218095Y-127754047D01*
X158977380Y-119264285D02*
X158977380Y-119835714D01*
X158977380Y-119550000D02*
X157977380Y-119550000D01*
X158120238Y-119645238D01*
X158215476Y-119740476D01*
X158263095Y-119835714D01*
G04 #@! TO.C,C1*
X166310742Y-129839066D02*
X166358361Y-129886685D01*
X166405980Y-130029542D01*
X166405980Y-130124780D01*
X166358361Y-130267638D01*
X166263123Y-130362876D01*
X166167885Y-130410495D01*
X165977409Y-130458114D01*
X165834552Y-130458114D01*
X165644076Y-130410495D01*
X165548838Y-130362876D01*
X165453600Y-130267638D01*
X165405980Y-130124780D01*
X165405980Y-130029542D01*
X165453600Y-129886685D01*
X165501219Y-129839066D01*
X166405980Y-128886685D02*
X166405980Y-129458114D01*
X166405980Y-129172400D02*
X165405980Y-129172400D01*
X165548838Y-129267638D01*
X165644076Y-129362876D01*
X165691695Y-129458114D01*
G04 #@! TD*
M02*
