G04 #@! TF.GenerationSoftware,KiCad,Pcbnew,(5.0.0)*
G04 #@! TF.CreationDate,2018-10-19T16:20:16+03:00*
G04 #@! TF.ProjectId,side_1,736964655F312E6B696361645F706362,rev?*
G04 #@! TF.SameCoordinates,Original*
G04 #@! TF.FileFunction,Profile,NP*
%FSLAX46Y46*%
G04 Gerber Fmt 4.6, Leading zero omitted, Abs format (unit mm)*
G04 Created by KiCad (PCBNEW (5.0.0)) date 10/19/18 16:20:16*
%MOMM*%
%LPD*%
G01*
G04 APERTURE LIST*
%ADD10C,0.200000*%
G04 APERTURE END LIST*
D10*
X147967700Y-51447700D02*
X147891500Y-51739800D01*
X147980400Y-51130200D02*
X147967700Y-51447700D01*
X147980400Y-50812700D02*
X147980400Y-51130200D01*
X147942300Y-50546000D02*
X147980400Y-50812700D01*
X147891500Y-50342800D02*
X147942300Y-50546000D01*
X147815300Y-50165000D02*
X147891500Y-50342800D01*
X132422900Y-51904900D02*
X132676900Y-52298600D01*
X132321300Y-51638200D02*
X132422900Y-51904900D01*
X132257800Y-51295300D02*
X132321300Y-51638200D01*
X132207000Y-51015900D02*
X132257800Y-51295300D01*
X132207000Y-50634900D02*
X132207000Y-51015900D01*
X132207000Y-50469800D02*
X132207000Y-50634900D01*
X132219700Y-50330100D02*
X132207000Y-50469800D01*
X132283200Y-50190400D02*
X132219700Y-50330100D01*
X101752400Y-92151200D02*
X101727000Y-92430600D01*
X101752400Y-91948000D02*
X101752400Y-92151200D01*
X101752400Y-91732100D02*
X101752400Y-91948000D01*
X101688900Y-91478100D02*
X101752400Y-91732100D01*
X101574600Y-91300300D02*
X101688900Y-91478100D01*
X101396800Y-91186000D02*
X101574600Y-91300300D01*
X101244400Y-91186000D02*
X101396800Y-91186000D01*
X178384200Y-91567000D02*
X178422300Y-91808300D01*
X178384200Y-91414600D02*
X178384200Y-91567000D01*
X178447700Y-91262200D02*
X178384200Y-91414600D01*
X178562000Y-91135200D02*
X178447700Y-91262200D01*
X184810400Y-116497100D02*
X185293000Y-115862100D01*
X184619900Y-116662200D02*
X184810400Y-116497100D01*
X183857900Y-117055900D02*
X184619900Y-116662200D01*
X183032400Y-117424200D02*
X183857900Y-117055900D01*
X182448200Y-117640100D02*
X183032400Y-117424200D01*
X181952900Y-117779800D02*
X182448200Y-117640100D01*
X181635400Y-117868700D02*
X181952900Y-117779800D01*
X179984400Y-117881400D02*
X181622700Y-117881400D01*
X178371500Y-117665500D02*
X179984400Y-117881400D01*
X177165000Y-117271800D02*
X178371500Y-117665500D01*
X175780700Y-116725700D02*
X177165000Y-117271800D01*
X175094900Y-115811300D02*
X175780700Y-116725700D01*
X174523400Y-114884200D02*
X175094900Y-115811300D01*
X174332900Y-113563400D02*
X174523400Y-114884200D01*
X174332900Y-112737900D02*
X174332900Y-113563400D01*
X174485300Y-111747300D02*
X174332900Y-112737900D01*
X175158400Y-110680500D02*
X174485300Y-111747300D01*
X176034700Y-110172500D02*
X175158400Y-110680500D01*
X177063400Y-109905800D02*
X176034700Y-110172500D01*
X177952400Y-109816900D02*
X177063400Y-109905800D01*
X178943000Y-109969300D02*
X177952400Y-109816900D01*
X179654200Y-110172500D02*
X178943000Y-109969300D01*
X180340000Y-110883700D02*
X179654200Y-110172500D01*
X180695600Y-111455200D02*
X180340000Y-110883700D01*
X180682900Y-112191800D02*
X180695600Y-111455200D01*
X180657500Y-112750600D02*
X180682900Y-112191800D01*
X180543200Y-113296700D02*
X180657500Y-112750600D01*
X180200300Y-113728500D02*
X180543200Y-113296700D01*
X179819300Y-114084100D02*
X180200300Y-113728500D01*
X179387500Y-114274600D02*
X179819300Y-114084100D01*
X178917600Y-114249200D02*
X179387500Y-114274600D01*
X100863400Y-114198400D02*
X101320600Y-114185700D01*
X100520500Y-114122200D02*
X100863400Y-114198400D01*
X100253800Y-113969800D02*
X100520500Y-114122200D01*
X97472500Y-118402100D02*
X96862900Y-118198900D01*
X98221800Y-118554500D02*
X97472500Y-118402100D01*
X99187000Y-118503700D02*
X98221800Y-118554500D01*
X100050600Y-118440200D02*
X99187000Y-118503700D01*
X101130100Y-118313200D02*
X100050600Y-118440200D01*
X102323900Y-117944900D02*
X101130100Y-118313200D01*
X103098600Y-117614700D02*
X102323900Y-117944900D01*
X104101900Y-116954300D02*
X103098600Y-117614700D01*
X104711500Y-116611400D02*
X104101900Y-116954300D01*
X105346500Y-115646200D02*
X104711500Y-116611400D01*
X105651300Y-114782600D02*
X105346500Y-115646200D01*
X105816400Y-113842800D02*
X105651300Y-114782600D01*
X105905300Y-113157000D02*
X105816400Y-113842800D01*
X105867200Y-112407700D02*
X105905300Y-113157000D01*
X105537000Y-111379000D02*
X105867200Y-112407700D01*
X105371900Y-111048800D02*
X105537000Y-111379000D01*
X104813100Y-110490000D02*
X105371900Y-111048800D01*
X104241600Y-110134400D02*
X104813100Y-110490000D01*
X103517700Y-109842300D02*
X104241600Y-110134400D01*
X102920800Y-109753400D02*
X103505000Y-109842300D01*
X102552500Y-109728000D02*
X102920800Y-109753400D01*
X102044500Y-109766100D02*
X102552500Y-109728000D01*
X101574600Y-109829600D02*
X102044500Y-109766100D01*
X101079300Y-109943900D02*
X101587300Y-109842300D01*
X100482400Y-110236000D02*
X101079300Y-109943900D01*
X100152200Y-110490000D02*
X100482400Y-110236000D01*
X99860100Y-110858300D02*
X100152200Y-110490000D01*
X99682300Y-111226600D02*
X99860100Y-110858300D01*
X99593400Y-112090200D02*
X99669600Y-111239300D01*
X99656900Y-112801400D02*
X99593400Y-112090200D01*
X99949000Y-113538000D02*
X99656900Y-112801400D01*
X100253800Y-113957100D02*
X99949000Y-113538000D01*
X140868400Y-53936900D02*
X144424400Y-53594000D01*
X135661400Y-53594000D02*
X139103100Y-53949600D01*
X139103100Y-53949600D02*
X139103100Y-84632800D01*
X140868400Y-53936900D02*
X140855700Y-84620100D01*
X129946400Y-49885600D02*
X129743200Y-52425600D01*
X150152100Y-49898300D02*
X150368000Y-52425600D01*
X95824956Y-134156023D02*
X95824956Y-127530341D01*
X115426633Y-77261571D02*
X115478732Y-77415693D01*
X115381190Y-77136060D02*
X115426633Y-77261571D01*
X115327196Y-77012953D02*
X115381190Y-77136060D01*
X115275515Y-76905284D02*
X115327196Y-77012953D01*
X115215281Y-76799874D02*
X115275515Y-76905284D01*
X115157188Y-76707359D02*
X115215281Y-76799874D01*
X115093416Y-76618075D02*
X115157188Y-76707359D01*
X115027966Y-76544176D02*
X115093416Y-76618075D01*
X114955257Y-76473609D02*
X115027966Y-76544176D01*
X114882990Y-76409844D02*
X114955257Y-76473609D01*
X114807811Y-76355548D02*
X114882990Y-76409844D01*
X114727882Y-76311378D02*
X114807811Y-76355548D01*
X114647499Y-76273302D02*
X114727882Y-76311378D01*
X114561635Y-76241886D02*
X114647499Y-76273302D01*
X114364734Y-76193757D02*
X114561635Y-76241886D01*
X114308570Y-76175037D02*
X114364734Y-76193757D01*
X114254184Y-76151389D02*
X114308570Y-76175037D01*
X114217294Y-76130308D02*
X114254184Y-76151389D01*
X114185708Y-76101598D02*
X114217294Y-76130308D01*
X114165854Y-76071807D02*
X114185708Y-76101598D01*
X114146216Y-76003083D02*
X114165854Y-76071807D01*
X114177101Y-75941314D02*
X114146216Y-76003083D01*
X114198173Y-75911211D02*
X114177101Y-75941314D01*
X116412312Y-67062780D02*
X116480790Y-67416211D01*
X116363685Y-66704726D02*
X116412312Y-67062780D01*
X116337197Y-66342699D02*
X116363685Y-66704726D01*
X116330564Y-66161434D02*
X116337197Y-66342699D01*
X116328351Y-65979898D02*
X116330564Y-66161434D01*
X116341596Y-65617912D02*
X116328351Y-65979898D01*
X116357114Y-65433906D02*
X116341596Y-65617912D01*
X116379222Y-65254799D02*
X116357114Y-65433906D01*
X116405757Y-65075701D02*
X116379222Y-65254799D01*
X116438980Y-64898502D02*
X116405757Y-65075701D01*
X116478839Y-64723562D02*
X116438980Y-64898502D01*
X116525358Y-64548564D02*
X116478839Y-64723562D01*
X116578525Y-64377983D02*
X116525358Y-64548564D01*
X116638225Y-64207730D02*
X116578525Y-64377983D01*
X116702503Y-64039284D02*
X116638225Y-64207730D01*
X116775891Y-63874714D02*
X116702503Y-64039284D01*
X116857851Y-63715225D02*
X116775891Y-63874714D01*
X116944246Y-63555727D02*
X116857851Y-63715225D01*
X117037575Y-63404621D02*
X116944246Y-63555727D01*
X117137397Y-63258215D02*
X117037575Y-63404621D01*
X117241397Y-63118814D02*
X117137397Y-63258215D01*
X117345710Y-62985647D02*
X117241397Y-63118814D01*
X117456773Y-62861251D02*
X117345710Y-62985647D01*
X117572020Y-62739358D02*
X117456773Y-62861251D01*
X117687471Y-62628345D02*
X117572020Y-62739358D01*
X117809606Y-62519534D02*
X117687471Y-62628345D01*
X117934013Y-62419563D02*
X117809606Y-62519534D01*
X118062633Y-62324210D02*
X117934013Y-62419563D01*
X118189034Y-62237723D02*
X118062633Y-62324210D01*
X118322377Y-62153276D02*
X118189034Y-62237723D01*
X118458024Y-62077667D02*
X118322377Y-62153276D01*
X118593140Y-62009002D02*
X118458024Y-62077667D01*
X118728390Y-61944698D02*
X118593140Y-62009002D01*
X118870900Y-61884581D02*
X118728390Y-61944698D01*
X119152198Y-61784909D02*
X118870900Y-61884581D01*
X119437901Y-61705175D02*
X119152198Y-61784909D01*
X119580299Y-61674025D02*
X119437901Y-61705175D01*
X119726975Y-61647358D02*
X119580299Y-61674025D01*
X120016979Y-61609724D02*
X119726975Y-61647358D01*
X120300324Y-61592016D02*
X120016979Y-61609724D01*
X120440256Y-61589791D02*
X120300324Y-61592016D01*
X120586821Y-61592015D02*
X120440256Y-61589791D01*
X120863752Y-61609737D02*
X120586821Y-61592015D01*
X121138165Y-61647358D02*
X120863752Y-61609737D01*
X121267017Y-61669575D02*
X121138165Y-61647358D01*
X121402796Y-61698512D02*
X121267017Y-61669575D01*
X121659983Y-61767239D02*
X121402796Y-61698512D01*
X121901696Y-61851505D02*
X121659983Y-61767239D01*
X122017336Y-61898206D02*
X121901696Y-61851505D01*
X122139941Y-61951708D02*
X122017336Y-61898206D01*
X122353515Y-62062946D02*
X122139941Y-61951708D01*
X122558107Y-62191923D02*
X122353515Y-62062946D01*
X122647641Y-62256840D02*
X122558107Y-62191923D01*
X122739602Y-62328612D02*
X122647641Y-62256840D01*
X122907092Y-62482702D02*
X122739602Y-62328612D01*
X105014627Y-83186115D02*
X104917551Y-83358207D01*
X105206127Y-82862546D02*
X105014627Y-83186115D01*
X105397631Y-82560980D02*
X105206127Y-82862546D01*
X105488178Y-82424055D02*
X105397631Y-82560980D01*
X105598450Y-82267474D02*
X105488178Y-82424055D01*
X105796603Y-81994457D02*
X105598450Y-82267474D01*
X106003786Y-81729974D02*
X105796603Y-81994457D01*
X106103172Y-81610709D02*
X106003786Y-81729974D01*
X106211162Y-81485089D02*
X106103172Y-81610709D01*
X106424748Y-81245078D02*
X106211162Y-81485089D01*
X106634399Y-81024390D02*
X106424748Y-81245078D01*
X106854925Y-80812688D02*
X106634399Y-81024390D01*
X107068838Y-80616415D02*
X106854925Y-80812688D01*
X107291545Y-80428990D02*
X107068838Y-80616415D01*
X107507554Y-80254858D02*
X107291545Y-80428990D01*
X107728335Y-80089271D02*
X107507554Y-80254858D01*
X107946746Y-79939252D02*
X107728335Y-80089271D01*
X108169480Y-79793703D02*
X107946746Y-79939252D01*
X108385815Y-79663462D02*
X108169480Y-79793703D01*
X108606277Y-79540002D02*
X108385815Y-79663462D01*
X108818082Y-79427479D02*
X108606277Y-79540002D01*
X109036407Y-79321625D02*
X108818082Y-79427479D01*
X109246207Y-79224452D02*
X109036407Y-79321625D01*
X109660900Y-79056809D02*
X109246207Y-79224452D01*
X109868823Y-78986027D02*
X109660900Y-79056809D01*
X110247783Y-78867054D02*
X109868823Y-78986027D01*
X110635723Y-78765657D02*
X110247783Y-78867054D01*
X110802007Y-78727970D02*
X110635723Y-78765657D01*
X110976718Y-78697008D02*
X110802007Y-78727970D01*
X111317981Y-78641962D02*
X110976718Y-78697008D01*
X111602785Y-78606640D02*
X111317981Y-78641962D01*
X111740218Y-78595554D02*
X111602785Y-78606640D01*
X111888338Y-78586712D02*
X111740218Y-78595554D01*
X112107964Y-78580056D02*
X111888338Y-78586712D01*
X112594488Y-78604380D02*
X112107964Y-78580056D01*
X112934006Y-78652886D02*
X112594488Y-78604380D01*
X113271342Y-78694503D02*
X112934006Y-78652886D01*
X113852525Y-78760298D02*
X113271342Y-78694503D01*
X114330668Y-78810746D02*
X113852525Y-78760298D01*
X115050240Y-78883139D02*
X114330668Y-78810746D01*
X115723257Y-78946361D02*
X115050240Y-78883139D01*
X115696547Y-78599141D02*
X115723257Y-78946361D01*
X115646320Y-78203884D02*
X115696547Y-78599141D01*
X115589635Y-77870307D02*
X115646320Y-78203884D01*
X115513299Y-77543155D02*
X115589635Y-77870307D01*
X115478732Y-77415693D02*
X115513299Y-77543155D01*
X114269328Y-75857231D02*
X114198173Y-75911211D01*
X114341974Y-75815051D02*
X114269328Y-75857231D01*
X114449560Y-75769269D02*
X114341974Y-75815051D01*
X114557500Y-75735538D02*
X114449560Y-75769269D01*
X114691824Y-75697480D02*
X114557500Y-75735538D01*
X114830398Y-75672895D02*
X114691824Y-75697480D01*
X114984066Y-75648393D02*
X114830398Y-75672895D01*
X115142429Y-75637242D02*
X114984066Y-75648393D01*
X115309112Y-75630574D02*
X115142429Y-75637242D01*
X115476527Y-75635040D02*
X115309112Y-75630574D01*
X115648347Y-75650660D02*
X115476527Y-75635040D01*
X115816098Y-75677498D02*
X115648347Y-75650660D01*
X115981742Y-75717789D02*
X115816098Y-75677498D01*
X116141697Y-75769606D02*
X115981742Y-75717789D01*
X116295322Y-75841901D02*
X116141697Y-75769606D01*
X116435269Y-75925418D02*
X116295322Y-75841901D01*
X116501549Y-75975699D02*
X116435269Y-75925418D01*
X116567466Y-76030249D02*
X116501549Y-75975699D01*
X116627231Y-76090018D02*
X116567466Y-76030249D01*
X116723481Y-76203767D02*
X116627231Y-76090018D01*
X116769760Y-76248031D02*
X116723481Y-76203767D01*
X116805761Y-76272666D02*
X116769760Y-76248031D01*
X116847131Y-76292366D02*
X116805761Y-76272666D01*
X116899650Y-76295891D02*
X116847131Y-76292366D01*
X116924192Y-76288674D02*
X116899650Y-76295891D01*
X116946939Y-76270802D02*
X116924192Y-76288674D01*
X116974836Y-76244763D02*
X116946939Y-76270802D01*
X116997664Y-76210525D02*
X116974836Y-76244763D01*
X117026428Y-76161215D02*
X116997664Y-76210525D01*
X117059861Y-76083893D02*
X117026428Y-76161215D01*
X117100603Y-75965962D02*
X117059861Y-76083893D01*
X117141558Y-75819382D02*
X117100603Y-75965962D01*
X117195897Y-75558567D02*
X117141558Y-75819382D01*
X117283466Y-74989347D02*
X117195897Y-75558567D01*
X117384429Y-74280399D02*
X117283466Y-74989347D01*
X117421861Y-74044798D02*
X117384429Y-74280399D01*
X117461515Y-73824499D02*
X117421861Y-74044798D01*
X117505667Y-73603741D02*
X117461515Y-73824499D01*
X117552185Y-73413238D02*
X117505667Y-73603741D01*
X117576741Y-73328403D02*
X117552185Y-73413238D01*
X117610277Y-73223332D02*
X117576741Y-73328403D01*
X117668609Y-73075253D02*
X117610277Y-73223332D01*
X117741394Y-72931956D02*
X117668609Y-73075253D01*
X117782430Y-72876440D02*
X117741394Y-72931956D01*
X117826796Y-72829740D02*
X117782430Y-72876440D01*
X117869298Y-72789737D02*
X117826796Y-72829740D01*
X117922770Y-72761728D02*
X117869298Y-72789737D01*
X118006037Y-72729346D02*
X117922770Y-72761728D01*
X118051083Y-72716835D02*
X118006037Y-72729346D01*
X118100920Y-72711587D02*
X118051083Y-72716835D01*
X118174449Y-72719466D02*
X118100920Y-72711587D01*
X118274361Y-72768139D02*
X118174449Y-72719466D01*
X118345166Y-72846531D02*
X118274361Y-72768139D01*
X118381451Y-72916680D02*
X118345166Y-72846531D01*
X118411655Y-72988713D02*
X118381451Y-72916680D01*
X118463410Y-73170971D02*
X118411655Y-72988713D01*
X118551293Y-73652138D02*
X118463410Y-73170971D01*
X118598781Y-73837764D02*
X118551293Y-73652138D01*
X118628497Y-73924790D02*
X118598781Y-73837764D01*
X118660494Y-74001584D02*
X118628497Y-73924790D01*
X118676137Y-74034828D02*
X118660494Y-74001584D01*
X118697508Y-74065911D02*
X118676137Y-74034828D01*
X118742806Y-74123564D02*
X118697508Y-74065911D01*
X118795337Y-74172053D02*
X118742806Y-74123564D01*
X118820192Y-74189806D02*
X118795337Y-74172053D01*
X118848281Y-74202095D02*
X118820192Y-74189806D01*
X118914284Y-74220096D02*
X118848281Y-74202095D01*
X118947981Y-74223645D02*
X118914284Y-74220096D01*
X118980475Y-74220223D02*
X118947981Y-74223645D01*
X119013542Y-74209201D02*
X118980475Y-74220223D01*
X119046841Y-74194402D02*
X119013542Y-74209201D01*
X119123068Y-74138235D02*
X119046841Y-74194402D01*
X119190767Y-74064380D02*
X119123068Y-74138235D01*
X119230318Y-74008179D02*
X119190767Y-74064380D01*
X119264026Y-73955507D02*
X119230318Y-74008179D01*
X119326098Y-73839927D02*
X119264026Y-73955507D01*
X119390789Y-73693287D02*
X119326098Y-73839927D01*
X119420796Y-73613984D02*
X119390789Y-73693287D01*
X119444280Y-73543540D02*
X119420796Y-73613984D01*
X119491946Y-73368039D02*
X119444280Y-73543540D01*
X119531021Y-73187854D02*
X119491946Y-73368039D01*
X119548171Y-73089235D02*
X119531021Y-73187854D01*
X119578579Y-72798185D02*
X119548171Y-73089235D01*
X119585078Y-72592401D02*
X119578579Y-72798185D01*
X119582917Y-72488662D02*
X119585078Y-72592401D01*
X119578605Y-72387354D02*
X119582917Y-72488662D01*
X119556947Y-72183736D02*
X119578605Y-72387354D01*
X119522349Y-71978324D02*
X119556947Y-72183736D01*
X119496592Y-71877450D02*
X119522349Y-71978324D01*
X119468683Y-71778687D02*
X119496592Y-71877450D01*
X119397170Y-71585826D02*
X119468683Y-71778687D01*
X119358732Y-71493997D02*
X119397170Y-71585826D01*
X119311788Y-71404375D02*
X119358732Y-71493997D01*
X119260073Y-71316029D02*
X119311788Y-71404375D01*
X119206636Y-71232668D02*
X119260073Y-71316029D01*
X119144626Y-71151416D02*
X119206636Y-71232668D01*
X119080943Y-71074994D02*
X119144626Y-71151416D01*
X118930315Y-70930823D02*
X119080943Y-71074994D01*
X118849673Y-70865040D02*
X118930315Y-70930823D01*
X118762267Y-70805342D02*
X118849673Y-70865040D01*
X118666182Y-70747694D02*
X118762267Y-70805342D01*
X118564036Y-70697708D02*
X118666182Y-70747694D01*
X118459629Y-70642172D02*
X118564036Y-70697708D01*
X118354898Y-70582008D02*
X118459629Y-70642172D01*
X118247470Y-70512627D02*
X118354898Y-70582008D01*
X118144671Y-70436644D02*
X118247470Y-70512627D01*
X118039631Y-70351719D02*
X118144671Y-70436644D01*
X117943775Y-70262551D02*
X118039631Y-70351719D01*
X117844118Y-70165109D02*
X117943775Y-70262551D01*
X117745963Y-70062494D02*
X117844118Y-70165109D01*
X117557556Y-69834186D02*
X117745963Y-70062494D01*
X117382575Y-69592760D02*
X117557556Y-69834186D01*
X117212271Y-69322927D02*
X117382575Y-69592760D01*
X117132547Y-69181190D02*
X117212271Y-69322927D01*
X117057219Y-69041615D02*
X117132547Y-69181190D01*
X116913625Y-68738969D02*
X117057219Y-69041615D01*
X116785595Y-68429931D02*
X116913625Y-68738969D01*
X116723737Y-68262035D02*
X116785595Y-68429931D01*
X116666214Y-68098307D02*
X116723737Y-68262035D01*
X116566880Y-67762778D02*
X116666214Y-68098307D01*
X116480790Y-67416211D02*
X116566880Y-67762778D01*
X103399715Y-111575528D02*
X103520699Y-111666800D01*
X103271211Y-111500569D02*
X103399715Y-111575528D01*
X103205910Y-111466868D02*
X103271211Y-111500569D01*
X103138959Y-111439668D02*
X103205910Y-111466868D01*
X102993604Y-111392642D02*
X103138959Y-111439668D01*
X102843020Y-111362525D02*
X102993604Y-111392642D01*
X102768058Y-111349675D02*
X102843020Y-111362525D01*
X102691807Y-111341203D02*
X102768058Y-111349675D01*
X102537369Y-111334768D02*
X102691807Y-111341203D01*
X102379859Y-111343398D02*
X102537369Y-111334768D01*
X102303140Y-111349792D02*
X102379859Y-111343398D01*
X102224436Y-111362554D02*
X102303140Y-111349792D01*
X102075500Y-111392773D02*
X102224436Y-111362554D01*
X101924408Y-111435941D02*
X102075500Y-111392773D01*
X101854292Y-111459317D02*
X101924408Y-111435941D01*
X101782126Y-111489032D02*
X101854292Y-111459317D01*
X101646593Y-111553569D02*
X101782126Y-111489032D01*
X101522455Y-111626340D02*
X101646593Y-111553569D01*
X101465513Y-111666412D02*
X101522455Y-111626340D01*
X101408454Y-111710790D02*
X101465513Y-111666412D01*
X101305975Y-111804730D02*
X101408454Y-111710790D01*
X101214561Y-111906772D02*
X101305975Y-111804730D01*
X101177530Y-111958204D02*
X101214561Y-111906772D01*
X101144417Y-112014080D02*
X101177530Y-111958204D01*
X101086952Y-112135406D02*
X101144417Y-112014080D01*
X101031279Y-112291708D02*
X101086952Y-112135406D01*
X101010192Y-112373950D02*
X101031279Y-112291708D01*
X100995492Y-112453747D02*
X101010192Y-112373950D01*
X100982719Y-112609143D02*
X100995492Y-112453747D01*
X100989108Y-112764591D02*
X100982719Y-112609143D01*
X100999618Y-112840248D02*
X100989108Y-112764591D01*
X101014239Y-112913350D02*
X100999618Y-112840248D01*
X101060822Y-113057339D02*
X101014239Y-112913350D01*
X101133579Y-113207132D02*
X101060822Y-113057339D01*
X101173764Y-113279045D02*
X101133579Y-113207132D01*
X101217891Y-113344185D02*
X101173764Y-113279045D01*
X101333960Y-113490341D02*
X101217891Y-113344185D01*
X101459094Y-113617632D02*
X101333960Y-113490341D01*
X101538733Y-113692968D02*
X101459094Y-113617632D01*
X101615880Y-113757256D02*
X101538733Y-113692968D01*
X101838502Y-113924948D02*
X101615880Y-113757256D01*
X101513348Y-114095652D02*
X101838502Y-113924948D01*
X101462126Y-114117920D02*
X101513348Y-114095652D01*
X101315428Y-114187986D02*
X101462126Y-114117920D01*
X183537201Y-122796206D02*
X183619769Y-122815262D01*
X183457852Y-122785767D02*
X183537201Y-122796206D01*
X183231080Y-122777129D02*
X183457852Y-122785767D01*
X183005625Y-122785800D02*
X183231080Y-122777129D01*
X182790239Y-122805378D02*
X183005625Y-122785800D01*
X182358654Y-122859874D02*
X182790239Y-122805378D01*
X182183170Y-122900533D02*
X182358654Y-122859874D01*
X182105184Y-122927935D02*
X182183170Y-122900533D01*
X182027220Y-122959541D02*
X182105184Y-122927935D01*
X181958091Y-122997247D02*
X182027220Y-122959541D01*
X181890506Y-123039488D02*
X181958091Y-122997247D01*
X181831964Y-123083395D02*
X181890506Y-123039488D01*
X181775321Y-123133746D02*
X181831964Y-123083395D01*
X181722531Y-123188644D02*
X181775321Y-123133746D01*
X181674231Y-123245346D02*
X181722531Y-123188644D01*
X181630501Y-123307819D02*
X181674231Y-123245346D01*
X181594825Y-123370776D02*
X181630501Y-123307819D01*
X181526617Y-123509324D02*
X181594825Y-123370776D01*
X181480108Y-123657305D02*
X181526617Y-123509324D01*
X181456683Y-123782955D02*
X181480108Y-123657305D01*
X181452609Y-123815545D02*
X181456683Y-123782955D01*
X181446065Y-124145562D02*
X181452609Y-123815545D01*
X181467517Y-124315032D02*
X181446065Y-124145562D01*
X181508385Y-124487115D02*
X181467517Y-124315032D01*
X181533976Y-124572420D02*
X181508385Y-124487115D01*
X181563806Y-124653388D02*
X181533976Y-124572420D01*
X181637101Y-124821531D02*
X181563806Y-124653388D01*
X181725358Y-124980820D02*
X181637101Y-124821531D01*
X181776522Y-125059699D02*
X181725358Y-124980820D01*
X181829839Y-125132212D02*
X181776522Y-125059699D01*
X181950303Y-125276338D02*
X181829839Y-125132212D01*
X182087896Y-125407483D02*
X181950303Y-125276338D01*
X182162668Y-125469435D02*
X182087896Y-125407483D01*
X182237675Y-125525157D02*
X182162668Y-125469435D01*
X182321357Y-125580942D02*
X182237675Y-125525157D01*
X182404452Y-125629949D02*
X182321357Y-125580942D01*
X182585321Y-125718230D02*
X182404452Y-125629949D01*
X182682933Y-125754301D02*
X182585321Y-125718230D01*
X182784118Y-125784441D02*
X182682933Y-125754301D01*
X182889399Y-125812374D02*
X182784118Y-125784441D01*
X184198083Y-126052760D02*
X182889399Y-125812374D01*
X184861266Y-126644536D02*
X184198083Y-126052760D01*
X185276434Y-127360519D02*
X184861266Y-126644536D01*
X185276434Y-127734475D02*
X185276434Y-127360519D01*
X185276435Y-134155963D02*
X185276434Y-127734475D01*
X177106872Y-134155969D02*
X185276435Y-134155963D01*
X109654416Y-89026347D02*
X109699405Y-89131321D01*
X109699405Y-89131321D02*
X109737936Y-89238346D01*
X109737936Y-89238346D02*
X109774401Y-89369187D01*
X109774401Y-89369187D02*
X109833011Y-89657908D01*
X109833011Y-89657908D02*
X109852609Y-89816859D01*
X109852609Y-89816859D02*
X109868313Y-89926789D01*
X109868313Y-89926789D02*
X109917567Y-90132760D01*
X109917567Y-90132760D02*
X109951588Y-90230283D01*
X109951588Y-90230283D02*
X109988011Y-90319067D01*
X109988011Y-90319067D02*
X110033946Y-90404047D01*
X110033946Y-90404047D02*
X110084234Y-90479480D01*
X110084234Y-90479480D02*
X110140999Y-90552138D01*
X158153347Y-63372147D02*
X158247226Y-63342276D01*
X158247226Y-63342276D02*
X158341032Y-63316694D01*
X158341032Y-63316694D02*
X158436585Y-63299708D01*
X158436585Y-63299708D02*
X158528605Y-63289006D01*
X158528605Y-63289006D02*
X158624373Y-63282621D01*
X158624373Y-63282621D02*
X158717579Y-63284742D01*
X158717579Y-63284742D02*
X158813428Y-63293261D01*
X158813428Y-63293261D02*
X158907112Y-63308165D01*
X158907112Y-63308165D02*
X159001072Y-63329520D01*
X159001072Y-63329520D02*
X159097227Y-63357295D01*
X159097227Y-63357295D02*
X159190816Y-63391329D01*
X159190816Y-63391329D02*
X159384883Y-63479738D01*
X159384883Y-63479738D02*
X159481338Y-63535465D01*
X159481338Y-63535465D02*
X159576087Y-63593607D01*
X159576087Y-63593607D02*
X159675148Y-63664671D01*
X159675148Y-63664671D02*
X159770098Y-63738042D01*
X159770098Y-63738042D02*
X159972021Y-63913913D01*
X159972021Y-63913913D02*
X160161318Y-64105384D01*
X160161318Y-64105384D02*
X160269744Y-64222486D01*
X160269744Y-64222486D02*
X160363071Y-64335342D01*
X160363071Y-64335342D02*
X160557354Y-64579837D01*
X160557354Y-64579837D02*
X160676941Y-64749429D01*
X160676941Y-64749429D02*
X160730647Y-64831063D01*
X160730647Y-64831063D02*
X160784367Y-64925611D01*
X160784367Y-64925611D02*
X160864432Y-65081414D01*
X160864432Y-65081414D02*
X160937983Y-65254475D01*
X160937983Y-65254475D02*
X160963431Y-65324454D01*
X160963431Y-65324454D02*
X160986869Y-65405421D01*
X160986869Y-65405421D02*
X161023358Y-65559966D01*
X161023358Y-65559966D02*
X161040405Y-65704866D01*
X161040405Y-65704866D02*
X161042524Y-65774759D01*
X161042524Y-65774759D02*
X161042524Y-65851054D01*
X161042524Y-65851054D02*
X161029705Y-65985649D01*
X161029705Y-65985649D02*
X161006323Y-66121692D01*
X161006323Y-66121692D02*
X160966149Y-66250669D01*
X160966149Y-66250669D02*
X160912964Y-66374061D01*
X160912964Y-66374061D02*
X160846803Y-66495715D01*
X160846803Y-66495715D02*
X160769751Y-66611290D01*
X160769751Y-66611290D02*
X160679918Y-66726793D01*
X160679918Y-66726793D02*
X160580828Y-66830188D01*
X160580828Y-66830188D02*
X160524730Y-66886288D01*
X160524730Y-66886288D02*
X160471279Y-66935464D01*
X160471279Y-66935464D02*
X160352239Y-67035023D01*
X160352239Y-67035023D02*
X160222827Y-67132082D01*
X160222827Y-67132082D02*
X160086412Y-67218694D01*
X160086412Y-67218694D02*
X159938651Y-67307785D01*
X159938651Y-67307785D02*
X159786748Y-67388079D01*
X159786748Y-67388079D02*
X159625838Y-67466358D01*
X159625838Y-67466358D02*
X159460614Y-67538102D01*
X159460614Y-67538102D02*
X159288568Y-67605614D01*
X159288568Y-67605614D02*
X159111870Y-67668875D01*
X159111870Y-67668875D02*
X158928869Y-67729875D01*
X158928869Y-67729875D02*
X158745953Y-67782138D01*
X158745953Y-67782138D02*
X158365929Y-67880420D01*
X158365929Y-67880420D02*
X157981513Y-67954684D01*
X157981513Y-67954684D02*
X157787643Y-67987357D01*
X157787643Y-67987357D02*
X157593640Y-68011335D01*
X157593640Y-68011335D02*
X157202325Y-68052873D01*
X157202325Y-68052873D02*
X156829086Y-68072515D01*
X156829086Y-68072515D02*
X156641738Y-68074697D01*
X156641738Y-68074697D02*
X156452031Y-68072514D01*
X156452031Y-68072514D02*
X156111596Y-68057238D01*
X156111596Y-68057238D02*
X155765399Y-68022403D01*
X155765399Y-68022403D02*
X155615928Y-67996406D01*
X155615928Y-67996406D02*
X155459542Y-67965998D01*
X155459542Y-67965998D02*
X155323397Y-67931420D01*
X155323397Y-67931420D02*
X155186853Y-67890242D01*
X155186853Y-67890242D02*
X155054894Y-67844814D01*
X155054894Y-67844814D02*
X154927391Y-67792948D01*
X154927391Y-67792948D02*
X154794911Y-67732138D01*
X154794911Y-67732138D02*
X154662558Y-67667045D01*
X154662558Y-67667045D02*
X154530262Y-67593310D01*
X154530262Y-67593310D02*
X154399784Y-67515020D01*
X154399784Y-67515020D02*
X154265343Y-67428287D01*
X154265343Y-67428287D02*
X154137096Y-67334816D01*
X154137096Y-67334816D02*
X154006341Y-67236750D01*
X154006341Y-67236750D02*
X153878326Y-67132606D01*
X153878326Y-67132606D02*
X153752105Y-67019442D01*
X153752105Y-67019442D02*
X153628225Y-66904253D01*
X153628225Y-66904253D02*
X153386080Y-66651202D01*
X153386080Y-66651202D02*
X153268734Y-66518644D01*
X153268734Y-66518644D02*
X153155656Y-66379472D01*
X153155656Y-66379472D02*
X153046684Y-66235629D01*
X153046684Y-66235629D02*
X152939870Y-66087397D01*
X152939870Y-66087397D02*
X152837518Y-65934959D01*
X152837518Y-65934959D02*
X152739572Y-65778245D01*
X152739572Y-65778245D02*
X152646061Y-65615145D01*
X152646061Y-65615145D02*
X152558996Y-65447549D01*
X152558996Y-65447549D02*
X152476130Y-65275273D01*
X152476130Y-65275273D02*
X152397710Y-65101004D01*
X152397710Y-65101004D02*
X152326019Y-64922860D01*
X152326019Y-64922860D02*
X152262928Y-64740119D01*
X163183612Y-68739172D02*
X163313896Y-68430020D01*
X163313896Y-68430020D02*
X163375889Y-68261757D01*
X163375889Y-68261757D02*
X163431203Y-68098023D01*
X163431203Y-68098023D02*
X163530463Y-67762743D01*
X163530463Y-67762743D02*
X163616472Y-67416501D01*
X163616472Y-67416501D02*
X163654136Y-67237043D01*
X163654136Y-67237043D02*
X163682918Y-67062140D01*
X163682918Y-67062140D02*
X163731443Y-66704811D01*
X163731443Y-66704811D02*
X163760119Y-66340854D01*
X163760119Y-66340854D02*
X163768967Y-66159465D01*
X163768967Y-66159465D02*
X163771185Y-65977533D01*
X163771185Y-65977533D02*
X163755734Y-65617741D01*
X163755734Y-65617741D02*
X163740249Y-65434133D01*
X163740249Y-65434133D02*
X163720319Y-65254765D01*
X163720319Y-65254765D02*
X163691534Y-65075410D01*
X163691534Y-65075410D02*
X163658357Y-64898468D01*
X163658357Y-64898468D02*
X163618497Y-64723528D01*
X163618497Y-64723528D02*
X163571978Y-64548530D01*
X163571978Y-64548530D02*
X163518810Y-64377948D01*
X163518810Y-64377948D02*
X163459030Y-64207463D01*
X163459030Y-64207463D02*
X163392540Y-64039024D01*
X163392540Y-64039024D02*
X163319251Y-63874680D01*
X163319251Y-63874680D02*
X163237293Y-63715192D01*
X163237293Y-63715192D02*
X163150896Y-63555693D01*
X163150896Y-63555693D02*
X163057684Y-63404778D01*
X163057684Y-63404778D02*
X162960196Y-63258546D01*
X162960196Y-63258546D02*
X162858013Y-63118600D01*
X162858013Y-63118600D02*
X162749395Y-62985600D01*
X162749395Y-62985600D02*
X162640710Y-62859169D01*
X162640710Y-62859169D02*
X162525028Y-62739040D01*
X162525028Y-62739040D02*
X162407657Y-62628311D01*
X162407657Y-62628311D02*
X162287881Y-62519625D01*
X162287881Y-62519625D02*
X162163460Y-62419644D01*
X162163460Y-62419644D02*
X162036667Y-62323995D01*
X162036667Y-62323995D02*
X161775343Y-62153471D01*
X161775343Y-62153471D02*
X161641516Y-62077635D01*
X161641516Y-62077635D02*
X161503946Y-62008850D01*
X161503946Y-62008850D02*
X161366847Y-61944720D01*
X161366847Y-61944720D02*
X161228862Y-61884634D01*
X161228862Y-61884634D02*
X160947291Y-61784864D01*
X160947291Y-61784864D02*
X160659391Y-61705136D01*
X160659391Y-61705136D02*
X160517090Y-61674008D01*
X160517090Y-61674008D02*
X160372770Y-61647366D01*
X160372770Y-61647366D02*
X160082535Y-61607487D01*
X160082535Y-61607487D02*
X159796828Y-61591984D01*
X159796828Y-61591984D02*
X159654872Y-61589763D01*
X159654872Y-61589763D02*
X159510507Y-61591987D01*
X159510507Y-61591987D02*
X159233774Y-61609697D01*
X159233774Y-61609697D02*
X158956807Y-61645151D01*
X158956807Y-61645151D02*
X158827697Y-61669637D01*
X158827697Y-61669637D02*
X158694511Y-61698495D01*
X158694511Y-61698495D02*
X158435370Y-61767153D01*
X158435370Y-61767153D02*
X158193273Y-61849334D01*
X158193273Y-61849334D02*
X158077206Y-61898438D01*
X158077206Y-61898438D02*
X157959404Y-61951782D01*
X157959404Y-61951782D02*
X157743800Y-62062921D01*
X157743800Y-62062921D02*
X157541550Y-62191826D01*
X157541550Y-62191826D02*
X157449892Y-62256660D01*
X157449892Y-62256660D02*
X157357618Y-62328677D01*
X157357618Y-62328677D02*
X157192522Y-62482619D01*
X157192522Y-62482619D02*
X156995090Y-62700015D01*
X156995090Y-62700015D02*
X156906083Y-62811277D01*
X156906083Y-62811277D02*
X156817281Y-62928938D01*
X156817281Y-62928938D02*
X156653407Y-63170320D01*
X156653407Y-63170320D02*
X156507200Y-63422861D01*
X156507200Y-63422861D02*
X156438375Y-63558291D01*
X156438375Y-63558291D02*
X156373940Y-63693827D01*
X156373940Y-63693827D02*
X156260991Y-63972874D01*
X156260991Y-63972874D02*
X156163740Y-64269051D01*
X156163740Y-64269051D02*
X156119435Y-64421903D01*
X156119435Y-64421903D02*
X156081684Y-64570685D01*
X156081684Y-64570685D02*
X156015422Y-64899791D01*
X156015422Y-64899791D02*
X155966865Y-65224242D01*
X155966865Y-65224242D02*
X155946940Y-65401351D01*
X155946940Y-65401351D02*
X155933670Y-65573862D01*
X155933670Y-65573862D02*
X155906051Y-66126267D01*
X155906051Y-66126267D02*
X156179713Y-65592127D01*
X156179713Y-65592127D02*
X156264854Y-65430580D01*
X156264854Y-65430580D02*
X156371794Y-65242886D01*
X156371794Y-65242886D02*
X156544079Y-64955746D01*
X156544079Y-64955746D02*
X156743089Y-64644396D01*
X156743089Y-64644396D02*
X156926117Y-64396004D01*
X156926117Y-64396004D02*
X157119857Y-64156547D01*
X157119857Y-64156547D02*
X157302650Y-63960697D01*
X157302650Y-63960697D02*
X157395387Y-63867962D01*
X157395387Y-63867962D02*
X157588442Y-63700933D01*
X157588442Y-63700933D02*
X157685130Y-63627883D01*
X157685130Y-63627883D02*
X157777588Y-63565526D01*
X157777588Y-63565526D02*
X157874966Y-63507097D01*
X157874966Y-63507097D02*
X157965191Y-63455544D01*
X157965191Y-63455544D02*
X158061544Y-63410579D01*
X158061544Y-63410579D02*
X158153347Y-63372147D01*
X107712477Y-100800300D02*
X107366962Y-100754378D01*
X108060498Y-100835320D02*
X107712477Y-100800300D01*
X108426103Y-100868159D02*
X108060498Y-100835320D01*
X108795878Y-100890040D02*
X108426103Y-100868159D01*
X109365370Y-100911941D02*
X108795878Y-100890040D01*
X109625691Y-100914130D02*
X109365370Y-100911941D01*
X109934295Y-100914129D02*
X109625691Y-100914130D01*
X110444239Y-100898809D02*
X109934295Y-100914129D01*
X110954182Y-100865979D02*
X110444239Y-100898809D01*
X111161609Y-100846328D02*
X110954182Y-100865979D01*
X111410622Y-100817932D02*
X111161609Y-100846328D01*
X111863040Y-100750178D02*
X111410622Y-100817932D01*
X112271941Y-100667086D02*
X111863040Y-100750178D01*
X112271941Y-100667086D02*
X113032908Y-100457750D01*
X113390758Y-100324647D02*
X113032908Y-100457750D01*
X113549477Y-100257247D02*
X113390758Y-100324647D01*
X113710546Y-100183241D02*
X113549477Y-100257247D01*
X114024515Y-100024077D02*
X113710546Y-100183241D01*
X114309794Y-99854214D02*
X114024515Y-100024077D01*
X114446878Y-99762825D02*
X114309794Y-99854214D01*
X114586053Y-99667144D02*
X114446878Y-99762825D01*
X114838630Y-99471177D02*
X114586053Y-99667144D01*
X115083020Y-99257337D02*
X114838630Y-99471177D01*
X115198274Y-99150780D02*
X115083020Y-99257337D01*
X115310904Y-99038151D02*
X115198274Y-99150780D01*
X115522462Y-98800420D02*
X115310904Y-99038151D01*
X115727819Y-98553554D02*
X115522462Y-98800420D01*
X115825834Y-98427224D02*
X115727819Y-98553554D01*
X115919440Y-98300961D02*
X115825834Y-98427224D01*
X116104985Y-98030288D02*
X115919440Y-98300961D01*
X116277547Y-97752873D02*
X116104985Y-98030288D01*
X116605515Y-97169084D02*
X116448032Y-97462177D01*
X116889673Y-96600784D02*
X116752103Y-96886845D01*
X117035897Y-96260318D02*
X116889673Y-96600784D01*
X116448032Y-97462177D02*
X116277547Y-97752873D01*
X116752103Y-96886845D02*
X116605515Y-97169084D01*
X117415084Y-94870290D02*
X117378116Y-95098642D01*
X163119925Y-76242178D02*
X163097207Y-76209994D01*
X163097207Y-76209994D02*
X163068664Y-76161061D01*
X163068664Y-76161061D02*
X163046242Y-76110104D01*
X163046242Y-76110104D02*
X162996675Y-75965711D01*
X162996675Y-75965711D02*
X162960133Y-75841040D01*
X162960133Y-75841040D02*
X162901386Y-75558185D01*
X162901386Y-75558185D02*
X162875246Y-75405702D01*
X162875246Y-75405702D02*
X162812158Y-74992365D01*
X162812158Y-74992365D02*
X162748052Y-74517483D01*
X162748052Y-74517483D02*
X162673331Y-74044988D01*
X162673331Y-74044988D02*
X162635876Y-73824671D01*
X162635876Y-73824671D02*
X162591628Y-73603432D01*
X162591628Y-73603432D02*
X162520833Y-73329098D01*
X162520833Y-73329098D02*
X162487090Y-73221120D01*
X162487090Y-73221120D02*
X162428589Y-73074867D01*
X162428589Y-73074867D02*
X162353887Y-72932256D01*
X162353887Y-72932256D02*
X162315683Y-72877340D01*
X162315683Y-72877340D02*
X162272374Y-72829219D01*
X162272374Y-72829219D02*
X162224787Y-72789143D01*
X162224787Y-72789143D02*
X162173038Y-72762037D01*
X162173038Y-72762037D02*
X162090979Y-72726870D01*
X162090979Y-72726870D02*
X162045138Y-72716684D01*
X162045138Y-72716684D02*
X161997252Y-72711642D01*
X161997252Y-72711642D02*
X161923379Y-72716739D01*
X161923379Y-72716739D02*
X161854657Y-72743171D01*
X161854657Y-72743171D02*
X161821972Y-72767682D01*
X161821972Y-72767682D02*
X161795692Y-72791336D01*
X161795692Y-72791336D02*
X161754116Y-72845138D01*
X161754116Y-72845138D02*
X161713730Y-72916409D01*
X161713730Y-72916409D02*
X161685725Y-72988755D01*
X161685725Y-72988755D02*
X161654034Y-73090620D01*
X161654034Y-73090620D02*
X161635967Y-73171920D01*
X161635967Y-73171920D02*
X161600696Y-73352685D01*
X161600696Y-73352685D02*
X161545952Y-73652684D01*
X161545952Y-73652684D02*
X161524475Y-73747185D01*
X161524475Y-73747185D02*
X161498636Y-73837620D01*
X161498636Y-73837620D02*
X161471067Y-73924571D01*
X161471067Y-73924571D02*
X161421033Y-74035061D01*
X161421033Y-74035061D02*
X161399571Y-74066281D01*
X161399571Y-74066281D02*
X161356660Y-74123495D01*
X161356660Y-74123495D02*
X161305105Y-74169099D01*
X161305105Y-74169099D02*
X161276877Y-74187918D01*
X161276877Y-74187918D02*
X161248142Y-74202284D01*
X161248142Y-74202284D02*
X161180917Y-74220081D01*
X161180917Y-74220081D02*
X161149372Y-74223587D01*
X161149372Y-74223587D02*
X161118846Y-74220194D01*
X161118846Y-74220194D02*
X161083498Y-74209031D01*
X161083498Y-74209031D02*
X161050849Y-74194521D01*
X161050849Y-74194521D02*
X160974533Y-74136281D01*
X160974533Y-74136281D02*
X160906228Y-74061764D01*
X160906228Y-74061764D02*
X160864695Y-74005694D01*
X160864695Y-74005694D02*
X160833270Y-73955419D01*
X160833270Y-73955419D02*
X160769066Y-73839849D01*
X160769066Y-73839849D02*
X160706656Y-73693507D01*
X160706656Y-73693507D02*
X160676622Y-73614135D01*
X160676622Y-73614135D02*
X160653048Y-73541267D01*
X160653048Y-73541267D02*
X160603144Y-73365521D01*
X160603144Y-73365521D02*
X160564259Y-73188377D01*
X160564259Y-73188377D02*
X160536123Y-72993592D01*
X160536123Y-72993592D02*
X160518801Y-72798715D01*
X160518801Y-72798715D02*
X160514452Y-72592149D01*
X160514452Y-72592149D02*
X160514452Y-72488641D01*
X160514452Y-72488641D02*
X160520905Y-72387531D01*
X160520905Y-72387531D02*
X160540422Y-72181528D01*
X160540422Y-72181528D02*
X160577208Y-71978119D01*
X160577208Y-71978119D02*
X160600873Y-71877003D01*
X160600873Y-71877003D02*
X160628725Y-71778451D01*
X160628725Y-71778451D02*
X160697749Y-71586482D01*
X160697749Y-71586482D02*
X160783833Y-71403549D01*
X160783833Y-71403549D02*
X160834884Y-71316334D01*
X160834884Y-71316334D02*
X160890679Y-71232643D01*
X160890679Y-71232643D02*
X160950350Y-71151662D01*
X160950350Y-71151662D02*
X161018632Y-71074847D01*
X161018632Y-71074847D02*
X161089738Y-71001584D01*
X161089738Y-71001584D02*
X161166469Y-70929115D01*
X161166469Y-70929115D02*
X161249554Y-70865206D01*
X161249554Y-70865206D02*
X161335296Y-70805183D01*
X161335296Y-70805183D02*
X161431403Y-70747521D01*
X161431403Y-70747521D02*
X161639701Y-70642275D01*
X161639701Y-70642275D02*
X161742618Y-70581866D01*
X161742618Y-70581866D02*
X161849876Y-70512595D01*
X161849876Y-70512595D02*
X161953175Y-70436243D01*
X161953175Y-70436243D02*
X162155507Y-70262817D01*
X162155507Y-70262817D02*
X162253736Y-70162355D01*
X162253736Y-70162355D02*
X162348839Y-70060618D01*
X162348839Y-70060618D02*
X162451028Y-69945099D01*
X162451028Y-69945099D02*
X162540128Y-69831497D01*
X162540128Y-69831497D02*
X162712595Y-69592696D01*
X162712595Y-69592696D02*
X162882609Y-69323322D01*
X162882609Y-69323322D02*
X162967028Y-69181139D01*
X162967028Y-69181139D02*
X163038104Y-69041209D01*
X163038104Y-69041209D02*
X163183612Y-68739172D01*
X117378116Y-95098642D02*
X117332354Y-95312183D01*
X117164646Y-95911167D02*
X117035897Y-96260318D01*
X117282231Y-95523581D02*
X117225622Y-95719528D01*
X117332354Y-95312183D02*
X117282231Y-95523581D01*
X117225622Y-95719528D02*
X117164646Y-95911167D01*
X167106872Y-134155976D02*
X167106872Y-136156023D01*
X167106872Y-134155976D02*
X113106872Y-134155976D01*
X113106872Y-134155976D02*
X113106872Y-136156023D01*
X95824956Y-134156028D02*
X103106872Y-134156023D01*
X95851433Y-127327366D02*
X95824956Y-127530341D01*
X95911004Y-126974356D02*
X95851433Y-127327366D01*
X95988227Y-126625747D02*
X95911004Y-126974356D01*
X96025859Y-126481878D02*
X95988227Y-126625747D01*
X96072376Y-126317930D02*
X96025859Y-126481878D01*
X96176517Y-126014397D02*
X96072376Y-126317930D01*
X96349242Y-125624633D02*
X96176517Y-126014397D01*
X96489304Y-125373426D02*
X96349242Y-125624633D01*
X96565323Y-125259386D02*
X96489304Y-125373426D01*
X96642195Y-125153136D02*
X96565323Y-125259386D01*
X97074080Y-124703529D02*
X96642195Y-125153136D01*
X97620120Y-124260967D02*
X97074080Y-124703529D01*
X97838561Y-124077481D02*
X97620120Y-124260967D01*
X98078801Y-123856898D02*
X97838561Y-124077481D01*
X98156775Y-123781031D02*
X98078801Y-123856898D01*
X98255889Y-123671123D02*
X98156775Y-123781031D01*
X98324052Y-123588044D02*
X98255889Y-123671123D01*
X98383048Y-123501656D02*
X98324052Y-123588044D01*
X98441691Y-123390653D02*
X98383048Y-123501656D01*
X98454996Y-123350740D02*
X98441691Y-123390653D01*
X98466765Y-123287974D02*
X98454996Y-123350740D01*
X98464809Y-123219458D02*
X98466765Y-123287974D01*
X98459623Y-123193548D02*
X98464809Y-123219458D01*
X98449427Y-123166361D02*
X98459623Y-123193548D01*
X98415477Y-123115430D02*
X98449427Y-123166361D01*
X98355156Y-123059128D02*
X98415477Y-123115430D01*
X98317993Y-123031752D02*
X98355156Y-123059128D01*
X98288940Y-123016254D02*
X98317993Y-123031752D01*
X98178354Y-122965216D02*
X98288940Y-123016254D01*
X98065794Y-122929110D02*
X98178354Y-122965216D01*
X97973410Y-122905479D02*
X98065794Y-122929110D01*
X97904890Y-122890491D02*
X97973410Y-122905479D01*
X97739917Y-122862270D02*
X97904890Y-122890491D01*
X97307292Y-122805459D02*
X97739917Y-122862270D01*
X97091832Y-122788050D02*
X97307292Y-122805459D01*
X96907028Y-122779354D02*
X97091832Y-122788050D01*
X96867176Y-122779354D02*
X96907028Y-122779354D01*
X96638900Y-122788050D02*
X96867176Y-122779354D01*
X96576748Y-122794265D02*
X96638900Y-122788050D01*
X96477298Y-122815426D02*
X96576748Y-122794265D01*
X96410392Y-122834241D02*
X96477298Y-122815426D01*
X96346474Y-122858984D02*
X96410392Y-122834241D01*
X96291065Y-122887718D02*
X96346474Y-122858984D01*
X96239579Y-122920665D02*
X96291065Y-122887718D01*
X96192370Y-122957616D02*
X96239579Y-122920665D01*
X96150309Y-122997671D02*
X96192370Y-122957616D01*
X96070410Y-123102810D02*
X96150309Y-122997671D01*
X96002197Y-123215781D02*
X96070410Y-123102810D01*
X95926281Y-123365445D02*
X96002197Y-123215781D01*
X95853665Y-123515071D02*
X95926281Y-123365445D01*
X95823744Y-123571181D02*
X95853665Y-123515071D01*
X95630032Y-123574255D02*
X95823744Y-123571181D01*
X95598818Y-123494441D02*
X95630032Y-123574255D01*
X95586892Y-123456317D02*
X95598818Y-123494441D01*
X95566163Y-123366444D02*
X95586892Y-123456317D01*
X95552533Y-123230243D02*
X95566163Y-123366444D01*
X95550281Y-123092783D02*
X95552533Y-123230243D01*
X95561508Y-122924414D02*
X95550281Y-123092783D01*
X95588377Y-122756498D02*
X95561508Y-122924414D01*
X95630766Y-122569097D02*
X95588377Y-122756498D01*
X95688997Y-122383214D02*
X95630766Y-122569097D01*
X95773744Y-122184719D02*
X95688997Y-122383214D01*
X95823141Y-122085922D02*
X95773744Y-122184719D01*
X95876855Y-121991930D02*
X95823141Y-122085922D01*
X95936961Y-121896209D02*
X95876855Y-121991930D01*
X96001735Y-121800160D02*
X95936961Y-121896209D01*
X96075801Y-121703643D02*
X96001735Y-121800160D01*
X96154304Y-121613932D02*
X96075801Y-121703643D01*
X96243838Y-121522157D02*
X96154304Y-121613932D01*
X96337555Y-121437364D02*
X96243838Y-121522157D01*
X96438054Y-121352502D02*
X96337555Y-121437364D01*
X96545670Y-121274026D02*
X96438054Y-121352502D01*
X96663715Y-121198301D02*
X96545670Y-121274026D01*
X96784207Y-121126900D02*
X96663715Y-121198301D01*
X96922822Y-121057592D02*
X96784207Y-121126900D01*
X97058745Y-120999656D02*
X96922822Y-121057592D01*
X97212075Y-120941882D02*
X97058745Y-120999656D01*
X97384582Y-120889794D02*
X97212075Y-120941882D01*
X97536934Y-120850618D02*
X97384582Y-120889794D01*
X97710268Y-120815062D02*
X97536934Y-120850618D01*
X97901091Y-120786219D02*
X97710268Y-120815062D01*
X98091688Y-120766271D02*
X97901091Y-120786219D01*
X98302060Y-120752983D02*
X98091688Y-120766271D01*
X98954027Y-120742009D02*
X98302060Y-120752983D01*
X99393809Y-120717941D02*
X98954027Y-120742009D01*
X99840135Y-120682934D02*
X99393809Y-120717941D01*
X100281978Y-120630436D02*
X99840135Y-120682934D01*
X100504820Y-120597666D02*
X100281978Y-120630436D01*
X100728039Y-120560463D02*
X100504820Y-120597666D01*
X101172439Y-120481650D02*
X100728039Y-120560463D01*
X101610038Y-120385381D02*
X101172439Y-120481650D01*
X102043136Y-120280387D02*
X101610038Y-120385381D01*
X102469530Y-120155750D02*
X102043136Y-120280387D01*
X102889917Y-120019998D02*
X102469530Y-120155750D01*
X103092760Y-119950200D02*
X102889917Y-120019998D01*
X103700722Y-119711827D02*
X103092760Y-119950200D01*
X104266814Y-119447358D02*
X103700722Y-119711827D01*
X104454159Y-119347150D02*
X104266814Y-119447358D01*
X104806170Y-119150374D02*
X104454159Y-119347150D01*
X105146915Y-118936318D02*
X104806170Y-119150374D01*
X105303888Y-118829490D02*
X105146915Y-118936318D01*
X105462842Y-118716263D02*
X105303888Y-118829490D01*
X105763994Y-118478390D02*
X105462842Y-118716263D01*
X105903220Y-118356570D02*
X105763994Y-118478390D01*
X106040554Y-118230138D02*
X105903220Y-118356570D01*
X106169002Y-118103866D02*
X106040554Y-118230138D01*
X106292801Y-117973550D02*
X106169002Y-118103866D01*
X106408113Y-117838659D02*
X106292801Y-117973550D01*
X106519261Y-117703534D02*
X106408113Y-117838659D01*
X106623558Y-117566646D02*
X106519261Y-117703534D01*
X106723330Y-117423493D02*
X106623558Y-117566646D01*
X106812178Y-117280470D02*
X106723330Y-117423493D01*
X106894660Y-117132869D02*
X106812178Y-117280470D01*
X106970733Y-116982895D02*
X106894660Y-117132869D01*
X107040229Y-116833043D02*
X106970733Y-116982895D01*
X107164767Y-116529349D02*
X107040229Y-116833043D01*
X107280713Y-116227448D02*
X107164767Y-116529349D01*
X107383403Y-115939047D02*
X107280713Y-116227448D01*
X107475228Y-115646081D02*
X107383403Y-115939047D01*
X107558338Y-115366130D02*
X107475228Y-115646081D01*
X107632606Y-115084335D02*
X107558338Y-115366130D01*
X107695914Y-114809284D02*
X107632606Y-115084335D01*
X107748348Y-114534012D02*
X107695914Y-114809284D01*
X107794198Y-114263273D02*
X107748348Y-114534012D01*
X107820368Y-114051718D02*
X107794198Y-114263273D01*
X107855329Y-113723963D02*
X107820368Y-114051718D01*
X107870601Y-113453438D02*
X107855329Y-113723963D01*
X107879339Y-113182528D02*
X107870601Y-113453438D01*
X107879339Y-112909596D02*
X107879339Y-113182528D01*
X107870605Y-112636656D02*
X107879339Y-112909596D01*
X107853133Y-112363646D02*
X107870605Y-112636656D01*
X107826886Y-112081517D02*
X107853133Y-112363646D01*
X107796295Y-111801826D02*
X107826886Y-112081517D01*
X107752583Y-111511151D02*
X107796295Y-111801826D01*
X107704408Y-111222096D02*
X107752583Y-111511151D01*
X107647503Y-110906938D02*
X107704408Y-111222096D01*
X107584077Y-110602924D02*
X107647503Y-110906938D01*
X107441662Y-109987265D02*
X107584077Y-110602924D01*
X107334325Y-109573250D02*
X107441662Y-109987265D01*
X107222582Y-109159134D02*
X107334325Y-109573250D01*
X107110863Y-108777980D02*
X107222582Y-109159134D01*
X106994760Y-108398999D02*
X107110863Y-108777980D01*
X106880948Y-108053189D02*
X106994760Y-108398999D01*
X106758362Y-107709521D02*
X106880948Y-108053189D01*
X106640287Y-107396834D02*
X106758362Y-107709521D01*
X106511238Y-107090617D02*
X106640287Y-107396834D01*
X106388708Y-106810549D02*
X106511238Y-107090617D01*
X106259832Y-106537507D02*
X106388708Y-106810549D01*
X106133371Y-106293309D02*
X106259832Y-106537507D01*
X106045658Y-106141551D02*
X106133371Y-106293309D01*
X105988952Y-106330574D02*
X106045658Y-106141551D01*
X105910212Y-106617095D02*
X105988952Y-106330574D01*
X105849038Y-106861792D02*
X105910212Y-106617095D01*
X105790051Y-107130526D02*
X105849038Y-106861792D01*
X105746459Y-107359382D02*
X105790051Y-107130526D01*
X105713815Y-107587870D02*
X105746459Y-107359382D01*
X105694215Y-107788252D02*
X105713815Y-107587870D01*
X105687719Y-107879184D02*
X105694215Y-107788252D01*
X105683390Y-107987373D02*
X105687719Y-107879184D01*
X105683390Y-108157970D02*
X105683390Y-107987373D01*
X105698497Y-108328464D02*
X105683390Y-108157970D01*
X105717779Y-108471993D02*
X105698497Y-108328464D01*
X105754283Y-108613713D02*
X105717779Y-108471993D01*
X105774296Y-108682639D02*
X105754283Y-108613713D01*
X105790478Y-108758928D02*
X105774296Y-108682639D01*
X105794581Y-108799976D02*
X105790478Y-108758928D01*
X105747039Y-108863363D02*
X105794581Y-108799976D01*
X105659104Y-108806015D02*
X105747039Y-108863363D01*
X105343158Y-108496698D02*
X105659104Y-108806015D01*
X105145053Y-108324716D02*
X105343158Y-108496698D01*
X105012556Y-108218286D02*
X105145053Y-108324716D01*
X104873813Y-108116395D02*
X105012556Y-108218286D01*
X104710551Y-108009732D02*
X104873813Y-108116395D01*
X104547738Y-107907702D02*
X104710551Y-108009732D01*
X104357329Y-107808168D02*
X104547738Y-107907702D01*
X104161883Y-107721304D02*
X104357329Y-107808168D01*
X103942395Y-107634380D02*
X104161883Y-107721304D01*
X103827846Y-107597637D02*
X103942395Y-107634380D01*
X103719771Y-107565215D02*
X103827846Y-107597637D01*
X103469936Y-107506557D02*
X103719771Y-107565215D01*
X103217919Y-107463106D02*
X103469936Y-107506557D01*
X103062101Y-107445794D02*
X103217919Y-107463106D01*
X102936703Y-107437146D02*
X103062101Y-107445794D01*
X102653503Y-107430611D02*
X102936703Y-107437146D01*
X102343918Y-107439331D02*
X102653503Y-107430611D01*
X102191806Y-107450197D02*
X102343918Y-107439331D01*
X102037243Y-107465435D02*
X102191806Y-107450197D01*
X101718559Y-107506908D02*
X102037243Y-107465435D01*
X101404653Y-107563586D02*
X101718559Y-107506908D01*
X101086326Y-107637718D02*
X101404653Y-107563586D01*
X100772501Y-107727070D02*
X101086326Y-107637718D01*
X100458238Y-107836189D02*
X100772501Y-107727070D01*
X100303712Y-107894955D02*
X100458238Y-107836189D01*
X100153760Y-107957976D02*
X100303712Y-107894955D01*
X99850801Y-108099648D02*
X100153760Y-107957976D01*
X99559025Y-108260778D02*
X99850801Y-108099648D01*
X99419971Y-108347688D02*
X99559025Y-108260778D01*
X99280579Y-108439167D02*
X99419971Y-108347688D01*
X99145849Y-108534780D02*
X99280579Y-108439167D01*
X99012964Y-108637164D02*
X99145849Y-108534780D01*
X98882526Y-108741513D02*
X99012964Y-108637164D01*
X98758777Y-108852237D02*
X98882526Y-108741513D01*
X98637043Y-108967451D02*
X98758777Y-108852237D01*
X98521958Y-109086874D02*
X98637043Y-108967451D01*
X98408910Y-109212972D02*
X98521958Y-109086874D01*
X98302479Y-109341125D02*
X98408910Y-109212972D01*
X98198189Y-109478003D02*
X98302479Y-109341125D01*
X98100563Y-109616845D02*
X98198189Y-109478003D01*
X98009323Y-109762394D02*
X98100563Y-109616845D01*
X113762625Y-116481061D02*
X124112625Y-116481061D01*
X113762625Y-114681061D02*
X124112625Y-114681061D01*
X124112625Y-114681061D02*
X124112625Y-116481061D01*
X113762625Y-114681061D02*
X113762625Y-116481061D01*
X156012624Y-116481065D02*
X156012624Y-114681065D01*
X166162624Y-116481065D02*
X166162624Y-114681065D01*
X156012624Y-114681065D02*
X166162624Y-114681065D01*
X156012624Y-116481065D02*
X166162624Y-116481065D01*
X123193305Y-62813300D02*
X123100000Y-62700000D01*
X123280091Y-62929016D02*
X123193305Y-62813300D01*
X123443928Y-63170343D02*
X123280091Y-62929016D01*
X123590206Y-63423006D02*
X123443928Y-63170343D01*
X123659090Y-63560773D02*
X123590206Y-63423006D01*
X123721259Y-63693993D02*
X123659090Y-63560773D01*
X123834099Y-63972762D02*
X123721259Y-63693993D01*
X123933673Y-64269272D02*
X123834099Y-63972762D01*
X124015584Y-64570344D02*
X123933673Y-64269272D01*
X124081918Y-64899813D02*
X124015584Y-64570344D01*
X124130531Y-65224648D02*
X124081918Y-64899813D01*
X124163652Y-65575697D02*
X124130531Y-65224648D01*
X124191360Y-66126428D02*
X124163652Y-65575697D01*
X123917631Y-65592150D02*
X124191360Y-66126428D01*
X123832488Y-65430603D02*
X123917631Y-65592150D01*
X123725524Y-65242869D02*
X123832488Y-65430603D01*
X123544073Y-64938998D02*
X123725524Y-65242869D01*
X123351796Y-64646214D02*
X123544073Y-64938998D01*
X123271400Y-64531051D02*
X123351796Y-64646214D01*
X123171386Y-64398425D02*
X123271400Y-64531051D01*
X122975220Y-64156487D02*
X123171386Y-64398425D01*
X122794764Y-63960813D02*
X122975220Y-64156487D01*
X122699714Y-63867926D02*
X122794764Y-63960813D01*
X122599817Y-63778886D02*
X122699714Y-63867926D01*
X122509209Y-63701219D02*
X122599817Y-63778886D01*
X122412187Y-63630072D02*
X122509209Y-63701219D01*
X122319281Y-63565251D02*
X122412187Y-63630072D01*
X122224563Y-63507129D02*
X122319281Y-63565251D01*
X122132345Y-63455661D02*
X122224563Y-63507129D01*
X122035794Y-63410605D02*
X122132345Y-63455661D01*
X121944117Y-63372226D02*
X122035794Y-63410605D01*
X121848049Y-63342338D02*
X121944117Y-63372226D01*
X121753944Y-63316675D02*
X121848049Y-63342338D01*
X121662881Y-63299735D02*
X121753944Y-63316675D01*
X121567101Y-63289090D02*
X121662881Y-63299735D01*
X121472932Y-63284812D02*
X121567101Y-63289090D01*
X121377162Y-63284812D02*
X121472932Y-63284812D01*
X121286114Y-63293281D02*
X121377162Y-63284812D01*
X121190047Y-63308225D02*
X121286114Y-63293281D01*
X121094096Y-63329548D02*
X121190047Y-63308225D01*
X121000234Y-63357277D02*
X121094096Y-63329548D01*
X120906168Y-63391485D02*
X121000234Y-63357277D01*
X120807309Y-63434468D02*
X120906168Y-63391485D01*
X120714966Y-63479565D02*
X120807309Y-63434468D01*
X120616132Y-63535426D02*
X120714966Y-63479565D01*
X120521271Y-63595791D02*
X120616132Y-63535426D01*
X120421940Y-63664891D02*
X120521271Y-63595791D01*
X120327237Y-63738070D02*
X120421940Y-63664891D01*
X120125317Y-63913942D02*
X120327237Y-63738070D01*
X119936173Y-64105259D02*
X120125317Y-63913942D01*
X119829736Y-64222556D02*
X119936173Y-64105259D01*
X119731989Y-64337678D02*
X119829736Y-64222556D01*
X119542259Y-64579748D02*
X119731989Y-64337678D01*
X119422593Y-64749459D02*
X119542259Y-64579748D01*
X119368682Y-64831401D02*
X119422593Y-64749459D01*
X119312684Y-64926171D02*
X119368682Y-64831401D01*
X119230727Y-65081458D02*
X119312684Y-64926171D01*
X119159433Y-65254289D02*
X119230727Y-65081458D01*
X119133908Y-65324484D02*
X119159433Y-65254289D01*
X119110471Y-65405451D02*
X119133908Y-65324484D01*
X119073981Y-65559996D02*
X119110471Y-65405451D01*
X119056863Y-65705508D02*
X119073981Y-65559996D01*
X119052657Y-65776982D02*
X119056863Y-65705508D01*
X119054766Y-65850810D02*
X119052657Y-65776982D01*
X119065447Y-65985363D02*
X119054766Y-65850810D01*
X119093231Y-66122145D02*
X119065447Y-65985363D01*
X119110132Y-66187637D02*
X119093231Y-66122145D01*
X119131022Y-66250305D02*
X119110132Y-66187637D01*
X119184377Y-66374091D02*
X119131022Y-66250305D01*
X119250977Y-66496550D02*
X119184377Y-66374091D01*
X119286793Y-66555541D02*
X119250977Y-66496550D01*
X119326871Y-66610385D02*
X119286793Y-66555541D01*
X119419748Y-66727019D02*
X119326871Y-66610385D01*
X119514657Y-66830556D02*
X119419748Y-66727019D01*
X119570120Y-66886019D02*
X119514657Y-66830556D01*
X119625738Y-66935223D02*
X119570120Y-66886019D01*
X119744970Y-67034942D02*
X119625738Y-66935223D01*
X119876692Y-67132113D02*
X119744970Y-67034942D01*
X120011143Y-67218853D02*
X119876692Y-67132113D01*
X120160976Y-67310057D02*
X120011143Y-67218853D01*
X120308312Y-67388060D02*
X120160976Y-67310057D01*
X120471496Y-67466386D02*
X120308312Y-67388060D01*
X120634761Y-67538226D02*
X120471496Y-67466386D01*
X120808764Y-67607826D02*
X120634761Y-67538226D01*
X120982988Y-67668804D02*
X120808764Y-67607826D01*
X121170815Y-67729956D02*
X120982988Y-67668804D01*
X121351549Y-67784393D02*
X121170815Y-67729956D01*
X121733486Y-67880424D02*
X121351549Y-67784393D01*
X122115854Y-67954713D02*
X121733486Y-67880424D01*
X122309934Y-67987422D02*
X122115854Y-67954713D01*
X122503823Y-68013562D02*
X122309934Y-67987422D01*
X122894894Y-68052890D02*
X122503823Y-68013562D01*
X123270448Y-68072539D02*
X122894894Y-68052890D01*
X123455610Y-68074720D02*
X123270448Y-68072539D01*
X123645313Y-68072536D02*
X123455610Y-68074720D01*
X123985737Y-68057261D02*
X123645313Y-68072536D01*
X124329789Y-68022422D02*
X123985737Y-68057261D01*
X124481471Y-67996418D02*
X124329789Y-68022422D01*
X124637803Y-67966019D02*
X124481471Y-67996418D01*
X124774340Y-67931341D02*
X124637803Y-67966019D01*
X124912653Y-67892441D02*
X124774340Y-67931341D01*
X125042054Y-67844996D02*
X124912653Y-67892441D01*
X125170077Y-67792919D02*
X125042054Y-67844996D01*
X125304614Y-67732159D02*
X125170077Y-67792919D01*
X125434663Y-67667134D02*
X125304614Y-67732159D01*
X125567220Y-67593254D02*
X125434663Y-67667134D01*
X125699606Y-67515120D02*
X125567220Y-67593254D01*
X125829685Y-67428402D02*
X125699606Y-67515120D01*
X125960387Y-67334732D02*
X125829685Y-67428402D01*
X126091003Y-67236768D02*
X125960387Y-67334732D01*
X126219017Y-67132625D02*
X126091003Y-67236768D01*
X126345235Y-67019461D02*
X126219017Y-67132625D01*
X126469606Y-66903817D02*
X126345235Y-67019461D01*
X126593469Y-66782130D02*
X126469606Y-66903817D01*
X126713018Y-66651715D02*
X126593469Y-66782130D01*
X126828479Y-66518817D02*
X126713018Y-66651715D01*
X126941818Y-66379329D02*
X126828479Y-66518817D01*
X127052972Y-66235479D02*
X126941818Y-66379329D01*
X127159539Y-66087587D02*
X127052972Y-66235479D01*
X127259711Y-65935157D02*
X127159539Y-66087587D01*
X127357766Y-65778261D02*
X127259711Y-65935157D01*
X127451281Y-65615161D02*
X127357766Y-65778261D01*
X127538443Y-65447370D02*
X127451281Y-65615161D01*
X127623396Y-65275290D02*
X127538443Y-65447370D01*
X127699456Y-65101438D02*
X127623396Y-65275290D01*
X127769219Y-64922667D02*
X127699456Y-65101438D01*
X127836743Y-64739700D02*
X127769219Y-64922667D01*
X127895451Y-64552706D02*
X127836743Y-64739700D01*
X127947577Y-64363735D02*
X127895451Y-64552706D01*
X127988952Y-64169937D02*
X127947577Y-64363735D01*
X128028161Y-63973909D02*
X127988952Y-64169937D01*
X128056417Y-63773914D02*
X128028161Y-63973909D01*
X128078183Y-63573676D02*
X128056417Y-63773914D01*
X128091232Y-63367071D02*
X128078183Y-63573676D01*
X128095586Y-63160174D02*
X128091232Y-63367071D01*
X128093411Y-62949091D02*
X128095586Y-63160174D01*
X128080374Y-62738359D02*
X128093411Y-62949091D01*
X128056444Y-62520804D02*
X128080374Y-62738359D01*
X128023801Y-62305380D02*
X128056444Y-62520804D01*
X127980270Y-62085535D02*
X128023801Y-62305380D01*
X127927940Y-61867496D02*
X127980270Y-62085535D01*
X127897500Y-61754432D02*
X127927940Y-61867496D01*
X127864959Y-61643788D02*
X127897500Y-61754432D01*
X127790880Y-61423734D02*
X127864959Y-61643788D01*
X127703703Y-61194900D02*
X127790880Y-61423734D01*
X127607893Y-60970611D02*
X127703703Y-61194900D01*
X127496821Y-60741937D02*
X127607893Y-60970611D01*
X127374552Y-60514865D02*
X127496821Y-60741937D01*
X127307074Y-60395146D02*
X127374552Y-60514865D01*
X127239705Y-60284312D02*
X127307074Y-60395146D01*
X127093305Y-60057063D02*
X127239705Y-60284312D01*
X126955851Y-59856339D02*
X127093305Y-60057063D01*
X126811919Y-59662252D02*
X126955851Y-59856339D01*
X126677131Y-59490078D02*
X126811919Y-59662252D01*
X126539785Y-59329127D02*
X126677131Y-59490078D01*
X126404899Y-59187718D02*
X126539785Y-59329127D01*
X126270017Y-59052833D02*
X126404899Y-59187718D01*
X126142379Y-58938172D02*
X126270017Y-59052833D01*
X126005762Y-58829747D02*
X126142379Y-58938172D01*
X125882523Y-58738938D02*
X126005762Y-58829747D01*
X125753100Y-58656972D02*
X125882523Y-58738938D01*
X125630300Y-58588032D02*
X125753100Y-58656972D01*
X125503375Y-58527799D02*
X125630300Y-58588032D01*
X125385005Y-58480447D02*
X125503375Y-58527799D01*
X125264701Y-58439633D02*
X125385005Y-58480447D01*
X125149646Y-58409803D02*
X125264701Y-58439633D01*
X125031955Y-58390543D02*
X125149646Y-58409803D01*
X124918314Y-58377677D02*
X125031955Y-58390543D01*
X124804856Y-58373398D02*
X124918314Y-58377677D01*
X124695863Y-58375534D02*
X124804856Y-58373398D01*
X124586513Y-58386257D02*
X124695863Y-58375534D01*
X124479624Y-58401221D02*
X124586513Y-58386257D01*
X124268128Y-58450855D02*
X124479624Y-58401221D01*
X124167919Y-58482840D02*
X124268128Y-58450855D01*
X123968385Y-58560917D02*
X124167919Y-58482840D01*
X123873785Y-58603919D02*
X123968385Y-58560917D01*
X123776635Y-58653571D02*
X123873785Y-58603919D01*
X123594038Y-58755740D02*
X123776635Y-58653571D01*
X123415737Y-58868808D02*
X123594038Y-58755740D01*
X123102778Y-59083283D02*
X123415737Y-58868808D01*
X122790995Y-59302850D02*
X123102778Y-59083283D01*
X122661952Y-59389619D02*
X122790995Y-59302850D01*
X122527083Y-59466046D02*
X122661952Y-59389619D01*
X122414566Y-59516563D02*
X122527083Y-59466046D01*
X122292722Y-59549367D02*
X122414566Y-59516563D01*
X122240828Y-59552102D02*
X122292722Y-59549367D01*
X122188156Y-59541009D02*
X122240828Y-59552102D01*
X122143585Y-59518724D02*
X122188156Y-59541009D01*
X122112370Y-59478149D02*
X122143585Y-59518724D01*
X122092258Y-59432177D02*
X122112370Y-59478149D01*
X122086882Y-59383770D02*
X122092258Y-59432177D01*
X122086882Y-59326128D02*
X122086882Y-59383770D01*
X122094110Y-59265859D02*
X122086882Y-59326128D01*
X122115057Y-59184409D02*
X122094110Y-59265859D01*
X122140316Y-59113219D02*
X122115057Y-59184409D01*
X122202932Y-58967859D02*
X122140316Y-59113219D01*
X122300787Y-58778826D02*
X122202932Y-58967859D01*
X122356741Y-58684817D02*
X122300787Y-58778826D01*
X122414760Y-58595563D02*
X122356741Y-58684817D01*
X122567384Y-58381005D02*
X122414760Y-58595563D01*
X122730974Y-58175408D02*
X122567384Y-58381005D01*
X122834919Y-58053767D02*
X122730974Y-58175408D01*
X122927997Y-57949615D02*
X122834919Y-58053767D01*
X123149110Y-57724238D02*
X122927997Y-57949615D01*
X123378459Y-57510178D02*
X123149110Y-57724238D01*
X123506921Y-57399438D02*
X123378459Y-57510178D01*
X123633194Y-57297529D02*
X123506921Y-57399438D01*
X123911225Y-57090105D02*
X123633194Y-57297529D01*
X124200912Y-56895512D02*
X123911225Y-57090105D01*
X124514944Y-56716381D02*
X124200912Y-56895512D01*
X124678916Y-56634395D02*
X124514944Y-56716381D01*
X124844750Y-56557007D02*
X124678916Y-56634395D01*
X125017529Y-56483905D02*
X124844750Y-56557007D01*
X125190296Y-56419673D02*
X125017529Y-56483905D01*
X125369745Y-56359855D02*
X125190296Y-56419673D01*
X125551239Y-56308951D02*
X125369745Y-56359855D01*
X125735217Y-56262403D02*
X125551239Y-56308951D01*
X125923900Y-56226879D02*
X125735217Y-56262403D01*
X126118799Y-56198087D02*
X125923900Y-56226879D01*
X126311922Y-56178111D02*
X126118799Y-56198087D01*
X126511178Y-56169251D02*
X126311922Y-56178111D01*
X126711037Y-56164812D02*
X126511178Y-56169251D01*
X126917506Y-56178133D02*
X126711037Y-56164812D01*
X127118718Y-56195821D02*
X126917506Y-56178133D01*
X127493070Y-56246475D02*
X127118718Y-56195821D01*
X127656237Y-56270724D02*
X127493070Y-56246475D01*
X127861164Y-56305977D02*
X127656237Y-56270724D01*
X128176283Y-56365476D02*
X127861164Y-56305977D01*
X128485303Y-56438318D02*
X128176283Y-56365476D01*
X128739723Y-56509116D02*
X128485303Y-56438318D01*
X128992488Y-56595584D02*
X128739723Y-56509116D01*
X129187898Y-56677749D02*
X128992488Y-56595584D01*
X129282046Y-56722574D02*
X129187898Y-56677749D01*
X129381069Y-56776592D02*
X129282046Y-56722574D01*
X129457930Y-56826324D02*
X129381069Y-56776592D01*
X129533891Y-56880916D02*
X129457930Y-56826324D01*
X129645604Y-57021489D02*
X129533891Y-56880916D01*
X129506744Y-56614635D02*
X129645604Y-57021489D01*
X129293776Y-55971342D02*
X129506744Y-56614635D01*
X129137584Y-55491759D02*
X129293776Y-55971342D01*
X129122116Y-55434312D02*
X129137584Y-55491759D01*
X128957601Y-54894706D02*
X129122116Y-55434312D01*
X128834464Y-54459332D02*
X128957601Y-54894706D01*
X128721728Y-54019233D02*
X128834464Y-54459332D01*
X128645176Y-53688962D02*
X128721728Y-54019233D01*
X128616415Y-53542957D02*
X128645176Y-53688962D01*
X128583268Y-53352902D02*
X128616415Y-53542957D01*
X128552160Y-53119591D02*
X128583268Y-53352902D01*
X128543225Y-52885030D02*
X128552160Y-53119591D01*
X128547849Y-52806442D02*
X128543225Y-52885030D01*
X128559870Y-52724684D02*
X128547849Y-52806442D01*
X128606323Y-52612220D02*
X128559870Y-52724684D01*
X128674790Y-52533968D02*
X128606323Y-52612220D01*
X128718156Y-52498259D02*
X128674790Y-52533968D01*
X128857346Y-52424027D02*
X128718156Y-52498259D01*
X128964360Y-52391450D02*
X128857346Y-52424027D01*
X129034111Y-52377506D02*
X128964360Y-52391450D01*
X129096863Y-52370529D02*
X129034111Y-52377506D01*
X129227452Y-52366028D02*
X129096863Y-52370529D01*
X129386112Y-52372728D02*
X129227452Y-52366028D01*
X129478031Y-52381700D02*
X129386112Y-52372728D01*
X129545566Y-52390700D02*
X129478031Y-52381700D01*
X129748191Y-52429093D02*
X129545566Y-52390700D01*
X129965602Y-49648079D02*
X129943483Y-49902450D01*
X129981194Y-49534482D02*
X129965602Y-49648079D01*
X130001206Y-49414397D02*
X129981194Y-49534482D01*
X130049970Y-49186084D02*
X130001206Y-49414397D01*
X130107753Y-48979407D02*
X130049970Y-49186084D01*
X130143525Y-48876553D02*
X130107753Y-48979407D01*
X130183761Y-48771498D02*
X130143525Y-48876553D01*
X130268426Y-48586571D02*
X130183761Y-48771498D01*
X130368387Y-48406648D02*
X130268426Y-48586571D01*
X130420184Y-48321061D02*
X130368387Y-48406648D01*
X130478785Y-48239926D02*
X130420184Y-48321061D01*
X130601406Y-48083864D02*
X130478785Y-48239926D01*
X130737787Y-47943013D02*
X130601406Y-48083864D01*
X130812005Y-47875543D02*
X130737787Y-47943013D01*
X130888300Y-47812710D02*
X130812005Y-47875543D01*
X131050955Y-47692390D02*
X130888300Y-47812710D01*
X131222599Y-47587618D02*
X131050955Y-47692390D01*
X131314361Y-47538381D02*
X131222599Y-47587618D01*
X131410669Y-47491346D02*
X131314361Y-47538381D01*
X131604154Y-47411285D02*
X131410669Y-47491346D01*
X131755195Y-47360191D02*
X131604154Y-47411285D01*
X131903761Y-47313626D02*
X131755195Y-47360191D01*
X132050827Y-47275750D02*
X131903761Y-47313626D01*
X132195995Y-47246715D02*
X132050827Y-47275750D01*
X132477878Y-47208977D02*
X132195995Y-47246715D01*
X132614267Y-47202273D02*
X132477878Y-47208977D01*
X132750314Y-47200044D02*
X132614267Y-47202273D01*
X132879773Y-47206737D02*
X132750314Y-47200044D01*
X133011195Y-47217876D02*
X132879773Y-47206737D01*
X133136504Y-47235776D02*
X133011195Y-47217876D01*
X133259205Y-47260320D02*
X133136504Y-47235776D01*
X133379460Y-47289272D02*
X133259205Y-47260320D01*
X133495720Y-47322805D02*
X133379460Y-47289272D01*
X133609671Y-47363019D02*
X133495720Y-47322805D01*
X133721548Y-47407772D02*
X133609671Y-47363019D01*
X133931117Y-47508100D02*
X133721548Y-47407772D01*
X134132043Y-47630888D02*
X133931117Y-47508100D01*
X134314791Y-47764599D02*
X134132043Y-47630888D01*
X134486410Y-47911706D02*
X134314791Y-47764599D01*
X134642609Y-48070134D02*
X134486410Y-47911706D01*
X134783095Y-48239611D02*
X134642609Y-48070134D01*
X134907797Y-48415527D02*
X134783095Y-48239611D01*
X135018804Y-48597583D02*
X134907797Y-48415527D01*
X135068156Y-48687319D02*
X135018804Y-48597583D01*
X135113129Y-48781759D02*
X135068156Y-48687319D01*
X135190999Y-48973088D02*
X135113129Y-48781759D01*
X135251125Y-49157916D02*
X135190999Y-48973088D01*
X135275856Y-49252348D02*
X135251125Y-49157916D01*
X135296197Y-49349541D02*
X135275856Y-49252348D01*
X135318559Y-49530661D02*
X135296197Y-49349541D01*
X135327524Y-49712210D02*
X135318559Y-49530661D01*
X135322960Y-49798928D02*
X135327524Y-49712210D01*
X135313908Y-49884933D02*
X135322960Y-49798928D01*
X135284769Y-50050802D02*
X135313908Y-49884933D01*
X135185316Y-50413248D02*
X135284769Y-50050802D01*
X135130133Y-50594245D02*
X135185316Y-50413248D01*
X135006839Y-50968529D02*
X135130133Y-50594245D01*
X134933881Y-51165302D02*
X135006839Y-50968529D01*
X134852205Y-51363970D02*
X134933881Y-51165302D01*
X134765980Y-51560744D02*
X134852205Y-51363970D01*
X134672860Y-51746984D02*
X134765980Y-51560744D01*
X134571142Y-51928312D02*
X134672860Y-51746984D01*
X134522150Y-52010700D02*
X134571142Y-51928312D01*
X134468328Y-52093682D02*
X134522150Y-52010700D01*
X134350241Y-52254101D02*
X134468328Y-52093682D01*
X134233243Y-52389101D02*
X134350241Y-52254101D01*
X134098233Y-52510605D02*
X134233243Y-52389101D01*
X134032223Y-52560686D02*
X134098233Y-52510605D01*
X133961106Y-52608865D02*
X134032223Y-52560686D01*
X133889339Y-52645901D02*
X133961106Y-52608865D01*
X133813843Y-52677931D02*
X133889339Y-52645901D01*
X133738076Y-52703182D02*
X133813843Y-52677931D01*
X133661283Y-52721806D02*
X133738076Y-52703182D01*
X133579959Y-52731095D02*
X133661283Y-52721806D01*
X133496107Y-52733423D02*
X133579959Y-52731095D01*
X133411927Y-52724075D02*
X133496107Y-52733423D01*
X146517960Y-52731152D02*
X146598930Y-52731152D01*
X146436184Y-52721812D02*
X146517960Y-52731152D01*
X146356995Y-52703172D02*
X146436184Y-52721812D01*
X146283065Y-52677763D02*
X146356995Y-52703172D01*
X146210213Y-52645891D02*
X146283065Y-52677763D01*
X146136447Y-52609011D02*
X146210213Y-52645891D01*
X146065385Y-52560873D02*
X146136447Y-52609011D01*
X145997156Y-52510830D02*
X146065385Y-52560873D01*
X145928867Y-52449370D02*
X145997156Y-52510830D01*
X145865799Y-52386302D02*
X145928867Y-52449370D01*
X145747178Y-52254256D02*
X145865799Y-52386302D01*
X145631318Y-52093838D02*
X145747178Y-52254256D01*
X145575376Y-52011039D02*
X145631318Y-52093838D01*
X145526179Y-51928303D02*
X145575376Y-52011039D01*
X145424359Y-51746795D02*
X145526179Y-51928303D01*
X145333539Y-51560728D02*
X145424359Y-51746795D01*
X145245105Y-51363961D02*
X145333539Y-51560728D01*
X145165609Y-51165223D02*
X145245105Y-51363961D01*
X145090649Y-50966796D02*
X145165609Y-51165223D01*
X145022258Y-50770447D02*
X145090649Y-50966796D01*
X144964888Y-50591724D02*
X145022258Y-50770447D01*
X144911922Y-50412958D02*
X144964888Y-50591724D01*
X144814869Y-50051218D02*
X144911922Y-50412958D01*
X144781105Y-49884654D02*
X144814869Y-50051218D01*
X144769798Y-49712753D02*
X144781105Y-49884654D01*
X144776540Y-49530655D02*
X144769798Y-49712753D01*
X144801246Y-49348745D02*
X144776540Y-49530655D01*
X144845971Y-49158654D02*
X144801246Y-49348745D01*
X144904033Y-48973299D02*
X144845971Y-49158654D01*
X144982226Y-48781172D02*
X144904033Y-48973299D01*
X145075983Y-48598118D02*
X144982226Y-48781172D01*
X145187324Y-48415518D02*
X145075983Y-48598118D01*
X145312220Y-48239331D02*
X145187324Y-48415518D01*
X145457033Y-48070007D02*
X145312220Y-48239331D01*
X145610787Y-47911798D02*
X145457033Y-48070007D01*
X145782269Y-47764811D02*
X145610787Y-47911798D01*
X145873847Y-47695571D02*
X145782269Y-47764811D01*
X145965568Y-47630697D02*
X145873847Y-47695571D01*
X146166121Y-47508137D02*
X145965568Y-47630697D01*
X146373485Y-47407795D02*
X146166121Y-47508137D01*
X146485446Y-47363009D02*
X146373485Y-47407795D01*
X146599504Y-47322758D02*
X146485446Y-47363009D01*
X146717866Y-47289261D02*
X146599504Y-47322758D01*
X146835963Y-47260292D02*
X146717866Y-47289261D01*
X146963094Y-47235755D02*
X146835963Y-47260292D01*
X147086033Y-47217874D02*
X146963094Y-47235755D01*
X147215331Y-47206725D02*
X147086033Y-47217874D01*
X147347019Y-47200032D02*
X147215331Y-47206725D01*
X147483047Y-47202261D02*
X147347019Y-47200032D01*
X147619456Y-47208966D02*
X147483047Y-47202261D01*
X147899148Y-47246706D02*
X147619456Y-47208966D01*
X148044292Y-47275736D02*
X147899148Y-47246706D01*
X148191270Y-47313590D02*
X148044292Y-47275736D01*
X148342123Y-47360177D02*
X148191270Y-47313590D01*
X148491053Y-47411309D02*
X148342123Y-47360177D01*
X148684636Y-47491409D02*
X148491053Y-47411309D01*
X148876490Y-47587335D02*
X148684636Y-47491409D01*
X149046462Y-47692451D02*
X148876490Y-47587335D01*
X149209011Y-47812694D02*
X149046462Y-47692451D01*
X149285566Y-47875738D02*
X149209011Y-47812694D01*
X149357566Y-47943236D02*
X149285566Y-47875738D01*
X149493716Y-48083848D02*
X149357566Y-47943236D01*
X149616336Y-48239910D02*
X149493716Y-48083848D01*
X149674693Y-48320711D02*
X149616336Y-48239910D01*
X149728729Y-48406271D02*
X149674693Y-48320711D01*
X149828890Y-48586555D02*
X149728729Y-48406271D01*
X149913779Y-48771969D02*
X149828890Y-48586555D01*
X149987258Y-48979058D02*
X149913779Y-48771969D01*
X150047299Y-49185857D02*
X149987258Y-48979058D01*
X150096215Y-49414871D02*
X150047299Y-49185857D01*
X150129485Y-49647760D02*
X150096215Y-49414871D01*
X150153827Y-49902247D02*
X150129485Y-49647760D01*
X150553993Y-52390677D02*
X150365301Y-52423982D01*
X150621435Y-52381689D02*
X150553993Y-52390677D01*
X150711158Y-52372713D02*
X150621435Y-52381689D01*
X150869869Y-52366011D02*
X150711158Y-52372713D01*
X151000547Y-52370514D02*
X150869869Y-52366011D01*
X151060970Y-52377491D02*
X151000547Y-52370514D01*
X151132834Y-52391392D02*
X151060970Y-52377491D01*
X151239230Y-52423783D02*
X151132834Y-52391392D01*
X151339016Y-52472515D02*
X151239230Y-52423783D01*
X151380581Y-52499406D02*
X151339016Y-52472515D01*
X151422529Y-52533950D02*
X151380581Y-52499406D01*
X151489435Y-52610418D02*
X151422529Y-52533950D01*
X151520286Y-52666977D02*
X151489435Y-52610418D01*
X151537794Y-52726992D02*
X151520286Y-52666977D01*
X151549473Y-52806424D02*
X151537794Y-52726992D01*
X151554098Y-52885011D02*
X151549473Y-52806424D01*
X151545168Y-53119395D02*
X151554098Y-52885011D01*
X151516254Y-53350713D02*
X151545168Y-53119395D01*
X151480809Y-53543443D02*
X151516254Y-53350713D01*
X151449908Y-53689116D02*
X151480809Y-53543443D01*
X151375073Y-54021478D02*
X151449908Y-53689116D01*
X151260679Y-54459260D02*
X151375073Y-54021478D01*
X151139750Y-54892401D02*
X151260679Y-54459260D01*
X150974926Y-55435229D02*
X151139750Y-54892401D01*
X150835658Y-55891764D02*
X150974926Y-55435229D01*
X150353112Y-57104116D02*
X150835658Y-55891764D01*
X150503072Y-56930914D02*
X150353112Y-57104116D01*
X150564911Y-56878232D02*
X150503072Y-56930914D01*
X150639892Y-56825974D02*
X150564911Y-56878232D01*
X150718523Y-56776551D02*
X150639892Y-56825974D01*
X150815093Y-56722647D02*
X150718523Y-56776551D01*
X150909431Y-56677731D02*
X150815093Y-56722647D01*
X151104838Y-56595566D02*
X150909431Y-56677731D01*
X151357605Y-56509097D02*
X151104838Y-56595566D01*
X151612056Y-56438290D02*
X151357605Y-56509097D01*
X151923245Y-56365456D02*
X151612056Y-56438290D01*
X152236175Y-56305955D02*
X151923245Y-56365456D01*
X152443322Y-56270698D02*
X152236175Y-56305955D01*
X152606413Y-56246459D02*
X152443322Y-56270698D01*
X152976193Y-56195828D02*
X152606413Y-56246459D01*
X153182046Y-56175910D02*
X152976193Y-56195828D01*
X153386506Y-56164795D02*
X153182046Y-56175910D01*
X153586150Y-56169229D02*
X153386506Y-56164795D01*
X153785381Y-56178087D02*
X153586150Y-56169229D01*
X153980734Y-56198064D02*
X153785381Y-56178087D01*
X154173506Y-56226870D02*
X153980734Y-56198064D01*
X154359900Y-56262379D02*
X154173506Y-56226870D01*
X154546096Y-56308928D02*
X154359900Y-56262379D01*
X154725375Y-56359831D02*
X154546096Y-56308928D01*
X154906871Y-56419593D02*
X154725375Y-56359831D01*
X155082002Y-56483880D02*
X154906871Y-56419593D01*
X155252667Y-56557024D02*
X155082002Y-56483880D01*
X155418516Y-56634420D02*
X155252667Y-56557024D01*
X155580076Y-56716304D02*
X155418516Y-56634420D01*
X155739233Y-56804725D02*
X155580076Y-56716304D01*
X155894360Y-56895586D02*
X155739233Y-56804725D01*
X156185971Y-57089988D02*
X155894360Y-56895586D01*
X156466411Y-57297562D02*
X156185971Y-57089988D01*
X156590547Y-57399533D02*
X156466411Y-57297562D01*
X156718882Y-57510165D02*
X156590547Y-57399533D01*
X156957307Y-57733131D02*
X156718882Y-57510165D01*
X157166790Y-57949228D02*
X156957307Y-57733131D01*
X157264433Y-58053531D02*
X157166790Y-57949228D01*
X157366588Y-58175673D02*
X157264433Y-58053531D01*
X157527835Y-58381097D02*
X157366588Y-58175673D01*
X157680375Y-58595538D02*
X157527835Y-58381097D01*
X157738392Y-58684793D02*
X157680375Y-58595538D01*
X157794144Y-58778459D02*
X157738392Y-58684793D01*
X157896567Y-58967717D02*
X157794144Y-58778459D01*
X157957106Y-59113460D02*
X157896567Y-58967717D01*
X157982467Y-59184934D02*
X157957106Y-59113460D01*
X158000872Y-59265449D02*
X157982467Y-59184934D01*
X158010306Y-59322059D02*
X158000872Y-59265449D01*
X158012848Y-59385611D02*
X158010306Y-59322059D01*
X157996599Y-59453319D02*
X158012848Y-59385611D01*
X157954427Y-59519586D02*
X157996599Y-59453319D01*
X157885287Y-59546643D02*
X157954427Y-59519586D01*
X157854151Y-59549755D02*
X157885287Y-59546643D01*
X157805002Y-59547170D02*
X157854151Y-59549755D01*
X157683581Y-59516813D02*
X157805002Y-59547170D01*
X157622515Y-59490979D02*
X157683581Y-59516813D01*
X157569792Y-59465764D02*
X157622515Y-59490979D01*
X157435376Y-59389594D02*
X157569792Y-59465764D01*
X157306250Y-59302769D02*
X157435376Y-59389594D01*
X156994608Y-59081109D02*
X157306250Y-59302769D01*
X156679443Y-58868810D02*
X156994608Y-59081109D01*
X156503187Y-58755658D02*
X156679443Y-58868810D01*
X156320694Y-58653548D02*
X156503187Y-58755658D01*
X156223546Y-58603897D02*
X156320694Y-58653548D01*
X156128942Y-58560894D02*
X156223546Y-58603897D01*
X155929532Y-58482866D02*
X156128942Y-58560894D01*
X155826431Y-58450644D02*
X155929532Y-58482866D01*
X155723126Y-58422669D02*
X155826431Y-58450644D01*
X155620024Y-58401189D02*
X155723126Y-58422669D01*
X155513008Y-58384064D02*
X155620024Y-58401189D01*
X155404091Y-58375522D02*
X155513008Y-58384064D01*
X155292479Y-58373377D02*
X155404091Y-58375522D01*
X155179063Y-58377654D02*
X155292479Y-58373377D01*
X155067557Y-58390522D02*
X155179063Y-58377654D01*
X154947623Y-58409798D02*
X155067557Y-58390522D01*
X154832514Y-58439642D02*
X154947623Y-58409798D01*
X154709700Y-58480578D02*
X154832514Y-58439642D01*
X154591866Y-58525569D02*
X154709700Y-58480578D01*
X154467566Y-58587722D02*
X154591866Y-58525569D01*
X154346425Y-58656945D02*
X154467566Y-58587722D01*
X154214530Y-58739109D02*
X154346425Y-58656945D01*
X154089510Y-58829639D02*
X154214530Y-58739109D01*
X153957217Y-58938075D02*
X154089510Y-58829639D01*
X153813980Y-59063952D02*
X153957217Y-58938075D01*
X153690485Y-59187450D02*
X153813980Y-59063952D01*
X153559892Y-59328924D02*
X153690485Y-59187450D01*
X153409630Y-59503139D02*
X153559892Y-59328924D01*
X153285423Y-59662211D02*
X153409630Y-59503139D01*
X153139298Y-59856321D02*
X153285423Y-59662211D01*
X153004116Y-60056911D02*
X153139298Y-59856321D01*
X152857627Y-60284295D02*
X153004116Y-60056911D01*
X152790260Y-60395129D02*
X152857627Y-60284295D01*
X152722861Y-60514707D02*
X152790260Y-60395129D01*
X152602778Y-60741775D02*
X152722861Y-60514707D01*
X152491558Y-60970754D02*
X152602778Y-60741775D01*
X152393611Y-61194946D02*
X152491558Y-60970754D01*
X152308641Y-61421535D02*
X152393611Y-61194946D01*
X152232342Y-61643893D02*
X152308641Y-61421535D01*
X152199834Y-61754417D02*
X152232342Y-61643893D01*
X152169341Y-61867677D02*
X152199834Y-61754417D01*
X152114832Y-62085720D02*
X152169341Y-61867677D01*
X152071379Y-62305155D02*
X152114832Y-62085720D01*
X152040915Y-62520576D02*
X152071379Y-62305155D01*
X152016962Y-62738343D02*
X152040915Y-62520576D01*
X152003914Y-62949298D02*
X152016962Y-62738343D01*
X151999560Y-63160381D02*
X152003914Y-62949298D01*
X152003913Y-63367056D02*
X151999560Y-63160381D01*
X152016947Y-63573430D02*
X152003913Y-63367056D01*
X152040888Y-63773669D02*
X152016947Y-63573430D01*
X152069214Y-63974123D02*
X152040888Y-63773669D01*
X152106154Y-64169694D02*
X152069214Y-63974123D01*
X152151832Y-64363273D02*
X152106154Y-64169694D01*
X152204084Y-64552690D02*
X152151832Y-64363273D01*
X152262928Y-64740119D02*
X152204084Y-64552690D01*
X163149929Y-76270305D02*
X163119925Y-76242178D01*
X163174949Y-76288652D02*
X163149929Y-76270305D01*
X163253337Y-76291824D02*
X163174949Y-76288652D01*
X163290756Y-76273114D02*
X163253337Y-76291824D01*
X163324987Y-76248391D02*
X163290756Y-76273114D01*
X163374185Y-76201241D02*
X163324987Y-76248391D01*
X163472636Y-76089666D02*
X163374185Y-76201241D01*
X163531545Y-76030755D02*
X163472636Y-76089666D01*
X163593002Y-75976126D02*
X163531545Y-76030755D01*
X163659811Y-75925445D02*
X163593002Y-75976126D01*
X163802165Y-75839580D02*
X163659811Y-75925445D01*
X163955990Y-75769454D02*
X163802165Y-75839580D01*
X164117829Y-75717753D02*
X163955990Y-75769454D01*
X164280918Y-75677540D02*
X164117829Y-75717753D01*
X164448980Y-75648408D02*
X164280918Y-75677540D01*
X164618898Y-75634997D02*
X164448980Y-75648408D01*
X164787961Y-75630546D02*
X164618898Y-75634997D01*
X164954968Y-75635001D02*
X164787961Y-75630546D01*
X165111369Y-75648403D02*
X164954968Y-75635001D01*
X165266972Y-75672859D02*
X165111369Y-75648403D01*
X165403067Y-75697399D02*
X165266972Y-75672859D01*
X165537605Y-75733274D02*
X165403067Y-75697399D01*
X165648186Y-75769383D02*
X165537605Y-75733274D01*
X165785268Y-75828788D02*
X165648186Y-75769383D01*
X165829400Y-75858206D02*
X165785268Y-75828788D01*
X165894204Y-75909123D02*
X165829400Y-75858206D01*
X165920738Y-75935659D02*
X165894204Y-75909123D01*
X165939419Y-75973018D02*
X165920738Y-75935659D01*
X165945991Y-76002592D02*
X165939419Y-75973018D01*
X165945991Y-76036891D02*
X165945991Y-76002592D01*
X165932287Y-76074573D02*
X165945991Y-76036891D01*
X165909767Y-76103530D02*
X165932287Y-76074573D01*
X165879952Y-76127922D02*
X165909767Y-76103530D01*
X165844515Y-76150705D02*
X165879952Y-76127922D01*
X165791318Y-76174886D02*
X165844515Y-76150705D01*
X165734764Y-76193736D02*
X165791318Y-76174886D01*
X165535839Y-76241826D02*
X165734764Y-76193736D01*
X165451815Y-76273338D02*
X165535839Y-76241826D01*
X165367136Y-76311444D02*
X165451815Y-76273338D01*
X165289502Y-76355505D02*
X165367136Y-76311444D01*
X165211618Y-76410233D02*
X165289502Y-76355505D01*
X165142658Y-76468744D02*
X165211618Y-76410233D01*
X165003646Y-76618454D02*
X165142658Y-76468744D01*
X164939960Y-76707613D02*
X165003646Y-76618454D01*
X164879888Y-76799866D02*
X164939960Y-76707613D01*
X164821819Y-76905250D02*
X164879888Y-76799866D01*
X164767971Y-77012949D02*
X164821819Y-76905250D01*
X164716149Y-77136025D02*
X164767971Y-77012949D01*
X164668620Y-77261330D02*
X164716149Y-77136025D01*
X164620864Y-77415449D02*
X164668620Y-77261330D01*
X164583982Y-77543449D02*
X164620864Y-77415449D01*
X164507724Y-77870272D02*
X164583982Y-77543449D01*
X164451027Y-78203910D02*
X164507724Y-77870272D01*
X164422659Y-78422131D02*
X164451027Y-78203910D01*
X164403020Y-78598884D02*
X164422659Y-78422131D01*
X164374401Y-78946134D02*
X164403020Y-78598884D01*
X165768851Y-78810710D02*
X164374401Y-78946134D01*
X166245363Y-78758008D02*
X165768851Y-78810710D01*
X166298002Y-78753619D02*
X166245363Y-78758008D01*
X166826041Y-78694460D02*
X166298002Y-78753619D01*
X167163334Y-78652848D02*
X166826041Y-78694460D01*
X167500664Y-78604340D02*
X167163334Y-78652848D01*
X167989406Y-78580014D02*
X167500664Y-78604340D01*
X168206835Y-78586670D02*
X167989406Y-78580014D01*
X168354918Y-78595510D02*
X168206835Y-78586670D01*
X168494384Y-78606581D02*
X168354918Y-78595510D01*
X168779214Y-78639699D02*
X168494384Y-78606581D01*
X169120954Y-78694817D02*
X168779214Y-78639699D01*
X169293406Y-78727984D02*
X169120954Y-78694817D01*
X169461463Y-78765572D02*
X169293406Y-78727984D01*
X169849433Y-78864769D02*
X169461463Y-78765572D01*
X170230962Y-78983860D02*
X169849433Y-78864769D01*
X170436717Y-79056868D02*
X170230962Y-78983860D01*
X170850979Y-79224335D02*
X170436717Y-79056868D01*
X171061027Y-79319412D02*
X170850979Y-79224335D01*
X171277152Y-79427474D02*
X171061027Y-79319412D01*
X171493199Y-79539907D02*
X171277152Y-79427474D01*
X171711627Y-79663462D02*
X171493199Y-79539907D01*
X171927879Y-79793654D02*
X171711627Y-79663462D01*
X172150614Y-79939203D02*
X171927879Y-79793654D01*
X172368943Y-80089164D02*
X172150614Y-79939203D01*
X172591814Y-80254664D02*
X172368943Y-80089164D01*
X172808090Y-80426800D02*
X172591814Y-80254664D01*
X173028696Y-80616521D02*
X172808090Y-80426800D01*
X173242301Y-80812510D02*
X173028696Y-80616521D01*
X173359288Y-80922873D02*
X173242301Y-80812510D01*
X173460994Y-81024579D02*
X173359288Y-80922873D01*
X173672543Y-81244942D02*
X173460994Y-81024579D01*
X173886310Y-81485157D02*
X173672543Y-81244942D01*
X174093475Y-81729787D02*
X173886310Y-81485157D01*
X174300760Y-81994404D02*
X174093475Y-81729787D01*
X174499024Y-82267568D02*
X174300760Y-81994404D01*
X174701759Y-82560651D02*
X174499024Y-82267568D01*
X174897949Y-82873674D02*
X174701759Y-82560651D01*
X175080602Y-83186164D02*
X174897949Y-82873674D01*
X175177679Y-83358253D02*
X175080602Y-83186164D01*
X175450607Y-83882100D02*
X175177679Y-83358253D01*
X175613596Y-84234506D02*
X175450607Y-83882100D01*
X175703833Y-84439189D02*
X175613596Y-84234506D01*
X175780961Y-84619888D02*
X175703833Y-84439189D01*
X175937189Y-85013759D02*
X175780961Y-84619888D01*
X176082421Y-85409847D02*
X175937189Y-85013759D01*
X176216655Y-85808145D02*
X176082421Y-85409847D01*
X176339866Y-86208578D02*
X176216655Y-85808145D01*
X176454298Y-86613489D02*
X176339866Y-86208578D01*
X176555527Y-87018406D02*
X176454298Y-86613489D01*
X176647956Y-87427730D02*
X176555527Y-87018406D01*
X176727156Y-87836938D02*
X176647956Y-87427730D01*
X176762394Y-88037343D02*
X176727156Y-87836938D01*
X176795426Y-88244350D02*
X176762394Y-88037343D01*
X176852624Y-88649129D02*
X176795426Y-88244350D01*
X176898838Y-89058456D02*
X176852624Y-88649129D01*
X176934071Y-89461429D02*
X176898838Y-89058456D01*
X176953887Y-89866514D02*
X176934071Y-89461429D01*
X176964890Y-90264904D02*
X176953887Y-89866514D01*
X176962690Y-90661254D02*
X176964890Y-90264904D01*
X176949473Y-91051145D02*
X176962690Y-90661254D01*
X176920842Y-91443181D02*
X176949473Y-91051145D01*
X176883396Y-91819850D02*
X176920842Y-91443181D01*
X176830507Y-92201086D02*
X176883396Y-91819850D01*
X176766626Y-92566749D02*
X176830507Y-92201086D01*
X176729092Y-92750000D02*
X176766626Y-92566749D01*
X176687153Y-92933209D02*
X176729092Y-92750000D01*
X176596808Y-93283573D02*
X176687153Y-92933209D01*
X176491062Y-93633860D02*
X176596808Y-93283573D01*
X176435794Y-93801874D02*
X176491062Y-93633860D01*
X176373922Y-93969815D02*
X176435794Y-93801874D01*
X176243815Y-94300595D02*
X176373922Y-93969815D01*
X176098221Y-94616052D02*
X176243815Y-94300595D01*
X176020791Y-94773124D02*
X176098221Y-94616052D01*
X175936709Y-94928011D02*
X176020791Y-94773124D01*
X175766843Y-95221415D02*
X175936709Y-94928011D01*
X175578996Y-95508711D02*
X175766843Y-95221415D01*
X175479249Y-95643925D02*
X175578996Y-95508711D01*
X175375357Y-95778764D02*
X175479249Y-95643925D01*
X175161157Y-96037130D02*
X175375357Y-95778764D01*
X174931273Y-96282487D02*
X175161157Y-96037130D01*
X174809340Y-96399988D02*
X174931273Y-96282487D01*
X174685265Y-96512984D02*
X174809340Y-96399988D01*
X174424376Y-96729653D02*
X174685265Y-96512984D01*
X174150344Y-96926339D02*
X174424376Y-96729653D01*
X174006496Y-97021499D02*
X174150344Y-96926339D01*
X173860169Y-97112400D02*
X174006496Y-97021499D01*
X173707325Y-97196575D02*
X173860169Y-97112400D01*
X173555139Y-97275978D02*
X173707325Y-97196575D01*
X173395821Y-97355635D02*
X173555139Y-97275978D01*
X173234108Y-97426524D02*
X173395821Y-97355635D01*
X173066119Y-97495047D02*
X173234108Y-97426524D01*
X172898157Y-97556927D02*
X173066119Y-97495047D01*
X172723529Y-97616609D02*
X172898157Y-97556927D01*
X172546512Y-97669715D02*
X172723529Y-97616609D01*
X172363214Y-97718301D02*
X172546512Y-97669715D01*
X172179862Y-97762481D02*
X172363214Y-97718301D01*
X171985391Y-97802261D02*
X172179862Y-97762481D01*
X171795452Y-97835388D02*
X171985391Y-97802261D01*
X171599017Y-97864083D02*
X171795452Y-97835388D01*
X171398041Y-97888376D02*
X171599017Y-97864083D01*
X171192716Y-97906039D02*
X171398041Y-97888376D01*
X170983235Y-97919269D02*
X171192716Y-97906039D01*
X170760224Y-97928100D02*
X170983235Y-97919269D01*
X170550373Y-97928100D02*
X170760224Y-97928100D01*
X170085499Y-97917085D02*
X170550373Y-97928100D01*
X169642500Y-97879617D02*
X170085499Y-97917085D01*
X169386949Y-97850977D02*
X169642500Y-97879617D01*
X169151063Y-97820114D02*
X169386949Y-97850977D01*
X168664122Y-97740795D02*
X169151063Y-97820114D01*
X168202916Y-97637079D02*
X168664122Y-97740795D01*
X168049703Y-97592669D02*
X168202916Y-97637079D01*
X167771592Y-97504380D02*
X168049703Y-97592669D01*
X167495300Y-97400495D02*
X167771592Y-97504380D01*
X167370762Y-97347121D02*
X167495300Y-97400495D01*
X167244176Y-97287161D02*
X167370762Y-97347121D01*
X166998336Y-97158703D02*
X167244176Y-97287161D01*
X166778946Y-97021306D02*
X166998336Y-97158703D01*
X166674066Y-96949900D02*
X166778946Y-97021306D01*
X166567146Y-96867483D02*
X166674066Y-96949900D01*
X166376372Y-96709984D02*
X166567146Y-96867483D01*
X166196565Y-96532397D02*
X166376372Y-96709984D01*
X166111579Y-96440701D02*
X166196565Y-96532397D01*
X166033376Y-96344623D02*
X166111579Y-96440701D01*
X165884623Y-96147027D02*
X166033376Y-96344623D01*
X165753541Y-95933741D02*
X165884623Y-96147027D01*
X165693376Y-95824552D02*
X165753541Y-95933741D01*
X165637536Y-95712874D02*
X165693376Y-95824552D01*
X165535455Y-95473204D02*
X165637536Y-95712874D01*
X165453371Y-95233605D02*
X165535455Y-95473204D01*
X165415635Y-95100421D02*
X165453371Y-95233605D01*
X165382231Y-94973487D02*
X165415635Y-95100421D01*
X165331277Y-94705425D02*
X165382231Y-94973487D01*
X165291466Y-94420115D02*
X165331277Y-94705425D01*
X165267111Y-94132288D02*
X165291466Y-94420115D01*
X165260479Y-93816171D02*
X165267111Y-94132288D01*
X165267109Y-93513361D02*
X165260479Y-93816171D01*
X165293597Y-93177844D02*
X165267109Y-93513361D01*
X165366238Y-92532620D02*
X165293597Y-93177844D01*
X165440482Y-92991568D02*
X165366238Y-92532620D01*
X165472836Y-93133924D02*
X165440482Y-92991568D01*
X165511610Y-93269635D02*
X165472836Y-93133924D01*
X165558977Y-93400970D02*
X165511610Y-93269635D01*
X165614981Y-93532363D02*
X165558977Y-93400970D01*
X165677224Y-93654704D02*
X165614981Y-93532363D01*
X165750283Y-93775034D02*
X165677224Y-93654704D01*
X165830087Y-93889347D02*
X165750283Y-93775034D01*
X165918599Y-94003766D02*
X165830087Y-93889347D01*
X166011155Y-94109237D02*
X165918599Y-94003766D01*
X166116740Y-94214821D02*
X166011155Y-94109237D01*
X166226728Y-94311869D02*
X166116740Y-94214821D01*
X166347989Y-94407146D02*
X166226728Y-94311869D01*
X166473590Y-94498098D02*
X166347989Y-94407146D01*
X166612054Y-94586802D02*
X166473590Y-94498098D01*
X166752814Y-94666926D02*
X166612054Y-94586802D01*
X166907055Y-94745134D02*
X166752814Y-94666926D01*
X167065817Y-94819076D02*
X166907055Y-94745134D01*
X167237431Y-94890763D02*
X167065817Y-94819076D01*
X167411565Y-94953887D02*
X167237431Y-94890763D01*
X167599123Y-95017134D02*
X167411565Y-94953887D01*
X167788698Y-95073788D02*
X167599123Y-95017134D01*
X167993724Y-95128315D02*
X167788698Y-95073788D01*
X168198585Y-95176262D02*
X167993724Y-95128315D01*
X168354097Y-95206500D02*
X168198585Y-95176262D01*
X168507030Y-95223731D02*
X168354097Y-95206500D01*
X168656035Y-95232370D02*
X168507030Y-95223731D01*
X168804549Y-95232370D02*
X168656035Y-95232370D01*
X168944556Y-95221600D02*
X168804549Y-95232370D01*
X169084086Y-95204426D02*
X168944556Y-95221600D01*
X169217089Y-95174393D02*
X169084086Y-95204426D01*
X169350969Y-95137683D02*
X169217089Y-95174393D01*
X169477465Y-95094804D02*
X169350969Y-95137683D01*
X169599848Y-95041126D02*
X169477465Y-95094804D01*
X169720392Y-94980854D02*
X169599848Y-95041126D01*
X169836505Y-94912048D02*
X169720392Y-94980854D01*
X169948732Y-94836510D02*
X169836505Y-94912048D01*
X170059058Y-94754306D02*
X169948732Y-94836510D01*
X170164716Y-94668055D02*
X170059058Y-94754306D01*
X170266101Y-94573140D02*
X170164716Y-94668055D01*
X170365881Y-94471190D02*
X170266101Y-94573140D01*
X170459026Y-94369380D02*
X170365881Y-94471190D01*
X170552092Y-94256836D02*
X170459026Y-94369380D01*
X170638691Y-94142092D02*
X170552092Y-94256836D01*
X170723264Y-94018485D02*
X170638691Y-94142092D01*
X170801261Y-93894991D02*
X170723264Y-94018485D01*
X170947072Y-93636015D02*
X170801261Y-93894991D01*
X171079739Y-93359804D02*
X170947072Y-93636015D01*
X171195065Y-93074751D02*
X171079739Y-93359804D01*
X171295260Y-92778523D02*
X171195065Y-93074751D01*
X171380180Y-92478034D02*
X171295260Y-92778523D01*
X171445529Y-92175246D02*
X171380180Y-92478034D01*
X171497821Y-91868033D02*
X171445529Y-92175246D01*
X171530514Y-91567254D02*
X171497821Y-91868033D01*
X171541386Y-91417226D02*
X171530514Y-91567254D01*
X171547909Y-91267199D02*
X171541386Y-91417226D01*
X171550085Y-90977723D02*
X171547909Y-91267199D01*
X171530487Y-90688120D02*
X171550085Y-90977723D01*
X171517448Y-90555560D02*
X171530487Y-90688120D01*
X171500162Y-90421591D02*
X171517448Y-90555560D01*
X171448012Y-90158664D02*
X171500162Y-90421591D01*
X171389215Y-89930015D02*
X171448012Y-90158664D01*
X171323676Y-89702811D02*
X171389215Y-89930015D01*
X171273791Y-89542312D02*
X171323676Y-89702811D01*
X171195558Y-89342385D02*
X171273791Y-89542312D01*
X171137066Y-89203739D02*
X171195558Y-89342385D01*
X171079204Y-89088014D02*
X171137066Y-89203739D01*
X171010527Y-88974268D02*
X171079204Y-89088014D01*
X170988054Y-88941579D02*
X171010527Y-88974268D01*
X170944208Y-88887296D02*
X170988054Y-88941579D01*
X170888756Y-88829790D02*
X170944208Y-88887296D01*
X170826634Y-88783698D02*
X170888756Y-88829790D01*
X170779640Y-88764667D02*
X170826634Y-88783698D01*
X170723738Y-88755348D02*
X170779640Y-88764667D01*
X170674776Y-88762342D02*
X170723738Y-88755348D01*
X170630234Y-88781943D02*
X170674776Y-88762342D01*
X170578042Y-88822537D02*
X170630234Y-88781943D01*
X170532106Y-88872468D02*
X170578042Y-88822537D01*
X170506166Y-88910378D02*
X170532106Y-88872468D01*
X170485486Y-88945533D02*
X170506166Y-88910378D01*
X170442872Y-89026501D02*
X170485486Y-88945533D01*
X170397969Y-89131275D02*
X170442872Y-89026501D01*
X170359553Y-89237989D02*
X170397969Y-89131275D01*
X170325034Y-89369593D02*
X170359553Y-89237989D01*
X170292568Y-89503785D02*
X170325034Y-89369593D01*
X170266590Y-89657494D02*
X170292568Y-89503785D01*
X170229169Y-89926042D02*
X170266590Y-89657494D01*
X170206660Y-90034085D02*
X170229169Y-89926042D01*
X170179543Y-90133513D02*
X170206660Y-90034085D01*
X170145639Y-90228443D02*
X170179543Y-90133513D01*
X170106944Y-90319492D02*
X170145639Y-90228443D01*
X170061464Y-90401356D02*
X170106944Y-90319492D01*
X170013605Y-90478843D02*
X170061464Y-90401356D01*
X169956377Y-90552093D02*
X170013605Y-90478843D01*
X169896769Y-90618582D02*
X169956377Y-90552093D01*
X169829639Y-90678766D02*
X169896769Y-90618582D01*
X169756147Y-90731590D02*
X169829639Y-90678766D01*
X169680384Y-90777504D02*
X169756147Y-90731590D01*
X169594132Y-90818363D02*
X169680384Y-90777504D01*
X169507469Y-90854850D02*
X169594132Y-90818363D01*
X169411873Y-90882166D02*
X169507469Y-90854850D01*
X169316958Y-90904765D02*
X169411873Y-90882166D01*
X169211036Y-90920541D02*
X169316958Y-90904765D01*
X169102726Y-90931821D02*
X169211036Y-90920541D01*
X168870921Y-90934049D02*
X169102726Y-90931821D01*
X168725723Y-90925115D02*
X168870921Y-90934049D01*
X168602707Y-90911694D02*
X168725723Y-90925115D01*
X168295027Y-90859103D02*
X168602707Y-90911694D01*
X168405155Y-90528721D02*
X168295027Y-90859103D01*
X168448603Y-90387511D02*
X168405155Y-90528721D01*
X168485389Y-90244694D02*
X168448603Y-90387511D01*
X168544164Y-89957345D02*
X168485389Y-90244694D01*
X168585513Y-89667898D02*
X168544164Y-89957345D01*
X168598523Y-89520460D02*
X168585513Y-89667898D01*
X168607199Y-89372966D02*
X168598523Y-89520460D01*
X168609376Y-89079057D02*
X168607199Y-89372966D01*
X168594130Y-88776324D02*
X168609376Y-89079057D01*
X168578978Y-88624809D02*
X168594130Y-88776324D01*
X168557266Y-88479343D02*
X168578978Y-88624809D01*
X168502687Y-88167150D02*
X168557266Y-88479343D01*
X168432977Y-87862164D02*
X168502687Y-88167150D01*
X168387319Y-87703452D02*
X168432977Y-87862164D01*
X168339394Y-87546609D02*
X168387319Y-87703452D01*
X168230277Y-87234534D02*
X168339394Y-87546609D01*
X168150105Y-87035189D02*
X168230277Y-87234534D01*
X168055158Y-86845297D02*
X168150105Y-87035189D01*
X167991819Y-86741843D02*
X168055158Y-86845297D01*
X167887905Y-86614600D02*
X167991819Y-86741843D01*
X167852216Y-86580893D02*
X167887905Y-86614600D01*
X167813039Y-86551511D02*
X167852216Y-86580893D01*
X167777810Y-86532969D02*
X167813039Y-86551511D01*
X167741601Y-86521534D02*
X167777810Y-86532969D01*
X167708568Y-86514194D02*
X167741601Y-86521534D01*
X167672809Y-86514194D02*
X167708568Y-86514194D01*
X167636903Y-86519863D02*
X167672809Y-86514194D01*
X167604858Y-86528767D02*
X167636903Y-86519863D01*
X167526895Y-86572745D02*
X167604858Y-86528767D01*
X167454892Y-86630347D02*
X167526895Y-86572745D01*
X167372900Y-86714440D02*
X167454892Y-86630347D01*
X167298998Y-86810079D02*
X167372900Y-86714440D01*
X167131224Y-87066446D02*
X167298998Y-86810079D01*
X167048606Y-87205594D02*
X167131224Y-87066446D01*
X166647141Y-87942713D02*
X167048606Y-87205594D01*
X166563058Y-88088753D02*
X166647141Y-87942713D01*
X166472325Y-88232595D02*
X166563058Y-88088753D01*
X166387828Y-88359343D02*
X166472325Y-88232595D01*
X166291288Y-88485069D02*
X166387828Y-88359343D01*
X166189034Y-88594141D02*
X166291288Y-88485069D01*
X166128536Y-88643005D02*
X166189034Y-88594141D01*
X166066261Y-88686826D02*
X166128536Y-88643005D01*
X165928248Y-88763752D02*
X166066261Y-88686826D01*
X165782672Y-88824223D02*
X165928248Y-88763752D01*
X165699509Y-88855690D02*
X165782672Y-88824223D01*
X165618416Y-88880468D02*
X165699509Y-88855690D01*
X165452628Y-88924679D02*
X165618416Y-88880468D01*
X165271154Y-88968942D02*
X165452628Y-88924679D01*
X165086102Y-89004188D02*
X165271154Y-88968942D01*
X164687782Y-89087354D02*
X165086102Y-89004188D01*
X164294517Y-89183487D02*
X164687782Y-89087354D01*
X164090595Y-89244230D02*
X164294517Y-89183487D01*
X163891060Y-89317972D02*
X164090595Y-89244230D01*
X163689665Y-89404592D02*
X163891060Y-89317972D01*
X163494530Y-89508665D02*
X163689665Y-89404592D01*
X163395506Y-89566788D02*
X163494530Y-89508665D01*
X163303667Y-89628725D02*
X163395506Y-89566788D01*
X163123698Y-89771833D02*
X163303667Y-89628725D01*
X163032963Y-89851768D02*
X163123698Y-89771833D01*
X162944738Y-89935688D02*
X163032963Y-89851768D01*
X162860735Y-90028306D02*
X162944738Y-89935688D01*
X162778730Y-90125417D02*
X162860735Y-90028306D01*
X162698814Y-90233415D02*
X162778730Y-90125417D01*
X162622808Y-90344163D02*
X162698814Y-90233415D01*
X162544941Y-90465294D02*
X162622808Y-90344163D01*
X162476033Y-90590186D02*
X162544941Y-90465294D01*
X162408788Y-90731186D02*
X162476033Y-90590186D01*
X162345734Y-90872514D02*
X162408788Y-90731186D01*
X162282808Y-91030916D02*
X162345734Y-90872514D01*
X162228476Y-91189565D02*
X162282808Y-91030916D01*
X162176237Y-91357165D02*
X162228476Y-91189565D01*
X162130522Y-91526960D02*
X162176237Y-91357165D01*
X162089195Y-91698797D02*
X162130522Y-91526960D01*
X162056628Y-91868146D02*
X162089195Y-91698797D01*
X162004288Y-92214896D02*
X162056628Y-91868146D01*
X161973753Y-92561696D02*
X162004288Y-92214896D01*
X161965044Y-92733712D02*
X161973753Y-92561696D01*
X161960692Y-92907779D02*
X161965044Y-92733712D01*
X161967240Y-93257003D02*
X161960692Y-92907779D01*
X161989057Y-93601702D02*
X161967240Y-93257003D01*
X162028336Y-93946481D02*
X161989057Y-93601702D01*
X162080763Y-94282892D02*
X162028336Y-93946481D01*
X162144150Y-94619495D02*
X162080763Y-94282892D01*
X162179031Y-94776460D02*
X162144150Y-94619495D01*
X162218329Y-94940197D02*
X162179031Y-94776460D01*
X162303571Y-95261494D02*
X162218329Y-94940197D01*
X162397596Y-95567623D02*
X162303571Y-95261494D01*
X162496026Y-95871662D02*
X162397596Y-95567623D01*
X162598685Y-96155612D02*
X162496026Y-95871662D01*
X162710128Y-96435309D02*
X162598685Y-96155612D01*
X162819467Y-96688976D02*
X162710128Y-96435309D01*
X162933115Y-96940312D02*
X162819467Y-96688976D01*
X163042318Y-97160903D02*
X162933115Y-96940312D01*
X163155982Y-97379487D02*
X163042318Y-97160903D01*
X163258509Y-97564907D02*
X163155982Y-97379487D01*
X163365326Y-97743661D02*
X163258509Y-97564907D01*
X163454561Y-97882955D02*
X163365326Y-97743661D01*
X163550079Y-98021890D02*
X163454561Y-97882955D01*
X163781562Y-98323256D02*
X163550079Y-98021890D01*
X163903686Y-98471549D02*
X163781562Y-98323256D01*
X164025727Y-98613202D02*
X163903686Y-98471549D01*
X164290059Y-98897194D02*
X164025727Y-98613202D01*
X164565174Y-99167943D02*
X164290059Y-98897194D01*
X164711063Y-99298589D02*
X164565174Y-99167943D01*
X164859451Y-99425157D02*
X164711063Y-99298589D01*
X165165213Y-99671949D02*
X164859451Y-99425157D01*
X165490546Y-99903394D02*
X165165213Y-99671949D01*
X165658430Y-100014589D02*
X165490546Y-99903394D01*
X165825984Y-100119038D02*
X165658430Y-100014589D01*
X166179910Y-100315664D02*
X165825984Y-100119038D01*
X166362960Y-100409366D02*
X166179910Y-100315664D01*
X166548488Y-100496673D02*
X166362960Y-100409366D01*
X166738130Y-100581686D02*
X166548488Y-100496673D01*
X166931967Y-100657914D02*
X166738130Y-100581686D01*
X167130861Y-100730040D02*
X166931967Y-100657914D01*
X167331768Y-100799920D02*
X167130861Y-100730040D01*
X167536661Y-100863132D02*
X167331768Y-100799920D01*
X167743913Y-100919853D02*
X167536661Y-100863132D01*
X167957761Y-100972224D02*
X167743913Y-100919853D01*
X168173710Y-101018031D02*
X167957761Y-100972224D01*
X168392031Y-101057328D02*
X168173710Y-101018031D01*
X168614404Y-101092212D02*
X168392031Y-101057328D01*
X169073101Y-101142449D02*
X168614404Y-101092212D01*
X169310752Y-101155529D02*
X169073101Y-101142449D01*
X169546771Y-101164272D02*
X169310752Y-101155529D01*
X169791179Y-101166453D02*
X169546771Y-101164272D01*
X170033652Y-101159901D02*
X169791179Y-101166453D01*
X170286915Y-101148984D02*
X170033652Y-101159901D01*
X170535860Y-101127146D02*
X170286915Y-101148984D01*
X170795996Y-101100913D02*
X170535860Y-101127146D01*
X171053970Y-101065936D02*
X170795996Y-101100913D01*
X171320604Y-101026595D02*
X171053970Y-101065936D01*
X171586969Y-100976379D02*
X171320604Y-101026595D01*
X171862567Y-100917323D02*
X171586969Y-100976379D01*
X172133518Y-100853955D02*
X171862567Y-100917323D01*
X172413345Y-100777440D02*
X172133518Y-100853955D01*
X172693440Y-100696473D02*
X172413345Y-100777440D01*
X172984297Y-100604624D02*
X172693440Y-100696473D01*
X173270846Y-100506190D02*
X172984297Y-100604624D01*
X173616850Y-100379177D02*
X173270846Y-100506190D01*
X173958577Y-100247742D02*
X173616850Y-100379177D01*
X174284745Y-100116400D02*
X173958577Y-100247742D01*
X174608758Y-99976286D02*
X174284745Y-100116400D01*
X174910915Y-99840533D02*
X174608758Y-99976286D01*
X175215211Y-99696047D02*
X174910915Y-99840533D01*
X175497257Y-99556117D02*
X175215211Y-99696047D01*
X175775042Y-99405196D02*
X175497257Y-99556117D01*
X176037629Y-99258583D02*
X175775042Y-99405196D01*
X176297715Y-99103405D02*
X176037629Y-99258583D01*
X176538088Y-98950441D02*
X176297715Y-99103405D01*
X176774159Y-98790874D02*
X176538088Y-98950441D01*
X176994661Y-98633683D02*
X176774159Y-98790874D01*
X177208535Y-98467822D02*
X176994661Y-98633683D01*
X177407238Y-98304055D02*
X177208535Y-98467822D01*
X177601505Y-98133799D02*
X177407238Y-98304055D01*
X177780226Y-97965976D02*
X177601505Y-98133799D01*
X177952328Y-97789515D02*
X177780226Y-97965976D01*
X178109348Y-97615049D02*
X177952328Y-97789515D01*
X178183268Y-97528083D02*
X178109348Y-97615049D01*
X178259326Y-97434642D02*
X178183268Y-97528083D01*
X178396584Y-97253810D02*
X178259326Y-97434642D01*
X178525037Y-97068751D02*
X178396584Y-97253810D01*
X178642400Y-96884013D02*
X178525037Y-97068751D01*
X178748857Y-96692822D02*
X178642400Y-96884013D01*
X178844630Y-96501273D02*
X178748857Y-96692822D01*
X178887879Y-96406128D02*
X178844630Y-96501273D01*
X178929116Y-96306291D02*
X178887879Y-96406128D01*
X179005301Y-96110386D02*
X178929116Y-96306291D01*
X179070504Y-95908254D02*
X179005301Y-96110386D01*
X179098670Y-95808593D02*
X179070504Y-95908254D01*
X179124588Y-95707082D02*
X179098670Y-95808593D01*
X179165925Y-95500397D02*
X179124588Y-95707082D01*
X179200778Y-95291275D02*
X179165925Y-95500397D01*
X179213724Y-95187695D02*
X179200778Y-95291275D01*
X179222389Y-95083729D02*
X179213724Y-95187695D01*
X179235460Y-94868043D02*
X179222389Y-95083729D01*
X179237638Y-94652505D02*
X179235460Y-94868043D01*
X179235479Y-94540308D02*
X179237638Y-94652505D01*
X179209339Y-94209203D02*
X179235479Y-94540308D01*
X179178887Y-93982986D02*
X179209339Y-94209203D01*
X179139708Y-93758793D02*
X179178887Y-93982986D01*
X179087441Y-93525774D02*
X179139708Y-93758793D01*
X179026398Y-93294682D02*
X179087441Y-93525774D01*
X178954479Y-93057128D02*
X179026398Y-93294682D01*
X178871640Y-92821692D02*
X178954479Y-93057128D01*
X178775507Y-92574803D02*
X178871640Y-92821692D01*
X178675086Y-92332481D02*
X178775507Y-92574803D01*
X178559452Y-92083757D02*
X178675086Y-92332481D01*
X178434869Y-91836779D02*
X178559452Y-92083757D01*
X178624627Y-91126339D02*
X178571192Y-91126339D01*
X178672154Y-91131090D02*
X178624627Y-91126339D01*
X178767774Y-91147419D02*
X178672154Y-91131090D01*
X178865515Y-91184651D02*
X178767774Y-91147419D01*
X178914739Y-91208092D02*
X178865515Y-91184651D01*
X178959857Y-91234212D02*
X178914739Y-91208092D01*
X179050970Y-91300271D02*
X178959857Y-91234212D01*
X179137927Y-91375784D02*
X179050970Y-91300271D01*
X179226265Y-91475447D02*
X179137927Y-91375784D01*
X179306934Y-91578526D02*
X179226265Y-91475447D01*
X179394247Y-91706133D02*
X179306934Y-91578526D01*
X179470033Y-91837646D02*
X179394247Y-91706133D01*
X179554375Y-91995234D02*
X179470033Y-91837646D01*
X179627666Y-92155141D02*
X179554375Y-91995234D01*
X179704887Y-92340466D02*
X179627666Y-92155141D01*
X179780060Y-92528405D02*
X179704887Y-92340466D01*
X179852948Y-92744860D02*
X179780060Y-92528405D01*
X179923454Y-92962984D02*
X179852948Y-92744860D01*
X180013747Y-93273511D02*
X179923454Y-92962984D01*
X180068879Y-93480800D02*
X180013747Y-93273511D01*
X180194245Y-94004263D02*
X180068879Y-93480800D01*
X180253768Y-94290852D02*
X180194245Y-94004263D01*
X180304555Y-94580116D02*
X180253768Y-94290852D01*
X180337672Y-94851672D02*
X180304555Y-94580116D01*
X180364155Y-95120905D02*
X180337672Y-94851672D01*
X180377420Y-95377392D02*
X180364155Y-95120905D01*
X180379632Y-95618282D02*
X180377420Y-95377392D01*
X180373006Y-95870059D02*
X180379632Y-95618282D01*
X180357528Y-96108865D02*
X180373006Y-95870059D01*
X180333193Y-96330098D02*
X180357528Y-96108865D01*
X180300027Y-96553409D02*
X180333193Y-96330098D01*
X180260195Y-96763643D02*
X180300027Y-96553409D01*
X180211458Y-96971878D02*
X180260195Y-96763643D01*
X180156171Y-97164279D02*
X180211458Y-96971878D01*
X180096508Y-97356526D02*
X180156171Y-97164279D01*
X180032347Y-97535733D02*
X180096508Y-97356526D01*
X179961479Y-97717333D02*
X180032347Y-97535733D01*
X179886144Y-97883513D02*
X179961479Y-97717333D01*
X179806568Y-98047089D02*
X179886144Y-97883513D01*
X179724746Y-98201885D02*
X179806568Y-98047089D01*
X179638532Y-98354420D02*
X179724746Y-98201885D01*
X179556679Y-98489369D02*
X179638532Y-98354420D01*
X179468127Y-98626621D02*
X179556679Y-98489369D01*
X179282854Y-98891299D02*
X179468127Y-98626621D01*
X179110672Y-99118666D02*
X179282854Y-98891299D01*
X178927566Y-99341484D02*
X179110672Y-99118666D01*
X178608702Y-99706529D02*
X178927566Y-99341484D01*
X178508208Y-99817946D02*
X178608702Y-99706529D01*
X178360304Y-99998475D02*
X178508208Y-99817946D01*
X178280901Y-100105778D02*
X178360304Y-99998475D01*
X178252263Y-100152825D02*
X178280901Y-100105778D01*
X178219561Y-100220275D02*
X178252263Y-100152825D01*
X178208081Y-100258539D02*
X178219561Y-100220275D01*
X178200627Y-100299540D02*
X178208081Y-100258539D01*
X178202294Y-100332899D02*
X178200627Y-100299540D01*
X178211764Y-100362884D02*
X178202294Y-100332899D01*
X178232090Y-100391680D02*
X178211764Y-100362884D01*
X178258914Y-100418506D02*
X178232090Y-100391680D01*
X178305962Y-100447909D02*
X178258914Y-100418506D01*
X178356584Y-100474233D02*
X178305962Y-100447909D01*
X178476349Y-100516255D02*
X178356584Y-100474233D01*
X178531654Y-100528546D02*
X178476349Y-100516255D01*
X178599795Y-100538871D02*
X178531654Y-100528546D01*
X178713053Y-100540967D02*
X178599795Y-100538871D01*
X178826088Y-100530500D02*
X178713053Y-100540967D01*
X178876617Y-100518374D02*
X178826088Y-100530500D01*
X178931403Y-100501516D02*
X178876617Y-100518374D01*
X179037598Y-100463286D02*
X178931403Y-100501516D01*
X179136867Y-100412595D02*
X179037598Y-100463286D01*
X179235288Y-100352687D02*
X179136867Y-100412595D01*
X179327436Y-100288399D02*
X179235288Y-100352687D01*
X179421858Y-100213288D02*
X179327436Y-100288399D01*
X179814199Y-99858209D02*
X179421858Y-100213288D01*
X179930751Y-99759588D02*
X179814199Y-99858209D01*
X179980072Y-99726707D02*
X179930751Y-99759588D01*
X180056381Y-99682771D02*
X179980072Y-99726707D01*
X180152327Y-99644391D02*
X180056381Y-99682771D01*
X180200141Y-99638766D02*
X180152327Y-99644391D01*
X180274517Y-99646736D02*
X180200141Y-99638766D01*
X180340193Y-99680888D02*
X180274517Y-99646736D01*
X180377314Y-99710053D02*
X180340193Y-99680888D01*
X180425382Y-99765333D02*
X180377314Y-99710053D01*
X180459233Y-99813692D02*
X180425382Y-99765333D01*
X180494104Y-99883432D02*
X180459233Y-99813692D01*
X180523951Y-99952312D02*
X180494104Y-99883432D01*
X180580212Y-100127843D02*
X180523951Y-99952312D01*
X180627012Y-100361840D02*
X180580212Y-100127843D01*
X180660253Y-100594523D02*
X180627012Y-100361840D01*
X180688964Y-100905933D02*
X180660253Y-100594523D01*
X180706546Y-101222555D02*
X180688964Y-100905933D01*
X180713203Y-101602098D02*
X180706546Y-101222555D01*
X180713204Y-101991292D02*
X180713203Y-101602098D01*
X180704413Y-102494625D02*
X180713204Y-101991292D01*
X180689021Y-102921211D02*
X180704413Y-102494625D01*
X180658263Y-103466079D02*
X180689021Y-102921211D01*
X180622165Y-104023359D02*
X180658263Y-103466079D01*
X180549290Y-104103773D02*
X180622165Y-104023359D01*
X180489450Y-104178574D02*
X180549290Y-104103773D01*
X180443074Y-104243920D02*
X180489450Y-104178574D01*
X180402895Y-104313705D02*
X180443074Y-104243920D01*
X180369504Y-104378399D02*
X180402895Y-104313705D01*
X180344467Y-104447252D02*
X180369504Y-104378399D01*
X180326130Y-104506337D02*
X180344467Y-104447252D01*
X180318091Y-104568651D02*
X180326130Y-104506337D01*
X180316068Y-104627292D02*
X180318091Y-104568651D01*
X180322121Y-104685802D02*
X180316068Y-104627292D01*
X180334099Y-104743697D02*
X180322121Y-104685802D01*
X180356296Y-104800195D02*
X180334099Y-104743697D01*
X180384845Y-104859334D02*
X180356296Y-104800195D01*
X180421684Y-104912546D02*
X180384845Y-104859334D01*
X180467563Y-104970937D02*
X180421684Y-104912546D01*
X180519510Y-105022886D02*
X180467563Y-104970937D01*
X180583279Y-105078151D02*
X180519510Y-105022886D01*
X180649363Y-105129312D02*
X180583279Y-105078151D01*
X180730099Y-105184553D02*
X180649363Y-105129312D01*
X180930723Y-105296729D02*
X180730099Y-105184553D01*
X181022871Y-105337445D02*
X180930723Y-105296729D01*
X181241801Y-105429396D02*
X181022871Y-105337445D01*
X181610693Y-105580905D02*
X181241801Y-105429396D01*
X181789255Y-105658061D02*
X181610693Y-105580905D01*
X181976939Y-105744175D02*
X181789255Y-105658061D01*
X182314354Y-105913985D02*
X181976939Y-105744175D01*
X182644768Y-106101219D02*
X182314354Y-105913985D01*
X182794799Y-106189473D02*
X182644768Y-106101219D01*
X182954090Y-106289029D02*
X182794799Y-106189473D01*
X183249696Y-106491982D02*
X182954090Y-106289029D01*
X183525420Y-106699326D02*
X183249696Y-106491982D01*
X183655900Y-106805479D02*
X183525420Y-106699326D01*
X183788482Y-106918175D02*
X183655900Y-106805479D01*
X184033296Y-107140933D02*
X183788482Y-106918175D01*
X184269452Y-107374880D02*
X184033296Y-107140933D01*
X184375705Y-107489987D02*
X184269452Y-107374880D01*
X184484005Y-107611549D02*
X184375705Y-107489987D01*
X184687105Y-107856593D02*
X184484005Y-107611549D01*
X184874678Y-108108162D02*
X184687105Y-107856593D01*
X184963163Y-108234253D02*
X184874678Y-108108162D01*
X185049513Y-108364886D02*
X184963163Y-108234253D01*
X185208405Y-108625290D02*
X185049513Y-108364886D01*
X185356459Y-108892671D02*
X185208405Y-108625290D01*
X185486859Y-109162311D02*
X185356459Y-108892671D01*
X185606026Y-109438155D02*
X185486859Y-109162311D01*
X185714125Y-109713920D02*
X185606026Y-109438155D01*
X185762939Y-109853710D02*
X185714125Y-109713920D01*
X185807164Y-109997438D02*
X185762939Y-109853710D01*
X185888741Y-110277447D02*
X185807164Y-109997438D01*
X185957134Y-110562045D02*
X185888741Y-110277447D01*
X185988100Y-110705816D02*
X185957134Y-110562045D01*
X186014648Y-110849618D02*
X185988100Y-110705816D01*
X186060966Y-111140763D02*
X186014648Y-110849618D01*
X186094047Y-111429662D02*
X186060966Y-111140763D01*
X186107320Y-111573455D02*
X186094047Y-111429662D01*
X186116161Y-111719301D02*
X186107320Y-111573455D01*
X186129387Y-112010290D02*
X186116161Y-111719301D01*
X186129387Y-112299092D02*
X186129387Y-112010290D01*
X186127179Y-112442720D02*
X186129387Y-112299092D01*
X186120550Y-112588546D02*
X186127179Y-112442720D01*
X186102911Y-112877364D02*
X186120550Y-112588546D01*
X186072008Y-113164327D02*
X186102911Y-112877364D01*
X186032319Y-113448771D02*
X186072008Y-113164327D01*
X185983807Y-113731023D02*
X186032319Y-113448771D01*
X185926458Y-114011151D02*
X185983807Y-113731023D01*
X185860298Y-114284614D02*
X185926458Y-114011151D01*
X185785316Y-114560280D02*
X185860298Y-114284614D01*
X185701466Y-114829486D02*
X185785316Y-114560280D01*
X185608830Y-115094161D02*
X185701466Y-114829486D01*
X185509610Y-115352134D02*
X185608830Y-115094161D01*
X185401514Y-115610240D02*
X185509610Y-115352134D01*
X185286820Y-115857276D02*
X185401514Y-115610240D01*
X167106872Y-136156023D02*
X177106872Y-136156023D01*
X177106872Y-136156023D02*
X177106872Y-134155969D01*
X103106872Y-136156023D02*
X113106872Y-136156023D01*
X103106872Y-136156023D02*
X103106872Y-134156023D01*
X178754015Y-114168435D02*
X178915454Y-114239202D01*
X178614767Y-114104338D02*
X178754015Y-114168435D01*
X178257698Y-113925805D02*
X178614767Y-114104338D01*
X178481532Y-113757200D02*
X178257698Y-113925805D01*
X178558677Y-113692912D02*
X178481532Y-113757200D01*
X178638318Y-113617575D02*
X178558677Y-113692912D01*
X178763450Y-113490285D02*
X178638318Y-113617575D01*
X178879216Y-113344509D02*
X178763450Y-113490285D01*
X178921574Y-113278853D02*
X178879216Y-113344509D01*
X178966117Y-113204610D02*
X178921574Y-113278853D01*
X179034395Y-113057391D02*
X178966117Y-113204610D01*
X179083191Y-112913121D02*
X179034395Y-113057391D01*
X179097776Y-112838112D02*
X179083191Y-112913121D01*
X179108301Y-112762338D02*
X179097776Y-112838112D01*
X179114686Y-112606913D02*
X179108301Y-112762338D01*
X179101912Y-112453615D02*
X179114686Y-112606913D01*
X179087121Y-112371211D02*
X179101912Y-112453615D01*
X179068108Y-112290930D02*
X179087121Y-112371211D01*
X179014642Y-112132674D02*
X179068108Y-112290930D01*
X178959487Y-112013880D02*
X179014642Y-112132674D01*
X178925966Y-111957311D02*
X178959487Y-112013880D01*
X178889980Y-111902277D02*
X178925966Y-111957311D01*
X178811173Y-111797911D02*
X178889980Y-111902277D01*
X178719555Y-111702032D02*
X178811173Y-111797911D01*
X178670890Y-111657595D02*
X178719555Y-111702032D01*
X178619986Y-111615178D02*
X178670890Y-111657595D01*
X178514909Y-111537976D02*
X178619986Y-111615178D01*
X178397725Y-111465538D02*
X178514909Y-111537976D01*
X178276480Y-111408105D02*
X178397725Y-111465538D01*
X178150149Y-111360998D02*
X178276480Y-111408105D01*
X178019523Y-111322454D02*
X178150149Y-111360998D01*
X177883140Y-111294752D02*
X178019523Y-111322454D01*
X177748862Y-111281963D02*
X177883140Y-111294752D01*
X177608944Y-111279809D02*
X177748862Y-111281963D01*
X177541068Y-111281931D02*
X177608944Y-111279809D01*
X177474098Y-111288210D02*
X177541068Y-111281931D01*
X177334832Y-111313919D02*
X177474098Y-111288210D01*
X177202458Y-111348082D02*
X177334832Y-111313919D01*
X177135156Y-111373318D02*
X177202458Y-111348082D01*
X177069350Y-111400916D02*
X177135156Y-111373318D01*
X176943395Y-111464962D02*
X177069350Y-111400916D01*
X176819340Y-111546239D02*
X176943395Y-111464962D01*
X176758136Y-111592668D02*
X176819340Y-111546239D01*
X176705787Y-111638735D02*
X176758136Y-111592668D01*
X176591896Y-111756924D02*
X176705787Y-111638735D01*
X176493222Y-111877050D02*
X176591896Y-111756924D01*
X176442611Y-111950855D02*
X176493222Y-111877050D01*
X176400074Y-112025293D02*
X176442611Y-111950855D01*
X176320041Y-112181036D02*
X176400074Y-112025293D01*
X176259543Y-112323638D02*
X176320041Y-112181036D01*
X176205398Y-112466583D02*
X176259543Y-112323638D01*
X176162054Y-112603114D02*
X176205398Y-112466583D01*
X176123038Y-112739676D02*
X176162054Y-112603114D01*
X176092861Y-112871159D02*
X176123038Y-112739676D01*
X176071221Y-113000995D02*
X176092861Y-112871159D01*
X176053951Y-113124053D02*
X176071221Y-113000995D01*
X176045355Y-113246528D02*
X176053951Y-113124053D01*
X176043196Y-113365330D02*
X176045355Y-113246528D01*
X176045354Y-113486174D02*
X176043196Y-113365330D01*
X176053909Y-113597387D02*
X176045354Y-113486174D01*
X176071132Y-113709340D02*
X176053909Y-113597387D01*
X176090605Y-113817526D02*
X176071132Y-113709340D01*
X176114129Y-113920170D02*
X176090605Y-113817526D01*
X176152743Y-114042451D02*
X176114129Y-113920170D01*
X176182657Y-114121506D02*
X176152743Y-114042451D01*
X176264811Y-114309598D02*
X176182657Y-114121506D01*
X176366300Y-114493140D02*
X176264811Y-114309598D01*
X176419993Y-114576900D02*
X176366300Y-114493140D01*
X176477815Y-114660418D02*
X176419993Y-114576900D01*
X176605463Y-114816192D02*
X176477815Y-114660418D01*
X176739531Y-114963235D02*
X176605463Y-114816192D01*
X176886793Y-115099670D02*
X176739531Y-114963235D01*
X177036626Y-115227787D02*
X176886793Y-115099670D01*
X177190384Y-115344733D02*
X177036626Y-115227787D01*
X177346167Y-115448584D02*
X177190384Y-115344733D01*
X177506964Y-115542022D02*
X177346167Y-115448584D01*
X177661377Y-115626840D02*
X177506964Y-115542022D01*
X177817780Y-115702869D02*
X177661377Y-115626840D01*
X177958802Y-115765785D02*
X177817780Y-115702869D01*
X178104496Y-115822325D02*
X177958802Y-115765785D01*
X178228283Y-115867930D02*
X178104496Y-115822325D01*
X178351209Y-115906748D02*
X178228283Y-115867930D01*
X178522306Y-115950065D02*
X178351209Y-115906748D01*
X178695852Y-115984771D02*
X178522306Y-115950065D01*
X178893680Y-116015206D02*
X178695852Y-115984771D01*
X179091406Y-116036934D02*
X178893680Y-116015206D01*
X179306523Y-116049973D02*
X179091406Y-116036934D01*
X179523634Y-116052142D02*
X179306523Y-116049973D01*
X179749623Y-116041279D02*
X179523634Y-116052142D01*
X179864448Y-116030444D02*
X179749623Y-116041279D01*
X179974815Y-116017463D02*
X179864448Y-116030444D01*
X180206954Y-115978412D02*
X179974815Y-116017463D01*
X180434838Y-115921981D02*
X180206954Y-115978412D01*
X180551469Y-115887426D02*
X180434838Y-115921981D01*
X180663392Y-115848680D02*
X180551469Y-115887426D01*
X180887141Y-115755272D02*
X180663392Y-115848680D01*
X180999018Y-115701485D02*
X180887141Y-115755272D01*
X181107007Y-115641008D02*
X180999018Y-115701485D01*
X181215476Y-115575929D02*
X181107007Y-115641008D01*
X181320904Y-115507078D02*
X181215476Y-115575929D01*
X181424326Y-115427355D02*
X181320904Y-115507078D01*
X181523890Y-115345107D02*
X181424326Y-115427355D01*
X181623324Y-115254319D02*
X181523890Y-115345107D01*
X181718689Y-115158954D02*
X181623324Y-115254319D01*
X181813614Y-115057557D02*
X181718689Y-115158954D01*
X181899887Y-114949714D02*
X181813614Y-115057557D01*
X181988745Y-114830515D02*
X181899887Y-114949714D01*
X182070995Y-114707141D02*
X181988745Y-114830515D01*
X182151150Y-114574991D02*
X182070995Y-114707141D01*
X182224749Y-114438618D02*
X182151150Y-114574991D01*
X182296271Y-114289071D02*
X182224749Y-114438618D01*
X182400565Y-114041371D02*
X182296271Y-114289071D01*
X182480944Y-113800240D02*
X182400565Y-114041371D01*
X182533205Y-113617320D02*
X182480944Y-113800240D01*
X182581070Y-113432386D02*
X182533205Y-113617320D01*
X182622408Y-113230045D02*
X182581070Y-113432386D01*
X182657251Y-113027519D02*
X182622408Y-113230045D01*
X182685581Y-112807422D02*
X182657251Y-113027519D01*
X182707419Y-112584664D02*
X182685581Y-112807422D01*
X182724860Y-112360110D02*
X182707419Y-112584664D01*
X182731390Y-112133770D02*
X182724860Y-112360110D01*
X182729212Y-111920424D02*
X182731390Y-112133770D01*
X182718335Y-111707242D02*
X182729212Y-111920424D01*
X182698747Y-111507003D02*
X182718335Y-111707242D01*
X182672639Y-111304677D02*
X182698747Y-111507003D01*
X182637894Y-111113575D02*
X182672639Y-111304677D01*
X182594383Y-110922125D02*
X182637894Y-111113575D01*
X182546565Y-110741721D02*
X182594383Y-110922125D01*
X182490212Y-110563994D02*
X182546565Y-110741721D01*
X182425134Y-110394791D02*
X182490212Y-110563994D01*
X182353254Y-110227072D02*
X182425134Y-110394791D01*
X182279464Y-110066471D02*
X182353254Y-110227072D01*
X182194916Y-109910383D02*
X182279464Y-110066471D01*
X182107985Y-109762601D02*
X182194916Y-109910383D01*
X182012647Y-109615260D02*
X182107985Y-109762601D01*
X181810224Y-109341010D02*
X182012647Y-109615260D01*
X181699752Y-109211043D02*
X181810224Y-109341010D01*
X181586944Y-109087388D02*
X181699752Y-109211043D01*
X181465179Y-108967799D02*
X181586944Y-109087388D01*
X181343149Y-108852305D02*
X181465179Y-108967799D01*
X181217049Y-108741426D02*
X181343149Y-108852305D01*
X181086764Y-108635024D02*
X181217049Y-108741426D01*
X180951821Y-108534907D02*
X181086764Y-108635024D01*
X180814893Y-108437101D02*
X180951821Y-108534907D01*
X180673623Y-108347992D02*
X180814893Y-108437101D01*
X180529857Y-108260861D02*
X180673623Y-108347992D01*
X180237870Y-108099616D02*
X180529857Y-108260861D01*
X179932722Y-107957940D02*
X180237870Y-108099616D01*
X179782569Y-107894833D02*
X179932722Y-107957940D01*
X179626008Y-107833947D02*
X179782569Y-107894833D01*
X179309543Y-107727004D02*
X179626008Y-107833947D01*
X178997731Y-107635424D02*
X179309543Y-107727004D01*
X178839059Y-107598473D02*
X178997731Y-107635424D01*
X178677696Y-107563584D02*
X178839059Y-107598473D01*
X178365485Y-107506819D02*
X178677696Y-107563584D01*
X178049422Y-107463223D02*
X178365485Y-107506819D01*
X177748760Y-107439258D02*
X178049422Y-107463223D01*
X177441547Y-107428364D02*
X177748760Y-107439258D01*
X177161204Y-107434884D02*
X177441547Y-107428364D01*
X176879084Y-107460927D02*
X177161204Y-107434884D01*
X176627641Y-107504278D02*
X176879084Y-107460927D01*
X176378065Y-107565046D02*
X176627641Y-107504278D01*
X176156893Y-107634433D02*
X176378065Y-107565046D01*
X175937647Y-107719091D02*
X176156893Y-107634433D01*
X175740265Y-107808023D02*
X175937647Y-107719091D01*
X175551649Y-107907752D02*
X175740265Y-107808023D01*
X175386740Y-108007564D02*
X175551649Y-107907752D01*
X175223886Y-108116134D02*
X175386740Y-108007564D01*
X175086855Y-108218364D02*
X175223886Y-108116134D01*
X174952150Y-108322653D02*
X175086855Y-108218364D01*
X174756524Y-108494368D02*
X174952150Y-108322653D01*
X174437813Y-108806439D02*
X174756524Y-108494368D01*
X174351744Y-108858828D02*
X174437813Y-108806439D01*
X174302659Y-108801558D02*
X174351744Y-108858828D01*
X174306927Y-108758877D02*
X174302659Y-108801558D01*
X174323200Y-108682159D02*
X174306927Y-108758877D01*
X174345260Y-108611565D02*
X174323200Y-108682159D01*
X174377666Y-108471140D02*
X174345260Y-108611565D01*
X174392594Y-108396502D02*
X174377666Y-108471140D01*
X174401046Y-108328882D02*
X174392594Y-108396502D01*
X174414010Y-108158192D02*
X174401046Y-108328882D01*
X174414009Y-107987322D02*
X174414010Y-108158192D01*
X174409682Y-107879133D02*
X174414009Y-107987322D01*
X174403203Y-107788433D02*
X174409682Y-107879133D01*
X174381401Y-107587849D02*
X174403203Y-107788433D01*
X174350905Y-107359133D02*
X174381401Y-107587849D01*
X174307351Y-107130476D02*
X174350905Y-107359133D01*
X174248361Y-106861743D02*
X174307351Y-107130476D01*
X174187185Y-106617045D02*
X174248361Y-106861743D01*
X174108447Y-106330525D02*
X174187185Y-106617045D01*
X174052015Y-106142417D02*
X174108447Y-106330525D01*
X173966074Y-106293508D02*
X174052015Y-106142417D01*
X173898520Y-106417721D02*
X173966074Y-106293508D01*
X173837632Y-106537322D02*
X173898520Y-106417721D01*
X173708666Y-106810557D02*
X173837632Y-106537322D01*
X173586212Y-107088263D02*
X173708666Y-106810557D01*
X173459374Y-107396612D02*
X173586212Y-107088263D01*
X173341188Y-107709587D02*
X173459374Y-107396612D01*
X173216416Y-108053256D02*
X173341188Y-107709587D01*
X173102644Y-108398951D02*
X173216416Y-108053256D01*
X172986530Y-108777965D02*
X173102644Y-108398951D01*
X172874864Y-109156757D02*
X172986530Y-108777965D01*
X172657904Y-109987343D02*
X172874864Y-109156757D01*
X172513317Y-110600742D02*
X172657904Y-109987343D01*
X172449901Y-110906886D02*
X172513317Y-110600742D01*
X172392998Y-111219852D02*
X172449901Y-110906886D01*
X172344822Y-111511101D02*
X172392998Y-111219852D01*
X172301112Y-111799591D02*
X172344822Y-111511101D01*
X172270521Y-112081467D02*
X172301112Y-111799591D01*
X172244277Y-112361410D02*
X172270521Y-112081467D01*
X172226805Y-112636597D02*
X172244277Y-112361410D01*
X172218070Y-112909548D02*
X172226805Y-112636597D01*
X172218070Y-113180293D02*
X172218070Y-112909548D01*
X172226810Y-113453385D02*
X172218070Y-113180293D01*
X172242083Y-113721752D02*
X172226810Y-113453385D01*
X172270469Y-113992513D02*
X172242083Y-113721752D01*
X172303244Y-114263451D02*
X172270469Y-113992513D01*
X172346876Y-114533967D02*
X172303244Y-114263451D01*
X172401461Y-114809076D02*
X172346876Y-114533967D01*
X172464769Y-115084135D02*
X172401461Y-114809076D01*
X172541267Y-115366082D02*
X172464769Y-115084135D01*
X172622192Y-115646040D02*
X172541267Y-115366082D01*
X172716203Y-115939000D02*
X172622192Y-115646040D01*
X172816709Y-116227407D02*
X172716203Y-115939000D01*
X172934771Y-116529123D02*
X172816709Y-116227407D01*
X173059500Y-116831097D02*
X172934771Y-116529123D01*
X173126851Y-116983180D02*
X173059500Y-116831097D01*
X173202646Y-117132605D02*
X173126851Y-116983180D01*
X173287350Y-117280295D02*
X173202646Y-117132605D01*
X173374137Y-117421320D02*
X173287350Y-117280295D01*
X173473859Y-117564403D02*
X173374137Y-117421320D01*
X173578257Y-117701425D02*
X173473859Y-117564403D01*
X173689306Y-117838603D02*
X173578257Y-117701425D01*
X173804495Y-117971176D02*
X173689306Y-117838603D01*
X173928415Y-118101618D02*
X173804495Y-117971176D01*
X174056994Y-118228019D02*
X173928415Y-118101618D01*
X174194197Y-118356509D02*
X174056994Y-118228019D01*
X174333214Y-118475977D02*
X174194197Y-118356509D01*
X174333214Y-118475977D02*
X174950504Y-118936266D01*
X175291249Y-119150322D02*
X174950504Y-118936266D01*
X175642998Y-119346952D02*
X175291249Y-119150322D01*
X175832857Y-119445155D02*
X175642998Y-119346952D01*
X176016165Y-119534628D02*
X175832857Y-119445155D01*
X176398894Y-119707403D02*
X176016165Y-119534628D01*
X176801598Y-119871546D02*
X176398894Y-119707403D01*
X177004570Y-119950115D02*
X176801598Y-119871546D01*
X177207501Y-120019943D02*
X177004570Y-119950115D01*
X177627696Y-120155631D02*
X177207501Y-120019943D01*
X178054429Y-120275992D02*
X177627696Y-120155631D01*
X178273109Y-120332847D02*
X178054429Y-120275992D01*
X178489576Y-120385324D02*
X178273109Y-120332847D01*
X178927193Y-120481596D02*
X178489576Y-120385324D01*
X179369401Y-120560408D02*
X178927193Y-120481596D01*
X179592395Y-120597574D02*
X179369401Y-120560408D01*
X179815225Y-120628159D02*
X179592395Y-120597574D01*
X180259578Y-120680693D02*
X179815225Y-120628159D01*
X180705911Y-120717887D02*
X180259578Y-120680693D01*
X181145587Y-120741948D02*
X180705911Y-120717887D01*
X181797339Y-120752918D02*
X181145587Y-120741948D01*
X182005651Y-120764001D02*
X181797339Y-120752918D01*
X182196576Y-120783622D02*
X182005651Y-120764001D01*
X182387434Y-120815057D02*
X182196576Y-120783622D01*
X182560128Y-120850483D02*
X182387434Y-120815057D01*
X182718118Y-120888312D02*
X182560128Y-120850483D01*
X182887322Y-120941745D02*
X182718118Y-120888312D01*
X183038678Y-120997390D02*
X182887322Y-120941745D01*
X183176816Y-121057547D02*
X183038678Y-120997390D01*
X183313357Y-121124696D02*
X183176816Y-121057547D01*
X183433953Y-121198396D02*
X183313357Y-121124696D01*
X183551745Y-121273962D02*
X183433953Y-121198396D01*
X183659181Y-121352299D02*
X183551745Y-121273962D01*
X183762088Y-121437308D02*
X183659181Y-121352299D01*
X183853764Y-121522277D02*
X183762088Y-121437308D01*
X183943123Y-121613867D02*
X183853764Y-121522277D01*
X184021618Y-121703578D02*
X183943123Y-121613867D01*
X184095335Y-121799632D02*
X184021618Y-121703578D01*
X184162353Y-121893458D02*
X184095335Y-121799632D01*
X184222766Y-121989672D02*
X184162353Y-121893458D01*
X184276766Y-122084171D02*
X184222766Y-121989672D01*
X184323871Y-122185110D02*
X184276766Y-122084171D01*
X184408405Y-122380870D02*
X184323871Y-122185110D01*
X184466604Y-122566661D02*
X184408405Y-122380870D01*
X184511279Y-122756523D02*
X184466604Y-122566661D01*
X184535934Y-122924631D02*
X184511279Y-122756523D01*
X184547140Y-123092718D02*
X184535934Y-122924631D01*
X184544885Y-123230213D02*
X184547140Y-123092718D01*
X184531323Y-123363584D02*
X184544885Y-123230213D01*
X184512638Y-123457009D02*
X184531323Y-123363584D01*
X184476501Y-123550961D02*
X184512638Y-123457009D01*
X184456594Y-123579401D02*
X184476501Y-123550961D01*
X184429604Y-123609391D02*
X184456594Y-123579401D01*
X184395609Y-123626389D02*
X184429604Y-123609391D01*
X184358048Y-123626389D02*
X184395609Y-123626389D01*
X184317749Y-123611735D02*
X184358048Y-123626389D01*
X184291433Y-123585419D02*
X184317749Y-123611735D01*
X184265885Y-123552207D02*
X184291433Y-123585419D01*
X184244036Y-123513361D02*
X184265885Y-123552207D01*
X184097215Y-123215340D02*
X184244036Y-123513361D01*
X184029355Y-123100827D02*
X184097215Y-123215340D01*
X183947469Y-122997942D02*
X184029355Y-123100827D01*
X183905055Y-122957551D02*
X183947469Y-122997942D01*
X183857370Y-122920228D02*
X183905055Y-122957551D01*
X183805825Y-122885182D02*
X183857370Y-122920228D01*
X183751490Y-122857009D02*
X183805825Y-122885182D01*
X183687621Y-122834342D02*
X183751490Y-122857009D01*
X183619769Y-122815262D02*
X183687621Y-122834342D01*
X133327109Y-52705738D02*
X133411927Y-52724075D01*
X133240058Y-52680534D02*
X133327109Y-52705738D01*
X133150830Y-52643932D02*
X133240058Y-52680534D01*
X133060276Y-52598652D02*
X133150830Y-52643932D01*
X132971482Y-52546289D02*
X133060276Y-52598652D01*
X132876792Y-52476394D02*
X132971482Y-52546289D01*
X132785287Y-52402742D02*
X132876792Y-52476394D01*
X132684602Y-52313251D02*
X132785287Y-52402742D01*
X132412593Y-50113309D02*
X132290071Y-50170026D01*
X132565045Y-50057256D02*
X132412593Y-50113309D01*
X132723748Y-50012551D02*
X132565045Y-50057256D01*
X132908007Y-49972596D02*
X132723748Y-50012551D01*
X133096687Y-49939300D02*
X132908007Y-49972596D01*
X133331445Y-49912721D02*
X133096687Y-49939300D01*
X133537032Y-49897247D02*
X133331445Y-49912721D01*
X133790652Y-49886217D02*
X133537032Y-49897247D01*
X133894503Y-49884412D02*
X133790652Y-49886217D01*
X133658321Y-49740709D02*
X133894503Y-49884412D01*
X133521165Y-49664511D02*
X133658321Y-49740709D01*
X133311867Y-49553326D02*
X133521165Y-49664511D01*
X133067945Y-49440072D02*
X133311867Y-49553326D01*
X132979650Y-49403466D02*
X133067945Y-49440072D01*
X132866911Y-49362272D02*
X132979650Y-49403466D01*
X132660821Y-49292856D02*
X132866911Y-49362272D01*
X132479052Y-49249577D02*
X132660821Y-49292856D01*
X132395607Y-49232462D02*
X132479052Y-49249577D01*
X132299996Y-49219712D02*
X132395607Y-49232462D01*
X132146014Y-49211155D02*
X132299996Y-49219712D01*
X131988063Y-49219696D02*
X132146014Y-49211155D01*
X131919572Y-49230076D02*
X131988063Y-49219696D01*
X131850955Y-49246709D02*
X131919572Y-49230076D01*
X131722564Y-49290908D02*
X131850955Y-49246709D01*
X131604857Y-49356064D02*
X131722564Y-49290908D01*
X131551160Y-49393241D02*
X131604857Y-49356064D01*
X131501651Y-49434502D02*
X131551160Y-49393241D01*
X131400103Y-49538165D02*
X131501651Y-49434502D01*
X131318086Y-49651717D02*
X131400103Y-49538165D01*
X131241466Y-49794321D02*
X131318086Y-49651717D01*
X131179448Y-49944022D02*
X131241466Y-49794321D01*
X131123291Y-50127607D02*
X131179448Y-49944022D01*
X131097619Y-50228165D02*
X131123291Y-50127607D01*
X131082635Y-50313788D02*
X131097619Y-50228165D01*
X131047781Y-50546858D02*
X131082635Y-50313788D01*
X131028232Y-50759754D02*
X131047781Y-50546858D01*
X131021724Y-50896429D02*
X131028232Y-50759754D01*
X131019545Y-51018296D02*
X131021724Y-50896429D01*
X131019545Y-51280335D02*
X131019545Y-51018296D01*
X131028267Y-51485214D02*
X131019545Y-51280335D01*
X131041352Y-51685840D02*
X131028267Y-51485214D01*
X131060940Y-51877376D02*
X131041352Y-51685840D01*
X131087070Y-52064632D02*
X131060940Y-51877376D01*
X131117578Y-52241135D02*
X131087070Y-52064632D01*
X131152349Y-52415005D02*
X131117578Y-52241135D01*
X131193622Y-52575750D02*
X131152349Y-52415005D01*
X131239267Y-52736587D02*
X131193622Y-52575750D01*
X131289125Y-52884004D02*
X131239267Y-52736587D01*
X131345534Y-53031529D02*
X131289125Y-52884004D01*
X131404051Y-53165900D02*
X131345534Y-53031529D01*
X131469191Y-53300529D02*
X131404051Y-53165900D01*
X131533993Y-53423647D02*
X131469191Y-53300529D01*
X131607275Y-53542198D02*
X131533993Y-53423647D01*
X131683111Y-53652694D02*
X131607275Y-53542198D01*
X131760813Y-53758455D02*
X131683111Y-53652694D01*
X131844796Y-53857516D02*
X131760813Y-53758455D01*
X131928998Y-53948191D02*
X131844796Y-53857516D01*
X132017245Y-54034288D02*
X131928998Y-53948191D01*
X132109907Y-54114018D02*
X132017245Y-54034288D01*
X132202278Y-54187058D02*
X132109907Y-54114018D01*
X132301041Y-54253609D02*
X132202278Y-54187058D01*
X132400368Y-54314072D02*
X132301041Y-54253609D01*
X132501473Y-54370003D02*
X132400368Y-54314072D01*
X132606702Y-54419394D02*
X132501473Y-54370003D01*
X132711653Y-54462232D02*
X132606702Y-54419394D01*
X132819294Y-54496682D02*
X132711653Y-54462232D01*
X132929118Y-54528982D02*
X132819294Y-54496682D01*
X133041127Y-54552672D02*
X132929118Y-54528982D01*
X133155410Y-54574239D02*
X133041127Y-54552672D01*
X133268929Y-54587091D02*
X133155410Y-54574239D01*
X133383207Y-54593556D02*
X133268929Y-54587091D01*
X133499696Y-54595712D02*
X133383207Y-54593556D01*
X133616236Y-54591398D02*
X133499696Y-54595712D01*
X133734622Y-54582784D02*
X133616236Y-54591398D01*
X133852689Y-54565612D02*
X133734622Y-54582784D01*
X134093704Y-54517844D02*
X133852689Y-54565612D01*
X134212125Y-54485549D02*
X134093704Y-54517844D01*
X134328499Y-54448907D02*
X134212125Y-54485549D01*
X134569127Y-54355693D02*
X134328499Y-54448907D01*
X134801156Y-54242937D02*
X134569127Y-54355693D01*
X134919886Y-54176010D02*
X134801156Y-54242937D01*
X135034542Y-54104626D02*
X134919886Y-54176010D01*
X135258420Y-53950296D02*
X135034542Y-54104626D01*
X135471372Y-53778634D02*
X135258420Y-53950296D01*
X135573152Y-53687683D02*
X135471372Y-53778634D01*
X135672686Y-53592478D02*
X135573152Y-53687683D01*
X139105282Y-84632530D02*
X140862607Y-84632530D01*
X144521976Y-53687675D02*
X144422440Y-53592470D01*
X144623676Y-53778555D02*
X144521976Y-53687675D01*
X144838816Y-53950228D02*
X144623676Y-53778555D01*
X145062778Y-54104618D02*
X144838816Y-53950228D01*
X145177436Y-54176001D02*
X145062778Y-54104618D01*
X145296170Y-54242928D02*
X145177436Y-54176001D01*
X145528253Y-54355713D02*
X145296170Y-54242928D01*
X145766691Y-54448918D02*
X145528253Y-54355713D01*
X145883005Y-54485539D02*
X145766691Y-54448918D01*
X146001389Y-54517825D02*
X145883005Y-54485539D01*
X146244598Y-54565596D02*
X146001389Y-54517825D01*
X146362734Y-54582778D02*
X146244598Y-54565596D01*
X146478925Y-54591388D02*
X146362734Y-54582778D01*
X146595442Y-54595701D02*
X146478925Y-54591388D01*
X146714121Y-54593545D02*
X146595442Y-54595701D01*
X146828396Y-54587080D02*
X146714121Y-54593545D01*
X146941642Y-54574258D02*
X146828396Y-54587080D01*
X147166204Y-54528914D02*
X146941642Y-54574258D01*
X147275835Y-54496671D02*
X147166204Y-54528914D01*
X147383619Y-54462174D02*
X147275835Y-54496671D01*
X147490595Y-54419382D02*
X147383619Y-54462174D01*
X147593676Y-54369992D02*
X147490595Y-54419382D01*
X147696930Y-54314060D02*
X147593676Y-54369992D01*
X147793915Y-54253715D02*
X147696930Y-54314060D01*
X147893049Y-54186910D02*
X147793915Y-54253715D01*
X147987601Y-54113847D02*
X147893049Y-54186910D01*
X148079776Y-54034535D02*
X147987601Y-54113847D01*
X148254758Y-53857392D02*
X148079776Y-54034535D01*
X148334335Y-53758454D02*
X148254758Y-53857392D01*
X148416545Y-53652447D02*
X148334335Y-53758454D01*
X148489732Y-53542670D02*
X148416545Y-53652447D01*
X148561153Y-53423634D02*
X148489732Y-53542670D01*
X148628392Y-53300003D02*
X148561153Y-53423634D01*
X148695446Y-53165892D02*
X148628392Y-53300003D01*
X148751684Y-53031790D02*
X148695446Y-53165892D01*
X148808091Y-52884257D02*
X148751684Y-53031790D01*
X148855867Y-52736591D02*
X148808091Y-52884257D01*
X148903688Y-52575738D02*
X148855867Y-52736591D01*
X148942844Y-52414758D02*
X148903688Y-52575738D01*
X148981970Y-52240864D02*
X148942844Y-52414758D01*
X149010215Y-52064874D02*
X148981970Y-52240864D01*
X149036379Y-51877361D02*
X149010215Y-52064874D01*
X149055968Y-51685825D02*
X149036379Y-51877361D01*
X149069038Y-51485428D02*
X149055968Y-51685825D01*
X149075583Y-51280371D02*
X149069038Y-51485428D01*
X149077763Y-51018622D02*
X149075583Y-51280371D01*
X149066871Y-50759400D02*
X149077763Y-51018622D01*
X149049498Y-50546597D02*
X149066871Y-50759400D01*
X149014771Y-50312173D02*
X149049498Y-50546597D01*
X148997661Y-50228760D02*
X149014771Y-50312173D01*
X148971831Y-50127592D02*
X148997661Y-50228760D01*
X148915597Y-49943754D02*
X148971831Y-50127592D01*
X148855390Y-49793237D02*
X148915597Y-49943754D01*
X148821704Y-49723755D02*
X148855390Y-49793237D01*
X148779851Y-49652607D02*
X148821704Y-49723755D01*
X148694928Y-49537967D02*
X148779851Y-49652607D01*
X148597803Y-49434510D02*
X148694928Y-49537967D01*
X148546510Y-49393474D02*
X148597803Y-49434510D01*
X148492321Y-49355955D02*
X148546510Y-49393474D01*
X148376975Y-49290945D02*
X148492321Y-49355955D01*
X148244373Y-49246745D02*
X148376975Y-49290945D01*
X148175351Y-49230014D02*
X148244373Y-49246745D01*
X148111257Y-49219674D02*
X148175351Y-49230014D01*
X147951301Y-49211140D02*
X148111257Y-49219674D01*
X147795110Y-49219702D02*
X147951301Y-49211140D01*
X147699515Y-49232449D02*
X147795110Y-49219702D01*
X147616125Y-49249553D02*
X147699515Y-49232449D01*
X147436554Y-49292825D02*
X147616125Y-49249553D01*
X147230402Y-49362260D02*
X147436554Y-49292825D01*
X147117668Y-49403454D02*
X147230402Y-49362260D01*
X147029340Y-49440074D02*
X147117668Y-49403454D01*
X146798481Y-49546801D02*
X147029340Y-49440074D01*
X146573857Y-49664558D02*
X146798481Y-49546801D01*
X146436364Y-49740943D02*
X146573857Y-49664558D01*
X146323181Y-49806247D02*
X146436364Y-49740943D01*
X146197804Y-49884331D02*
X146323181Y-49806247D01*
X146306669Y-49886207D02*
X146197804Y-49884331D01*
X146558097Y-49897237D02*
X146306669Y-49886207D01*
X146763654Y-49912708D02*
X146558097Y-49897237D01*
X147000653Y-49939290D02*
X146763654Y-49912708D01*
X147186818Y-49972532D02*
X147000653Y-49939290D01*
X147375874Y-50010339D02*
X147186818Y-49972532D01*
X147530063Y-50057266D02*
X147375874Y-50010339D01*
X147601645Y-50081875D02*
X147530063Y-50057266D01*
X147685057Y-50113437D02*
X147601645Y-50081875D01*
X147805023Y-50170019D02*
X147685057Y-50113437D01*
X147828014Y-51824831D02*
X147883755Y-51746791D01*
X147706480Y-51983925D02*
X147828014Y-51824831D01*
X147608659Y-52103979D02*
X147706480Y-51983925D01*
X147504377Y-52217136D02*
X147608659Y-52103979D01*
X147412914Y-52313066D02*
X147504377Y-52217136D01*
X147312230Y-52402557D02*
X147412914Y-52313066D01*
X147222749Y-52476381D02*
X147312230Y-52402557D01*
X147125437Y-52546540D02*
X147222749Y-52476381D01*
X147034638Y-52598747D02*
X147125437Y-52546540D01*
X146944472Y-52643831D02*
X147034638Y-52598747D01*
X146857456Y-52680467D02*
X146944472Y-52643831D01*
X146770328Y-52705692D02*
X146857456Y-52680467D01*
X146687038Y-52724200D02*
X146770328Y-52705692D01*
X146598930Y-52731152D02*
X146687038Y-52724200D01*
X97922542Y-109909934D02*
X98009323Y-109762394D01*
X97842392Y-110068073D02*
X97922542Y-109909934D01*
X97770533Y-110227012D02*
X97842392Y-110068073D01*
X97698834Y-110394324D02*
X97770533Y-110227012D01*
X97638092Y-110565704D02*
X97698834Y-110394324D01*
X97581544Y-110744042D02*
X97638092Y-110565704D01*
X97533855Y-110921798D02*
X97581544Y-110744042D01*
X97494706Y-111113177D02*
X97533855Y-110921798D01*
X97459920Y-111304514D02*
X97494706Y-111113177D01*
X97435986Y-111506839D02*
X97459920Y-111304514D01*
X97416378Y-111707305D02*
X97435986Y-111506839D01*
X97405499Y-111920485D02*
X97416378Y-111707305D01*
X97403325Y-112135808D02*
X97405499Y-111920485D01*
X97412050Y-112360375D02*
X97403325Y-112135808D01*
X97425133Y-112584932D02*
X97412050Y-112360375D01*
X97449115Y-112807277D02*
X97425133Y-112584932D01*
X97477435Y-113027359D02*
X97449115Y-112807277D01*
X97514461Y-113229887D02*
X97477435Y-113027359D01*
X97555886Y-113432682D02*
X97514461Y-113229887D01*
X97601640Y-113617843D02*
X97555886Y-113432682D01*
X97651659Y-113800529D02*
X97601640Y-113617843D01*
X97708076Y-113969798D02*
X97651659Y-113800529D01*
X97771084Y-114137096D02*
X97708076Y-113969798D01*
X97836195Y-114289009D02*
X97771084Y-114137096D01*
X97907895Y-114438922D02*
X97836195Y-114289009D01*
X97979315Y-114575281D02*
X97907895Y-114438922D01*
X98059475Y-114707428D02*
X97979315Y-114575281D01*
X98139549Y-114830789D02*
X98059475Y-114707428D01*
X98228249Y-114949775D02*
X98139549Y-114830789D01*
X98314678Y-115057812D02*
X98228249Y-114949775D01*
X98407429Y-115159190D02*
X98314678Y-115057812D01*
X98502970Y-115254727D02*
X98407429Y-115159190D01*
X98600034Y-115347483D02*
X98502970Y-115254727D01*
X98699193Y-115427243D02*
X98600034Y-115347483D01*
X98803012Y-115507264D02*
X98699193Y-115427243D01*
X98906252Y-115576095D02*
X98803012Y-115507264D01*
X99014712Y-115641164D02*
X98906252Y-115576095D01*
X99120649Y-115701708D02*
X99014712Y-115641164D01*
X99230313Y-115755462D02*
X99120649Y-115701708D01*
X99449524Y-115848789D02*
X99230313Y-115755462D01*
X99561413Y-115887522D02*
X99449524Y-115848789D01*
X99675903Y-115922081D02*
X99561413Y-115887522D01*
X99901477Y-115978479D02*
X99675903Y-115922081D01*
X100133574Y-116017521D02*
X99901477Y-115978479D01*
X100243979Y-116030507D02*
X100133574Y-116017521D01*
X100356612Y-116041339D02*
X100243979Y-116030507D01*
X100582555Y-116052200D02*
X100356612Y-116041339D01*
X100793504Y-116050026D02*
X100582555Y-116052200D01*
X100899540Y-116045696D02*
X100793504Y-116050026D01*
X101007789Y-116037037D02*
X100899540Y-116045696D01*
X101205893Y-116015266D02*
X101007789Y-116037037D01*
X101401527Y-115984834D02*
X101205893Y-116015266D01*
X101575108Y-115950121D02*
X101401527Y-115984834D01*
X101746509Y-115906727D02*
X101575108Y-115950121D01*
X101898423Y-115861152D02*
X101746509Y-115906727D01*
X102050475Y-115809020D02*
X101898423Y-115861152D01*
X102202590Y-115750345D02*
X102050475Y-115809020D01*
X102354545Y-115685226D02*
X102202590Y-115750345D01*
X102506005Y-115611658D02*
X102354545Y-115685226D01*
X102651013Y-115529414D02*
X102506005Y-115611658D01*
X102796729Y-115438069D02*
X102651013Y-115529414D01*
X102867742Y-115390729D02*
X102796729Y-115438069D01*
X102934468Y-115341221D02*
X102867742Y-115390729D01*
X103073167Y-115232859D02*
X102934468Y-115341221D01*
X103200699Y-115116137D02*
X103073167Y-115232859D01*
X103263142Y-115053694D02*
X103200699Y-115116137D01*
X103323438Y-114989094D02*
X103263142Y-115053694D01*
X103438106Y-114854951D02*
X103323438Y-114989094D01*
X103546057Y-114708134D02*
X103438106Y-114854951D01*
X103595444Y-114630836D02*
X103546057Y-114708134D01*
X103640701Y-114555408D02*
X103595444Y-114630836D01*
X103731406Y-114386956D02*
X103640701Y-114555408D01*
X103804690Y-114212367D02*
X103731406Y-114386956D01*
X103839166Y-114113242D02*
X103804690Y-114212367D01*
X103869336Y-114018419D02*
X103839166Y-114113242D01*
X103919108Y-113823665D02*
X103869336Y-114018419D01*
X103958080Y-113604984D02*
X103919108Y-113823665D01*
X103970980Y-113488898D02*
X103958080Y-113604984D01*
X103977448Y-113387560D02*
X103970980Y-113488898D01*
X103983975Y-113143912D02*
X103977448Y-113387560D01*
X103975287Y-112898461D02*
X103983975Y-113143912D01*
X103962313Y-112755758D02*
X103975287Y-112898461D01*
X103944962Y-112627789D02*
X103962313Y-112755758D01*
X103901335Y-112359488D02*
X103944962Y-112627789D01*
X103882203Y-112270217D02*
X103901335Y-112359488D01*
X103856828Y-112187737D02*
X103882203Y-112270217D01*
X103826841Y-112108489D02*
X103856828Y-112187737D01*
X103795172Y-112032492D02*
X103826841Y-112108489D01*
X103718892Y-111896879D02*
X103795172Y-112032492D01*
X103623172Y-111771379D02*
X103718892Y-111896879D01*
X103574940Y-111718956D02*
X103623172Y-111771379D01*
X103520699Y-111666800D02*
X103574940Y-111718956D01*
X96616915Y-118056376D02*
X96844759Y-118195736D01*
X96404532Y-117912570D02*
X96616915Y-118056376D01*
X96092649Y-117678112D02*
X96404532Y-117912570D01*
X95807099Y-117419126D02*
X96092649Y-117678112D01*
X95627768Y-117235371D02*
X95807099Y-117419126D01*
X95457510Y-117045201D02*
X95627768Y-117235371D01*
X95291616Y-116841710D02*
X95457510Y-117045201D01*
X95137059Y-116631950D02*
X95291616Y-116841710D01*
X95059726Y-116521476D02*
X95137059Y-116631950D01*
X94986558Y-116412835D02*
X95059726Y-116521476D01*
X94847380Y-116185289D02*
X94986558Y-116412835D01*
X94715039Y-115949275D02*
X94847380Y-116185289D01*
X94650912Y-115827668D02*
X94715039Y-115949275D01*
X94591136Y-115708117D02*
X94650912Y-115827668D01*
X94476407Y-115458795D02*
X94591136Y-115708117D01*
X94370571Y-115205229D02*
X94476407Y-115458795D01*
X94319680Y-115074675D02*
X94370571Y-115205229D01*
X94273224Y-114944180D02*
X94319680Y-115074675D01*
X94185012Y-114679551D02*
X94273224Y-114944180D01*
X94107864Y-114410608D02*
X94185012Y-114679551D01*
X94070316Y-114271471D02*
X94107864Y-114410608D01*
X94037123Y-114134276D02*
X94070316Y-114271471D01*
X93977526Y-113853950D02*
X94037123Y-114134276D01*
X93909182Y-113432893D02*
X93977526Y-113853950D01*
X93891476Y-113286738D02*
X93909182Y-113432893D01*
X93862817Y-113000164D02*
X93891476Y-113286738D01*
X93845152Y-112711020D02*
X93862817Y-113000164D01*
X93838534Y-112419696D02*
X93845152Y-112711020D01*
X93842945Y-112126181D02*
X93838534Y-112419696D01*
X93858399Y-111834925D02*
X93842945Y-112126181D01*
X93871656Y-111684597D02*
X93858399Y-111834925D01*
X93887099Y-111536861D02*
X93871656Y-111684597D01*
X93922384Y-111245741D02*
X93887099Y-111536861D01*
X93973208Y-110951826D02*
X93922384Y-111245741D01*
X94037215Y-110660477D02*
X93973208Y-110951826D01*
X94112233Y-110367025D02*
X94037215Y-110660477D01*
X94198296Y-110080159D02*
X94112233Y-110367025D01*
X94246997Y-109936240D02*
X94198296Y-110080159D01*
X94300087Y-109792466D02*
X94246997Y-109936240D01*
X94412487Y-109512581D02*
X94300087Y-109792466D01*
X94536090Y-109230058D02*
X94412487Y-109512581D01*
X94604794Y-109092642D02*
X94536090Y-109230058D01*
X94677694Y-108953473D02*
X94604794Y-109092642D01*
X94829851Y-108682221D02*
X94677694Y-108953473D01*
X94993260Y-108417252D02*
X94829851Y-108682221D01*
X95174433Y-108152111D02*
X94993260Y-108417252D01*
X95368740Y-107898191D02*
X95174433Y-108152111D01*
X95576071Y-107646749D02*
X95368740Y-107898191D01*
X95686616Y-107522929D02*
X95576071Y-107646749D01*
X95797181Y-107403526D02*
X95686616Y-107522929D01*
X96037758Y-107162950D02*
X95797181Y-107403526D01*
X96287143Y-106937838D02*
X96037758Y-107162950D01*
X96424018Y-106823034D02*
X96287143Y-106937838D01*
X96556571Y-106714792D02*
X96424018Y-106823034D01*
X96834523Y-106505223D02*
X96556571Y-106714792D01*
X97136552Y-106297987D02*
X96834523Y-106505223D01*
X97295636Y-106196354D02*
X97136552Y-106297987D01*
X97445872Y-106105771D02*
X97295636Y-106196354D01*
X97785317Y-105914005D02*
X97445872Y-106105771D01*
X98120428Y-105746449D02*
X97785317Y-105914005D01*
X98305660Y-105660449D02*
X98120428Y-105746449D01*
X98484383Y-105581014D02*
X98305660Y-105660449D01*
X98857713Y-105429487D02*
X98484383Y-105581014D01*
X99166959Y-105296642D02*
X98857713Y-105429487D01*
X99369686Y-105184497D02*
X99166959Y-105296642D01*
X99447777Y-105131731D02*
X99369686Y-105184497D01*
X99513797Y-105078492D02*
X99447777Y-105131731D01*
X99577555Y-105023235D02*
X99513797Y-105078492D01*
X99627965Y-104970727D02*
X99577555Y-105023235D01*
X99675948Y-104914388D02*
X99627965Y-104970727D01*
X99712044Y-104860248D02*
X99675948Y-104914388D01*
X99738682Y-104800827D02*
X99712044Y-104860248D01*
X99761423Y-104742928D02*
X99738682Y-104800827D01*
X99775369Y-104687173D02*
X99761423Y-104742928D01*
X99754972Y-104447049D02*
X99775369Y-104687173D01*
X99728049Y-104378710D02*
X99754972Y-104447049D01*
X99696775Y-104316150D02*
X99728049Y-104378710D01*
X99654445Y-104246295D02*
X99696775Y-104316150D01*
X99607748Y-104178383D02*
X99654445Y-104246295D01*
X99548108Y-104103833D02*
X99607748Y-104178383D01*
X99475301Y-104023491D02*
X99548108Y-104103833D01*
X99436938Y-103466053D02*
X99475301Y-104023491D01*
X99410572Y-102921209D02*
X99436938Y-103466053D01*
X99392985Y-102494891D02*
X99410572Y-102921209D01*
X99381998Y-101991446D02*
X99392985Y-102494891D01*
X99381998Y-101604231D02*
X99381998Y-101991446D01*
X99390804Y-101225356D02*
X99381998Y-101604231D01*
X99421631Y-100754132D02*
X99390804Y-101225356D01*
X99437161Y-100594476D02*
X99421631Y-100754132D01*
X99470419Y-100361664D02*
X99437161Y-100594476D01*
X99519292Y-100130618D02*
X99470419Y-100361664D01*
X99544290Y-100041968D02*
X99519292Y-100130618D01*
X99603078Y-99883700D02*
X99544290Y-100041968D01*
X99640264Y-99816295D02*
X99603078Y-99883700D01*
X99671205Y-99766316D02*
X99640264Y-99816295D01*
X99720555Y-99709564D02*
X99671205Y-99766316D01*
X99760916Y-99679973D02*
X99720555Y-99709564D01*
X99823368Y-99651346D02*
X99760916Y-99679973D01*
X99897689Y-99641095D02*
X99823368Y-99651346D01*
X99941468Y-99644012D02*
X99897689Y-99641095D01*
X100043164Y-99682756D02*
X99941468Y-99644012D01*
X100118161Y-99727283D02*
X100043164Y-99682756D01*
X100166975Y-99762149D02*
X100118161Y-99727283D01*
X100283150Y-99858216D02*
X100166975Y-99762149D01*
X100503046Y-100060524D02*
X100283150Y-99858216D01*
X100677626Y-100213280D02*
X100503046Y-100060524D01*
X100770157Y-100288596D02*
X100677626Y-100213280D01*
X100862104Y-100352746D02*
X100770157Y-100288596D01*
X100960367Y-100412558D02*
X100862104Y-100352746D01*
X101061734Y-100463241D02*
X100960367Y-100412558D01*
X101223093Y-100520565D02*
X101061734Y-100463241D01*
X101273064Y-100530559D02*
X101223093Y-100520565D01*
X101386533Y-100543168D02*
X101273064Y-100530559D01*
X101499294Y-100538992D02*
X101386533Y-100543168D01*
X101565642Y-100528625D02*
X101499294Y-100538992D01*
X101621042Y-100516312D02*
X101565642Y-100528625D01*
X101740810Y-100474290D02*
X101621042Y-100516312D01*
X101791430Y-100447966D02*
X101740810Y-100474290D01*
X101839076Y-100418188D02*
X101791430Y-100447966D01*
X101867261Y-100391766D02*
X101839076Y-100418188D01*
X101884779Y-100364691D02*
X101867261Y-100391766D01*
X101893154Y-100332861D02*
X101884779Y-100364691D01*
X101896551Y-100300602D02*
X101893154Y-100332861D01*
X101889262Y-100260510D02*
X101896551Y-100300602D01*
X101877950Y-100220921D02*
X101889262Y-100260510D01*
X101815818Y-100104944D02*
X101877950Y-100220921D01*
X101728447Y-99987742D02*
X101815818Y-100104944D01*
X101589122Y-99820113D02*
X101728447Y-99987742D01*
X101167673Y-99341593D02*
X101589122Y-99820113D01*
X100986704Y-99120902D02*
X101167673Y-99341593D01*
X100814538Y-98893552D02*
X100986704Y-99120902D01*
X100629046Y-98628569D02*
X100814538Y-98893552D01*
X100458968Y-98354675D02*
X100629046Y-98628569D01*
X100372643Y-98201944D02*
X100458968Y-98354675D01*
X100290820Y-98047148D02*
X100372643Y-98201944D01*
X100211244Y-97883572D02*
X100290820Y-98047148D01*
X100135946Y-97717475D02*
X100211244Y-97883572D01*
X100065040Y-97537995D02*
X100135946Y-97717475D01*
X100000957Y-97356788D02*
X100065040Y-97537995D01*
X99939012Y-97166543D02*
X100000957Y-97356788D01*
X99885864Y-96971652D02*
X99939012Y-97166543D01*
X99837146Y-96763489D02*
X99885864Y-96971652D01*
X99799562Y-96553490D02*
X99837146Y-96763489D01*
X99764187Y-96332383D02*
X99799562Y-96553490D01*
X99742062Y-96111091D02*
X99764187Y-96332383D01*
X99724382Y-95870303D02*
X99742062Y-96111091D01*
X99717755Y-95618342D02*
X99724382Y-95870303D01*
X99719964Y-95377442D02*
X99717755Y-95618342D01*
X99733231Y-95123167D02*
X99719964Y-95377442D01*
X99759705Y-94851749D02*
X99733231Y-95123167D01*
X99792807Y-94580362D02*
X99759705Y-94851749D01*
X99819360Y-94421010D02*
X99792807Y-94580362D01*
X99843631Y-94290846D02*
X99819360Y-94421010D01*
X99900927Y-94004374D02*
X99843631Y-94290846D01*
X100028595Y-93482684D02*
X99900927Y-94004374D01*
X100173822Y-92963387D02*
X100028595Y-93482684D01*
X100242355Y-92746735D02*
X100173822Y-92963387D01*
X100310328Y-92560354D02*
X100242355Y-92746735D01*
X100319237Y-92531402D02*
X100310328Y-92560354D01*
X100392412Y-92342923D02*
X100319237Y-92531402D01*
X100469766Y-92157274D02*
X100392412Y-92342923D01*
X100545162Y-91995394D02*
X100469766Y-92157274D01*
X100627226Y-91837913D02*
X100545162Y-91995394D01*
X100703222Y-91706039D02*
X100627226Y-91837913D01*
X100790425Y-91580823D02*
X100703222Y-91706039D01*
X100870749Y-91475961D02*
X100790425Y-91580823D01*
X100912103Y-91427715D02*
X100870749Y-91475961D01*
X100962200Y-91377613D02*
X100912103Y-91427715D01*
X101046104Y-91300516D02*
X100962200Y-91377613D01*
X101139517Y-91234442D02*
X101046104Y-91300516D01*
X101182176Y-91208373D02*
X101139517Y-91234442D01*
X101232273Y-91184516D02*
X101182176Y-91208373D01*
X101664669Y-92780219D02*
X101721608Y-92421079D01*
X101616539Y-93121514D02*
X101664669Y-92780219D01*
X101579372Y-93464767D02*
X101616539Y-93121514D01*
X101553129Y-93792770D02*
X101579372Y-93464767D01*
X101535634Y-94123033D02*
X101553129Y-93792770D01*
X101526894Y-94433311D02*
X101535634Y-94123033D01*
X101531262Y-94892094D02*
X101526894Y-94433311D01*
X101561831Y-95341836D02*
X101531262Y-94892094D01*
X101612082Y-95765712D02*
X101561831Y-95341836D01*
X101633805Y-95904737D02*
X101612082Y-95765712D01*
X101684039Y-96173371D02*
X101633805Y-95904737D01*
X101742889Y-96441474D02*
X101684039Y-96173371D01*
X101812581Y-96691921D02*
X101742889Y-96441474D01*
X101893250Y-96944835D02*
X101812581Y-96691921D01*
X101980404Y-97182325D02*
X101893250Y-96944835D01*
X102028133Y-97297311D02*
X101980404Y-97182325D01*
X102080289Y-97414662D02*
X102028133Y-97297311D01*
X102189330Y-97639287D02*
X102080289Y-97414662D01*
X102306998Y-97859366D02*
X102189330Y-97639287D01*
X102369790Y-97965467D02*
X102306998Y-97859366D01*
X102434919Y-98067500D02*
X102369790Y-97965467D01*
X102572370Y-98270403D02*
X102434919Y-98067500D01*
X102718016Y-98468223D02*
X102572370Y-98270403D01*
X102876641Y-98655096D02*
X102718016Y-98468223D01*
X103042047Y-98833558D02*
X102876641Y-98655096D01*
X103218664Y-99005812D02*
X103042047Y-98833558D01*
X103311862Y-99092510D02*
X103218664Y-99005812D01*
X103407282Y-99172747D02*
X103311862Y-99092510D01*
X103601403Y-99329792D02*
X103407282Y-99172747D01*
X103808602Y-99480282D02*
X103601403Y-99329792D01*
X103914998Y-99554107D02*
X103808602Y-99480282D01*
X104021400Y-99621423D02*
X103914998Y-99554107D01*
X104248523Y-99759006D02*
X104021400Y-99621423D01*
X104481607Y-99887528D02*
X104248523Y-99759006D01*
X104727910Y-100007412D02*
X104481607Y-99887528D01*
X104978881Y-100118711D02*
X104727910Y-100007412D01*
X105245445Y-100225774D02*
X104978881Y-100118711D01*
X105384488Y-100277914D02*
X105245445Y-100225774D01*
X105804045Y-100413396D02*
X105384488Y-100277914D01*
X106094627Y-100494233D02*
X105804045Y-100413396D01*
X106402908Y-100572944D02*
X106094627Y-100494233D01*
X106710987Y-100640677D02*
X106402908Y-100572944D01*
X107036729Y-100701890D02*
X106710987Y-100640677D01*
X107366962Y-100754378D02*
X107036729Y-100701890D01*
X117441243Y-94641410D02*
X117415084Y-94870290D01*
X117463039Y-94395126D02*
X117441243Y-94641410D01*
X117471750Y-94144658D02*
X117463039Y-94395126D01*
X117471750Y-94011901D02*
X117471750Y-94144658D01*
X117469574Y-93881288D02*
X117471750Y-94011901D01*
X117456484Y-93615164D02*
X117469574Y-93881288D01*
X117430274Y-93329068D02*
X117456484Y-93615164D01*
X117412894Y-93176976D02*
X117430274Y-93329068D01*
X117391166Y-93044437D02*
X117412894Y-93176976D01*
X117334301Y-92725109D02*
X117391166Y-93044437D01*
X117271013Y-92432686D02*
X117334301Y-92725109D01*
X117185895Y-92105307D02*
X117271013Y-92432686D01*
X117085496Y-91780101D02*
X117185895Y-92105307D01*
X116976462Y-91472623D02*
X117085496Y-91780101D01*
X116850044Y-91169660D02*
X116976462Y-91472623D01*
X116737071Y-90932848D02*
X116850044Y-91169660D01*
X116586772Y-90669282D02*
X116737071Y-90932848D01*
X116528205Y-90573844D02*
X116586772Y-90669282D01*
X116454732Y-90461474D02*
X116528205Y-90573844D01*
X116307010Y-90265958D02*
X116454732Y-90461474D01*
X116166180Y-90096961D02*
X116307010Y-90265958D01*
X116012579Y-89941198D02*
X116166180Y-90096961D01*
X115867434Y-89811217D02*
X116012579Y-89941198D01*
X115704309Y-89680717D02*
X115867434Y-89811217D01*
X115635160Y-89628854D02*
X115704309Y-89680717D01*
X115555460Y-89572852D02*
X115635160Y-89628854D01*
X115399336Y-89475275D02*
X115555460Y-89572852D01*
X115102696Y-89309505D02*
X115399336Y-89475275D01*
X114525442Y-89021975D02*
X115102696Y-89309505D01*
X114250951Y-88867020D02*
X114525442Y-89021975D01*
X114129844Y-88786285D02*
X114250951Y-88867020D01*
X114011298Y-88694578D02*
X114129844Y-88786285D01*
X113956909Y-88646988D02*
X114011298Y-88694578D01*
X113902185Y-88594543D02*
X113956909Y-88646988D01*
X113805614Y-88484501D02*
X113902185Y-88594543D01*
X113711760Y-88361595D02*
X113805614Y-88484501D01*
X113624961Y-88232508D02*
X113711760Y-88361595D01*
X113536521Y-88088793D02*
X113624961Y-88232508D01*
X113450400Y-87943055D02*
X113536521Y-88088793D01*
X113283176Y-87639411D02*
X113450400Y-87943055D01*
X113118594Y-87332189D02*
X113283176Y-87639411D01*
X113048828Y-87205735D02*
X113118594Y-87332189D01*
X112966208Y-87066584D02*
X113048828Y-87205735D01*
X112798988Y-86808154D02*
X112966208Y-87066584D01*
X112722017Y-86714080D02*
X112798988Y-86808154D01*
X112690524Y-86678391D02*
X112722017Y-86714080D01*
X112642693Y-86630559D02*
X112690524Y-86678391D01*
X112570810Y-86573053D02*
X112642693Y-86630559D01*
X112491953Y-86530591D02*
X112570810Y-86573053D01*
X112459540Y-86519786D02*
X112491953Y-86530591D01*
X112423733Y-86514414D02*
X112459540Y-86519786D01*
X112390835Y-86516245D02*
X112423733Y-86514414D01*
X112355147Y-86521876D02*
X112390835Y-86516245D01*
X112318011Y-86534875D02*
X112355147Y-86521876D01*
X112286124Y-86551757D02*
X112318011Y-86534875D01*
X112244790Y-86581281D02*
X112286124Y-86551757D01*
X112209189Y-86614901D02*
X112244790Y-86581281D01*
X112116311Y-86724670D02*
X112209189Y-86614901D01*
X112042120Y-86845498D02*
X112116311Y-86724670D01*
X111981759Y-86964061D02*
X112042120Y-86845498D01*
X111947459Y-87036947D02*
X111981759Y-86964061D01*
X111867076Y-87236818D02*
X111947459Y-87036947D01*
X111757966Y-87546697D02*
X111867076Y-87236818D01*
X111710078Y-87703420D02*
X111757966Y-87546697D01*
X111664367Y-87864502D02*
X111710078Y-87703420D01*
X111592461Y-88167372D02*
X111664367Y-87864502D01*
X111538036Y-88478689D02*
X111592461Y-88167372D01*
X111503226Y-88778912D02*
X111538036Y-88478689D01*
X111487999Y-89079107D02*
X111503226Y-88778912D01*
X111490179Y-89373009D02*
X111487999Y-89079107D01*
X111498836Y-89520189D02*
X111490179Y-89373009D01*
X111514049Y-89667967D02*
X111498836Y-89520189D01*
X111551064Y-89959725D02*
X111514049Y-89667967D01*
X111611942Y-90244552D02*
X111551064Y-89959725D01*
X111648875Y-90387935D02*
X111611942Y-90244552D01*
X111690098Y-90531136D02*
X111648875Y-90387935D01*
X111802848Y-90859133D02*
X111690098Y-90531136D01*
X111492491Y-90911733D02*
X111802848Y-90859133D01*
X111371698Y-90925155D02*
X111492491Y-90911733D01*
X111227079Y-90934054D02*
X111371698Y-90925155D01*
X111110803Y-90936293D02*
X111227079Y-90934054D01*
X110994438Y-90931816D02*
X111110803Y-90936293D01*
X110888494Y-90922800D02*
X110994438Y-90931816D01*
X110782288Y-90904724D02*
X110888494Y-90922800D01*
X110685744Y-90882271D02*
X110782288Y-90904724D01*
X110587638Y-90854890D02*
X110685744Y-90882271D01*
X110502852Y-90818229D02*
X110587638Y-90854890D01*
X110419250Y-90777556D02*
X110502852Y-90818229D01*
X110341464Y-90731801D02*
X110419250Y-90777556D01*
X110267739Y-90678811D02*
X110341464Y-90731801D01*
X110200609Y-90618627D02*
X110267739Y-90678811D01*
X110140999Y-90552138D02*
X110200609Y-90618627D01*
X109614529Y-88948672D02*
X109654416Y-89026347D01*
X109564857Y-88874162D02*
X109614529Y-88948672D01*
X109519336Y-88822706D02*
X109564857Y-88874162D01*
X109466223Y-88783361D02*
X109519336Y-88822706D01*
X109443713Y-88771240D02*
X109466223Y-88783361D01*
X109373020Y-88757504D02*
X109443713Y-88771240D01*
X109320760Y-88764712D02*
X109373020Y-88757504D01*
X109271279Y-88784870D02*
X109320760Y-88764712D01*
X109208391Y-88830073D02*
X109271279Y-88784870D01*
X109153592Y-88886901D02*
X109208391Y-88830073D01*
X109086466Y-88975005D02*
X109153592Y-88886901D01*
X109017426Y-89089553D02*
X109086466Y-88975005D01*
X108960182Y-89204041D02*
X109017426Y-89089553D01*
X108899746Y-89342179D02*
X108960182Y-89204041D01*
X108833865Y-89524447D02*
X108899746Y-89342179D01*
X108773627Y-89703113D02*
X108833865Y-89524447D01*
X108708163Y-89930062D02*
X108773627Y-89703113D01*
X108649418Y-90158513D02*
X108708163Y-89930062D01*
X108599363Y-90424015D02*
X108649418Y-90158513D01*
X108579893Y-90555998D02*
X108599363Y-90424015D01*
X108566907Y-90688006D02*
X108579893Y-90555998D01*
X108549479Y-90977771D02*
X108566907Y-90688006D01*
X108549480Y-91267410D02*
X108549479Y-90977771D01*
X108555993Y-91417296D02*
X108549480Y-91267410D01*
X108566856Y-91569345D02*
X108555993Y-91417296D01*
X108601743Y-91868083D02*
X108566856Y-91569345D01*
X108651930Y-92177921D02*
X108601743Y-91868083D01*
X108682306Y-92327631D02*
X108651930Y-92177921D01*
X108719260Y-92477619D02*
X108682306Y-92327631D01*
X108802168Y-92778708D02*
X108719260Y-92477619D01*
X108902316Y-93074798D02*
X108802168Y-92778708D01*
X109017693Y-93359977D02*
X108902316Y-93074798D01*
X109148127Y-93636056D02*
X109017693Y-93359977D01*
X109296047Y-93894919D02*
X109148127Y-93636056D01*
X109373984Y-94018315D02*
X109296047Y-93894919D01*
X109460883Y-94142149D02*
X109373984Y-94018315D01*
X109545457Y-94257084D02*
X109460883Y-94142149D01*
X109638503Y-94369601D02*
X109545457Y-94257084D01*
X109731664Y-94473597D02*
X109638503Y-94369601D01*
X109828934Y-94573027D02*
X109731664Y-94473597D01*
X109932493Y-94667957D02*
X109828934Y-94573027D01*
X110038695Y-94754653D02*
X109932493Y-94667957D01*
X110146479Y-94838721D02*
X110038695Y-94754653D01*
X110260471Y-94911850D02*
X110146479Y-94838721D01*
X110376991Y-94980899D02*
X110260471Y-94911850D01*
X110497540Y-95041171D02*
X110376991Y-94980899D01*
X110619820Y-95094804D02*
X110497540Y-95041171D01*
X110748590Y-95137727D02*
X110619820Y-95094804D01*
X110880315Y-95174437D02*
X110748590Y-95137727D01*
X111015785Y-95204541D02*
X110880315Y-95174437D01*
X111152851Y-95223816D02*
X111015785Y-95204541D01*
X111294679Y-95232413D02*
X111152851Y-95223816D01*
X111441351Y-95232413D02*
X111294679Y-95232413D01*
X111590984Y-95223737D02*
X111441351Y-95232413D01*
X111668262Y-95217298D02*
X111590984Y-95223737D01*
X111744823Y-95206665D02*
X111668262Y-95217298D01*
X111896544Y-95176321D02*
X111744823Y-95206665D01*
X112103710Y-95128344D02*
X111896544Y-95176321D01*
X112308686Y-95073830D02*
X112103710Y-95128344D01*
X112498478Y-95017110D02*
X112308686Y-95073830D01*
X112685807Y-94956118D02*
X112498478Y-95017110D01*
X112859954Y-94890813D02*
X112685807Y-94956118D01*
X113031557Y-94821304D02*
X112859954Y-94890813D01*
X113190115Y-94745283D02*
X113031557Y-94821304D01*
X113344570Y-94666966D02*
X113190115Y-94745283D01*
X113485331Y-94586842D02*
X113344570Y-94666966D01*
X113623793Y-94498137D02*
X113485331Y-94586842D01*
X113749395Y-94407185D02*
X113623793Y-94498137D01*
X113870655Y-94311908D02*
X113749395Y-94407185D01*
X113980644Y-94214860D02*
X113870655Y-94311908D01*
X114086403Y-94109101D02*
X113980644Y-94214860D01*
X114181092Y-94003653D02*
X114086403Y-94109101D01*
X114267311Y-93891565D02*
X114181092Y-94003653D01*
X114349173Y-93775236D02*
X114267311Y-93891565D01*
X114420031Y-93654995D02*
X114349173Y-93775236D01*
X114482461Y-93532285D02*
X114420031Y-93654995D01*
X114538407Y-93403181D02*
X114482461Y-93532285D01*
X114585848Y-93269482D02*
X114538407Y-93403181D01*
X114626719Y-93133954D02*
X114585848Y-93269482D01*
X114656848Y-92991913D02*
X114626719Y-93133954D01*
X114731150Y-92532669D02*
X114656848Y-92991913D01*
X114803746Y-93177548D02*
X114731150Y-92532669D01*
X114819231Y-93341255D02*
X114803746Y-93177548D01*
X114828085Y-93513836D02*
X114819231Y-93341255D01*
X114836909Y-93816047D02*
X114828085Y-93513836D01*
X114830283Y-94134086D02*
X114836909Y-93816047D01*
X114821389Y-94271942D02*
X114830283Y-94134086D01*
X114805880Y-94420388D02*
X114821389Y-94271942D01*
X114768311Y-94707680D02*
X114805880Y-94420388D01*
X114715095Y-94973760D02*
X114768311Y-94707680D01*
X114646299Y-95233406D02*
X114715095Y-94973760D01*
X114561804Y-95475774D02*
X114646299Y-95233406D01*
X114457689Y-95712810D02*
X114561804Y-95475774D01*
X114404259Y-95824119D02*
X114457689Y-95712810D01*
X114343817Y-95936049D02*
X114404259Y-95824119D01*
X114210579Y-96147011D02*
X114343817Y-95936049D01*
X114066227Y-96344660D02*
X114210579Y-96147011D01*
X113985953Y-96440541D02*
X114066227Y-96344660D01*
X113903317Y-96534347D02*
X113985953Y-96440541D01*
X113723121Y-96710092D02*
X113903317Y-96534347D01*
X113530041Y-96869882D02*
X113723121Y-96710092D01*
X113423337Y-96949913D02*
X113530041Y-96869882D01*
X113318497Y-97023523D02*
X113423337Y-96949913D01*
X113096901Y-97158696D02*
X113318497Y-97023523D01*
X112855295Y-97289475D02*
X113096901Y-97158696D01*
X112726210Y-97347340D02*
X112855295Y-97289475D01*
X112602037Y-97400558D02*
X112726210Y-97347340D01*
X112323644Y-97504403D02*
X112602037Y-97400558D01*
X112049822Y-97592733D02*
X112323644Y-97504403D01*
X111892327Y-97637099D02*
X112049822Y-97592733D01*
X111741904Y-97672492D02*
X111892327Y-97637099D01*
X111433198Y-97740849D02*
X111741904Y-97672492D01*
X110946228Y-97820173D02*
X111433198Y-97740849D01*
X110457269Y-97881844D02*
X110946228Y-97820173D01*
X110011878Y-97917125D02*
X110457269Y-97881844D01*
X109546893Y-97930346D02*
X110011878Y-97917125D01*
X109334952Y-97928140D02*
X109546893Y-97930346D01*
X109114005Y-97921511D02*
X109334952Y-97928140D01*
X108699687Y-97888454D02*
X109114005Y-97921511D01*
X108500521Y-97866323D02*
X108699687Y-97888454D01*
X108109857Y-97804524D02*
X108500521Y-97866323D01*
X107917252Y-97762461D02*
X108109857Y-97804524D01*
X107734177Y-97718348D02*
X107917252Y-97762461D01*
X107550879Y-97669762D02*
X107734177Y-97718348D01*
X107373862Y-97616657D02*
X107550879Y-97669762D01*
X107199233Y-97556975D02*
X107373862Y-97616657D01*
X107031270Y-97495095D02*
X107199233Y-97556975D01*
X106863280Y-97426573D02*
X107031270Y-97495095D01*
X106701904Y-97355831D02*
X106863280Y-97426573D01*
X106544393Y-97280404D02*
X106701904Y-97355831D01*
X106237277Y-97112484D02*
X106544393Y-97280404D01*
X106090893Y-97021548D02*
X106237277Y-97112484D01*
X105947045Y-96926389D02*
X106090893Y-97021548D01*
X105673011Y-96729704D02*
X105947045Y-96926389D01*
X105412122Y-96513034D02*
X105673011Y-96729704D01*
X105287901Y-96399905D02*
X105412122Y-96513034D01*
X105168245Y-96282462D02*
X105287901Y-96399905D01*
X104938576Y-96039544D02*
X105168245Y-96282462D01*
X104719694Y-95778657D02*
X104938576Y-96039544D01*
X104518453Y-95508859D02*
X104719694Y-95778657D01*
X104330607Y-95221569D02*
X104518453Y-95508859D01*
X104158295Y-94927754D02*
X104330607Y-95221569D01*
X103999260Y-94618521D02*
X104158295Y-94927754D01*
X103855819Y-94302954D02*
X103999260Y-94618521D01*
X103721194Y-93971904D02*
X103855819Y-94302954D01*
X103604185Y-93634120D02*
X103721194Y-93971904D01*
X103500542Y-93283506D02*
X103604185Y-93634120D01*
X103410227Y-92933265D02*
X103500542Y-93283506D01*
X103368234Y-92749812D02*
X103410227Y-92933265D01*
X103332930Y-92566683D02*
X103368234Y-92749812D01*
X103266875Y-92201162D02*
X103332930Y-92566683D01*
X103216214Y-91822323D02*
X103266875Y-92201162D01*
X103194171Y-91630557D02*
X103216214Y-91822323D01*
X103176531Y-91443124D02*
X103194171Y-91630557D01*
X103147907Y-91051206D02*
X103176531Y-91443124D01*
X103134688Y-90663507D02*
X103147907Y-91051206D01*
X103132487Y-90264960D02*
X103134688Y-90663507D01*
X103143494Y-89866447D02*
X103132487Y-90264960D01*
X103165503Y-89463682D02*
X103143494Y-89866447D01*
X103198526Y-89058625D02*
X103165503Y-89463682D01*
X103244755Y-88651366D02*
X103198526Y-89058625D01*
X103301948Y-88246600D02*
X103244755Y-88651366D01*
X103334973Y-88039632D02*
X103301948Y-88246600D01*
X103370229Y-87836923D02*
X103334973Y-88039632D01*
X103451622Y-87427761D02*
X103370229Y-87836923D01*
X103541779Y-87020960D02*
X103451622Y-87427761D01*
X103590231Y-86818334D02*
X103541779Y-87020960D01*
X103643128Y-86613358D02*
X103590231Y-86818334D01*
X103757507Y-86210833D02*
X103643128Y-86613358D01*
X103880622Y-85808508D02*
X103757507Y-86210833D01*
X103944535Y-85610150D02*
X103880622Y-85808508D01*
X104015045Y-85409636D02*
X103944535Y-85610150D01*
X104160193Y-85013775D02*
X104015045Y-85409636D01*
X104316390Y-84622189D02*
X104160193Y-85013775D01*
X104393499Y-84439330D02*
X104316390Y-84622189D01*
X104483839Y-84234411D02*
X104393499Y-84439330D01*
X104652167Y-83873511D02*
X104483839Y-84234411D01*
X104833729Y-83517029D02*
X104652167Y-83873511D01*
X104917551Y-83358207D02*
X104833729Y-83517029D01*
X123100000Y-62700000D02*
X122907092Y-62482702D01*
M02*
