M48
;DRILL file {KiCad (5.0.0)} date 10/18/18 15:05:06
;FORMAT={-:-/ absolute / metric / decimal}
FMAT,2
METRIC,TZ
T1C0.400
T2C0.800
T3C0.800
T4C1.016
%
G90
G05
M71
T1
X103.378Y-103.632
X106.591Y-124.511
X109.742Y-111.873
X110.744Y-83.058
X112.522Y-104.648
X112.712Y-115.595
X114.808Y-105.918
X116.253Y-109.827
X117.335Y-108.801
X117.538Y-120.752
X118.933Y-85.697
X119.408Y-97.762
X120.244Y-119.85
X120.269Y-78.245
X121.426Y-126.478
X121.489Y-87.581
X122.428Y-129.667
X124.587Y-77.724
X126.492Y-74.803
X127.Y-72.39
X127.737Y-120.447
X128.143Y-98.298
X129.794Y-85.852
X130.937Y-109.347
X133.096Y-114.046
X133.223Y-91.948
X133.223Y-102.87
X133.223Y-116.332
X133.223Y-119.253
X133.237Y-76.059
X133.237Y-87.616
X133.237Y-99.808
X133.237Y-111.873
X133.237Y-126.478
X135.001Y-63.627
X136.271Y-45.466
X137.033Y-54.102
X139.319Y-74.549
X141.224Y-60.452
X142.494Y-54.102
X142.875Y-33.401
X143.129Y-110.363
X143.256Y-45.466
X143.383Y-103.251
X143.383Y-105.283
X143.637Y-126.238
X144.272Y-88.9
X145.048Y-76.059
X145.048Y-112.254
X145.161Y-131.191
X145.669Y-119.253
X146.775Y-88.175
X147.193Y-127.127
X147.955Y-100.838
X150.241Y-125.476
X151.13Y-98.933
X151.257Y-121.412
X153.035Y-109.728
X153.162Y-85.725
X153.416Y-68.707
X153.416Y-105.156
X153.797Y-124.714
X154.051Y-80.772
X154.178Y-77.343
X154.305Y-94.234
X154.559Y-111.506
X155.448Y-87.249
X156.732Y-127.367
X156.796Y-76.023
X156.796Y-88.088
X156.796Y-100.788
X160.02Y-111.62
X165.354Y-111.252
X165.379Y-108.953
X166.51Y-118.415
X169.52Y-121.666
X170.307Y-104.521
X171.958Y-106.743
X175.387Y-106.299
X182.245Y-131.445
T2
X128.27Y-104.14
X140.081Y-79.502
X151.638Y-129.413
X128.397Y-129.413
X152.019Y-104.14
X140.081Y-65.024
T3
X140.081Y-77.002
X152.019Y-101.64
X128.27Y-101.64
X151.638Y-126.913
X128.397Y-126.913
X140.081Y-62.524
T4
X161.798Y-121.666
X164.338Y-121.666
X166.878Y-121.666
T0
M30
