G04 #@! TF.GenerationSoftware,KiCad,Pcbnew,(5.0.0)*
G04 #@! TF.CreationDate,2018-10-18T15:05:02+03:00*
G04 #@! TF.ProjectId,side2star,7369646532737461722E6B696361645F,rev?*
G04 #@! TF.SameCoordinates,Original*
G04 #@! TF.FileFunction,Soldermask,Top*
G04 #@! TF.FilePolarity,Negative*
%FSLAX46Y46*%
G04 Gerber Fmt 4.6, Leading zero omitted, Abs format (unit mm)*
G04 Created by KiCad (PCBNEW (5.0.0)) date 10/18/18 15:05:02*
%MOMM*%
%LPD*%
G01*
G04 APERTURE LIST*
%ADD10C,1.700000*%
%ADD11R,1.700000X1.700000*%
%ADD12R,2.000000X2.400000*%
%ADD13R,1.250000X2.000000*%
%ADD14R,2.127200X2.432000*%
%ADD15O,2.127200X2.432000*%
G04 APERTURE END LIST*
D10*
G04 #@! TO.C,REF\002A\002A*
X140081000Y-62524000D03*
D11*
X140081000Y-65024000D03*
G04 #@! TD*
G04 #@! TO.C,REF\002A\002A*
X140081000Y-79502000D03*
D10*
X140081000Y-77002000D03*
G04 #@! TD*
D11*
G04 #@! TO.C,REF\002A\002A*
X152019000Y-104140000D03*
D10*
X152019000Y-101640000D03*
G04 #@! TD*
G04 #@! TO.C,REF\002A\002A*
X128270000Y-101640000D03*
D11*
X128270000Y-104140000D03*
G04 #@! TD*
G04 #@! TO.C,REF\002A\002A*
X128397000Y-129413000D03*
D10*
X128397000Y-126913000D03*
G04 #@! TD*
D12*
G04 #@! TO.C,REF\002A\002A*
X117373907Y-117799806D03*
G04 #@! TD*
G04 #@! TO.C,REF\002A\002A*
X119952007Y-117787106D03*
G04 #@! TD*
G04 #@! TO.C,REF\002A\002A*
X119940858Y-113320530D03*
G04 #@! TD*
G04 #@! TO.C,REF\002A\002A*
X122544358Y-113295130D03*
G04 #@! TD*
G04 #@! TO.C,REF\002A\002A*
X122542807Y-117787106D03*
G04 #@! TD*
G04 #@! TO.C,REF\002A\002A*
X117388158Y-113345930D03*
G04 #@! TD*
G04 #@! TO.C,REF\002A\002A*
X162560000Y-117868700D03*
G04 #@! TD*
G04 #@! TO.C,REF\002A\002A*
X160007300Y-117856000D03*
G04 #@! TD*
G04 #@! TO.C,REF\002A\002A*
X157480000Y-117830600D03*
G04 #@! TD*
D13*
G04 #@! TO.C,HL5*
X170275000Y-106350000D03*
X168525000Y-106350000D03*
X170275000Y-109850000D03*
X168525000Y-109850000D03*
G04 #@! TD*
G04 #@! TO.C,HL6*
X156775000Y-109850000D03*
X158525000Y-109850000D03*
X156775000Y-106350000D03*
X158525000Y-106350000D03*
G04 #@! TD*
G04 #@! TO.C,HL7*
X146775000Y-106350000D03*
X145025000Y-106350000D03*
X146775000Y-109850000D03*
X145025000Y-109850000D03*
G04 #@! TD*
G04 #@! TO.C,HL8*
X133225000Y-109850000D03*
X134975000Y-109850000D03*
X133225000Y-106350000D03*
X134975000Y-106350000D03*
G04 #@! TD*
G04 #@! TO.C,HL9*
X123225000Y-106350000D03*
X121475000Y-106350000D03*
X123225000Y-109850000D03*
X121475000Y-109850000D03*
G04 #@! TD*
G04 #@! TO.C,HL10*
X111475000Y-106350000D03*
X109725000Y-106350000D03*
X111475000Y-109850000D03*
X109725000Y-109850000D03*
G04 #@! TD*
G04 #@! TO.C,HL11*
X121475000Y-97750000D03*
X123225000Y-97750000D03*
X121475000Y-94250000D03*
X123225000Y-94250000D03*
G04 #@! TD*
G04 #@! TO.C,HL12*
X134975000Y-94250000D03*
X133225000Y-94250000D03*
X134975000Y-97750000D03*
X133225000Y-97750000D03*
G04 #@! TD*
G04 #@! TO.C,HL13*
X145025000Y-97750000D03*
X146775000Y-97750000D03*
X145025000Y-94250000D03*
X146775000Y-94250000D03*
G04 #@! TD*
G04 #@! TO.C,HL14*
X158525000Y-94250000D03*
X156775000Y-94250000D03*
X158525000Y-97750000D03*
X156775000Y-97750000D03*
G04 #@! TD*
G04 #@! TO.C,HL15*
X156775000Y-85650000D03*
X158525000Y-85650000D03*
X156775000Y-82150000D03*
X158525000Y-82150000D03*
G04 #@! TD*
G04 #@! TO.C,HL16*
X146775000Y-82150000D03*
X145025000Y-82150000D03*
X146775000Y-85650000D03*
X145025000Y-85650000D03*
G04 #@! TD*
G04 #@! TO.C,HL17*
X133225000Y-85650000D03*
X134975000Y-85650000D03*
X133225000Y-82150000D03*
X134975000Y-82150000D03*
G04 #@! TD*
G04 #@! TO.C,HL18*
X123225000Y-82150000D03*
X121475000Y-82150000D03*
X123225000Y-85650000D03*
X121475000Y-85650000D03*
G04 #@! TD*
G04 #@! TO.C,HL19*
X121475000Y-73550000D03*
X123225000Y-73550000D03*
X121475000Y-70050000D03*
X123225000Y-70050000D03*
G04 #@! TD*
D14*
G04 #@! TO.C,XP1*
X161798000Y-121666000D03*
D15*
X164338000Y-121666000D03*
X166878000Y-121666000D03*
G04 #@! TD*
D13*
G04 #@! TO.C,HL20*
X134975000Y-70050000D03*
X133225000Y-70050000D03*
X134975000Y-73550000D03*
X133225000Y-73550000D03*
G04 #@! TD*
G04 #@! TO.C,HL21*
X145025000Y-73550000D03*
X146775000Y-73550000D03*
X145025000Y-70050000D03*
X146775000Y-70050000D03*
G04 #@! TD*
G04 #@! TO.C,HL22*
X158525000Y-70050000D03*
X156775000Y-70050000D03*
X158525000Y-73550000D03*
X156775000Y-73550000D03*
G04 #@! TD*
G04 #@! TO.C,HL23*
X145025000Y-61450000D03*
X146775000Y-61450000D03*
X145025000Y-57950000D03*
X146775000Y-57950000D03*
G04 #@! TD*
G04 #@! TO.C,HL24*
X134975000Y-57950000D03*
X133225000Y-57950000D03*
X134975000Y-61450000D03*
X133225000Y-61450000D03*
G04 #@! TD*
G04 #@! TO.C,HL1*
X123202790Y-121404985D03*
X121452790Y-121404985D03*
X123202790Y-124904985D03*
X121452790Y-124904985D03*
G04 #@! TD*
G04 #@! TO.C,HL2*
X133173500Y-124940000D03*
X134923500Y-124940000D03*
X133173500Y-121440000D03*
X134923500Y-121440000D03*
G04 #@! TD*
G04 #@! TO.C,HL3*
X146752790Y-121404985D03*
X145002790Y-121404985D03*
X146752790Y-124904985D03*
X145002790Y-124904985D03*
G04 #@! TD*
G04 #@! TO.C,HL4*
X156752790Y-124904985D03*
X158502790Y-124904985D03*
X156752790Y-121404985D03*
X158502790Y-121404985D03*
G04 #@! TD*
G04 #@! TO.C,HL25*
X140765500Y-48097500D03*
X139015500Y-48097500D03*
X140765500Y-51597500D03*
X139015500Y-51597500D03*
G04 #@! TD*
G04 #@! TO.C,HL26*
X140829000Y-33556000D03*
X139079000Y-33556000D03*
X140829000Y-37056000D03*
X139079000Y-37056000D03*
G04 #@! TD*
D12*
G04 #@! TO.C,REF\002A\002A*
X160020000Y-113411000D03*
G04 #@! TD*
G04 #@! TO.C,REF\002A\002A*
X157480000Y-113411000D03*
G04 #@! TD*
G04 #@! TO.C,REF\002A\002A*
X162547300Y-113411000D03*
G04 #@! TD*
D10*
G04 #@! TO.C,REF\002A\002A*
X151638000Y-126913000D03*
D11*
X151638000Y-129413000D03*
G04 #@! TD*
M02*
