G04 #@! TF.GenerationSoftware,KiCad,Pcbnew,(5.0.0)*
G04 #@! TF.CreationDate,2018-10-18T15:05:02+03:00*
G04 #@! TF.ProjectId,side2star,7369646532737461722E6B696361645F,rev?*
G04 #@! TF.SameCoordinates,Original*
G04 #@! TF.FileFunction,Legend,Top*
G04 #@! TF.FilePolarity,Positive*
%FSLAX46Y46*%
G04 Gerber Fmt 4.6, Leading zero omitted, Abs format (unit mm)*
G04 Created by KiCad (PCBNEW (5.0.0)) date 10/18/18 15:05:02*
%MOMM*%
%LPD*%
G01*
G04 APERTURE LIST*
%ADD10C,0.150000*%
%ADD11C,0.120000*%
%ADD12C,0.010000*%
%ADD13C,0.200000*%
G04 APERTURE END LIST*
D10*
G04 #@! TO.C,REF\002A\002A*
X141331000Y-62274000D02*
X141331000Y-65274000D01*
X138831000Y-65274000D02*
X138831000Y-62274000D01*
X138831000Y-79752000D02*
X138831000Y-76752000D01*
X141331000Y-76752000D02*
X141331000Y-79752000D01*
X150769000Y-104390000D02*
X150769000Y-101390000D01*
X153269000Y-101390000D02*
X153269000Y-104390000D01*
X129520000Y-101390000D02*
X129520000Y-104390000D01*
X127020000Y-104390000D02*
X127020000Y-101390000D01*
X127147000Y-129663000D02*
X127147000Y-126663000D01*
X129647000Y-126663000D02*
X129647000Y-129663000D01*
D11*
G04 #@! TO.C,HL5*
X167450000Y-111050000D02*
X168525000Y-111050000D01*
X167450000Y-105150000D02*
X167450000Y-111050000D01*
X171350000Y-105150000D02*
X171350000Y-111050000D01*
G04 #@! TO.C,HL6*
X159600000Y-105150000D02*
X159600000Y-111050000D01*
X155700000Y-105150000D02*
X155700000Y-111050000D01*
X155700000Y-111050000D02*
X156775000Y-111050000D01*
G04 #@! TO.C,HL7*
X143950000Y-111050000D02*
X145025000Y-111050000D01*
X143950000Y-105150000D02*
X143950000Y-111050000D01*
X147850000Y-105150000D02*
X147850000Y-111050000D01*
G04 #@! TO.C,HL8*
X136050000Y-105150000D02*
X136050000Y-111050000D01*
X132150000Y-105150000D02*
X132150000Y-111050000D01*
X132150000Y-111050000D02*
X133225000Y-111050000D01*
G04 #@! TO.C,HL9*
X120400000Y-111050000D02*
X121475000Y-111050000D01*
X120400000Y-105150000D02*
X120400000Y-111050000D01*
X124300000Y-105150000D02*
X124300000Y-111050000D01*
G04 #@! TO.C,HL10*
X108650000Y-111050000D02*
X109725000Y-111050000D01*
X108650000Y-105150000D02*
X108650000Y-111050000D01*
X112550000Y-105150000D02*
X112550000Y-111050000D01*
G04 #@! TO.C,HL11*
X124300000Y-93050000D02*
X124300000Y-98950000D01*
X120400000Y-93050000D02*
X120400000Y-98950000D01*
X120400000Y-98950000D02*
X121475000Y-98950000D01*
G04 #@! TO.C,HL12*
X132150000Y-98950000D02*
X133225000Y-98950000D01*
X132150000Y-93050000D02*
X132150000Y-98950000D01*
X136050000Y-93050000D02*
X136050000Y-98950000D01*
G04 #@! TO.C,HL13*
X147850000Y-93050000D02*
X147850000Y-98950000D01*
X143950000Y-93050000D02*
X143950000Y-98950000D01*
X143950000Y-98950000D02*
X145025000Y-98950000D01*
G04 #@! TO.C,HL14*
X155700000Y-98950000D02*
X156775000Y-98950000D01*
X155700000Y-93050000D02*
X155700000Y-98950000D01*
X159600000Y-93050000D02*
X159600000Y-98950000D01*
G04 #@! TO.C,HL15*
X159600000Y-80950000D02*
X159600000Y-86850000D01*
X155700000Y-80950000D02*
X155700000Y-86850000D01*
X155700000Y-86850000D02*
X156775000Y-86850000D01*
G04 #@! TO.C,HL16*
X143950000Y-86850000D02*
X145025000Y-86850000D01*
X143950000Y-80950000D02*
X143950000Y-86850000D01*
X147850000Y-80950000D02*
X147850000Y-86850000D01*
G04 #@! TO.C,HL17*
X136050000Y-80950000D02*
X136050000Y-86850000D01*
X132150000Y-80950000D02*
X132150000Y-86850000D01*
X132150000Y-86850000D02*
X133225000Y-86850000D01*
G04 #@! TO.C,HL18*
X120400000Y-86850000D02*
X121475000Y-86850000D01*
X120400000Y-80950000D02*
X120400000Y-86850000D01*
X124300000Y-80950000D02*
X124300000Y-86850000D01*
G04 #@! TO.C,HL19*
X124300000Y-68850000D02*
X124300000Y-74750000D01*
X120400000Y-68850000D02*
X120400000Y-74750000D01*
X120400000Y-74750000D02*
X121475000Y-74750000D01*
G04 #@! TO.C,HL20*
X132150000Y-74750000D02*
X133225000Y-74750000D01*
X132150000Y-68850000D02*
X132150000Y-74750000D01*
X136050000Y-68850000D02*
X136050000Y-74750000D01*
G04 #@! TO.C,HL21*
X147850000Y-68850000D02*
X147850000Y-74750000D01*
X143950000Y-68850000D02*
X143950000Y-74750000D01*
X143950000Y-74750000D02*
X145025000Y-74750000D01*
G04 #@! TO.C,HL22*
X155700000Y-74750000D02*
X156775000Y-74750000D01*
X155700000Y-68850000D02*
X155700000Y-74750000D01*
X159600000Y-68850000D02*
X159600000Y-74750000D01*
G04 #@! TO.C,HL23*
X147850000Y-56750000D02*
X147850000Y-62650000D01*
X143950000Y-56750000D02*
X143950000Y-62650000D01*
X143950000Y-62650000D02*
X145025000Y-62650000D01*
G04 #@! TO.C,HL24*
X132150000Y-62650000D02*
X133225000Y-62650000D01*
X132150000Y-56750000D02*
X132150000Y-62650000D01*
X136050000Y-56750000D02*
X136050000Y-62650000D01*
G04 #@! TO.C,HL1*
X120377790Y-126104985D02*
X121452790Y-126104985D01*
X120377790Y-120204985D02*
X120377790Y-126104985D01*
X124277790Y-120204985D02*
X124277790Y-126104985D01*
G04 #@! TO.C,HL2*
X135998500Y-120240000D02*
X135998500Y-126140000D01*
X132098500Y-120240000D02*
X132098500Y-126140000D01*
X132098500Y-126140000D02*
X133173500Y-126140000D01*
G04 #@! TO.C,HL3*
X143927790Y-126104985D02*
X145002790Y-126104985D01*
X143927790Y-120204985D02*
X143927790Y-126104985D01*
X147827790Y-120204985D02*
X147827790Y-126104985D01*
G04 #@! TO.C,HL4*
X159577790Y-120204985D02*
X159577790Y-126104985D01*
X155677790Y-120204985D02*
X155677790Y-126104985D01*
X155677790Y-126104985D02*
X156752790Y-126104985D01*
G04 #@! TO.C,HL25*
X137940500Y-52797500D02*
X139015500Y-52797500D01*
X137940500Y-46897500D02*
X137940500Y-52797500D01*
X141840500Y-46897500D02*
X141840500Y-52797500D01*
G04 #@! TO.C,HL26*
X138004000Y-38256000D02*
X139079000Y-38256000D01*
X138004000Y-32356000D02*
X138004000Y-38256000D01*
X141904000Y-32356000D02*
X141904000Y-38256000D01*
D10*
G04 #@! TO.C,REF\002A\002A*
X152888000Y-126663000D02*
X152888000Y-129663000D01*
X150388000Y-129663000D02*
X150388000Y-126663000D01*
D12*
G04 #@! TO.C,REF\002A\002A\002A*
G36*
X101612957Y-126947571D02*
X101709232Y-126971809D01*
X101795816Y-127014641D01*
X101870627Y-127074419D01*
X101931582Y-127149494D01*
X101976601Y-127238220D01*
X102002864Y-127334530D01*
X102008714Y-127431795D01*
X101993860Y-127525654D01*
X101960160Y-127613511D01*
X101909472Y-127692770D01*
X101843655Y-127760836D01*
X101764566Y-127815112D01*
X101674066Y-127853002D01*
X101622800Y-127865426D01*
X101578302Y-127872947D01*
X101544001Y-127875919D01*
X101511040Y-127874094D01*
X101470566Y-127867225D01*
X101437469Y-127860250D01*
X101344053Y-127828741D01*
X101260381Y-127777617D01*
X101188335Y-127708429D01*
X101129800Y-127622728D01*
X101115852Y-127595489D01*
X101099414Y-127559122D01*
X101089106Y-127528582D01*
X101083540Y-127496450D01*
X101081331Y-127455307D01*
X101081052Y-127409222D01*
X101085139Y-127324865D01*
X101098554Y-127255586D01*
X101123744Y-127194961D01*
X101163154Y-127136567D01*
X101201702Y-127092302D01*
X101273594Y-127026484D01*
X101348687Y-126981053D01*
X101431438Y-126953850D01*
X101509072Y-126943576D01*
X101612957Y-126947571D01*
X101612957Y-126947571D01*
G37*
X101612957Y-126947571D02*
X101709232Y-126971809D01*
X101795816Y-127014641D01*
X101870627Y-127074419D01*
X101931582Y-127149494D01*
X101976601Y-127238220D01*
X102002864Y-127334530D01*
X102008714Y-127431795D01*
X101993860Y-127525654D01*
X101960160Y-127613511D01*
X101909472Y-127692770D01*
X101843655Y-127760836D01*
X101764566Y-127815112D01*
X101674066Y-127853002D01*
X101622800Y-127865426D01*
X101578302Y-127872947D01*
X101544001Y-127875919D01*
X101511040Y-127874094D01*
X101470566Y-127867225D01*
X101437469Y-127860250D01*
X101344053Y-127828741D01*
X101260381Y-127777617D01*
X101188335Y-127708429D01*
X101129800Y-127622728D01*
X101115852Y-127595489D01*
X101099414Y-127559122D01*
X101089106Y-127528582D01*
X101083540Y-127496450D01*
X101081331Y-127455307D01*
X101081052Y-127409222D01*
X101085139Y-127324865D01*
X101098554Y-127255586D01*
X101123744Y-127194961D01*
X101163154Y-127136567D01*
X101201702Y-127092302D01*
X101273594Y-127026484D01*
X101348687Y-126981053D01*
X101431438Y-126953850D01*
X101509072Y-126943576D01*
X101612957Y-126947571D01*
G36*
X110072507Y-129393245D02*
X110072526Y-129627662D01*
X110072552Y-129840603D01*
X110072625Y-130033168D01*
X110072782Y-130206459D01*
X110073064Y-130361576D01*
X110073509Y-130499620D01*
X110074156Y-130621692D01*
X110075045Y-130728894D01*
X110076213Y-130822326D01*
X110077701Y-130903090D01*
X110079546Y-130972286D01*
X110081789Y-131031015D01*
X110084469Y-131080379D01*
X110087623Y-131121478D01*
X110091292Y-131155413D01*
X110095513Y-131183286D01*
X110100327Y-131206198D01*
X110105773Y-131225249D01*
X110111888Y-131241540D01*
X110118712Y-131256173D01*
X110126285Y-131270249D01*
X110134645Y-131284868D01*
X110139839Y-131293974D01*
X110174104Y-131354689D01*
X109315955Y-131354689D01*
X109315955Y-131258733D01*
X109315224Y-131215370D01*
X109313272Y-131182205D01*
X109310463Y-131164424D01*
X109309221Y-131162778D01*
X109297799Y-131169662D01*
X109275084Y-131187505D01*
X109252385Y-131206879D01*
X109197800Y-131247614D01*
X109128321Y-131288617D01*
X109051270Y-131326123D01*
X108973965Y-131356364D01*
X108943113Y-131366012D01*
X108874616Y-131380578D01*
X108791764Y-131390539D01*
X108702371Y-131395583D01*
X108614248Y-131395396D01*
X108535207Y-131389666D01*
X108497511Y-131383858D01*
X108359414Y-131345797D01*
X108232113Y-131288073D01*
X108116292Y-131211211D01*
X108012637Y-131115739D01*
X107921833Y-131002179D01*
X107855031Y-130891381D01*
X107800164Y-130774625D01*
X107758163Y-130655276D01*
X107728167Y-130529283D01*
X107709311Y-130392594D01*
X107700732Y-130241158D01*
X107700006Y-130163711D01*
X107702100Y-130106934D01*
X108531217Y-130106934D01*
X108531424Y-130200002D01*
X108534337Y-130287692D01*
X108540000Y-130364772D01*
X108548455Y-130426009D01*
X108551038Y-130438350D01*
X108582840Y-130545633D01*
X108624498Y-130632658D01*
X108676363Y-130699642D01*
X108738781Y-130746805D01*
X108812100Y-130774365D01*
X108896669Y-130782541D01*
X108992835Y-130771551D01*
X109056311Y-130755829D01*
X109105454Y-130737639D01*
X109159583Y-130711791D01*
X109200244Y-130688089D01*
X109270800Y-130641721D01*
X109270800Y-129491530D01*
X109203392Y-129447962D01*
X109124867Y-129407040D01*
X109040681Y-129380389D01*
X108955557Y-129368465D01*
X108874216Y-129371722D01*
X108801380Y-129390615D01*
X108769426Y-129406184D01*
X108711501Y-129449181D01*
X108662544Y-129505953D01*
X108621390Y-129578575D01*
X108586874Y-129669121D01*
X108557833Y-129779666D01*
X108556552Y-129785533D01*
X108546381Y-129847788D01*
X108538739Y-129925594D01*
X108533670Y-130013720D01*
X108531217Y-130106934D01*
X107702100Y-130106934D01*
X107707857Y-129950895D01*
X107729802Y-129755059D01*
X107765786Y-129576332D01*
X107815759Y-129414845D01*
X107879668Y-129270726D01*
X107957462Y-129144106D01*
X108049089Y-129035115D01*
X108154497Y-128943883D01*
X108199662Y-128912932D01*
X108300611Y-128856785D01*
X108403901Y-128817174D01*
X108513989Y-128793014D01*
X108635330Y-128783219D01*
X108727836Y-128784265D01*
X108857490Y-128795231D01*
X108970084Y-128817046D01*
X109068875Y-128850714D01*
X109157121Y-128897236D01*
X109205986Y-128931448D01*
X109235353Y-128953362D01*
X109257043Y-128968333D01*
X109265253Y-128972733D01*
X109266868Y-128961904D01*
X109268159Y-128931251D01*
X109269138Y-128883526D01*
X109269817Y-128821479D01*
X109270210Y-128747862D01*
X109270330Y-128665427D01*
X109270188Y-128576925D01*
X109269797Y-128485107D01*
X109269171Y-128392724D01*
X109268320Y-128302528D01*
X109267260Y-128217271D01*
X109266001Y-128139703D01*
X109264556Y-128072576D01*
X109262938Y-128018641D01*
X109261161Y-127980650D01*
X109260669Y-127973667D01*
X109253092Y-127903251D01*
X109241531Y-127848102D01*
X109223792Y-127800981D01*
X109197682Y-127754647D01*
X109191415Y-127745067D01*
X109166983Y-127708378D01*
X110072311Y-127708378D01*
X110072507Y-129393245D01*
X110072507Y-129393245D01*
G37*
X110072507Y-129393245D02*
X110072526Y-129627662D01*
X110072552Y-129840603D01*
X110072625Y-130033168D01*
X110072782Y-130206459D01*
X110073064Y-130361576D01*
X110073509Y-130499620D01*
X110074156Y-130621692D01*
X110075045Y-130728894D01*
X110076213Y-130822326D01*
X110077701Y-130903090D01*
X110079546Y-130972286D01*
X110081789Y-131031015D01*
X110084469Y-131080379D01*
X110087623Y-131121478D01*
X110091292Y-131155413D01*
X110095513Y-131183286D01*
X110100327Y-131206198D01*
X110105773Y-131225249D01*
X110111888Y-131241540D01*
X110118712Y-131256173D01*
X110126285Y-131270249D01*
X110134645Y-131284868D01*
X110139839Y-131293974D01*
X110174104Y-131354689D01*
X109315955Y-131354689D01*
X109315955Y-131258733D01*
X109315224Y-131215370D01*
X109313272Y-131182205D01*
X109310463Y-131164424D01*
X109309221Y-131162778D01*
X109297799Y-131169662D01*
X109275084Y-131187505D01*
X109252385Y-131206879D01*
X109197800Y-131247614D01*
X109128321Y-131288617D01*
X109051270Y-131326123D01*
X108973965Y-131356364D01*
X108943113Y-131366012D01*
X108874616Y-131380578D01*
X108791764Y-131390539D01*
X108702371Y-131395583D01*
X108614248Y-131395396D01*
X108535207Y-131389666D01*
X108497511Y-131383858D01*
X108359414Y-131345797D01*
X108232113Y-131288073D01*
X108116292Y-131211211D01*
X108012637Y-131115739D01*
X107921833Y-131002179D01*
X107855031Y-130891381D01*
X107800164Y-130774625D01*
X107758163Y-130655276D01*
X107728167Y-130529283D01*
X107709311Y-130392594D01*
X107700732Y-130241158D01*
X107700006Y-130163711D01*
X107702100Y-130106934D01*
X108531217Y-130106934D01*
X108531424Y-130200002D01*
X108534337Y-130287692D01*
X108540000Y-130364772D01*
X108548455Y-130426009D01*
X108551038Y-130438350D01*
X108582840Y-130545633D01*
X108624498Y-130632658D01*
X108676363Y-130699642D01*
X108738781Y-130746805D01*
X108812100Y-130774365D01*
X108896669Y-130782541D01*
X108992835Y-130771551D01*
X109056311Y-130755829D01*
X109105454Y-130737639D01*
X109159583Y-130711791D01*
X109200244Y-130688089D01*
X109270800Y-130641721D01*
X109270800Y-129491530D01*
X109203392Y-129447962D01*
X109124867Y-129407040D01*
X109040681Y-129380389D01*
X108955557Y-129368465D01*
X108874216Y-129371722D01*
X108801380Y-129390615D01*
X108769426Y-129406184D01*
X108711501Y-129449181D01*
X108662544Y-129505953D01*
X108621390Y-129578575D01*
X108586874Y-129669121D01*
X108557833Y-129779666D01*
X108556552Y-129785533D01*
X108546381Y-129847788D01*
X108538739Y-129925594D01*
X108533670Y-130013720D01*
X108531217Y-130106934D01*
X107702100Y-130106934D01*
X107707857Y-129950895D01*
X107729802Y-129755059D01*
X107765786Y-129576332D01*
X107815759Y-129414845D01*
X107879668Y-129270726D01*
X107957462Y-129144106D01*
X108049089Y-129035115D01*
X108154497Y-128943883D01*
X108199662Y-128912932D01*
X108300611Y-128856785D01*
X108403901Y-128817174D01*
X108513989Y-128793014D01*
X108635330Y-128783219D01*
X108727836Y-128784265D01*
X108857490Y-128795231D01*
X108970084Y-128817046D01*
X109068875Y-128850714D01*
X109157121Y-128897236D01*
X109205986Y-128931448D01*
X109235353Y-128953362D01*
X109257043Y-128968333D01*
X109265253Y-128972733D01*
X109266868Y-128961904D01*
X109268159Y-128931251D01*
X109269138Y-128883526D01*
X109269817Y-128821479D01*
X109270210Y-128747862D01*
X109270330Y-128665427D01*
X109270188Y-128576925D01*
X109269797Y-128485107D01*
X109269171Y-128392724D01*
X109268320Y-128302528D01*
X109267260Y-128217271D01*
X109266001Y-128139703D01*
X109264556Y-128072576D01*
X109262938Y-128018641D01*
X109261161Y-127980650D01*
X109260669Y-127973667D01*
X109253092Y-127903251D01*
X109241531Y-127848102D01*
X109223792Y-127800981D01*
X109197682Y-127754647D01*
X109191415Y-127745067D01*
X109166983Y-127708378D01*
X110072311Y-127708378D01*
X110072507Y-129393245D01*
G36*
X106559574Y-128787552D02*
X106711492Y-128807567D01*
X106846756Y-128841202D01*
X106966239Y-128888725D01*
X107070815Y-128950405D01*
X107148424Y-129013965D01*
X107217265Y-129088099D01*
X107271006Y-129167871D01*
X107313910Y-129260091D01*
X107329384Y-129303161D01*
X107342244Y-129342142D01*
X107353446Y-129378289D01*
X107363120Y-129413434D01*
X107371396Y-129449410D01*
X107378403Y-129488050D01*
X107384272Y-129531185D01*
X107389131Y-129580649D01*
X107393110Y-129638273D01*
X107396340Y-129705891D01*
X107398949Y-129785334D01*
X107401067Y-129878436D01*
X107402824Y-129987027D01*
X107404349Y-130112942D01*
X107405772Y-130258012D01*
X107407025Y-130400778D01*
X107408351Y-130556968D01*
X107409556Y-130692239D01*
X107410766Y-130808246D01*
X107412106Y-130906645D01*
X107413700Y-130989093D01*
X107415675Y-131057246D01*
X107418156Y-131112760D01*
X107421269Y-131157292D01*
X107425138Y-131192498D01*
X107429889Y-131220034D01*
X107435648Y-131241556D01*
X107442539Y-131258722D01*
X107450689Y-131273186D01*
X107460223Y-131286606D01*
X107471266Y-131300638D01*
X107475566Y-131306071D01*
X107491386Y-131328910D01*
X107498422Y-131344463D01*
X107498444Y-131344922D01*
X107487567Y-131347121D01*
X107456582Y-131349147D01*
X107407957Y-131350942D01*
X107344163Y-131352451D01*
X107267669Y-131353616D01*
X107180944Y-131354380D01*
X107086457Y-131354686D01*
X107075550Y-131354689D01*
X106652657Y-131354689D01*
X106649395Y-131258622D01*
X106646133Y-131162556D01*
X106584044Y-131213543D01*
X106486714Y-131281057D01*
X106376813Y-131335749D01*
X106290349Y-131365978D01*
X106221278Y-131380666D01*
X106137925Y-131390659D01*
X106048159Y-131395646D01*
X105959845Y-131395313D01*
X105880851Y-131389351D01*
X105844622Y-131383638D01*
X105704603Y-131345776D01*
X105578178Y-131290932D01*
X105466260Y-131219924D01*
X105369762Y-131133568D01*
X105289600Y-131032679D01*
X105226687Y-130918076D01*
X105182312Y-130791984D01*
X105169978Y-130735401D01*
X105162368Y-130673202D01*
X105158739Y-130598363D01*
X105158245Y-130564467D01*
X105158310Y-130561282D01*
X105918248Y-130561282D01*
X105927541Y-130636333D01*
X105955728Y-130700160D01*
X106004197Y-130755798D01*
X106009254Y-130760211D01*
X106057548Y-130795037D01*
X106109257Y-130817620D01*
X106169989Y-130829540D01*
X106245352Y-130832383D01*
X106263459Y-130831978D01*
X106317278Y-130829325D01*
X106357308Y-130823909D01*
X106392324Y-130813745D01*
X106431103Y-130796850D01*
X106441745Y-130791672D01*
X106502396Y-130755844D01*
X106549215Y-130713212D01*
X106561952Y-130697973D01*
X106606622Y-130641462D01*
X106606622Y-130445586D01*
X106606086Y-130366939D01*
X106604396Y-130308988D01*
X106601428Y-130269875D01*
X106597057Y-130247741D01*
X106592972Y-130241274D01*
X106577047Y-130238111D01*
X106543264Y-130235488D01*
X106496340Y-130233655D01*
X106440993Y-130232857D01*
X106432106Y-130232842D01*
X106311330Y-130238096D01*
X106208660Y-130254263D01*
X106122106Y-130281961D01*
X106049681Y-130321808D01*
X105994751Y-130368758D01*
X105950204Y-130426645D01*
X105925480Y-130489693D01*
X105918248Y-130561282D01*
X105158310Y-130561282D01*
X105160178Y-130470712D01*
X105168522Y-130391812D01*
X105184768Y-130320590D01*
X105210405Y-130249864D01*
X105234401Y-130197493D01*
X105293020Y-130102196D01*
X105371117Y-130014170D01*
X105466315Y-129935017D01*
X105576238Y-129866340D01*
X105698510Y-129809741D01*
X105830755Y-129766821D01*
X105895422Y-129751882D01*
X106031604Y-129729777D01*
X106180049Y-129715194D01*
X106331505Y-129708813D01*
X106458064Y-129710445D01*
X106619950Y-129717224D01*
X106612530Y-129658245D01*
X106593238Y-129559092D01*
X106562104Y-129478372D01*
X106518269Y-129415466D01*
X106460871Y-129369756D01*
X106389048Y-129340622D01*
X106301941Y-129327447D01*
X106198686Y-129329611D01*
X106160711Y-129333612D01*
X106019520Y-129358780D01*
X105882707Y-129399814D01*
X105788178Y-129437815D01*
X105743018Y-129457190D01*
X105704585Y-129472760D01*
X105678234Y-129482405D01*
X105670546Y-129484452D01*
X105660802Y-129475374D01*
X105644083Y-129446405D01*
X105620232Y-129397217D01*
X105589093Y-129327484D01*
X105550507Y-129236879D01*
X105543910Y-129221089D01*
X105513853Y-129148772D01*
X105486874Y-129083425D01*
X105464136Y-129027906D01*
X105446806Y-128985072D01*
X105436048Y-128957781D01*
X105432941Y-128948942D01*
X105442940Y-128944187D01*
X105469217Y-128938910D01*
X105497489Y-128935231D01*
X105527646Y-128930474D01*
X105575433Y-128921028D01*
X105636612Y-128907820D01*
X105706946Y-128891776D01*
X105782194Y-128873820D01*
X105810755Y-128866797D01*
X105915816Y-128841209D01*
X106003480Y-128821147D01*
X106078068Y-128805969D01*
X106143903Y-128795035D01*
X106205307Y-128787704D01*
X106266602Y-128783335D01*
X106332110Y-128781287D01*
X106390128Y-128780889D01*
X106559574Y-128787552D01*
X106559574Y-128787552D01*
G37*
X106559574Y-128787552D02*
X106711492Y-128807567D01*
X106846756Y-128841202D01*
X106966239Y-128888725D01*
X107070815Y-128950405D01*
X107148424Y-129013965D01*
X107217265Y-129088099D01*
X107271006Y-129167871D01*
X107313910Y-129260091D01*
X107329384Y-129303161D01*
X107342244Y-129342142D01*
X107353446Y-129378289D01*
X107363120Y-129413434D01*
X107371396Y-129449410D01*
X107378403Y-129488050D01*
X107384272Y-129531185D01*
X107389131Y-129580649D01*
X107393110Y-129638273D01*
X107396340Y-129705891D01*
X107398949Y-129785334D01*
X107401067Y-129878436D01*
X107402824Y-129987027D01*
X107404349Y-130112942D01*
X107405772Y-130258012D01*
X107407025Y-130400778D01*
X107408351Y-130556968D01*
X107409556Y-130692239D01*
X107410766Y-130808246D01*
X107412106Y-130906645D01*
X107413700Y-130989093D01*
X107415675Y-131057246D01*
X107418156Y-131112760D01*
X107421269Y-131157292D01*
X107425138Y-131192498D01*
X107429889Y-131220034D01*
X107435648Y-131241556D01*
X107442539Y-131258722D01*
X107450689Y-131273186D01*
X107460223Y-131286606D01*
X107471266Y-131300638D01*
X107475566Y-131306071D01*
X107491386Y-131328910D01*
X107498422Y-131344463D01*
X107498444Y-131344922D01*
X107487567Y-131347121D01*
X107456582Y-131349147D01*
X107407957Y-131350942D01*
X107344163Y-131352451D01*
X107267669Y-131353616D01*
X107180944Y-131354380D01*
X107086457Y-131354686D01*
X107075550Y-131354689D01*
X106652657Y-131354689D01*
X106649395Y-131258622D01*
X106646133Y-131162556D01*
X106584044Y-131213543D01*
X106486714Y-131281057D01*
X106376813Y-131335749D01*
X106290349Y-131365978D01*
X106221278Y-131380666D01*
X106137925Y-131390659D01*
X106048159Y-131395646D01*
X105959845Y-131395313D01*
X105880851Y-131389351D01*
X105844622Y-131383638D01*
X105704603Y-131345776D01*
X105578178Y-131290932D01*
X105466260Y-131219924D01*
X105369762Y-131133568D01*
X105289600Y-131032679D01*
X105226687Y-130918076D01*
X105182312Y-130791984D01*
X105169978Y-130735401D01*
X105162368Y-130673202D01*
X105158739Y-130598363D01*
X105158245Y-130564467D01*
X105158310Y-130561282D01*
X105918248Y-130561282D01*
X105927541Y-130636333D01*
X105955728Y-130700160D01*
X106004197Y-130755798D01*
X106009254Y-130760211D01*
X106057548Y-130795037D01*
X106109257Y-130817620D01*
X106169989Y-130829540D01*
X106245352Y-130832383D01*
X106263459Y-130831978D01*
X106317278Y-130829325D01*
X106357308Y-130823909D01*
X106392324Y-130813745D01*
X106431103Y-130796850D01*
X106441745Y-130791672D01*
X106502396Y-130755844D01*
X106549215Y-130713212D01*
X106561952Y-130697973D01*
X106606622Y-130641462D01*
X106606622Y-130445586D01*
X106606086Y-130366939D01*
X106604396Y-130308988D01*
X106601428Y-130269875D01*
X106597057Y-130247741D01*
X106592972Y-130241274D01*
X106577047Y-130238111D01*
X106543264Y-130235488D01*
X106496340Y-130233655D01*
X106440993Y-130232857D01*
X106432106Y-130232842D01*
X106311330Y-130238096D01*
X106208660Y-130254263D01*
X106122106Y-130281961D01*
X106049681Y-130321808D01*
X105994751Y-130368758D01*
X105950204Y-130426645D01*
X105925480Y-130489693D01*
X105918248Y-130561282D01*
X105158310Y-130561282D01*
X105160178Y-130470712D01*
X105168522Y-130391812D01*
X105184768Y-130320590D01*
X105210405Y-130249864D01*
X105234401Y-130197493D01*
X105293020Y-130102196D01*
X105371117Y-130014170D01*
X105466315Y-129935017D01*
X105576238Y-129866340D01*
X105698510Y-129809741D01*
X105830755Y-129766821D01*
X105895422Y-129751882D01*
X106031604Y-129729777D01*
X106180049Y-129715194D01*
X106331505Y-129708813D01*
X106458064Y-129710445D01*
X106619950Y-129717224D01*
X106612530Y-129658245D01*
X106593238Y-129559092D01*
X106562104Y-129478372D01*
X106518269Y-129415466D01*
X106460871Y-129369756D01*
X106389048Y-129340622D01*
X106301941Y-129327447D01*
X106198686Y-129329611D01*
X106160711Y-129333612D01*
X106019520Y-129358780D01*
X105882707Y-129399814D01*
X105788178Y-129437815D01*
X105743018Y-129457190D01*
X105704585Y-129472760D01*
X105678234Y-129482405D01*
X105670546Y-129484452D01*
X105660802Y-129475374D01*
X105644083Y-129446405D01*
X105620232Y-129397217D01*
X105589093Y-129327484D01*
X105550507Y-129236879D01*
X105543910Y-129221089D01*
X105513853Y-129148772D01*
X105486874Y-129083425D01*
X105464136Y-129027906D01*
X105446806Y-128985072D01*
X105436048Y-128957781D01*
X105432941Y-128948942D01*
X105442940Y-128944187D01*
X105469217Y-128938910D01*
X105497489Y-128935231D01*
X105527646Y-128930474D01*
X105575433Y-128921028D01*
X105636612Y-128907820D01*
X105706946Y-128891776D01*
X105782194Y-128873820D01*
X105810755Y-128866797D01*
X105915816Y-128841209D01*
X106003480Y-128821147D01*
X106078068Y-128805969D01*
X106143903Y-128795035D01*
X106205307Y-128787704D01*
X106266602Y-128783335D01*
X106332110Y-128781287D01*
X106390128Y-128780889D01*
X106559574Y-128787552D01*
G36*
X104214429Y-127870071D02*
X104374570Y-127891245D01*
X104538510Y-127931385D01*
X104708313Y-127990889D01*
X104886043Y-128070154D01*
X104897310Y-128075699D01*
X104955005Y-128103725D01*
X105006552Y-128127802D01*
X105048191Y-128146249D01*
X105076162Y-128157386D01*
X105085733Y-128159933D01*
X105104950Y-128164941D01*
X105109561Y-128169147D01*
X105104458Y-128179580D01*
X105088418Y-128205868D01*
X105063288Y-128245257D01*
X105030914Y-128294991D01*
X104993143Y-128352315D01*
X104951822Y-128414476D01*
X104908798Y-128478718D01*
X104865917Y-128542285D01*
X104825026Y-128602425D01*
X104787971Y-128656380D01*
X104756600Y-128701397D01*
X104732759Y-128734721D01*
X104718294Y-128753597D01*
X104716309Y-128755787D01*
X104706191Y-128751138D01*
X104683850Y-128733962D01*
X104653280Y-128707440D01*
X104637536Y-128692964D01*
X104541047Y-128617682D01*
X104434336Y-128562241D01*
X104318832Y-128527141D01*
X104195962Y-128512880D01*
X104126561Y-128514051D01*
X104005423Y-128531212D01*
X103896205Y-128567094D01*
X103798582Y-128621959D01*
X103712228Y-128696070D01*
X103636815Y-128789688D01*
X103572018Y-128903076D01*
X103534601Y-128989667D01*
X103490748Y-129125366D01*
X103458428Y-129272850D01*
X103437557Y-129428314D01*
X103428051Y-129587956D01*
X103429827Y-129747973D01*
X103442803Y-129904561D01*
X103466894Y-130053918D01*
X103502018Y-130192240D01*
X103548092Y-130315724D01*
X103564373Y-130349978D01*
X103632620Y-130464064D01*
X103713079Y-130560557D01*
X103804570Y-130638670D01*
X103905911Y-130697617D01*
X104015920Y-130736612D01*
X104133415Y-130754868D01*
X104174883Y-130756211D01*
X104296441Y-130745290D01*
X104416878Y-130712474D01*
X104534666Y-130658439D01*
X104648277Y-130583865D01*
X104739685Y-130505539D01*
X104786215Y-130461008D01*
X104967483Y-130758271D01*
X105012580Y-130832433D01*
X105053819Y-130900646D01*
X105089735Y-130960459D01*
X105118866Y-131009420D01*
X105139750Y-131045079D01*
X105150924Y-131064984D01*
X105152375Y-131068079D01*
X105144146Y-131077718D01*
X105118567Y-131094999D01*
X105078873Y-131118283D01*
X105028297Y-131145934D01*
X104970074Y-131176315D01*
X104907437Y-131207790D01*
X104843621Y-131238722D01*
X104781860Y-131267473D01*
X104725388Y-131292408D01*
X104677438Y-131311889D01*
X104653986Y-131320318D01*
X104520221Y-131358133D01*
X104382327Y-131383136D01*
X104234622Y-131396140D01*
X104107833Y-131398468D01*
X104039878Y-131397373D01*
X103974277Y-131395275D01*
X103916847Y-131392434D01*
X103873403Y-131389106D01*
X103859298Y-131387422D01*
X103720284Y-131358587D01*
X103578757Y-131313468D01*
X103441275Y-131254750D01*
X103314394Y-131185120D01*
X103236889Y-131132441D01*
X103109481Y-131024239D01*
X102991178Y-130897671D01*
X102884172Y-130755866D01*
X102790652Y-130601951D01*
X102712810Y-130439053D01*
X102668956Y-130321756D01*
X102618708Y-130138128D01*
X102585209Y-129943581D01*
X102568449Y-129742325D01*
X102568416Y-129538568D01*
X102585101Y-129336521D01*
X102618493Y-129140392D01*
X102668580Y-128954391D01*
X102672397Y-128942803D01*
X102735281Y-128780750D01*
X102812028Y-128632832D01*
X102905242Y-128494865D01*
X103017527Y-128362661D01*
X103061392Y-128317399D01*
X103197534Y-128193457D01*
X103337491Y-128090915D01*
X103483411Y-128008656D01*
X103637442Y-127945564D01*
X103801732Y-127900523D01*
X103897289Y-127883033D01*
X104056023Y-127867466D01*
X104214429Y-127870071D01*
X104214429Y-127870071D01*
G37*
X104214429Y-127870071D02*
X104374570Y-127891245D01*
X104538510Y-127931385D01*
X104708313Y-127990889D01*
X104886043Y-128070154D01*
X104897310Y-128075699D01*
X104955005Y-128103725D01*
X105006552Y-128127802D01*
X105048191Y-128146249D01*
X105076162Y-128157386D01*
X105085733Y-128159933D01*
X105104950Y-128164941D01*
X105109561Y-128169147D01*
X105104458Y-128179580D01*
X105088418Y-128205868D01*
X105063288Y-128245257D01*
X105030914Y-128294991D01*
X104993143Y-128352315D01*
X104951822Y-128414476D01*
X104908798Y-128478718D01*
X104865917Y-128542285D01*
X104825026Y-128602425D01*
X104787971Y-128656380D01*
X104756600Y-128701397D01*
X104732759Y-128734721D01*
X104718294Y-128753597D01*
X104716309Y-128755787D01*
X104706191Y-128751138D01*
X104683850Y-128733962D01*
X104653280Y-128707440D01*
X104637536Y-128692964D01*
X104541047Y-128617682D01*
X104434336Y-128562241D01*
X104318832Y-128527141D01*
X104195962Y-128512880D01*
X104126561Y-128514051D01*
X104005423Y-128531212D01*
X103896205Y-128567094D01*
X103798582Y-128621959D01*
X103712228Y-128696070D01*
X103636815Y-128789688D01*
X103572018Y-128903076D01*
X103534601Y-128989667D01*
X103490748Y-129125366D01*
X103458428Y-129272850D01*
X103437557Y-129428314D01*
X103428051Y-129587956D01*
X103429827Y-129747973D01*
X103442803Y-129904561D01*
X103466894Y-130053918D01*
X103502018Y-130192240D01*
X103548092Y-130315724D01*
X103564373Y-130349978D01*
X103632620Y-130464064D01*
X103713079Y-130560557D01*
X103804570Y-130638670D01*
X103905911Y-130697617D01*
X104015920Y-130736612D01*
X104133415Y-130754868D01*
X104174883Y-130756211D01*
X104296441Y-130745290D01*
X104416878Y-130712474D01*
X104534666Y-130658439D01*
X104648277Y-130583865D01*
X104739685Y-130505539D01*
X104786215Y-130461008D01*
X104967483Y-130758271D01*
X105012580Y-130832433D01*
X105053819Y-130900646D01*
X105089735Y-130960459D01*
X105118866Y-131009420D01*
X105139750Y-131045079D01*
X105150924Y-131064984D01*
X105152375Y-131068079D01*
X105144146Y-131077718D01*
X105118567Y-131094999D01*
X105078873Y-131118283D01*
X105028297Y-131145934D01*
X104970074Y-131176315D01*
X104907437Y-131207790D01*
X104843621Y-131238722D01*
X104781860Y-131267473D01*
X104725388Y-131292408D01*
X104677438Y-131311889D01*
X104653986Y-131320318D01*
X104520221Y-131358133D01*
X104382327Y-131383136D01*
X104234622Y-131396140D01*
X104107833Y-131398468D01*
X104039878Y-131397373D01*
X103974277Y-131395275D01*
X103916847Y-131392434D01*
X103873403Y-131389106D01*
X103859298Y-131387422D01*
X103720284Y-131358587D01*
X103578757Y-131313468D01*
X103441275Y-131254750D01*
X103314394Y-131185120D01*
X103236889Y-131132441D01*
X103109481Y-131024239D01*
X102991178Y-130897671D01*
X102884172Y-130755866D01*
X102790652Y-130601951D01*
X102712810Y-130439053D01*
X102668956Y-130321756D01*
X102618708Y-130138128D01*
X102585209Y-129943581D01*
X102568449Y-129742325D01*
X102568416Y-129538568D01*
X102585101Y-129336521D01*
X102618493Y-129140392D01*
X102668580Y-128954391D01*
X102672397Y-128942803D01*
X102735281Y-128780750D01*
X102812028Y-128632832D01*
X102905242Y-128494865D01*
X103017527Y-128362661D01*
X103061392Y-128317399D01*
X103197534Y-128193457D01*
X103337491Y-128090915D01*
X103483411Y-128008656D01*
X103637442Y-127945564D01*
X103801732Y-127900523D01*
X103897289Y-127883033D01*
X104056023Y-127867466D01*
X104214429Y-127870071D01*
G36*
X100939600Y-127410054D02*
X100950465Y-127523993D01*
X100982082Y-127631616D01*
X101032985Y-127730615D01*
X101101707Y-127818684D01*
X101186781Y-127893516D01*
X101283768Y-127951384D01*
X101390036Y-127991005D01*
X101497050Y-128009573D01*
X101602700Y-128008434D01*
X101704875Y-127988930D01*
X101801466Y-127952406D01*
X101890362Y-127900205D01*
X101969454Y-127833673D01*
X102036631Y-127754152D01*
X102089783Y-127662987D01*
X102126801Y-127561523D01*
X102145573Y-127451102D01*
X102147511Y-127401206D01*
X102147511Y-127313267D01*
X102199440Y-127313267D01*
X102235747Y-127316111D01*
X102262645Y-127327911D01*
X102289751Y-127351649D01*
X102328133Y-127390031D01*
X102328133Y-129581602D01*
X102328124Y-129843739D01*
X102328092Y-130084241D01*
X102328028Y-130304048D01*
X102327924Y-130504101D01*
X102327773Y-130685344D01*
X102327566Y-130848716D01*
X102327294Y-130995160D01*
X102326950Y-131125617D01*
X102326526Y-131241029D01*
X102326013Y-131342338D01*
X102325403Y-131430484D01*
X102324688Y-131506410D01*
X102323860Y-131571057D01*
X102322911Y-131625367D01*
X102321833Y-131670280D01*
X102320617Y-131706740D01*
X102319255Y-131735687D01*
X102317739Y-131758063D01*
X102316062Y-131774809D01*
X102314214Y-131786868D01*
X102312187Y-131795180D01*
X102309975Y-131800687D01*
X102308892Y-131802537D01*
X102304729Y-131809549D01*
X102301195Y-131815996D01*
X102297365Y-131821900D01*
X102292318Y-131827286D01*
X102285129Y-131832178D01*
X102274877Y-131836598D01*
X102260636Y-131840572D01*
X102241486Y-131844121D01*
X102216501Y-131847270D01*
X102184760Y-131850042D01*
X102145338Y-131852461D01*
X102097314Y-131854551D01*
X102039763Y-131856335D01*
X101971763Y-131857837D01*
X101892390Y-131859080D01*
X101800721Y-131860089D01*
X101695834Y-131860885D01*
X101576804Y-131861494D01*
X101442710Y-131861939D01*
X101292627Y-131862243D01*
X101125633Y-131862430D01*
X100940804Y-131862524D01*
X100737217Y-131862548D01*
X100513950Y-131862525D01*
X100270078Y-131862480D01*
X100004679Y-131862437D01*
X99966296Y-131862432D01*
X99699318Y-131862389D01*
X99453998Y-131862318D01*
X99229417Y-131862213D01*
X99024655Y-131862066D01*
X98838794Y-131861869D01*
X98670912Y-131861616D01*
X98520092Y-131861300D01*
X98385413Y-131860913D01*
X98265956Y-131860447D01*
X98160801Y-131859897D01*
X98069029Y-131859253D01*
X97989721Y-131858511D01*
X97921957Y-131857661D01*
X97864818Y-131856697D01*
X97817383Y-131855611D01*
X97778734Y-131854397D01*
X97747951Y-131853047D01*
X97724115Y-131851555D01*
X97706306Y-131849911D01*
X97693605Y-131848111D01*
X97685092Y-131846145D01*
X97680734Y-131844477D01*
X97672272Y-131840906D01*
X97664503Y-131838270D01*
X97657398Y-131835634D01*
X97650927Y-131832062D01*
X97645061Y-131826621D01*
X97639771Y-131818375D01*
X97635026Y-131806390D01*
X97630798Y-131789731D01*
X97627057Y-131767463D01*
X97623773Y-131738652D01*
X97620917Y-131702363D01*
X97618460Y-131657661D01*
X97616371Y-131603611D01*
X97614622Y-131539279D01*
X97613183Y-131463730D01*
X97612024Y-131376030D01*
X97611117Y-131275243D01*
X97610431Y-131160434D01*
X97609937Y-131030670D01*
X97609605Y-130885015D01*
X97609407Y-130722535D01*
X97609313Y-130542295D01*
X97609292Y-130343360D01*
X97609315Y-130124796D01*
X97609354Y-129885668D01*
X97609378Y-129625040D01*
X97609378Y-129582889D01*
X97609364Y-129319992D01*
X97609339Y-129078732D01*
X97609329Y-128858165D01*
X97609358Y-128657352D01*
X97609452Y-128475349D01*
X97609638Y-128311216D01*
X97609941Y-128164011D01*
X97610386Y-128032792D01*
X97610966Y-127922867D01*
X97913803Y-127922867D01*
X97953593Y-127980711D01*
X97964764Y-127996479D01*
X97974834Y-128010441D01*
X97983862Y-128023784D01*
X97991903Y-128037693D01*
X97999014Y-128053356D01*
X98005253Y-128071958D01*
X98010675Y-128094686D01*
X98015338Y-128122727D01*
X98019299Y-128157267D01*
X98022615Y-128199492D01*
X98025341Y-128250589D01*
X98027536Y-128311744D01*
X98029255Y-128384144D01*
X98030556Y-128468975D01*
X98031495Y-128567422D01*
X98032130Y-128680674D01*
X98032516Y-128809916D01*
X98032712Y-128956334D01*
X98032773Y-129121116D01*
X98032757Y-129305447D01*
X98032720Y-129510513D01*
X98032711Y-129633133D01*
X98032735Y-129850082D01*
X98032769Y-130045642D01*
X98032757Y-130220999D01*
X98032642Y-130377341D01*
X98032370Y-130515857D01*
X98031882Y-130637734D01*
X98031124Y-130744160D01*
X98030038Y-130836322D01*
X98028569Y-130915409D01*
X98026660Y-130982608D01*
X98024256Y-131039107D01*
X98021299Y-131086093D01*
X98017734Y-131124755D01*
X98013505Y-131156280D01*
X98008554Y-131181855D01*
X98002827Y-131202670D01*
X97996267Y-131219911D01*
X97988817Y-131234765D01*
X97980421Y-131248422D01*
X97971024Y-131262069D01*
X97960568Y-131276893D01*
X97954477Y-131285783D01*
X97915704Y-131343400D01*
X98447268Y-131343400D01*
X98570517Y-131343365D01*
X98673013Y-131343215D01*
X98756580Y-131342878D01*
X98823044Y-131342286D01*
X98874229Y-131341367D01*
X98911959Y-131340051D01*
X98938060Y-131338269D01*
X98954356Y-131335951D01*
X98962672Y-131333026D01*
X98964832Y-131329424D01*
X98962661Y-131325075D01*
X98961465Y-131323645D01*
X98936315Y-131286573D01*
X98910417Y-131233772D01*
X98886808Y-131171770D01*
X98878539Y-131145357D01*
X98873922Y-131127416D01*
X98870021Y-131106355D01*
X98866752Y-131080089D01*
X98864034Y-131046532D01*
X98861785Y-131003599D01*
X98859923Y-130949204D01*
X98858364Y-130881262D01*
X98857028Y-130797688D01*
X98855831Y-130696395D01*
X98854692Y-130575300D01*
X98854315Y-130530600D01*
X98853298Y-130405449D01*
X98852540Y-130301082D01*
X98852097Y-130215707D01*
X98852030Y-130147533D01*
X98852395Y-130094765D01*
X98853252Y-130055614D01*
X98854659Y-130028285D01*
X98856675Y-130010986D01*
X98859357Y-130001926D01*
X98862764Y-129999312D01*
X98866956Y-130001351D01*
X98871429Y-130005667D01*
X98881784Y-130018602D01*
X98903842Y-130047676D01*
X98936043Y-130090759D01*
X98976826Y-130145718D01*
X99024630Y-130210423D01*
X99077895Y-130282742D01*
X99135060Y-130360544D01*
X99194563Y-130441698D01*
X99254845Y-130524072D01*
X99314345Y-130605536D01*
X99371502Y-130683957D01*
X99424755Y-130757204D01*
X99472543Y-130823147D01*
X99513307Y-130879654D01*
X99545484Y-130924593D01*
X99567515Y-130955834D01*
X99572083Y-130962466D01*
X99595004Y-130999369D01*
X99621812Y-131047359D01*
X99647211Y-131096897D01*
X99650432Y-131103577D01*
X99672110Y-131151772D01*
X99684696Y-131189334D01*
X99690426Y-131225160D01*
X99691544Y-131267200D01*
X99690910Y-131343400D01*
X100845349Y-131343400D01*
X100754185Y-131249669D01*
X100707388Y-131199775D01*
X100657101Y-131143295D01*
X100611056Y-131089026D01*
X100590631Y-131063673D01*
X100560193Y-131024128D01*
X100520138Y-130970916D01*
X100471639Y-130905667D01*
X100415865Y-130830011D01*
X100353989Y-130745577D01*
X100287181Y-130653994D01*
X100216613Y-130556892D01*
X100143455Y-130455901D01*
X100068879Y-130352650D01*
X99994056Y-130248768D01*
X99920157Y-130145885D01*
X99848354Y-130045631D01*
X99779816Y-129949636D01*
X99715716Y-129859527D01*
X99657225Y-129776936D01*
X99605514Y-129703492D01*
X99561753Y-129640824D01*
X99527115Y-129590561D01*
X99502770Y-129554334D01*
X99489889Y-129533771D01*
X99488131Y-129529668D01*
X99496090Y-129518342D01*
X99516885Y-129491162D01*
X99549153Y-129449829D01*
X99591530Y-129396044D01*
X99642653Y-129331506D01*
X99701159Y-129257918D01*
X99765686Y-129176978D01*
X99834869Y-129090388D01*
X99907347Y-128999848D01*
X99981754Y-128907060D01*
X100041483Y-128832702D01*
X101052489Y-128832702D01*
X101058398Y-128845659D01*
X101072728Y-128867908D01*
X101073775Y-128869391D01*
X101092562Y-128899544D01*
X101112209Y-128936375D01*
X101116108Y-128944511D01*
X101119644Y-128952940D01*
X101122770Y-128963059D01*
X101125514Y-128976260D01*
X101127908Y-128993938D01*
X101129981Y-129017484D01*
X101131765Y-129048293D01*
X101133288Y-129087757D01*
X101134581Y-129137269D01*
X101135674Y-129198223D01*
X101136597Y-129272011D01*
X101137381Y-129360028D01*
X101138055Y-129463665D01*
X101138650Y-129584316D01*
X101139195Y-129723374D01*
X101139721Y-129882232D01*
X101140255Y-130061089D01*
X101140794Y-130246207D01*
X101141228Y-130410145D01*
X101141491Y-130554303D01*
X101141516Y-130680079D01*
X101141235Y-130788871D01*
X101140581Y-130882077D01*
X101139486Y-130961097D01*
X101137882Y-131027328D01*
X101135703Y-131082170D01*
X101132881Y-131127021D01*
X101129349Y-131163278D01*
X101125039Y-131192341D01*
X101119883Y-131215609D01*
X101113815Y-131234479D01*
X101106767Y-131250351D01*
X101098671Y-131264622D01*
X101089460Y-131278691D01*
X101080960Y-131291158D01*
X101063824Y-131317452D01*
X101053678Y-131335037D01*
X101052489Y-131338257D01*
X101063396Y-131339334D01*
X101094589Y-131340335D01*
X101143777Y-131341235D01*
X101208667Y-131342010D01*
X101286970Y-131342637D01*
X101376393Y-131343091D01*
X101474644Y-131343349D01*
X101543555Y-131343400D01*
X101648548Y-131343180D01*
X101745390Y-131342548D01*
X101831893Y-131341549D01*
X101905868Y-131340227D01*
X101965126Y-131338626D01*
X102007480Y-131336791D01*
X102030740Y-131334765D01*
X102034622Y-131333493D01*
X102026924Y-131318591D01*
X102018926Y-131310560D01*
X102005754Y-131293434D01*
X101988515Y-131263183D01*
X101976593Y-131238622D01*
X101949955Y-131179711D01*
X101946880Y-130002845D01*
X101943805Y-128825978D01*
X101498147Y-128825978D01*
X101400330Y-128826142D01*
X101309936Y-128826611D01*
X101229370Y-128827347D01*
X101161038Y-128828316D01*
X101107344Y-128829480D01*
X101070695Y-128830803D01*
X101053496Y-128832249D01*
X101052489Y-128832702D01*
X100041483Y-128832702D01*
X100056730Y-128813722D01*
X100130910Y-128721537D01*
X100202931Y-128632204D01*
X100271431Y-128547424D01*
X100335045Y-128468898D01*
X100392412Y-128398326D01*
X100442167Y-128337409D01*
X100482948Y-128287847D01*
X100500112Y-128267178D01*
X100586404Y-128166516D01*
X100663003Y-128083259D01*
X100731817Y-128015438D01*
X100794752Y-127961089D01*
X100804133Y-127953722D01*
X100843644Y-127923117D01*
X99711884Y-127922867D01*
X99717173Y-127970844D01*
X99713870Y-128028188D01*
X99692339Y-128096463D01*
X99652365Y-128176212D01*
X99607057Y-128248495D01*
X99590839Y-128271140D01*
X99562786Y-128308696D01*
X99524570Y-128359021D01*
X99477863Y-128419973D01*
X99424339Y-128489411D01*
X99365669Y-128565194D01*
X99303525Y-128645180D01*
X99239579Y-128727228D01*
X99175505Y-128809196D01*
X99112973Y-128888943D01*
X99053657Y-128964327D01*
X98999229Y-129033207D01*
X98951361Y-129093442D01*
X98911725Y-129142889D01*
X98881994Y-129179408D01*
X98863839Y-129200858D01*
X98860780Y-129204156D01*
X98857921Y-129196149D01*
X98855707Y-129165855D01*
X98854143Y-129113556D01*
X98853233Y-129039531D01*
X98852980Y-128944063D01*
X98853387Y-128827434D01*
X98854296Y-128707445D01*
X98855618Y-128575333D01*
X98857143Y-128463594D01*
X98859119Y-128370025D01*
X98861794Y-128292419D01*
X98865418Y-128228574D01*
X98870239Y-128176283D01*
X98876506Y-128133344D01*
X98884468Y-128097551D01*
X98894373Y-128066700D01*
X98906469Y-128038586D01*
X98921007Y-128011005D01*
X98935689Y-127985966D01*
X98973686Y-127922867D01*
X97913803Y-127922867D01*
X97610966Y-127922867D01*
X97610999Y-127916617D01*
X97611805Y-127814544D01*
X97612830Y-127725633D01*
X97614100Y-127648941D01*
X97615640Y-127583527D01*
X97617476Y-127528449D01*
X97619633Y-127482765D01*
X97622137Y-127445534D01*
X97625013Y-127415813D01*
X97628287Y-127392662D01*
X97631985Y-127375139D01*
X97636131Y-127362301D01*
X97640753Y-127353208D01*
X97645874Y-127346918D01*
X97651522Y-127342488D01*
X97657721Y-127338978D01*
X97664496Y-127335445D01*
X97670492Y-127331876D01*
X97675725Y-127329300D01*
X97683901Y-127326972D01*
X97696114Y-127324878D01*
X97713459Y-127323007D01*
X97737031Y-127321347D01*
X97767923Y-127319884D01*
X97807232Y-127318608D01*
X97856050Y-127317504D01*
X97915473Y-127316561D01*
X97986596Y-127315767D01*
X98070512Y-127315109D01*
X98168317Y-127314575D01*
X98281106Y-127314153D01*
X98409971Y-127313829D01*
X98556009Y-127313592D01*
X98720314Y-127313430D01*
X98903980Y-127313330D01*
X99108103Y-127313280D01*
X99319247Y-127313267D01*
X100939600Y-127313267D01*
X100939600Y-127410054D01*
X100939600Y-127410054D01*
G37*
X100939600Y-127410054D02*
X100950465Y-127523993D01*
X100982082Y-127631616D01*
X101032985Y-127730615D01*
X101101707Y-127818684D01*
X101186781Y-127893516D01*
X101283768Y-127951384D01*
X101390036Y-127991005D01*
X101497050Y-128009573D01*
X101602700Y-128008434D01*
X101704875Y-127988930D01*
X101801466Y-127952406D01*
X101890362Y-127900205D01*
X101969454Y-127833673D01*
X102036631Y-127754152D01*
X102089783Y-127662987D01*
X102126801Y-127561523D01*
X102145573Y-127451102D01*
X102147511Y-127401206D01*
X102147511Y-127313267D01*
X102199440Y-127313267D01*
X102235747Y-127316111D01*
X102262645Y-127327911D01*
X102289751Y-127351649D01*
X102328133Y-127390031D01*
X102328133Y-129581602D01*
X102328124Y-129843739D01*
X102328092Y-130084241D01*
X102328028Y-130304048D01*
X102327924Y-130504101D01*
X102327773Y-130685344D01*
X102327566Y-130848716D01*
X102327294Y-130995160D01*
X102326950Y-131125617D01*
X102326526Y-131241029D01*
X102326013Y-131342338D01*
X102325403Y-131430484D01*
X102324688Y-131506410D01*
X102323860Y-131571057D01*
X102322911Y-131625367D01*
X102321833Y-131670280D01*
X102320617Y-131706740D01*
X102319255Y-131735687D01*
X102317739Y-131758063D01*
X102316062Y-131774809D01*
X102314214Y-131786868D01*
X102312187Y-131795180D01*
X102309975Y-131800687D01*
X102308892Y-131802537D01*
X102304729Y-131809549D01*
X102301195Y-131815996D01*
X102297365Y-131821900D01*
X102292318Y-131827286D01*
X102285129Y-131832178D01*
X102274877Y-131836598D01*
X102260636Y-131840572D01*
X102241486Y-131844121D01*
X102216501Y-131847270D01*
X102184760Y-131850042D01*
X102145338Y-131852461D01*
X102097314Y-131854551D01*
X102039763Y-131856335D01*
X101971763Y-131857837D01*
X101892390Y-131859080D01*
X101800721Y-131860089D01*
X101695834Y-131860885D01*
X101576804Y-131861494D01*
X101442710Y-131861939D01*
X101292627Y-131862243D01*
X101125633Y-131862430D01*
X100940804Y-131862524D01*
X100737217Y-131862548D01*
X100513950Y-131862525D01*
X100270078Y-131862480D01*
X100004679Y-131862437D01*
X99966296Y-131862432D01*
X99699318Y-131862389D01*
X99453998Y-131862318D01*
X99229417Y-131862213D01*
X99024655Y-131862066D01*
X98838794Y-131861869D01*
X98670912Y-131861616D01*
X98520092Y-131861300D01*
X98385413Y-131860913D01*
X98265956Y-131860447D01*
X98160801Y-131859897D01*
X98069029Y-131859253D01*
X97989721Y-131858511D01*
X97921957Y-131857661D01*
X97864818Y-131856697D01*
X97817383Y-131855611D01*
X97778734Y-131854397D01*
X97747951Y-131853047D01*
X97724115Y-131851555D01*
X97706306Y-131849911D01*
X97693605Y-131848111D01*
X97685092Y-131846145D01*
X97680734Y-131844477D01*
X97672272Y-131840906D01*
X97664503Y-131838270D01*
X97657398Y-131835634D01*
X97650927Y-131832062D01*
X97645061Y-131826621D01*
X97639771Y-131818375D01*
X97635026Y-131806390D01*
X97630798Y-131789731D01*
X97627057Y-131767463D01*
X97623773Y-131738652D01*
X97620917Y-131702363D01*
X97618460Y-131657661D01*
X97616371Y-131603611D01*
X97614622Y-131539279D01*
X97613183Y-131463730D01*
X97612024Y-131376030D01*
X97611117Y-131275243D01*
X97610431Y-131160434D01*
X97609937Y-131030670D01*
X97609605Y-130885015D01*
X97609407Y-130722535D01*
X97609313Y-130542295D01*
X97609292Y-130343360D01*
X97609315Y-130124796D01*
X97609354Y-129885668D01*
X97609378Y-129625040D01*
X97609378Y-129582889D01*
X97609364Y-129319992D01*
X97609339Y-129078732D01*
X97609329Y-128858165D01*
X97609358Y-128657352D01*
X97609452Y-128475349D01*
X97609638Y-128311216D01*
X97609941Y-128164011D01*
X97610386Y-128032792D01*
X97610966Y-127922867D01*
X97913803Y-127922867D01*
X97953593Y-127980711D01*
X97964764Y-127996479D01*
X97974834Y-128010441D01*
X97983862Y-128023784D01*
X97991903Y-128037693D01*
X97999014Y-128053356D01*
X98005253Y-128071958D01*
X98010675Y-128094686D01*
X98015338Y-128122727D01*
X98019299Y-128157267D01*
X98022615Y-128199492D01*
X98025341Y-128250589D01*
X98027536Y-128311744D01*
X98029255Y-128384144D01*
X98030556Y-128468975D01*
X98031495Y-128567422D01*
X98032130Y-128680674D01*
X98032516Y-128809916D01*
X98032712Y-128956334D01*
X98032773Y-129121116D01*
X98032757Y-129305447D01*
X98032720Y-129510513D01*
X98032711Y-129633133D01*
X98032735Y-129850082D01*
X98032769Y-130045642D01*
X98032757Y-130220999D01*
X98032642Y-130377341D01*
X98032370Y-130515857D01*
X98031882Y-130637734D01*
X98031124Y-130744160D01*
X98030038Y-130836322D01*
X98028569Y-130915409D01*
X98026660Y-130982608D01*
X98024256Y-131039107D01*
X98021299Y-131086093D01*
X98017734Y-131124755D01*
X98013505Y-131156280D01*
X98008554Y-131181855D01*
X98002827Y-131202670D01*
X97996267Y-131219911D01*
X97988817Y-131234765D01*
X97980421Y-131248422D01*
X97971024Y-131262069D01*
X97960568Y-131276893D01*
X97954477Y-131285783D01*
X97915704Y-131343400D01*
X98447268Y-131343400D01*
X98570517Y-131343365D01*
X98673013Y-131343215D01*
X98756580Y-131342878D01*
X98823044Y-131342286D01*
X98874229Y-131341367D01*
X98911959Y-131340051D01*
X98938060Y-131338269D01*
X98954356Y-131335951D01*
X98962672Y-131333026D01*
X98964832Y-131329424D01*
X98962661Y-131325075D01*
X98961465Y-131323645D01*
X98936315Y-131286573D01*
X98910417Y-131233772D01*
X98886808Y-131171770D01*
X98878539Y-131145357D01*
X98873922Y-131127416D01*
X98870021Y-131106355D01*
X98866752Y-131080089D01*
X98864034Y-131046532D01*
X98861785Y-131003599D01*
X98859923Y-130949204D01*
X98858364Y-130881262D01*
X98857028Y-130797688D01*
X98855831Y-130696395D01*
X98854692Y-130575300D01*
X98854315Y-130530600D01*
X98853298Y-130405449D01*
X98852540Y-130301082D01*
X98852097Y-130215707D01*
X98852030Y-130147533D01*
X98852395Y-130094765D01*
X98853252Y-130055614D01*
X98854659Y-130028285D01*
X98856675Y-130010986D01*
X98859357Y-130001926D01*
X98862764Y-129999312D01*
X98866956Y-130001351D01*
X98871429Y-130005667D01*
X98881784Y-130018602D01*
X98903842Y-130047676D01*
X98936043Y-130090759D01*
X98976826Y-130145718D01*
X99024630Y-130210423D01*
X99077895Y-130282742D01*
X99135060Y-130360544D01*
X99194563Y-130441698D01*
X99254845Y-130524072D01*
X99314345Y-130605536D01*
X99371502Y-130683957D01*
X99424755Y-130757204D01*
X99472543Y-130823147D01*
X99513307Y-130879654D01*
X99545484Y-130924593D01*
X99567515Y-130955834D01*
X99572083Y-130962466D01*
X99595004Y-130999369D01*
X99621812Y-131047359D01*
X99647211Y-131096897D01*
X99650432Y-131103577D01*
X99672110Y-131151772D01*
X99684696Y-131189334D01*
X99690426Y-131225160D01*
X99691544Y-131267200D01*
X99690910Y-131343400D01*
X100845349Y-131343400D01*
X100754185Y-131249669D01*
X100707388Y-131199775D01*
X100657101Y-131143295D01*
X100611056Y-131089026D01*
X100590631Y-131063673D01*
X100560193Y-131024128D01*
X100520138Y-130970916D01*
X100471639Y-130905667D01*
X100415865Y-130830011D01*
X100353989Y-130745577D01*
X100287181Y-130653994D01*
X100216613Y-130556892D01*
X100143455Y-130455901D01*
X100068879Y-130352650D01*
X99994056Y-130248768D01*
X99920157Y-130145885D01*
X99848354Y-130045631D01*
X99779816Y-129949636D01*
X99715716Y-129859527D01*
X99657225Y-129776936D01*
X99605514Y-129703492D01*
X99561753Y-129640824D01*
X99527115Y-129590561D01*
X99502770Y-129554334D01*
X99489889Y-129533771D01*
X99488131Y-129529668D01*
X99496090Y-129518342D01*
X99516885Y-129491162D01*
X99549153Y-129449829D01*
X99591530Y-129396044D01*
X99642653Y-129331506D01*
X99701159Y-129257918D01*
X99765686Y-129176978D01*
X99834869Y-129090388D01*
X99907347Y-128999848D01*
X99981754Y-128907060D01*
X100041483Y-128832702D01*
X101052489Y-128832702D01*
X101058398Y-128845659D01*
X101072728Y-128867908D01*
X101073775Y-128869391D01*
X101092562Y-128899544D01*
X101112209Y-128936375D01*
X101116108Y-128944511D01*
X101119644Y-128952940D01*
X101122770Y-128963059D01*
X101125514Y-128976260D01*
X101127908Y-128993938D01*
X101129981Y-129017484D01*
X101131765Y-129048293D01*
X101133288Y-129087757D01*
X101134581Y-129137269D01*
X101135674Y-129198223D01*
X101136597Y-129272011D01*
X101137381Y-129360028D01*
X101138055Y-129463665D01*
X101138650Y-129584316D01*
X101139195Y-129723374D01*
X101139721Y-129882232D01*
X101140255Y-130061089D01*
X101140794Y-130246207D01*
X101141228Y-130410145D01*
X101141491Y-130554303D01*
X101141516Y-130680079D01*
X101141235Y-130788871D01*
X101140581Y-130882077D01*
X101139486Y-130961097D01*
X101137882Y-131027328D01*
X101135703Y-131082170D01*
X101132881Y-131127021D01*
X101129349Y-131163278D01*
X101125039Y-131192341D01*
X101119883Y-131215609D01*
X101113815Y-131234479D01*
X101106767Y-131250351D01*
X101098671Y-131264622D01*
X101089460Y-131278691D01*
X101080960Y-131291158D01*
X101063824Y-131317452D01*
X101053678Y-131335037D01*
X101052489Y-131338257D01*
X101063396Y-131339334D01*
X101094589Y-131340335D01*
X101143777Y-131341235D01*
X101208667Y-131342010D01*
X101286970Y-131342637D01*
X101376393Y-131343091D01*
X101474644Y-131343349D01*
X101543555Y-131343400D01*
X101648548Y-131343180D01*
X101745390Y-131342548D01*
X101831893Y-131341549D01*
X101905868Y-131340227D01*
X101965126Y-131338626D01*
X102007480Y-131336791D01*
X102030740Y-131334765D01*
X102034622Y-131333493D01*
X102026924Y-131318591D01*
X102018926Y-131310560D01*
X102005754Y-131293434D01*
X101988515Y-131263183D01*
X101976593Y-131238622D01*
X101949955Y-131179711D01*
X101946880Y-130002845D01*
X101943805Y-128825978D01*
X101498147Y-128825978D01*
X101400330Y-128826142D01*
X101309936Y-128826611D01*
X101229370Y-128827347D01*
X101161038Y-128828316D01*
X101107344Y-128829480D01*
X101070695Y-128830803D01*
X101053496Y-128832249D01*
X101052489Y-128832702D01*
X100041483Y-128832702D01*
X100056730Y-128813722D01*
X100130910Y-128721537D01*
X100202931Y-128632204D01*
X100271431Y-128547424D01*
X100335045Y-128468898D01*
X100392412Y-128398326D01*
X100442167Y-128337409D01*
X100482948Y-128287847D01*
X100500112Y-128267178D01*
X100586404Y-128166516D01*
X100663003Y-128083259D01*
X100731817Y-128015438D01*
X100794752Y-127961089D01*
X100804133Y-127953722D01*
X100843644Y-127923117D01*
X99711884Y-127922867D01*
X99717173Y-127970844D01*
X99713870Y-128028188D01*
X99692339Y-128096463D01*
X99652365Y-128176212D01*
X99607057Y-128248495D01*
X99590839Y-128271140D01*
X99562786Y-128308696D01*
X99524570Y-128359021D01*
X99477863Y-128419973D01*
X99424339Y-128489411D01*
X99365669Y-128565194D01*
X99303525Y-128645180D01*
X99239579Y-128727228D01*
X99175505Y-128809196D01*
X99112973Y-128888943D01*
X99053657Y-128964327D01*
X98999229Y-129033207D01*
X98951361Y-129093442D01*
X98911725Y-129142889D01*
X98881994Y-129179408D01*
X98863839Y-129200858D01*
X98860780Y-129204156D01*
X98857921Y-129196149D01*
X98855707Y-129165855D01*
X98854143Y-129113556D01*
X98853233Y-129039531D01*
X98852980Y-128944063D01*
X98853387Y-128827434D01*
X98854296Y-128707445D01*
X98855618Y-128575333D01*
X98857143Y-128463594D01*
X98859119Y-128370025D01*
X98861794Y-128292419D01*
X98865418Y-128228574D01*
X98870239Y-128176283D01*
X98876506Y-128133344D01*
X98884468Y-128097551D01*
X98894373Y-128066700D01*
X98906469Y-128038586D01*
X98921007Y-128011005D01*
X98935689Y-127985966D01*
X98973686Y-127922867D01*
X97913803Y-127922867D01*
X97610966Y-127922867D01*
X97610999Y-127916617D01*
X97611805Y-127814544D01*
X97612830Y-127725633D01*
X97614100Y-127648941D01*
X97615640Y-127583527D01*
X97617476Y-127528449D01*
X97619633Y-127482765D01*
X97622137Y-127445534D01*
X97625013Y-127415813D01*
X97628287Y-127392662D01*
X97631985Y-127375139D01*
X97636131Y-127362301D01*
X97640753Y-127353208D01*
X97645874Y-127346918D01*
X97651522Y-127342488D01*
X97657721Y-127338978D01*
X97664496Y-127335445D01*
X97670492Y-127331876D01*
X97675725Y-127329300D01*
X97683901Y-127326972D01*
X97696114Y-127324878D01*
X97713459Y-127323007D01*
X97737031Y-127321347D01*
X97767923Y-127319884D01*
X97807232Y-127318608D01*
X97856050Y-127317504D01*
X97915473Y-127316561D01*
X97986596Y-127315767D01*
X98070512Y-127315109D01*
X98168317Y-127314575D01*
X98281106Y-127314153D01*
X98409971Y-127313829D01*
X98556009Y-127313592D01*
X98720314Y-127313430D01*
X98903980Y-127313330D01*
X99108103Y-127313280D01*
X99319247Y-127313267D01*
X100939600Y-127313267D01*
X100939600Y-127410054D01*
G36*
X110114823Y-132195533D02*
X110146202Y-132217776D01*
X110173911Y-132245485D01*
X110173911Y-132554920D01*
X110173838Y-132646799D01*
X110173495Y-132718840D01*
X110172692Y-132773780D01*
X110171241Y-132814360D01*
X110168952Y-132843317D01*
X110165636Y-132863391D01*
X110161105Y-132877321D01*
X110155169Y-132887845D01*
X110150514Y-132894100D01*
X110119783Y-132918673D01*
X110084496Y-132921341D01*
X110052245Y-132906271D01*
X110041588Y-132897374D01*
X110034464Y-132885557D01*
X110030167Y-132866526D01*
X110027991Y-132835992D01*
X110027228Y-132789662D01*
X110027155Y-132753871D01*
X110027155Y-132619045D01*
X109530444Y-132619045D01*
X109530444Y-132741700D01*
X109529931Y-132797787D01*
X109527876Y-132836333D01*
X109523508Y-132862361D01*
X109516056Y-132880897D01*
X109507047Y-132894100D01*
X109476144Y-132918604D01*
X109441196Y-132921506D01*
X109407738Y-132904089D01*
X109398604Y-132894959D01*
X109392152Y-132882855D01*
X109387897Y-132864001D01*
X109385352Y-132834620D01*
X109384029Y-132790937D01*
X109383443Y-132729175D01*
X109383375Y-132715000D01*
X109382891Y-132598631D01*
X109382641Y-132502727D01*
X109382723Y-132425177D01*
X109383231Y-132363869D01*
X109384262Y-132316690D01*
X109385913Y-132281530D01*
X109388279Y-132256276D01*
X109391457Y-132238817D01*
X109395544Y-132227041D01*
X109400634Y-132218835D01*
X109406266Y-132212645D01*
X109438128Y-132192844D01*
X109471357Y-132195533D01*
X109502735Y-132217776D01*
X109515433Y-132232126D01*
X109523526Y-132247978D01*
X109528042Y-132270554D01*
X109530006Y-132305078D01*
X109530444Y-132356776D01*
X109530444Y-132472289D01*
X110027155Y-132472289D01*
X110027155Y-132353756D01*
X110027662Y-132299148D01*
X110029698Y-132262275D01*
X110034035Y-132238307D01*
X110041447Y-132222415D01*
X110049733Y-132212645D01*
X110081594Y-132192844D01*
X110114823Y-132195533D01*
X110114823Y-132195533D01*
G37*
X110114823Y-132195533D02*
X110146202Y-132217776D01*
X110173911Y-132245485D01*
X110173911Y-132554920D01*
X110173838Y-132646799D01*
X110173495Y-132718840D01*
X110172692Y-132773780D01*
X110171241Y-132814360D01*
X110168952Y-132843317D01*
X110165636Y-132863391D01*
X110161105Y-132877321D01*
X110155169Y-132887845D01*
X110150514Y-132894100D01*
X110119783Y-132918673D01*
X110084496Y-132921341D01*
X110052245Y-132906271D01*
X110041588Y-132897374D01*
X110034464Y-132885557D01*
X110030167Y-132866526D01*
X110027991Y-132835992D01*
X110027228Y-132789662D01*
X110027155Y-132753871D01*
X110027155Y-132619045D01*
X109530444Y-132619045D01*
X109530444Y-132741700D01*
X109529931Y-132797787D01*
X109527876Y-132836333D01*
X109523508Y-132862361D01*
X109516056Y-132880897D01*
X109507047Y-132894100D01*
X109476144Y-132918604D01*
X109441196Y-132921506D01*
X109407738Y-132904089D01*
X109398604Y-132894959D01*
X109392152Y-132882855D01*
X109387897Y-132864001D01*
X109385352Y-132834620D01*
X109384029Y-132790937D01*
X109383443Y-132729175D01*
X109383375Y-132715000D01*
X109382891Y-132598631D01*
X109382641Y-132502727D01*
X109382723Y-132425177D01*
X109383231Y-132363869D01*
X109384262Y-132316690D01*
X109385913Y-132281530D01*
X109388279Y-132256276D01*
X109391457Y-132238817D01*
X109395544Y-132227041D01*
X109400634Y-132218835D01*
X109406266Y-132212645D01*
X109438128Y-132192844D01*
X109471357Y-132195533D01*
X109502735Y-132217776D01*
X109515433Y-132232126D01*
X109523526Y-132247978D01*
X109528042Y-132270554D01*
X109530006Y-132305078D01*
X109530444Y-132356776D01*
X109530444Y-132472289D01*
X110027155Y-132472289D01*
X110027155Y-132353756D01*
X110027662Y-132299148D01*
X110029698Y-132262275D01*
X110034035Y-132238307D01*
X110041447Y-132222415D01*
X110049733Y-132212645D01*
X110081594Y-132192844D01*
X110114823Y-132195533D01*
G36*
X108849065Y-132190163D02*
X108927772Y-132190542D01*
X108988863Y-132191333D01*
X109034817Y-132192670D01*
X109068114Y-132194683D01*
X109091236Y-132197506D01*
X109106662Y-132201269D01*
X109116871Y-132206105D01*
X109121813Y-132209822D01*
X109147457Y-132242358D01*
X109150559Y-132276138D01*
X109134711Y-132306826D01*
X109124348Y-132319089D01*
X109113196Y-132327450D01*
X109097035Y-132332657D01*
X109071642Y-132335457D01*
X109032798Y-132336596D01*
X108976280Y-132336821D01*
X108965180Y-132336822D01*
X108819244Y-132336822D01*
X108819244Y-132607756D01*
X108819148Y-132693154D01*
X108818711Y-132758864D01*
X108817712Y-132807774D01*
X108815928Y-132842773D01*
X108813137Y-132866749D01*
X108809117Y-132882593D01*
X108803645Y-132893191D01*
X108796666Y-132901267D01*
X108763734Y-132921112D01*
X108729354Y-132919548D01*
X108698176Y-132896906D01*
X108695886Y-132894100D01*
X108688429Y-132883492D01*
X108682747Y-132871081D01*
X108678601Y-132853850D01*
X108675750Y-132828784D01*
X108673954Y-132792867D01*
X108672972Y-132743083D01*
X108672564Y-132676417D01*
X108672489Y-132600589D01*
X108672489Y-132336822D01*
X108533127Y-132336822D01*
X108473322Y-132336418D01*
X108431918Y-132334840D01*
X108404748Y-132331547D01*
X108387646Y-132325992D01*
X108376443Y-132317631D01*
X108375083Y-132316178D01*
X108358725Y-132282939D01*
X108360172Y-132245362D01*
X108378978Y-132212645D01*
X108386250Y-132206298D01*
X108395627Y-132201266D01*
X108409609Y-132197396D01*
X108430696Y-132194537D01*
X108461389Y-132192535D01*
X108504189Y-132191239D01*
X108561595Y-132190498D01*
X108636110Y-132190158D01*
X108730233Y-132190068D01*
X108750260Y-132190067D01*
X108849065Y-132190163D01*
X108849065Y-132190163D01*
G37*
X108849065Y-132190163D02*
X108927772Y-132190542D01*
X108988863Y-132191333D01*
X109034817Y-132192670D01*
X109068114Y-132194683D01*
X109091236Y-132197506D01*
X109106662Y-132201269D01*
X109116871Y-132206105D01*
X109121813Y-132209822D01*
X109147457Y-132242358D01*
X109150559Y-132276138D01*
X109134711Y-132306826D01*
X109124348Y-132319089D01*
X109113196Y-132327450D01*
X109097035Y-132332657D01*
X109071642Y-132335457D01*
X109032798Y-132336596D01*
X108976280Y-132336821D01*
X108965180Y-132336822D01*
X108819244Y-132336822D01*
X108819244Y-132607756D01*
X108819148Y-132693154D01*
X108818711Y-132758864D01*
X108817712Y-132807774D01*
X108815928Y-132842773D01*
X108813137Y-132866749D01*
X108809117Y-132882593D01*
X108803645Y-132893191D01*
X108796666Y-132901267D01*
X108763734Y-132921112D01*
X108729354Y-132919548D01*
X108698176Y-132896906D01*
X108695886Y-132894100D01*
X108688429Y-132883492D01*
X108682747Y-132871081D01*
X108678601Y-132853850D01*
X108675750Y-132828784D01*
X108673954Y-132792867D01*
X108672972Y-132743083D01*
X108672564Y-132676417D01*
X108672489Y-132600589D01*
X108672489Y-132336822D01*
X108533127Y-132336822D01*
X108473322Y-132336418D01*
X108431918Y-132334840D01*
X108404748Y-132331547D01*
X108387646Y-132325992D01*
X108376443Y-132317631D01*
X108375083Y-132316178D01*
X108358725Y-132282939D01*
X108360172Y-132245362D01*
X108378978Y-132212645D01*
X108386250Y-132206298D01*
X108395627Y-132201266D01*
X108409609Y-132197396D01*
X108430696Y-132194537D01*
X108461389Y-132192535D01*
X108504189Y-132191239D01*
X108561595Y-132190498D01*
X108636110Y-132190158D01*
X108730233Y-132190068D01*
X108750260Y-132190067D01*
X108849065Y-132190163D01*
G36*
X108074614Y-132196877D02*
X108098327Y-132211647D01*
X108124978Y-132233227D01*
X108124978Y-132554773D01*
X108124893Y-132648830D01*
X108124529Y-132722932D01*
X108123724Y-132779704D01*
X108122313Y-132821768D01*
X108120133Y-132851748D01*
X108117021Y-132872267D01*
X108112814Y-132885949D01*
X108107348Y-132895416D01*
X108103472Y-132900082D01*
X108072034Y-132920575D01*
X108036233Y-132919739D01*
X108004873Y-132902264D01*
X107978222Y-132880684D01*
X107978222Y-132233227D01*
X108004873Y-132211647D01*
X108030594Y-132195949D01*
X108051600Y-132190067D01*
X108074614Y-132196877D01*
X108074614Y-132196877D01*
G37*
X108074614Y-132196877D02*
X108098327Y-132211647D01*
X108124978Y-132233227D01*
X108124978Y-132554773D01*
X108124893Y-132648830D01*
X108124529Y-132722932D01*
X108123724Y-132779704D01*
X108122313Y-132821768D01*
X108120133Y-132851748D01*
X108117021Y-132872267D01*
X108112814Y-132885949D01*
X108107348Y-132895416D01*
X108103472Y-132900082D01*
X108072034Y-132920575D01*
X108036233Y-132919739D01*
X108004873Y-132902264D01*
X107978222Y-132880684D01*
X107978222Y-132233227D01*
X108004873Y-132211647D01*
X108030594Y-132195949D01*
X108051600Y-132190067D01*
X108074614Y-132196877D01*
G36*
X107630665Y-132192034D02*
X107650255Y-132199035D01*
X107651010Y-132199377D01*
X107677613Y-132219678D01*
X107692270Y-132240561D01*
X107695138Y-132250352D01*
X107694996Y-132263361D01*
X107690961Y-132281895D01*
X107682146Y-132308257D01*
X107667669Y-132344752D01*
X107646645Y-132393687D01*
X107618188Y-132457365D01*
X107581415Y-132538093D01*
X107561175Y-132582216D01*
X107524625Y-132660985D01*
X107490315Y-132733423D01*
X107459552Y-132796880D01*
X107433648Y-132848708D01*
X107413910Y-132886259D01*
X107401650Y-132906884D01*
X107399224Y-132909733D01*
X107368183Y-132922302D01*
X107333121Y-132920619D01*
X107305000Y-132905332D01*
X107303854Y-132904089D01*
X107292668Y-132887154D01*
X107273904Y-132854170D01*
X107249875Y-132809380D01*
X107222897Y-132757032D01*
X107213201Y-132737742D01*
X107140014Y-132591150D01*
X107060240Y-132750393D01*
X107031767Y-132805415D01*
X107005350Y-132853132D01*
X106983148Y-132889893D01*
X106967319Y-132912044D01*
X106961954Y-132916741D01*
X106920257Y-132923102D01*
X106885849Y-132909733D01*
X106875728Y-132895446D01*
X106858214Y-132863692D01*
X106834735Y-132817597D01*
X106806720Y-132760285D01*
X106775599Y-132694880D01*
X106742799Y-132624507D01*
X106709750Y-132552291D01*
X106677881Y-132481355D01*
X106648619Y-132414825D01*
X106623395Y-132355826D01*
X106603636Y-132307481D01*
X106590772Y-132272915D01*
X106586231Y-132255253D01*
X106586277Y-132254613D01*
X106597326Y-132232388D01*
X106619410Y-132209753D01*
X106620710Y-132208768D01*
X106647853Y-132193425D01*
X106672958Y-132193574D01*
X106682368Y-132196466D01*
X106693834Y-132202718D01*
X106706010Y-132215014D01*
X106720357Y-132235908D01*
X106738336Y-132267949D01*
X106761407Y-132313688D01*
X106791030Y-132375677D01*
X106817745Y-132432898D01*
X106848480Y-132499226D01*
X106876021Y-132558874D01*
X106898938Y-132608725D01*
X106915798Y-132645664D01*
X106925173Y-132666573D01*
X106926540Y-132669845D01*
X106932689Y-132664497D01*
X106946822Y-132642109D01*
X106967057Y-132605946D01*
X106991515Y-132559277D01*
X107001248Y-132540022D01*
X107034217Y-132475004D01*
X107059643Y-132427654D01*
X107079612Y-132395219D01*
X107096210Y-132374946D01*
X107111524Y-132364082D01*
X107127640Y-132359875D01*
X107138143Y-132359400D01*
X107156670Y-132361042D01*
X107172904Y-132367831D01*
X107189035Y-132382566D01*
X107207251Y-132408044D01*
X107229739Y-132447061D01*
X107258689Y-132502414D01*
X107274662Y-132533903D01*
X107300570Y-132584087D01*
X107323167Y-132625704D01*
X107340458Y-132655242D01*
X107350450Y-132669189D01*
X107351809Y-132669770D01*
X107358261Y-132658793D01*
X107372708Y-132630290D01*
X107393703Y-132587244D01*
X107419797Y-132532638D01*
X107449546Y-132469454D01*
X107464180Y-132438071D01*
X107502250Y-132357078D01*
X107532905Y-132294756D01*
X107557737Y-132249071D01*
X107578337Y-132217989D01*
X107596298Y-132199478D01*
X107613210Y-132191504D01*
X107630665Y-132192034D01*
X107630665Y-132192034D01*
G37*
X107630665Y-132192034D02*
X107650255Y-132199035D01*
X107651010Y-132199377D01*
X107677613Y-132219678D01*
X107692270Y-132240561D01*
X107695138Y-132250352D01*
X107694996Y-132263361D01*
X107690961Y-132281895D01*
X107682146Y-132308257D01*
X107667669Y-132344752D01*
X107646645Y-132393687D01*
X107618188Y-132457365D01*
X107581415Y-132538093D01*
X107561175Y-132582216D01*
X107524625Y-132660985D01*
X107490315Y-132733423D01*
X107459552Y-132796880D01*
X107433648Y-132848708D01*
X107413910Y-132886259D01*
X107401650Y-132906884D01*
X107399224Y-132909733D01*
X107368183Y-132922302D01*
X107333121Y-132920619D01*
X107305000Y-132905332D01*
X107303854Y-132904089D01*
X107292668Y-132887154D01*
X107273904Y-132854170D01*
X107249875Y-132809380D01*
X107222897Y-132757032D01*
X107213201Y-132737742D01*
X107140014Y-132591150D01*
X107060240Y-132750393D01*
X107031767Y-132805415D01*
X107005350Y-132853132D01*
X106983148Y-132889893D01*
X106967319Y-132912044D01*
X106961954Y-132916741D01*
X106920257Y-132923102D01*
X106885849Y-132909733D01*
X106875728Y-132895446D01*
X106858214Y-132863692D01*
X106834735Y-132817597D01*
X106806720Y-132760285D01*
X106775599Y-132694880D01*
X106742799Y-132624507D01*
X106709750Y-132552291D01*
X106677881Y-132481355D01*
X106648619Y-132414825D01*
X106623395Y-132355826D01*
X106603636Y-132307481D01*
X106590772Y-132272915D01*
X106586231Y-132255253D01*
X106586277Y-132254613D01*
X106597326Y-132232388D01*
X106619410Y-132209753D01*
X106620710Y-132208768D01*
X106647853Y-132193425D01*
X106672958Y-132193574D01*
X106682368Y-132196466D01*
X106693834Y-132202718D01*
X106706010Y-132215014D01*
X106720357Y-132235908D01*
X106738336Y-132267949D01*
X106761407Y-132313688D01*
X106791030Y-132375677D01*
X106817745Y-132432898D01*
X106848480Y-132499226D01*
X106876021Y-132558874D01*
X106898938Y-132608725D01*
X106915798Y-132645664D01*
X106925173Y-132666573D01*
X106926540Y-132669845D01*
X106932689Y-132664497D01*
X106946822Y-132642109D01*
X106967057Y-132605946D01*
X106991515Y-132559277D01*
X107001248Y-132540022D01*
X107034217Y-132475004D01*
X107059643Y-132427654D01*
X107079612Y-132395219D01*
X107096210Y-132374946D01*
X107111524Y-132364082D01*
X107127640Y-132359875D01*
X107138143Y-132359400D01*
X107156670Y-132361042D01*
X107172904Y-132367831D01*
X107189035Y-132382566D01*
X107207251Y-132408044D01*
X107229739Y-132447061D01*
X107258689Y-132502414D01*
X107274662Y-132533903D01*
X107300570Y-132584087D01*
X107323167Y-132625704D01*
X107340458Y-132655242D01*
X107350450Y-132669189D01*
X107351809Y-132669770D01*
X107358261Y-132658793D01*
X107372708Y-132630290D01*
X107393703Y-132587244D01*
X107419797Y-132532638D01*
X107449546Y-132469454D01*
X107464180Y-132438071D01*
X107502250Y-132357078D01*
X107532905Y-132294756D01*
X107557737Y-132249071D01*
X107578337Y-132217989D01*
X107596298Y-132199478D01*
X107613210Y-132191504D01*
X107630665Y-132192034D01*
G36*
X104904309Y-132190275D02*
X105033288Y-132194636D01*
X105142991Y-132207861D01*
X105235226Y-132230741D01*
X105311802Y-132264070D01*
X105374527Y-132308638D01*
X105425212Y-132365236D01*
X105465663Y-132434658D01*
X105466459Y-132436351D01*
X105490601Y-132498483D01*
X105499203Y-132553509D01*
X105492231Y-132608887D01*
X105469654Y-132672073D01*
X105465372Y-132681689D01*
X105436172Y-132737966D01*
X105403356Y-132781451D01*
X105361002Y-132818417D01*
X105303190Y-132855135D01*
X105299831Y-132857052D01*
X105249504Y-132881227D01*
X105192621Y-132899282D01*
X105125527Y-132911839D01*
X105044565Y-132919522D01*
X104946082Y-132922953D01*
X104911286Y-132923251D01*
X104745594Y-132923845D01*
X104722197Y-132894100D01*
X104715257Y-132884319D01*
X104709842Y-132872897D01*
X104705765Y-132857095D01*
X104702837Y-132834175D01*
X104700867Y-132801396D01*
X104700225Y-132777089D01*
X104856844Y-132777089D01*
X104950726Y-132777089D01*
X105005664Y-132775483D01*
X105062060Y-132771255D01*
X105108345Y-132765292D01*
X105111139Y-132764790D01*
X105193348Y-132742736D01*
X105257114Y-132709600D01*
X105304452Y-132663847D01*
X105337382Y-132603939D01*
X105343108Y-132588061D01*
X105348721Y-132563333D01*
X105346291Y-132538902D01*
X105334467Y-132506400D01*
X105327340Y-132490434D01*
X105304000Y-132448006D01*
X105275880Y-132418240D01*
X105244940Y-132397511D01*
X105182966Y-132370537D01*
X105103651Y-132350998D01*
X105011253Y-132339746D01*
X104944333Y-132337270D01*
X104856844Y-132336822D01*
X104856844Y-132777089D01*
X104700225Y-132777089D01*
X104699668Y-132756021D01*
X104699050Y-132695311D01*
X104698825Y-132616526D01*
X104698800Y-132554920D01*
X104698800Y-132245485D01*
X104726509Y-132217776D01*
X104738806Y-132206544D01*
X104752103Y-132198853D01*
X104770672Y-132194040D01*
X104798786Y-132191446D01*
X104840717Y-132190410D01*
X104900737Y-132190270D01*
X104904309Y-132190275D01*
X104904309Y-132190275D01*
G37*
X104904309Y-132190275D02*
X105033288Y-132194636D01*
X105142991Y-132207861D01*
X105235226Y-132230741D01*
X105311802Y-132264070D01*
X105374527Y-132308638D01*
X105425212Y-132365236D01*
X105465663Y-132434658D01*
X105466459Y-132436351D01*
X105490601Y-132498483D01*
X105499203Y-132553509D01*
X105492231Y-132608887D01*
X105469654Y-132672073D01*
X105465372Y-132681689D01*
X105436172Y-132737966D01*
X105403356Y-132781451D01*
X105361002Y-132818417D01*
X105303190Y-132855135D01*
X105299831Y-132857052D01*
X105249504Y-132881227D01*
X105192621Y-132899282D01*
X105125527Y-132911839D01*
X105044565Y-132919522D01*
X104946082Y-132922953D01*
X104911286Y-132923251D01*
X104745594Y-132923845D01*
X104722197Y-132894100D01*
X104715257Y-132884319D01*
X104709842Y-132872897D01*
X104705765Y-132857095D01*
X104702837Y-132834175D01*
X104700867Y-132801396D01*
X104700225Y-132777089D01*
X104856844Y-132777089D01*
X104950726Y-132777089D01*
X105005664Y-132775483D01*
X105062060Y-132771255D01*
X105108345Y-132765292D01*
X105111139Y-132764790D01*
X105193348Y-132742736D01*
X105257114Y-132709600D01*
X105304452Y-132663847D01*
X105337382Y-132603939D01*
X105343108Y-132588061D01*
X105348721Y-132563333D01*
X105346291Y-132538902D01*
X105334467Y-132506400D01*
X105327340Y-132490434D01*
X105304000Y-132448006D01*
X105275880Y-132418240D01*
X105244940Y-132397511D01*
X105182966Y-132370537D01*
X105103651Y-132350998D01*
X105011253Y-132339746D01*
X104944333Y-132337270D01*
X104856844Y-132336822D01*
X104856844Y-132777089D01*
X104700225Y-132777089D01*
X104699668Y-132756021D01*
X104699050Y-132695311D01*
X104698825Y-132616526D01*
X104698800Y-132554920D01*
X104698800Y-132245485D01*
X104726509Y-132217776D01*
X104738806Y-132206544D01*
X104752103Y-132198853D01*
X104770672Y-132194040D01*
X104798786Y-132191446D01*
X104840717Y-132190410D01*
X104900737Y-132190270D01*
X104904309Y-132190275D01*
G36*
X104116343Y-132190260D02*
X104192701Y-132191174D01*
X104251217Y-132193311D01*
X104294255Y-132197175D01*
X104324183Y-132203267D01*
X104343368Y-132212090D01*
X104354176Y-132224146D01*
X104358973Y-132239939D01*
X104360127Y-132259970D01*
X104360133Y-132262335D01*
X104359131Y-132284992D01*
X104354396Y-132302503D01*
X104343333Y-132315574D01*
X104323348Y-132324913D01*
X104291846Y-132331227D01*
X104246232Y-132335222D01*
X104183913Y-132337606D01*
X104102293Y-132339086D01*
X104077277Y-132339414D01*
X103835200Y-132342467D01*
X103831814Y-132407378D01*
X103828429Y-132472289D01*
X103996576Y-132472289D01*
X104062266Y-132472531D01*
X104109172Y-132473556D01*
X104141083Y-132475811D01*
X104161791Y-132479742D01*
X104175084Y-132485798D01*
X104184755Y-132494424D01*
X104184817Y-132494493D01*
X104202356Y-132528112D01*
X104201722Y-132564448D01*
X104183314Y-132595423D01*
X104179671Y-132598607D01*
X104166741Y-132606812D01*
X104149024Y-132612521D01*
X104122570Y-132616162D01*
X104083432Y-132618167D01*
X104027662Y-132618964D01*
X103991994Y-132619045D01*
X103829555Y-132619045D01*
X103829555Y-132777089D01*
X104076161Y-132777089D01*
X104157580Y-132777231D01*
X104219410Y-132777814D01*
X104264637Y-132779068D01*
X104296248Y-132781227D01*
X104317231Y-132784523D01*
X104330573Y-132789189D01*
X104339261Y-132795457D01*
X104341450Y-132797733D01*
X104357614Y-132829280D01*
X104358797Y-132865168D01*
X104345536Y-132896285D01*
X104335043Y-132906271D01*
X104324129Y-132911769D01*
X104307217Y-132916022D01*
X104281633Y-132919180D01*
X104244701Y-132921392D01*
X104193746Y-132922806D01*
X104126094Y-132923572D01*
X104039069Y-132923838D01*
X104019394Y-132923845D01*
X103930911Y-132923787D01*
X103862227Y-132923467D01*
X103810564Y-132922667D01*
X103773145Y-132921167D01*
X103747190Y-132918749D01*
X103729922Y-132915194D01*
X103718562Y-132910282D01*
X103710332Y-132903795D01*
X103705817Y-132899138D01*
X103699021Y-132890889D01*
X103693712Y-132880669D01*
X103689706Y-132865800D01*
X103686821Y-132843602D01*
X103684874Y-132811393D01*
X103683681Y-132766496D01*
X103683061Y-132706228D01*
X103682829Y-132627911D01*
X103682800Y-132561994D01*
X103682871Y-132469628D01*
X103683208Y-132397117D01*
X103683998Y-132341737D01*
X103685426Y-132300765D01*
X103687679Y-132271478D01*
X103690943Y-132251153D01*
X103695404Y-132237066D01*
X103701248Y-132226495D01*
X103706197Y-132219811D01*
X103729594Y-132190067D01*
X104019774Y-132190067D01*
X104116343Y-132190260D01*
X104116343Y-132190260D01*
G37*
X104116343Y-132190260D02*
X104192701Y-132191174D01*
X104251217Y-132193311D01*
X104294255Y-132197175D01*
X104324183Y-132203267D01*
X104343368Y-132212090D01*
X104354176Y-132224146D01*
X104358973Y-132239939D01*
X104360127Y-132259970D01*
X104360133Y-132262335D01*
X104359131Y-132284992D01*
X104354396Y-132302503D01*
X104343333Y-132315574D01*
X104323348Y-132324913D01*
X104291846Y-132331227D01*
X104246232Y-132335222D01*
X104183913Y-132337606D01*
X104102293Y-132339086D01*
X104077277Y-132339414D01*
X103835200Y-132342467D01*
X103831814Y-132407378D01*
X103828429Y-132472289D01*
X103996576Y-132472289D01*
X104062266Y-132472531D01*
X104109172Y-132473556D01*
X104141083Y-132475811D01*
X104161791Y-132479742D01*
X104175084Y-132485798D01*
X104184755Y-132494424D01*
X104184817Y-132494493D01*
X104202356Y-132528112D01*
X104201722Y-132564448D01*
X104183314Y-132595423D01*
X104179671Y-132598607D01*
X104166741Y-132606812D01*
X104149024Y-132612521D01*
X104122570Y-132616162D01*
X104083432Y-132618167D01*
X104027662Y-132618964D01*
X103991994Y-132619045D01*
X103829555Y-132619045D01*
X103829555Y-132777089D01*
X104076161Y-132777089D01*
X104157580Y-132777231D01*
X104219410Y-132777814D01*
X104264637Y-132779068D01*
X104296248Y-132781227D01*
X104317231Y-132784523D01*
X104330573Y-132789189D01*
X104339261Y-132795457D01*
X104341450Y-132797733D01*
X104357614Y-132829280D01*
X104358797Y-132865168D01*
X104345536Y-132896285D01*
X104335043Y-132906271D01*
X104324129Y-132911769D01*
X104307217Y-132916022D01*
X104281633Y-132919180D01*
X104244701Y-132921392D01*
X104193746Y-132922806D01*
X104126094Y-132923572D01*
X104039069Y-132923838D01*
X104019394Y-132923845D01*
X103930911Y-132923787D01*
X103862227Y-132923467D01*
X103810564Y-132922667D01*
X103773145Y-132921167D01*
X103747190Y-132918749D01*
X103729922Y-132915194D01*
X103718562Y-132910282D01*
X103710332Y-132903795D01*
X103705817Y-132899138D01*
X103699021Y-132890889D01*
X103693712Y-132880669D01*
X103689706Y-132865800D01*
X103686821Y-132843602D01*
X103684874Y-132811393D01*
X103683681Y-132766496D01*
X103683061Y-132706228D01*
X103682829Y-132627911D01*
X103682800Y-132561994D01*
X103682871Y-132469628D01*
X103683208Y-132397117D01*
X103683998Y-132341737D01*
X103685426Y-132300765D01*
X103687679Y-132271478D01*
X103690943Y-132251153D01*
X103695404Y-132237066D01*
X103701248Y-132226495D01*
X103706197Y-132219811D01*
X103729594Y-132190067D01*
X104019774Y-132190067D01*
X104116343Y-132190260D01*
G36*
X102585886Y-132194448D02*
X102609452Y-132208273D01*
X102640265Y-132230881D01*
X102679922Y-132263338D01*
X102730020Y-132306708D01*
X102792157Y-132362058D01*
X102867928Y-132430451D01*
X102954666Y-132509084D01*
X103135289Y-132672878D01*
X103140933Y-132453029D01*
X103142971Y-132377351D01*
X103144937Y-132320994D01*
X103147266Y-132280706D01*
X103150394Y-132253235D01*
X103154755Y-132235329D01*
X103160784Y-132223737D01*
X103168916Y-132215208D01*
X103173228Y-132211623D01*
X103207759Y-132192670D01*
X103240617Y-132195441D01*
X103266682Y-132211633D01*
X103293333Y-132233199D01*
X103296648Y-132548151D01*
X103297565Y-132640779D01*
X103298032Y-132713544D01*
X103297887Y-132769161D01*
X103296968Y-132810342D01*
X103295113Y-132839803D01*
X103292161Y-132860255D01*
X103287950Y-132874413D01*
X103282318Y-132884991D01*
X103276073Y-132893474D01*
X103262561Y-132909207D01*
X103249117Y-132919636D01*
X103233876Y-132923639D01*
X103214974Y-132920094D01*
X103190545Y-132907879D01*
X103158727Y-132885871D01*
X103117652Y-132852949D01*
X103065458Y-132807991D01*
X103000278Y-132749875D01*
X102926444Y-132683099D01*
X102661155Y-132442458D01*
X102655511Y-132661589D01*
X102653469Y-132737128D01*
X102651498Y-132793354D01*
X102649161Y-132833524D01*
X102646019Y-132860896D01*
X102641636Y-132878728D01*
X102635576Y-132890279D01*
X102627400Y-132898807D01*
X102623216Y-132902282D01*
X102586235Y-132921372D01*
X102551292Y-132918493D01*
X102520864Y-132894100D01*
X102513903Y-132884286D01*
X102508477Y-132872826D01*
X102504397Y-132856968D01*
X102501471Y-132833963D01*
X102499508Y-132801062D01*
X102498317Y-132755516D01*
X102497708Y-132694573D01*
X102497489Y-132615486D01*
X102497466Y-132556956D01*
X102497540Y-132465407D01*
X102497887Y-132393687D01*
X102498699Y-132339045D01*
X102500167Y-132298732D01*
X102502481Y-132269998D01*
X102505833Y-132250093D01*
X102510412Y-132236268D01*
X102516411Y-132225772D01*
X102520864Y-132219811D01*
X102532150Y-132205691D01*
X102542699Y-132195029D01*
X102554107Y-132188892D01*
X102567970Y-132188343D01*
X102585886Y-132194448D01*
X102585886Y-132194448D01*
G37*
X102585886Y-132194448D02*
X102609452Y-132208273D01*
X102640265Y-132230881D01*
X102679922Y-132263338D01*
X102730020Y-132306708D01*
X102792157Y-132362058D01*
X102867928Y-132430451D01*
X102954666Y-132509084D01*
X103135289Y-132672878D01*
X103140933Y-132453029D01*
X103142971Y-132377351D01*
X103144937Y-132320994D01*
X103147266Y-132280706D01*
X103150394Y-132253235D01*
X103154755Y-132235329D01*
X103160784Y-132223737D01*
X103168916Y-132215208D01*
X103173228Y-132211623D01*
X103207759Y-132192670D01*
X103240617Y-132195441D01*
X103266682Y-132211633D01*
X103293333Y-132233199D01*
X103296648Y-132548151D01*
X103297565Y-132640779D01*
X103298032Y-132713544D01*
X103297887Y-132769161D01*
X103296968Y-132810342D01*
X103295113Y-132839803D01*
X103292161Y-132860255D01*
X103287950Y-132874413D01*
X103282318Y-132884991D01*
X103276073Y-132893474D01*
X103262561Y-132909207D01*
X103249117Y-132919636D01*
X103233876Y-132923639D01*
X103214974Y-132920094D01*
X103190545Y-132907879D01*
X103158727Y-132885871D01*
X103117652Y-132852949D01*
X103065458Y-132807991D01*
X103000278Y-132749875D01*
X102926444Y-132683099D01*
X102661155Y-132442458D01*
X102655511Y-132661589D01*
X102653469Y-132737128D01*
X102651498Y-132793354D01*
X102649161Y-132833524D01*
X102646019Y-132860896D01*
X102641636Y-132878728D01*
X102635576Y-132890279D01*
X102627400Y-132898807D01*
X102623216Y-132902282D01*
X102586235Y-132921372D01*
X102551292Y-132918493D01*
X102520864Y-132894100D01*
X102513903Y-132884286D01*
X102508477Y-132872826D01*
X102504397Y-132856968D01*
X102501471Y-132833963D01*
X102499508Y-132801062D01*
X102498317Y-132755516D01*
X102497708Y-132694573D01*
X102497489Y-132615486D01*
X102497466Y-132556956D01*
X102497540Y-132465407D01*
X102497887Y-132393687D01*
X102498699Y-132339045D01*
X102500167Y-132298732D01*
X102502481Y-132269998D01*
X102505833Y-132250093D01*
X102510412Y-132236268D01*
X102516411Y-132225772D01*
X102520864Y-132219811D01*
X102532150Y-132205691D01*
X102542699Y-132195029D01*
X102554107Y-132188892D01*
X102567970Y-132188343D01*
X102585886Y-132194448D01*
G36*
X101935919Y-132195599D02*
X102004435Y-132207095D01*
X102057057Y-132224967D01*
X102091292Y-132248499D01*
X102100621Y-132261924D01*
X102110107Y-132293148D01*
X102103723Y-132321395D01*
X102083570Y-132348182D01*
X102052255Y-132360713D01*
X102006817Y-132359696D01*
X101971674Y-132352906D01*
X101893581Y-132339971D01*
X101813774Y-132338742D01*
X101724445Y-132349241D01*
X101699771Y-132353690D01*
X101616709Y-132377108D01*
X101551727Y-132411945D01*
X101505539Y-132457604D01*
X101478855Y-132513494D01*
X101473337Y-132542388D01*
X101476949Y-132601012D01*
X101500271Y-132652879D01*
X101541176Y-132696978D01*
X101597541Y-132732299D01*
X101667240Y-132757829D01*
X101748148Y-132772559D01*
X101838140Y-132775478D01*
X101935090Y-132765575D01*
X101940564Y-132764641D01*
X101979125Y-132757459D01*
X102000506Y-132750521D01*
X102009773Y-132740227D01*
X102011994Y-132722976D01*
X102012044Y-132713841D01*
X102012044Y-132675489D01*
X101943569Y-132675489D01*
X101883100Y-132671347D01*
X101841835Y-132658147D01*
X101817825Y-132634730D01*
X101809123Y-132599936D01*
X101809017Y-132595394D01*
X101814108Y-132565654D01*
X101831567Y-132544419D01*
X101864061Y-132530366D01*
X101914257Y-132522173D01*
X101962877Y-132519161D01*
X102033544Y-132517433D01*
X102084802Y-132520070D01*
X102119761Y-132529800D01*
X102141530Y-132549353D01*
X102153220Y-132581456D01*
X102157940Y-132628838D01*
X102158800Y-132691071D01*
X102157391Y-132760535D01*
X102153152Y-132807786D01*
X102146064Y-132833012D01*
X102144689Y-132834988D01*
X102105772Y-132866508D01*
X102048714Y-132891470D01*
X101977131Y-132909340D01*
X101894642Y-132919586D01*
X101804861Y-132921673D01*
X101711408Y-132915068D01*
X101656444Y-132906956D01*
X101570234Y-132882554D01*
X101490108Y-132842662D01*
X101423023Y-132790887D01*
X101412827Y-132780539D01*
X101379698Y-132737035D01*
X101349806Y-132683118D01*
X101326643Y-132626592D01*
X101313702Y-132575259D01*
X101312142Y-132555544D01*
X101318782Y-132514419D01*
X101336432Y-132463252D01*
X101361703Y-132409394D01*
X101391211Y-132360195D01*
X101417281Y-132327334D01*
X101478235Y-132278452D01*
X101557031Y-132239545D01*
X101650843Y-132211494D01*
X101756850Y-132195179D01*
X101854000Y-132191192D01*
X101935919Y-132195599D01*
X101935919Y-132195599D01*
G37*
X101935919Y-132195599D02*
X102004435Y-132207095D01*
X102057057Y-132224967D01*
X102091292Y-132248499D01*
X102100621Y-132261924D01*
X102110107Y-132293148D01*
X102103723Y-132321395D01*
X102083570Y-132348182D01*
X102052255Y-132360713D01*
X102006817Y-132359696D01*
X101971674Y-132352906D01*
X101893581Y-132339971D01*
X101813774Y-132338742D01*
X101724445Y-132349241D01*
X101699771Y-132353690D01*
X101616709Y-132377108D01*
X101551727Y-132411945D01*
X101505539Y-132457604D01*
X101478855Y-132513494D01*
X101473337Y-132542388D01*
X101476949Y-132601012D01*
X101500271Y-132652879D01*
X101541176Y-132696978D01*
X101597541Y-132732299D01*
X101667240Y-132757829D01*
X101748148Y-132772559D01*
X101838140Y-132775478D01*
X101935090Y-132765575D01*
X101940564Y-132764641D01*
X101979125Y-132757459D01*
X102000506Y-132750521D01*
X102009773Y-132740227D01*
X102011994Y-132722976D01*
X102012044Y-132713841D01*
X102012044Y-132675489D01*
X101943569Y-132675489D01*
X101883100Y-132671347D01*
X101841835Y-132658147D01*
X101817825Y-132634730D01*
X101809123Y-132599936D01*
X101809017Y-132595394D01*
X101814108Y-132565654D01*
X101831567Y-132544419D01*
X101864061Y-132530366D01*
X101914257Y-132522173D01*
X101962877Y-132519161D01*
X102033544Y-132517433D01*
X102084802Y-132520070D01*
X102119761Y-132529800D01*
X102141530Y-132549353D01*
X102153220Y-132581456D01*
X102157940Y-132628838D01*
X102158800Y-132691071D01*
X102157391Y-132760535D01*
X102153152Y-132807786D01*
X102146064Y-132833012D01*
X102144689Y-132834988D01*
X102105772Y-132866508D01*
X102048714Y-132891470D01*
X101977131Y-132909340D01*
X101894642Y-132919586D01*
X101804861Y-132921673D01*
X101711408Y-132915068D01*
X101656444Y-132906956D01*
X101570234Y-132882554D01*
X101490108Y-132842662D01*
X101423023Y-132790887D01*
X101412827Y-132780539D01*
X101379698Y-132737035D01*
X101349806Y-132683118D01*
X101326643Y-132626592D01*
X101313702Y-132575259D01*
X101312142Y-132555544D01*
X101318782Y-132514419D01*
X101336432Y-132463252D01*
X101361703Y-132409394D01*
X101391211Y-132360195D01*
X101417281Y-132327334D01*
X101478235Y-132278452D01*
X101557031Y-132239545D01*
X101650843Y-132211494D01*
X101756850Y-132195179D01*
X101854000Y-132191192D01*
X101935919Y-132195599D01*
G36*
X100962178Y-132212645D02*
X100968758Y-132220218D01*
X100973921Y-132229987D01*
X100977836Y-132244571D01*
X100980676Y-132266585D01*
X100982613Y-132298648D01*
X100983817Y-132343375D01*
X100984461Y-132403385D01*
X100984716Y-132481294D01*
X100984755Y-132556956D01*
X100984686Y-132650802D01*
X100984362Y-132724689D01*
X100983614Y-132781232D01*
X100982268Y-132823049D01*
X100980154Y-132852757D01*
X100977100Y-132872973D01*
X100972934Y-132886314D01*
X100967484Y-132895398D01*
X100962178Y-132901267D01*
X100929174Y-132920947D01*
X100894009Y-132919181D01*
X100862545Y-132897717D01*
X100855316Y-132889337D01*
X100849666Y-132879614D01*
X100845401Y-132865861D01*
X100842327Y-132845389D01*
X100840248Y-132815512D01*
X100838970Y-132773541D01*
X100838299Y-132716789D01*
X100838041Y-132642567D01*
X100838000Y-132558537D01*
X100838000Y-132245485D01*
X100865709Y-132217776D01*
X100899863Y-132194463D01*
X100932994Y-132193623D01*
X100962178Y-132212645D01*
X100962178Y-132212645D01*
G37*
X100962178Y-132212645D02*
X100968758Y-132220218D01*
X100973921Y-132229987D01*
X100977836Y-132244571D01*
X100980676Y-132266585D01*
X100982613Y-132298648D01*
X100983817Y-132343375D01*
X100984461Y-132403385D01*
X100984716Y-132481294D01*
X100984755Y-132556956D01*
X100984686Y-132650802D01*
X100984362Y-132724689D01*
X100983614Y-132781232D01*
X100982268Y-132823049D01*
X100980154Y-132852757D01*
X100977100Y-132872973D01*
X100972934Y-132886314D01*
X100967484Y-132895398D01*
X100962178Y-132901267D01*
X100929174Y-132920947D01*
X100894009Y-132919181D01*
X100862545Y-132897717D01*
X100855316Y-132889337D01*
X100849666Y-132879614D01*
X100845401Y-132865861D01*
X100842327Y-132845389D01*
X100840248Y-132815512D01*
X100838970Y-132773541D01*
X100838299Y-132716789D01*
X100838041Y-132642567D01*
X100838000Y-132558537D01*
X100838000Y-132245485D01*
X100865709Y-132217776D01*
X100899863Y-132194463D01*
X100932994Y-132193623D01*
X100962178Y-132212645D01*
G36*
X100194297Y-132191351D02*
X100269112Y-132196581D01*
X100338694Y-132204750D01*
X100398998Y-132215550D01*
X100445980Y-132228673D01*
X100475594Y-132243813D01*
X100480140Y-132248269D01*
X100495946Y-132282850D01*
X100491153Y-132318351D01*
X100466636Y-132348725D01*
X100465466Y-132349596D01*
X100451046Y-132358954D01*
X100435992Y-132363876D01*
X100414995Y-132364473D01*
X100382743Y-132360861D01*
X100333927Y-132353154D01*
X100330000Y-132352505D01*
X100257261Y-132343569D01*
X100178783Y-132339161D01*
X100100073Y-132339119D01*
X100026639Y-132343279D01*
X99963989Y-132351479D01*
X99917630Y-132363557D01*
X99914584Y-132364771D01*
X99880952Y-132383615D01*
X99869136Y-132402685D01*
X99878386Y-132421439D01*
X99907953Y-132439337D01*
X99957089Y-132455837D01*
X100025043Y-132470396D01*
X100070355Y-132477406D01*
X100164544Y-132490889D01*
X100239456Y-132503214D01*
X100298283Y-132515449D01*
X100344215Y-132528661D01*
X100380445Y-132543917D01*
X100410162Y-132562285D01*
X100436558Y-132584831D01*
X100457770Y-132606971D01*
X100482935Y-132637819D01*
X100495319Y-132664345D01*
X100499192Y-132697026D01*
X100499333Y-132708995D01*
X100496424Y-132748712D01*
X100484798Y-132778259D01*
X100464677Y-132804486D01*
X100423784Y-132844576D01*
X100378183Y-132875149D01*
X100324487Y-132897203D01*
X100259308Y-132911735D01*
X100179256Y-132919741D01*
X100080943Y-132922218D01*
X100064711Y-132922177D01*
X99999151Y-132920818D01*
X99934134Y-132917730D01*
X99876748Y-132913356D01*
X99834078Y-132908140D01*
X99830628Y-132907541D01*
X99788204Y-132897491D01*
X99752220Y-132884796D01*
X99731850Y-132873190D01*
X99712893Y-132842572D01*
X99711573Y-132806918D01*
X99727915Y-132775144D01*
X99731571Y-132771551D01*
X99746685Y-132760876D01*
X99765585Y-132756276D01*
X99794838Y-132757059D01*
X99830349Y-132761127D01*
X99870030Y-132764762D01*
X99925655Y-132767828D01*
X99990594Y-132770053D01*
X100058215Y-132771164D01*
X100076000Y-132771237D01*
X100143872Y-132770964D01*
X100193546Y-132769646D01*
X100229390Y-132766827D01*
X100255776Y-132762050D01*
X100277074Y-132754857D01*
X100289874Y-132748867D01*
X100318000Y-132732233D01*
X100335932Y-132717168D01*
X100338553Y-132712897D01*
X100333024Y-132695263D01*
X100306740Y-132678192D01*
X100261522Y-132662458D01*
X100199192Y-132648838D01*
X100180829Y-132645804D01*
X100084910Y-132630738D01*
X100008359Y-132618146D01*
X99948220Y-132607111D01*
X99901540Y-132596720D01*
X99865363Y-132586056D01*
X99836735Y-132574205D01*
X99812702Y-132560251D01*
X99790308Y-132543281D01*
X99766598Y-132522378D01*
X99758620Y-132515049D01*
X99730647Y-132487699D01*
X99715840Y-132466029D01*
X99710048Y-132441232D01*
X99709111Y-132409983D01*
X99719425Y-132348705D01*
X99750248Y-132296640D01*
X99801405Y-132253958D01*
X99872717Y-132220825D01*
X99923600Y-132205964D01*
X99978900Y-132196366D01*
X100045147Y-132190936D01*
X100118294Y-132189367D01*
X100194297Y-132191351D01*
X100194297Y-132191351D01*
G37*
X100194297Y-132191351D02*
X100269112Y-132196581D01*
X100338694Y-132204750D01*
X100398998Y-132215550D01*
X100445980Y-132228673D01*
X100475594Y-132243813D01*
X100480140Y-132248269D01*
X100495946Y-132282850D01*
X100491153Y-132318351D01*
X100466636Y-132348725D01*
X100465466Y-132349596D01*
X100451046Y-132358954D01*
X100435992Y-132363876D01*
X100414995Y-132364473D01*
X100382743Y-132360861D01*
X100333927Y-132353154D01*
X100330000Y-132352505D01*
X100257261Y-132343569D01*
X100178783Y-132339161D01*
X100100073Y-132339119D01*
X100026639Y-132343279D01*
X99963989Y-132351479D01*
X99917630Y-132363557D01*
X99914584Y-132364771D01*
X99880952Y-132383615D01*
X99869136Y-132402685D01*
X99878386Y-132421439D01*
X99907953Y-132439337D01*
X99957089Y-132455837D01*
X100025043Y-132470396D01*
X100070355Y-132477406D01*
X100164544Y-132490889D01*
X100239456Y-132503214D01*
X100298283Y-132515449D01*
X100344215Y-132528661D01*
X100380445Y-132543917D01*
X100410162Y-132562285D01*
X100436558Y-132584831D01*
X100457770Y-132606971D01*
X100482935Y-132637819D01*
X100495319Y-132664345D01*
X100499192Y-132697026D01*
X100499333Y-132708995D01*
X100496424Y-132748712D01*
X100484798Y-132778259D01*
X100464677Y-132804486D01*
X100423784Y-132844576D01*
X100378183Y-132875149D01*
X100324487Y-132897203D01*
X100259308Y-132911735D01*
X100179256Y-132919741D01*
X100080943Y-132922218D01*
X100064711Y-132922177D01*
X99999151Y-132920818D01*
X99934134Y-132917730D01*
X99876748Y-132913356D01*
X99834078Y-132908140D01*
X99830628Y-132907541D01*
X99788204Y-132897491D01*
X99752220Y-132884796D01*
X99731850Y-132873190D01*
X99712893Y-132842572D01*
X99711573Y-132806918D01*
X99727915Y-132775144D01*
X99731571Y-132771551D01*
X99746685Y-132760876D01*
X99765585Y-132756276D01*
X99794838Y-132757059D01*
X99830349Y-132761127D01*
X99870030Y-132764762D01*
X99925655Y-132767828D01*
X99990594Y-132770053D01*
X100058215Y-132771164D01*
X100076000Y-132771237D01*
X100143872Y-132770964D01*
X100193546Y-132769646D01*
X100229390Y-132766827D01*
X100255776Y-132762050D01*
X100277074Y-132754857D01*
X100289874Y-132748867D01*
X100318000Y-132732233D01*
X100335932Y-132717168D01*
X100338553Y-132712897D01*
X100333024Y-132695263D01*
X100306740Y-132678192D01*
X100261522Y-132662458D01*
X100199192Y-132648838D01*
X100180829Y-132645804D01*
X100084910Y-132630738D01*
X100008359Y-132618146D01*
X99948220Y-132607111D01*
X99901540Y-132596720D01*
X99865363Y-132586056D01*
X99836735Y-132574205D01*
X99812702Y-132560251D01*
X99790308Y-132543281D01*
X99766598Y-132522378D01*
X99758620Y-132515049D01*
X99730647Y-132487699D01*
X99715840Y-132466029D01*
X99710048Y-132441232D01*
X99709111Y-132409983D01*
X99719425Y-132348705D01*
X99750248Y-132296640D01*
X99801405Y-132253958D01*
X99872717Y-132220825D01*
X99923600Y-132205964D01*
X99978900Y-132196366D01*
X100045147Y-132190936D01*
X100118294Y-132189367D01*
X100194297Y-132191351D01*
G36*
X99173206Y-132190146D02*
X99242614Y-132190518D01*
X99295003Y-132191385D01*
X99333153Y-132192946D01*
X99359841Y-132195403D01*
X99377847Y-132198957D01*
X99389951Y-132203810D01*
X99398931Y-132210161D01*
X99402182Y-132213084D01*
X99421957Y-132244142D01*
X99425518Y-132279828D01*
X99412509Y-132311510D01*
X99406494Y-132317913D01*
X99396765Y-132324121D01*
X99381099Y-132328910D01*
X99356592Y-132332514D01*
X99320339Y-132335164D01*
X99269435Y-132337095D01*
X99200974Y-132338539D01*
X99138383Y-132339418D01*
X98890666Y-132342467D01*
X98887281Y-132407378D01*
X98883895Y-132472289D01*
X99052042Y-132472289D01*
X99125041Y-132472919D01*
X99178483Y-132475553D01*
X99215372Y-132481309D01*
X99238712Y-132491304D01*
X99251506Y-132506656D01*
X99256758Y-132528482D01*
X99257555Y-132548738D01*
X99255077Y-132573592D01*
X99245723Y-132591906D01*
X99226617Y-132604637D01*
X99194882Y-132612741D01*
X99147641Y-132617176D01*
X99082017Y-132618899D01*
X99046199Y-132619045D01*
X98885022Y-132619045D01*
X98885022Y-132777089D01*
X99133378Y-132777089D01*
X99214787Y-132777202D01*
X99276658Y-132777712D01*
X99322032Y-132778870D01*
X99353946Y-132780930D01*
X99375441Y-132784146D01*
X99389557Y-132788772D01*
X99399332Y-132795059D01*
X99404311Y-132799667D01*
X99421390Y-132826560D01*
X99426889Y-132850467D01*
X99419037Y-132879667D01*
X99404311Y-132901267D01*
X99396454Y-132908066D01*
X99386312Y-132913346D01*
X99371156Y-132917298D01*
X99348259Y-132920113D01*
X99314891Y-132921982D01*
X99268325Y-132923098D01*
X99205833Y-132923651D01*
X99124686Y-132923833D01*
X99082578Y-132923845D01*
X98992402Y-132923765D01*
X98922076Y-132923398D01*
X98868871Y-132922552D01*
X98830060Y-132921036D01*
X98802913Y-132918659D01*
X98784702Y-132915229D01*
X98772700Y-132910554D01*
X98764178Y-132904444D01*
X98760844Y-132901267D01*
X98754245Y-132893670D01*
X98749073Y-132883870D01*
X98745154Y-132869239D01*
X98742316Y-132847152D01*
X98740385Y-132814982D01*
X98739188Y-132770103D01*
X98738552Y-132709889D01*
X98738303Y-132631713D01*
X98738266Y-132558923D01*
X98738300Y-132465707D01*
X98738535Y-132392431D01*
X98739170Y-132336458D01*
X98740406Y-132295151D01*
X98742444Y-132265872D01*
X98745483Y-132245984D01*
X98749723Y-132232850D01*
X98755365Y-132223832D01*
X98762609Y-132216293D01*
X98764394Y-132214612D01*
X98773055Y-132207172D01*
X98783118Y-132201409D01*
X98797375Y-132197112D01*
X98818617Y-132194064D01*
X98849636Y-132192051D01*
X98893223Y-132190860D01*
X98952169Y-132190275D01*
X99029266Y-132190083D01*
X99083999Y-132190067D01*
X99173206Y-132190146D01*
X99173206Y-132190146D01*
G37*
X99173206Y-132190146D02*
X99242614Y-132190518D01*
X99295003Y-132191385D01*
X99333153Y-132192946D01*
X99359841Y-132195403D01*
X99377847Y-132198957D01*
X99389951Y-132203810D01*
X99398931Y-132210161D01*
X99402182Y-132213084D01*
X99421957Y-132244142D01*
X99425518Y-132279828D01*
X99412509Y-132311510D01*
X99406494Y-132317913D01*
X99396765Y-132324121D01*
X99381099Y-132328910D01*
X99356592Y-132332514D01*
X99320339Y-132335164D01*
X99269435Y-132337095D01*
X99200974Y-132338539D01*
X99138383Y-132339418D01*
X98890666Y-132342467D01*
X98887281Y-132407378D01*
X98883895Y-132472289D01*
X99052042Y-132472289D01*
X99125041Y-132472919D01*
X99178483Y-132475553D01*
X99215372Y-132481309D01*
X99238712Y-132491304D01*
X99251506Y-132506656D01*
X99256758Y-132528482D01*
X99257555Y-132548738D01*
X99255077Y-132573592D01*
X99245723Y-132591906D01*
X99226617Y-132604637D01*
X99194882Y-132612741D01*
X99147641Y-132617176D01*
X99082017Y-132618899D01*
X99046199Y-132619045D01*
X98885022Y-132619045D01*
X98885022Y-132777089D01*
X99133378Y-132777089D01*
X99214787Y-132777202D01*
X99276658Y-132777712D01*
X99322032Y-132778870D01*
X99353946Y-132780930D01*
X99375441Y-132784146D01*
X99389557Y-132788772D01*
X99399332Y-132795059D01*
X99404311Y-132799667D01*
X99421390Y-132826560D01*
X99426889Y-132850467D01*
X99419037Y-132879667D01*
X99404311Y-132901267D01*
X99396454Y-132908066D01*
X99386312Y-132913346D01*
X99371156Y-132917298D01*
X99348259Y-132920113D01*
X99314891Y-132921982D01*
X99268325Y-132923098D01*
X99205833Y-132923651D01*
X99124686Y-132923833D01*
X99082578Y-132923845D01*
X98992402Y-132923765D01*
X98922076Y-132923398D01*
X98868871Y-132922552D01*
X98830060Y-132921036D01*
X98802913Y-132918659D01*
X98784702Y-132915229D01*
X98772700Y-132910554D01*
X98764178Y-132904444D01*
X98760844Y-132901267D01*
X98754245Y-132893670D01*
X98749073Y-132883870D01*
X98745154Y-132869239D01*
X98742316Y-132847152D01*
X98740385Y-132814982D01*
X98739188Y-132770103D01*
X98738552Y-132709889D01*
X98738303Y-132631713D01*
X98738266Y-132558923D01*
X98738300Y-132465707D01*
X98738535Y-132392431D01*
X98739170Y-132336458D01*
X98740406Y-132295151D01*
X98742444Y-132265872D01*
X98745483Y-132245984D01*
X98749723Y-132232850D01*
X98755365Y-132223832D01*
X98762609Y-132216293D01*
X98764394Y-132214612D01*
X98773055Y-132207172D01*
X98783118Y-132201409D01*
X98797375Y-132197112D01*
X98818617Y-132194064D01*
X98849636Y-132192051D01*
X98893223Y-132190860D01*
X98952169Y-132190275D01*
X99029266Y-132190083D01*
X99083999Y-132190067D01*
X99173206Y-132190146D01*
G36*
X97764629Y-132190066D02*
X97804111Y-132190467D01*
X97919800Y-132193259D01*
X98016689Y-132201550D01*
X98098081Y-132216232D01*
X98167277Y-132238193D01*
X98227580Y-132268322D01*
X98282292Y-132307510D01*
X98301833Y-132324532D01*
X98334250Y-132364363D01*
X98363480Y-132418413D01*
X98386009Y-132478323D01*
X98398321Y-132535739D01*
X98399600Y-132556956D01*
X98391583Y-132615769D01*
X98370101Y-132680013D01*
X98339001Y-132740821D01*
X98302134Y-132789330D01*
X98296146Y-132795182D01*
X98245421Y-132836321D01*
X98189875Y-132868435D01*
X98126304Y-132892365D01*
X98051506Y-132908953D01*
X97962278Y-132919041D01*
X97855418Y-132923469D01*
X97806472Y-132923845D01*
X97744238Y-132923545D01*
X97700472Y-132922292D01*
X97671069Y-132919554D01*
X97651921Y-132914801D01*
X97638923Y-132907501D01*
X97631955Y-132901267D01*
X97625374Y-132893694D01*
X97620212Y-132883924D01*
X97616297Y-132869340D01*
X97613457Y-132847326D01*
X97611520Y-132815264D01*
X97610316Y-132770536D01*
X97609672Y-132710526D01*
X97609417Y-132632617D01*
X97609378Y-132556956D01*
X97609130Y-132456041D01*
X97609183Y-132375427D01*
X97610143Y-132336822D01*
X97756133Y-132336822D01*
X97756133Y-132777089D01*
X97849266Y-132777004D01*
X97905307Y-132775396D01*
X97964001Y-132771256D01*
X98012972Y-132765464D01*
X98014462Y-132765226D01*
X98093608Y-132746090D01*
X98154998Y-132716287D01*
X98201695Y-132673878D01*
X98231365Y-132627961D01*
X98249647Y-132577026D01*
X98248229Y-132529200D01*
X98227012Y-132477933D01*
X98185511Y-132424899D01*
X98128002Y-132385600D01*
X98053250Y-132359331D01*
X98003292Y-132350035D01*
X97946584Y-132343507D01*
X97886481Y-132338782D01*
X97835361Y-132336817D01*
X97832333Y-132336808D01*
X97756133Y-132336822D01*
X97610143Y-132336822D01*
X97610740Y-132312851D01*
X97615002Y-132266055D01*
X97623170Y-132232778D01*
X97636444Y-132210759D01*
X97656026Y-132197739D01*
X97683117Y-132191457D01*
X97718918Y-132189653D01*
X97764629Y-132190066D01*
X97764629Y-132190066D01*
G37*
X97764629Y-132190066D02*
X97804111Y-132190467D01*
X97919800Y-132193259D01*
X98016689Y-132201550D01*
X98098081Y-132216232D01*
X98167277Y-132238193D01*
X98227580Y-132268322D01*
X98282292Y-132307510D01*
X98301833Y-132324532D01*
X98334250Y-132364363D01*
X98363480Y-132418413D01*
X98386009Y-132478323D01*
X98398321Y-132535739D01*
X98399600Y-132556956D01*
X98391583Y-132615769D01*
X98370101Y-132680013D01*
X98339001Y-132740821D01*
X98302134Y-132789330D01*
X98296146Y-132795182D01*
X98245421Y-132836321D01*
X98189875Y-132868435D01*
X98126304Y-132892365D01*
X98051506Y-132908953D01*
X97962278Y-132919041D01*
X97855418Y-132923469D01*
X97806472Y-132923845D01*
X97744238Y-132923545D01*
X97700472Y-132922292D01*
X97671069Y-132919554D01*
X97651921Y-132914801D01*
X97638923Y-132907501D01*
X97631955Y-132901267D01*
X97625374Y-132893694D01*
X97620212Y-132883924D01*
X97616297Y-132869340D01*
X97613457Y-132847326D01*
X97611520Y-132815264D01*
X97610316Y-132770536D01*
X97609672Y-132710526D01*
X97609417Y-132632617D01*
X97609378Y-132556956D01*
X97609130Y-132456041D01*
X97609183Y-132375427D01*
X97610143Y-132336822D01*
X97756133Y-132336822D01*
X97756133Y-132777089D01*
X97849266Y-132777004D01*
X97905307Y-132775396D01*
X97964001Y-132771256D01*
X98012972Y-132765464D01*
X98014462Y-132765226D01*
X98093608Y-132746090D01*
X98154998Y-132716287D01*
X98201695Y-132673878D01*
X98231365Y-132627961D01*
X98249647Y-132577026D01*
X98248229Y-132529200D01*
X98227012Y-132477933D01*
X98185511Y-132424899D01*
X98128002Y-132385600D01*
X98053250Y-132359331D01*
X98003292Y-132350035D01*
X97946584Y-132343507D01*
X97886481Y-132338782D01*
X97835361Y-132336817D01*
X97832333Y-132336808D01*
X97756133Y-132336822D01*
X97610143Y-132336822D01*
X97610740Y-132312851D01*
X97615002Y-132266055D01*
X97623170Y-132232778D01*
X97636444Y-132210759D01*
X97656026Y-132197739D01*
X97683117Y-132191457D01*
X97718918Y-132189653D01*
X97764629Y-132190066D01*
G36*
X178101814Y-127389931D02*
X178185635Y-127834555D01*
X178494920Y-127962053D01*
X178804206Y-128089551D01*
X179175246Y-127837246D01*
X179279157Y-127766996D01*
X179373087Y-127704272D01*
X179452652Y-127651938D01*
X179513470Y-127612857D01*
X179551157Y-127589893D01*
X179561421Y-127584942D01*
X179579910Y-127597676D01*
X179619420Y-127632882D01*
X179675522Y-127686062D01*
X179743787Y-127752718D01*
X179819786Y-127828354D01*
X179899092Y-127908472D01*
X179977275Y-127988574D01*
X180049907Y-128064164D01*
X180112559Y-128130745D01*
X180160803Y-128183818D01*
X180190210Y-128218887D01*
X180197241Y-128230623D01*
X180187123Y-128252260D01*
X180158759Y-128299662D01*
X180115129Y-128368193D01*
X180059218Y-128453215D01*
X179994006Y-128550093D01*
X179956219Y-128605350D01*
X179887343Y-128706248D01*
X179826140Y-128797299D01*
X179775578Y-128873970D01*
X179738628Y-128931728D01*
X179718258Y-128966043D01*
X179715197Y-128973254D01*
X179722136Y-128993748D01*
X179741051Y-129041513D01*
X179769087Y-129109832D01*
X179803391Y-129191989D01*
X179841109Y-129281270D01*
X179879387Y-129370958D01*
X179915370Y-129454338D01*
X179946206Y-129524694D01*
X179969039Y-129575310D01*
X179981017Y-129599471D01*
X179981724Y-129600422D01*
X180000531Y-129605036D01*
X180050618Y-129615328D01*
X180126793Y-129630287D01*
X180223865Y-129648901D01*
X180336643Y-129670159D01*
X180402442Y-129682418D01*
X180522950Y-129705362D01*
X180631797Y-129727195D01*
X180723476Y-129746722D01*
X180792481Y-129762748D01*
X180833304Y-129774079D01*
X180841511Y-129777674D01*
X180849548Y-129802006D01*
X180856033Y-129856959D01*
X180860970Y-129936108D01*
X180864364Y-130033026D01*
X180866218Y-130141287D01*
X180866538Y-130254465D01*
X180865327Y-130366135D01*
X180862590Y-130469868D01*
X180858331Y-130559241D01*
X180852555Y-130627826D01*
X180845267Y-130669197D01*
X180840895Y-130677810D01*
X180814764Y-130688133D01*
X180759393Y-130702892D01*
X180682107Y-130720352D01*
X180590230Y-130738780D01*
X180558158Y-130744741D01*
X180403524Y-130773066D01*
X180281375Y-130795876D01*
X180187673Y-130814080D01*
X180118384Y-130828583D01*
X180069471Y-130840292D01*
X180036897Y-130850115D01*
X180016628Y-130858956D01*
X180004626Y-130867724D01*
X180002947Y-130869457D01*
X179986184Y-130897371D01*
X179960614Y-130951695D01*
X179928788Y-131025777D01*
X179893260Y-131112965D01*
X179856583Y-131206608D01*
X179821311Y-131300052D01*
X179789996Y-131386647D01*
X179765193Y-131459740D01*
X179749454Y-131512678D01*
X179745332Y-131538811D01*
X179745676Y-131539726D01*
X179759641Y-131561086D01*
X179791322Y-131608084D01*
X179837391Y-131675827D01*
X179894518Y-131759423D01*
X179959373Y-131853982D01*
X179977843Y-131880854D01*
X180043699Y-131978275D01*
X180101650Y-132067163D01*
X180148538Y-132142412D01*
X180181207Y-132198920D01*
X180196500Y-132231581D01*
X180197241Y-132235593D01*
X180184392Y-132256684D01*
X180148888Y-132298464D01*
X180095293Y-132356445D01*
X180028171Y-132426135D01*
X179952087Y-132503045D01*
X179871604Y-132582683D01*
X179791287Y-132660561D01*
X179715699Y-132732186D01*
X179649405Y-132793070D01*
X179596969Y-132838721D01*
X179562955Y-132864650D01*
X179553545Y-132868883D01*
X179531643Y-132858912D01*
X179486800Y-132832020D01*
X179426321Y-132792736D01*
X179379789Y-132761117D01*
X179295475Y-132703098D01*
X179195626Y-132634784D01*
X179095473Y-132566579D01*
X179041627Y-132530075D01*
X178859371Y-132406800D01*
X178706381Y-132489520D01*
X178636682Y-132525759D01*
X178577414Y-132553926D01*
X178537311Y-132569991D01*
X178527103Y-132572226D01*
X178514829Y-132555722D01*
X178490613Y-132509082D01*
X178456263Y-132436609D01*
X178413588Y-132342606D01*
X178364394Y-132231374D01*
X178310490Y-132107215D01*
X178253684Y-131974432D01*
X178195782Y-131837327D01*
X178138593Y-131700202D01*
X178083924Y-131567358D01*
X178033584Y-131443098D01*
X177989380Y-131331725D01*
X177953119Y-131237539D01*
X177926609Y-131164844D01*
X177911658Y-131117941D01*
X177909254Y-131101833D01*
X177928311Y-131081286D01*
X177970036Y-131047933D01*
X178025706Y-131008702D01*
X178030378Y-131005599D01*
X178174264Y-130890423D01*
X178290283Y-130756053D01*
X178377430Y-130606784D01*
X178434699Y-130446913D01*
X178461086Y-130280737D01*
X178455585Y-130112552D01*
X178417190Y-129946655D01*
X178344895Y-129787342D01*
X178323626Y-129752487D01*
X178212996Y-129611737D01*
X178082302Y-129498714D01*
X177936064Y-129414003D01*
X177778808Y-129358194D01*
X177615057Y-129331874D01*
X177449333Y-129335630D01*
X177286162Y-129370050D01*
X177130065Y-129435723D01*
X176985567Y-129533235D01*
X176940869Y-129572813D01*
X176827112Y-129696703D01*
X176744218Y-129827124D01*
X176687356Y-129973315D01*
X176655687Y-130118088D01*
X176647869Y-130280860D01*
X176673938Y-130444440D01*
X176731245Y-130603298D01*
X176817144Y-130751906D01*
X176928986Y-130884735D01*
X177064123Y-130996256D01*
X177081883Y-131008011D01*
X177138150Y-131046508D01*
X177180923Y-131079863D01*
X177201372Y-131101160D01*
X177201669Y-131101833D01*
X177197279Y-131124871D01*
X177179876Y-131177157D01*
X177151268Y-131254390D01*
X177113265Y-131352268D01*
X177067674Y-131466491D01*
X177016303Y-131592758D01*
X176960962Y-131726767D01*
X176903458Y-131864218D01*
X176845601Y-132000808D01*
X176789198Y-132132237D01*
X176736058Y-132254205D01*
X176687990Y-132362409D01*
X176646801Y-132452549D01*
X176614301Y-132520323D01*
X176592297Y-132561430D01*
X176583436Y-132572226D01*
X176556360Y-132563819D01*
X176505697Y-132541272D01*
X176440183Y-132508613D01*
X176404159Y-132489520D01*
X176251168Y-132406800D01*
X176068912Y-132530075D01*
X175975875Y-132593228D01*
X175874015Y-132662727D01*
X175778562Y-132728165D01*
X175730750Y-132761117D01*
X175663505Y-132806273D01*
X175606564Y-132842057D01*
X175567354Y-132863938D01*
X175554619Y-132868563D01*
X175536083Y-132856085D01*
X175495059Y-132821252D01*
X175435525Y-132767678D01*
X175361458Y-132698983D01*
X175276835Y-132618781D01*
X175223315Y-132567286D01*
X175129681Y-132475286D01*
X175048759Y-132392999D01*
X174983823Y-132323945D01*
X174938142Y-132271644D01*
X174914989Y-132239616D01*
X174912768Y-132233116D01*
X174923076Y-132208394D01*
X174951561Y-132158405D01*
X174995063Y-132088212D01*
X175050423Y-132002875D01*
X175114480Y-131907456D01*
X175132697Y-131880854D01*
X175199073Y-131784167D01*
X175258622Y-131697117D01*
X175308016Y-131624595D01*
X175343925Y-131571493D01*
X175363019Y-131542703D01*
X175364864Y-131539726D01*
X175362105Y-131516782D01*
X175347462Y-131466336D01*
X175323487Y-131395041D01*
X175292734Y-131309547D01*
X175257756Y-131216507D01*
X175221107Y-131122574D01*
X175185339Y-131034399D01*
X175153006Y-130958634D01*
X175126662Y-130901931D01*
X175108858Y-130870943D01*
X175107593Y-130869457D01*
X175096706Y-130860601D01*
X175078318Y-130851843D01*
X175048394Y-130842277D01*
X175002897Y-130830996D01*
X174937791Y-130817093D01*
X174849039Y-130799663D01*
X174732607Y-130777798D01*
X174584458Y-130750591D01*
X174552382Y-130744741D01*
X174457314Y-130726374D01*
X174374435Y-130708405D01*
X174311070Y-130692569D01*
X174274542Y-130680600D01*
X174269644Y-130677810D01*
X174261573Y-130653072D01*
X174255013Y-130597790D01*
X174249967Y-130518389D01*
X174246441Y-130421296D01*
X174244439Y-130312938D01*
X174243964Y-130199740D01*
X174245023Y-130088128D01*
X174247618Y-129984529D01*
X174251754Y-129895368D01*
X174257437Y-129827072D01*
X174264669Y-129786066D01*
X174269029Y-129777674D01*
X174293302Y-129769208D01*
X174348574Y-129755435D01*
X174429338Y-129737550D01*
X174530088Y-129716748D01*
X174645317Y-129694223D01*
X174708098Y-129682418D01*
X174827213Y-129660151D01*
X174933435Y-129639979D01*
X175021573Y-129622915D01*
X175086434Y-129609969D01*
X175122826Y-129602155D01*
X175128816Y-129600422D01*
X175138939Y-129580890D01*
X175160338Y-129533843D01*
X175190161Y-129466003D01*
X175225555Y-129384091D01*
X175263668Y-129294828D01*
X175301647Y-129204935D01*
X175336640Y-129121135D01*
X175365794Y-129050147D01*
X175386257Y-128998694D01*
X175395177Y-128973497D01*
X175395343Y-128972396D01*
X175385231Y-128952519D01*
X175356883Y-128906777D01*
X175313277Y-128839717D01*
X175257394Y-128755884D01*
X175192213Y-128659826D01*
X175154321Y-128604650D01*
X175085275Y-128503481D01*
X175023950Y-128411630D01*
X174973337Y-128333744D01*
X174936429Y-128274469D01*
X174916218Y-128238451D01*
X174913299Y-128230377D01*
X174925847Y-128211584D01*
X174960537Y-128171457D01*
X175012937Y-128114493D01*
X175078616Y-128045185D01*
X175153144Y-127968031D01*
X175232087Y-127887525D01*
X175311017Y-127808163D01*
X175385500Y-127734440D01*
X175451106Y-127670852D01*
X175503404Y-127621894D01*
X175537961Y-127592061D01*
X175549522Y-127584942D01*
X175568346Y-127594953D01*
X175613369Y-127623078D01*
X175680213Y-127666454D01*
X175764501Y-127722218D01*
X175861856Y-127787506D01*
X175935293Y-127837246D01*
X176306333Y-128089551D01*
X176924905Y-127834555D01*
X177008725Y-127389931D01*
X177092546Y-126945307D01*
X178017994Y-126945307D01*
X178101814Y-127389931D01*
X178101814Y-127389931D01*
G37*
X178101814Y-127389931D02*
X178185635Y-127834555D01*
X178494920Y-127962053D01*
X178804206Y-128089551D01*
X179175246Y-127837246D01*
X179279157Y-127766996D01*
X179373087Y-127704272D01*
X179452652Y-127651938D01*
X179513470Y-127612857D01*
X179551157Y-127589893D01*
X179561421Y-127584942D01*
X179579910Y-127597676D01*
X179619420Y-127632882D01*
X179675522Y-127686062D01*
X179743787Y-127752718D01*
X179819786Y-127828354D01*
X179899092Y-127908472D01*
X179977275Y-127988574D01*
X180049907Y-128064164D01*
X180112559Y-128130745D01*
X180160803Y-128183818D01*
X180190210Y-128218887D01*
X180197241Y-128230623D01*
X180187123Y-128252260D01*
X180158759Y-128299662D01*
X180115129Y-128368193D01*
X180059218Y-128453215D01*
X179994006Y-128550093D01*
X179956219Y-128605350D01*
X179887343Y-128706248D01*
X179826140Y-128797299D01*
X179775578Y-128873970D01*
X179738628Y-128931728D01*
X179718258Y-128966043D01*
X179715197Y-128973254D01*
X179722136Y-128993748D01*
X179741051Y-129041513D01*
X179769087Y-129109832D01*
X179803391Y-129191989D01*
X179841109Y-129281270D01*
X179879387Y-129370958D01*
X179915370Y-129454338D01*
X179946206Y-129524694D01*
X179969039Y-129575310D01*
X179981017Y-129599471D01*
X179981724Y-129600422D01*
X180000531Y-129605036D01*
X180050618Y-129615328D01*
X180126793Y-129630287D01*
X180223865Y-129648901D01*
X180336643Y-129670159D01*
X180402442Y-129682418D01*
X180522950Y-129705362D01*
X180631797Y-129727195D01*
X180723476Y-129746722D01*
X180792481Y-129762748D01*
X180833304Y-129774079D01*
X180841511Y-129777674D01*
X180849548Y-129802006D01*
X180856033Y-129856959D01*
X180860970Y-129936108D01*
X180864364Y-130033026D01*
X180866218Y-130141287D01*
X180866538Y-130254465D01*
X180865327Y-130366135D01*
X180862590Y-130469868D01*
X180858331Y-130559241D01*
X180852555Y-130627826D01*
X180845267Y-130669197D01*
X180840895Y-130677810D01*
X180814764Y-130688133D01*
X180759393Y-130702892D01*
X180682107Y-130720352D01*
X180590230Y-130738780D01*
X180558158Y-130744741D01*
X180403524Y-130773066D01*
X180281375Y-130795876D01*
X180187673Y-130814080D01*
X180118384Y-130828583D01*
X180069471Y-130840292D01*
X180036897Y-130850115D01*
X180016628Y-130858956D01*
X180004626Y-130867724D01*
X180002947Y-130869457D01*
X179986184Y-130897371D01*
X179960614Y-130951695D01*
X179928788Y-131025777D01*
X179893260Y-131112965D01*
X179856583Y-131206608D01*
X179821311Y-131300052D01*
X179789996Y-131386647D01*
X179765193Y-131459740D01*
X179749454Y-131512678D01*
X179745332Y-131538811D01*
X179745676Y-131539726D01*
X179759641Y-131561086D01*
X179791322Y-131608084D01*
X179837391Y-131675827D01*
X179894518Y-131759423D01*
X179959373Y-131853982D01*
X179977843Y-131880854D01*
X180043699Y-131978275D01*
X180101650Y-132067163D01*
X180148538Y-132142412D01*
X180181207Y-132198920D01*
X180196500Y-132231581D01*
X180197241Y-132235593D01*
X180184392Y-132256684D01*
X180148888Y-132298464D01*
X180095293Y-132356445D01*
X180028171Y-132426135D01*
X179952087Y-132503045D01*
X179871604Y-132582683D01*
X179791287Y-132660561D01*
X179715699Y-132732186D01*
X179649405Y-132793070D01*
X179596969Y-132838721D01*
X179562955Y-132864650D01*
X179553545Y-132868883D01*
X179531643Y-132858912D01*
X179486800Y-132832020D01*
X179426321Y-132792736D01*
X179379789Y-132761117D01*
X179295475Y-132703098D01*
X179195626Y-132634784D01*
X179095473Y-132566579D01*
X179041627Y-132530075D01*
X178859371Y-132406800D01*
X178706381Y-132489520D01*
X178636682Y-132525759D01*
X178577414Y-132553926D01*
X178537311Y-132569991D01*
X178527103Y-132572226D01*
X178514829Y-132555722D01*
X178490613Y-132509082D01*
X178456263Y-132436609D01*
X178413588Y-132342606D01*
X178364394Y-132231374D01*
X178310490Y-132107215D01*
X178253684Y-131974432D01*
X178195782Y-131837327D01*
X178138593Y-131700202D01*
X178083924Y-131567358D01*
X178033584Y-131443098D01*
X177989380Y-131331725D01*
X177953119Y-131237539D01*
X177926609Y-131164844D01*
X177911658Y-131117941D01*
X177909254Y-131101833D01*
X177928311Y-131081286D01*
X177970036Y-131047933D01*
X178025706Y-131008702D01*
X178030378Y-131005599D01*
X178174264Y-130890423D01*
X178290283Y-130756053D01*
X178377430Y-130606784D01*
X178434699Y-130446913D01*
X178461086Y-130280737D01*
X178455585Y-130112552D01*
X178417190Y-129946655D01*
X178344895Y-129787342D01*
X178323626Y-129752487D01*
X178212996Y-129611737D01*
X178082302Y-129498714D01*
X177936064Y-129414003D01*
X177778808Y-129358194D01*
X177615057Y-129331874D01*
X177449333Y-129335630D01*
X177286162Y-129370050D01*
X177130065Y-129435723D01*
X176985567Y-129533235D01*
X176940869Y-129572813D01*
X176827112Y-129696703D01*
X176744218Y-129827124D01*
X176687356Y-129973315D01*
X176655687Y-130118088D01*
X176647869Y-130280860D01*
X176673938Y-130444440D01*
X176731245Y-130603298D01*
X176817144Y-130751906D01*
X176928986Y-130884735D01*
X177064123Y-130996256D01*
X177081883Y-131008011D01*
X177138150Y-131046508D01*
X177180923Y-131079863D01*
X177201372Y-131101160D01*
X177201669Y-131101833D01*
X177197279Y-131124871D01*
X177179876Y-131177157D01*
X177151268Y-131254390D01*
X177113265Y-131352268D01*
X177067674Y-131466491D01*
X177016303Y-131592758D01*
X176960962Y-131726767D01*
X176903458Y-131864218D01*
X176845601Y-132000808D01*
X176789198Y-132132237D01*
X176736058Y-132254205D01*
X176687990Y-132362409D01*
X176646801Y-132452549D01*
X176614301Y-132520323D01*
X176592297Y-132561430D01*
X176583436Y-132572226D01*
X176556360Y-132563819D01*
X176505697Y-132541272D01*
X176440183Y-132508613D01*
X176404159Y-132489520D01*
X176251168Y-132406800D01*
X176068912Y-132530075D01*
X175975875Y-132593228D01*
X175874015Y-132662727D01*
X175778562Y-132728165D01*
X175730750Y-132761117D01*
X175663505Y-132806273D01*
X175606564Y-132842057D01*
X175567354Y-132863938D01*
X175554619Y-132868563D01*
X175536083Y-132856085D01*
X175495059Y-132821252D01*
X175435525Y-132767678D01*
X175361458Y-132698983D01*
X175276835Y-132618781D01*
X175223315Y-132567286D01*
X175129681Y-132475286D01*
X175048759Y-132392999D01*
X174983823Y-132323945D01*
X174938142Y-132271644D01*
X174914989Y-132239616D01*
X174912768Y-132233116D01*
X174923076Y-132208394D01*
X174951561Y-132158405D01*
X174995063Y-132088212D01*
X175050423Y-132002875D01*
X175114480Y-131907456D01*
X175132697Y-131880854D01*
X175199073Y-131784167D01*
X175258622Y-131697117D01*
X175308016Y-131624595D01*
X175343925Y-131571493D01*
X175363019Y-131542703D01*
X175364864Y-131539726D01*
X175362105Y-131516782D01*
X175347462Y-131466336D01*
X175323487Y-131395041D01*
X175292734Y-131309547D01*
X175257756Y-131216507D01*
X175221107Y-131122574D01*
X175185339Y-131034399D01*
X175153006Y-130958634D01*
X175126662Y-130901931D01*
X175108858Y-130870943D01*
X175107593Y-130869457D01*
X175096706Y-130860601D01*
X175078318Y-130851843D01*
X175048394Y-130842277D01*
X175002897Y-130830996D01*
X174937791Y-130817093D01*
X174849039Y-130799663D01*
X174732607Y-130777798D01*
X174584458Y-130750591D01*
X174552382Y-130744741D01*
X174457314Y-130726374D01*
X174374435Y-130708405D01*
X174311070Y-130692569D01*
X174274542Y-130680600D01*
X174269644Y-130677810D01*
X174261573Y-130653072D01*
X174255013Y-130597790D01*
X174249967Y-130518389D01*
X174246441Y-130421296D01*
X174244439Y-130312938D01*
X174243964Y-130199740D01*
X174245023Y-130088128D01*
X174247618Y-129984529D01*
X174251754Y-129895368D01*
X174257437Y-129827072D01*
X174264669Y-129786066D01*
X174269029Y-129777674D01*
X174293302Y-129769208D01*
X174348574Y-129755435D01*
X174429338Y-129737550D01*
X174530088Y-129716748D01*
X174645317Y-129694223D01*
X174708098Y-129682418D01*
X174827213Y-129660151D01*
X174933435Y-129639979D01*
X175021573Y-129622915D01*
X175086434Y-129609969D01*
X175122826Y-129602155D01*
X175128816Y-129600422D01*
X175138939Y-129580890D01*
X175160338Y-129533843D01*
X175190161Y-129466003D01*
X175225555Y-129384091D01*
X175263668Y-129294828D01*
X175301647Y-129204935D01*
X175336640Y-129121135D01*
X175365794Y-129050147D01*
X175386257Y-128998694D01*
X175395177Y-128973497D01*
X175395343Y-128972396D01*
X175385231Y-128952519D01*
X175356883Y-128906777D01*
X175313277Y-128839717D01*
X175257394Y-128755884D01*
X175192213Y-128659826D01*
X175154321Y-128604650D01*
X175085275Y-128503481D01*
X175023950Y-128411630D01*
X174973337Y-128333744D01*
X174936429Y-128274469D01*
X174916218Y-128238451D01*
X174913299Y-128230377D01*
X174925847Y-128211584D01*
X174960537Y-128171457D01*
X175012937Y-128114493D01*
X175078616Y-128045185D01*
X175153144Y-127968031D01*
X175232087Y-127887525D01*
X175311017Y-127808163D01*
X175385500Y-127734440D01*
X175451106Y-127670852D01*
X175503404Y-127621894D01*
X175537961Y-127592061D01*
X175549522Y-127584942D01*
X175568346Y-127594953D01*
X175613369Y-127623078D01*
X175680213Y-127666454D01*
X175764501Y-127722218D01*
X175861856Y-127787506D01*
X175935293Y-127837246D01*
X176306333Y-128089551D01*
X176924905Y-127834555D01*
X177008725Y-127389931D01*
X177092546Y-126945307D01*
X178017994Y-126945307D01*
X178101814Y-127389931D01*
G04 #@! TO.C,HL5*
D13*
X168378333Y-112847380D02*
X168378333Y-111847380D01*
X168378333Y-112323571D02*
X168949761Y-112323571D01*
X168949761Y-112847380D02*
X168949761Y-111847380D01*
X169902142Y-112847380D02*
X169425952Y-112847380D01*
X169425952Y-111847380D01*
X170711666Y-111847380D02*
X170235476Y-111847380D01*
X170187857Y-112323571D01*
X170235476Y-112275952D01*
X170330714Y-112228333D01*
X170568809Y-112228333D01*
X170664047Y-112275952D01*
X170711666Y-112323571D01*
X170759285Y-112418809D01*
X170759285Y-112656904D01*
X170711666Y-112752142D01*
X170664047Y-112799761D01*
X170568809Y-112847380D01*
X170330714Y-112847380D01*
X170235476Y-112799761D01*
X170187857Y-112752142D01*
D10*
X170727380Y-104314285D02*
X170727380Y-104885714D01*
X170727380Y-104600000D02*
X169727380Y-104600000D01*
X169870238Y-104695238D01*
X169965476Y-104790476D01*
X170013095Y-104885714D01*
G04 #@! TO.C,HL6*
D13*
X156313333Y-112212380D02*
X156313333Y-111212380D01*
X156313333Y-111688571D02*
X156884761Y-111688571D01*
X156884761Y-112212380D02*
X156884761Y-111212380D01*
X157837142Y-112212380D02*
X157360952Y-112212380D01*
X157360952Y-111212380D01*
X158599047Y-111212380D02*
X158408571Y-111212380D01*
X158313333Y-111260000D01*
X158265714Y-111307619D01*
X158170476Y-111450476D01*
X158122857Y-111640952D01*
X158122857Y-112021904D01*
X158170476Y-112117142D01*
X158218095Y-112164761D01*
X158313333Y-112212380D01*
X158503809Y-112212380D01*
X158599047Y-112164761D01*
X158646666Y-112117142D01*
X158694285Y-112021904D01*
X158694285Y-111783809D01*
X158646666Y-111688571D01*
X158599047Y-111640952D01*
X158503809Y-111593333D01*
X158313333Y-111593333D01*
X158218095Y-111640952D01*
X158170476Y-111688571D01*
X158122857Y-111783809D01*
D10*
X158977380Y-104314285D02*
X158977380Y-104885714D01*
X158977380Y-104600000D02*
X157977380Y-104600000D01*
X158120238Y-104695238D01*
X158215476Y-104790476D01*
X158263095Y-104885714D01*
G04 #@! TO.C,HL7*
D13*
X144883333Y-112847380D02*
X144883333Y-111847380D01*
X144883333Y-112323571D02*
X145454761Y-112323571D01*
X145454761Y-112847380D02*
X145454761Y-111847380D01*
X146407142Y-112847380D02*
X145930952Y-112847380D01*
X145930952Y-111847380D01*
X146645238Y-111847380D02*
X147311904Y-111847380D01*
X146883333Y-112847380D01*
D10*
X147227380Y-104314285D02*
X147227380Y-104885714D01*
X147227380Y-104600000D02*
X146227380Y-104600000D01*
X146370238Y-104695238D01*
X146465476Y-104790476D01*
X146513095Y-104885714D01*
G04 #@! TO.C,HL8*
D13*
X132818333Y-112847380D02*
X132818333Y-111847380D01*
X132818333Y-112323571D02*
X133389761Y-112323571D01*
X133389761Y-112847380D02*
X133389761Y-111847380D01*
X134342142Y-112847380D02*
X133865952Y-112847380D01*
X133865952Y-111847380D01*
X134818333Y-112275952D02*
X134723095Y-112228333D01*
X134675476Y-112180714D01*
X134627857Y-112085476D01*
X134627857Y-112037857D01*
X134675476Y-111942619D01*
X134723095Y-111895000D01*
X134818333Y-111847380D01*
X135008809Y-111847380D01*
X135104047Y-111895000D01*
X135151666Y-111942619D01*
X135199285Y-112037857D01*
X135199285Y-112085476D01*
X135151666Y-112180714D01*
X135104047Y-112228333D01*
X135008809Y-112275952D01*
X134818333Y-112275952D01*
X134723095Y-112323571D01*
X134675476Y-112371190D01*
X134627857Y-112466428D01*
X134627857Y-112656904D01*
X134675476Y-112752142D01*
X134723095Y-112799761D01*
X134818333Y-112847380D01*
X135008809Y-112847380D01*
X135104047Y-112799761D01*
X135151666Y-112752142D01*
X135199285Y-112656904D01*
X135199285Y-112466428D01*
X135151666Y-112371190D01*
X135104047Y-112323571D01*
X135008809Y-112275952D01*
D10*
X135427380Y-104314285D02*
X135427380Y-104885714D01*
X135427380Y-104600000D02*
X134427380Y-104600000D01*
X134570238Y-104695238D01*
X134665476Y-104790476D01*
X134713095Y-104885714D01*
G04 #@! TO.C,HL9*
X121388333Y-112212380D02*
X121388333Y-111212380D01*
X121388333Y-111688571D02*
X121959761Y-111688571D01*
X121959761Y-112212380D02*
X121959761Y-111212380D01*
X122912142Y-112212380D02*
X122435952Y-112212380D01*
X122435952Y-111212380D01*
X123293095Y-112212380D02*
X123483571Y-112212380D01*
X123578809Y-112164761D01*
X123626428Y-112117142D01*
X123721666Y-111974285D01*
X123769285Y-111783809D01*
X123769285Y-111402857D01*
X123721666Y-111307619D01*
X123674047Y-111260000D01*
X123578809Y-111212380D01*
X123388333Y-111212380D01*
X123293095Y-111260000D01*
X123245476Y-111307619D01*
X123197857Y-111402857D01*
X123197857Y-111640952D01*
X123245476Y-111736190D01*
X123293095Y-111783809D01*
X123388333Y-111831428D01*
X123578809Y-111831428D01*
X123674047Y-111783809D01*
X123721666Y-111736190D01*
X123769285Y-111640952D01*
X123677380Y-104314285D02*
X123677380Y-104885714D01*
X123677380Y-104600000D02*
X122677380Y-104600000D01*
X122820238Y-104695238D01*
X122915476Y-104790476D01*
X122963095Y-104885714D01*
G04 #@! TO.C,HL10*
X108847142Y-112847380D02*
X108847142Y-111847380D01*
X108847142Y-112323571D02*
X109418571Y-112323571D01*
X109418571Y-112847380D02*
X109418571Y-111847380D01*
X110370952Y-112847380D02*
X109894761Y-112847380D01*
X109894761Y-111847380D01*
X111228095Y-112847380D02*
X110656666Y-112847380D01*
X110942380Y-112847380D02*
X110942380Y-111847380D01*
X110847142Y-111990238D01*
X110751904Y-112085476D01*
X110656666Y-112133095D01*
X111847142Y-111847380D02*
X111942380Y-111847380D01*
X112037619Y-111895000D01*
X112085238Y-111942619D01*
X112132857Y-112037857D01*
X112180476Y-112228333D01*
X112180476Y-112466428D01*
X112132857Y-112656904D01*
X112085238Y-112752142D01*
X112037619Y-112799761D01*
X111942380Y-112847380D01*
X111847142Y-112847380D01*
X111751904Y-112799761D01*
X111704285Y-112752142D01*
X111656666Y-112656904D01*
X111609047Y-112466428D01*
X111609047Y-112228333D01*
X111656666Y-112037857D01*
X111704285Y-111942619D01*
X111751904Y-111895000D01*
X111847142Y-111847380D01*
X111927380Y-104314285D02*
X111927380Y-104885714D01*
X111927380Y-104600000D02*
X110927380Y-104600000D01*
X111070238Y-104695238D01*
X111165476Y-104790476D01*
X111213095Y-104885714D01*
G04 #@! TO.C,HL11*
X120912142Y-100782380D02*
X120912142Y-99782380D01*
X120912142Y-100258571D02*
X121483571Y-100258571D01*
X121483571Y-100782380D02*
X121483571Y-99782380D01*
X122435952Y-100782380D02*
X121959761Y-100782380D01*
X121959761Y-99782380D01*
X123293095Y-100782380D02*
X122721666Y-100782380D01*
X123007380Y-100782380D02*
X123007380Y-99782380D01*
X122912142Y-99925238D01*
X122816904Y-100020476D01*
X122721666Y-100068095D01*
X124245476Y-100782380D02*
X123674047Y-100782380D01*
X123959761Y-100782380D02*
X123959761Y-99782380D01*
X123864523Y-99925238D01*
X123769285Y-100020476D01*
X123674047Y-100068095D01*
X123677380Y-92214285D02*
X123677380Y-92785714D01*
X123677380Y-92500000D02*
X122677380Y-92500000D01*
X122820238Y-92595238D01*
X122915476Y-92690476D01*
X122963095Y-92785714D01*
G04 #@! TO.C,HL12*
X132342142Y-100782380D02*
X132342142Y-99782380D01*
X132342142Y-100258571D02*
X132913571Y-100258571D01*
X132913571Y-100782380D02*
X132913571Y-99782380D01*
X133865952Y-100782380D02*
X133389761Y-100782380D01*
X133389761Y-99782380D01*
X134723095Y-100782380D02*
X134151666Y-100782380D01*
X134437380Y-100782380D02*
X134437380Y-99782380D01*
X134342142Y-99925238D01*
X134246904Y-100020476D01*
X134151666Y-100068095D01*
X135104047Y-99877619D02*
X135151666Y-99830000D01*
X135246904Y-99782380D01*
X135485000Y-99782380D01*
X135580238Y-99830000D01*
X135627857Y-99877619D01*
X135675476Y-99972857D01*
X135675476Y-100068095D01*
X135627857Y-100210952D01*
X135056428Y-100782380D01*
X135675476Y-100782380D01*
X135427380Y-92214285D02*
X135427380Y-92785714D01*
X135427380Y-92500000D02*
X134427380Y-92500000D01*
X134570238Y-92595238D01*
X134665476Y-92690476D01*
X134713095Y-92785714D01*
G04 #@! TO.C,HL13*
X144407142Y-100782380D02*
X144407142Y-99782380D01*
X144407142Y-100258571D02*
X144978571Y-100258571D01*
X144978571Y-100782380D02*
X144978571Y-99782380D01*
X145930952Y-100782380D02*
X145454761Y-100782380D01*
X145454761Y-99782380D01*
X146788095Y-100782380D02*
X146216666Y-100782380D01*
X146502380Y-100782380D02*
X146502380Y-99782380D01*
X146407142Y-99925238D01*
X146311904Y-100020476D01*
X146216666Y-100068095D01*
X147121428Y-99782380D02*
X147740476Y-99782380D01*
X147407142Y-100163333D01*
X147550000Y-100163333D01*
X147645238Y-100210952D01*
X147692857Y-100258571D01*
X147740476Y-100353809D01*
X147740476Y-100591904D01*
X147692857Y-100687142D01*
X147645238Y-100734761D01*
X147550000Y-100782380D01*
X147264285Y-100782380D01*
X147169047Y-100734761D01*
X147121428Y-100687142D01*
X147227380Y-92214285D02*
X147227380Y-92785714D01*
X147227380Y-92500000D02*
X146227380Y-92500000D01*
X146370238Y-92595238D01*
X146465476Y-92690476D01*
X146513095Y-92785714D01*
G04 #@! TO.C,HL14*
X156472142Y-100782380D02*
X156472142Y-99782380D01*
X156472142Y-100258571D02*
X157043571Y-100258571D01*
X157043571Y-100782380D02*
X157043571Y-99782380D01*
X157995952Y-100782380D02*
X157519761Y-100782380D01*
X157519761Y-99782380D01*
X158853095Y-100782380D02*
X158281666Y-100782380D01*
X158567380Y-100782380D02*
X158567380Y-99782380D01*
X158472142Y-99925238D01*
X158376904Y-100020476D01*
X158281666Y-100068095D01*
X159710238Y-100115714D02*
X159710238Y-100782380D01*
X159472142Y-99734761D02*
X159234047Y-100449047D01*
X159853095Y-100449047D01*
X158977380Y-92214285D02*
X158977380Y-92785714D01*
X158977380Y-92500000D02*
X157977380Y-92500000D01*
X158120238Y-92595238D01*
X158215476Y-92690476D01*
X158263095Y-92785714D01*
G04 #@! TO.C,HL15*
X155837142Y-88717380D02*
X155837142Y-87717380D01*
X155837142Y-88193571D02*
X156408571Y-88193571D01*
X156408571Y-88717380D02*
X156408571Y-87717380D01*
X157360952Y-88717380D02*
X156884761Y-88717380D01*
X156884761Y-87717380D01*
X158218095Y-88717380D02*
X157646666Y-88717380D01*
X157932380Y-88717380D02*
X157932380Y-87717380D01*
X157837142Y-87860238D01*
X157741904Y-87955476D01*
X157646666Y-88003095D01*
X159122857Y-87717380D02*
X158646666Y-87717380D01*
X158599047Y-88193571D01*
X158646666Y-88145952D01*
X158741904Y-88098333D01*
X158980000Y-88098333D01*
X159075238Y-88145952D01*
X159122857Y-88193571D01*
X159170476Y-88288809D01*
X159170476Y-88526904D01*
X159122857Y-88622142D01*
X159075238Y-88669761D01*
X158980000Y-88717380D01*
X158741904Y-88717380D01*
X158646666Y-88669761D01*
X158599047Y-88622142D01*
X158977380Y-80114285D02*
X158977380Y-80685714D01*
X158977380Y-80400000D02*
X157977380Y-80400000D01*
X158120238Y-80495238D01*
X158215476Y-80590476D01*
X158263095Y-80685714D01*
G04 #@! TO.C,HL16*
X144407142Y-88717380D02*
X144407142Y-87717380D01*
X144407142Y-88193571D02*
X144978571Y-88193571D01*
X144978571Y-88717380D02*
X144978571Y-87717380D01*
X145930952Y-88717380D02*
X145454761Y-88717380D01*
X145454761Y-87717380D01*
X146788095Y-88717380D02*
X146216666Y-88717380D01*
X146502380Y-88717380D02*
X146502380Y-87717380D01*
X146407142Y-87860238D01*
X146311904Y-87955476D01*
X146216666Y-88003095D01*
X147645238Y-87717380D02*
X147454761Y-87717380D01*
X147359523Y-87765000D01*
X147311904Y-87812619D01*
X147216666Y-87955476D01*
X147169047Y-88145952D01*
X147169047Y-88526904D01*
X147216666Y-88622142D01*
X147264285Y-88669761D01*
X147359523Y-88717380D01*
X147550000Y-88717380D01*
X147645238Y-88669761D01*
X147692857Y-88622142D01*
X147740476Y-88526904D01*
X147740476Y-88288809D01*
X147692857Y-88193571D01*
X147645238Y-88145952D01*
X147550000Y-88098333D01*
X147359523Y-88098333D01*
X147264285Y-88145952D01*
X147216666Y-88193571D01*
X147169047Y-88288809D01*
X147227380Y-80114285D02*
X147227380Y-80685714D01*
X147227380Y-80400000D02*
X146227380Y-80400000D01*
X146370238Y-80495238D01*
X146465476Y-80590476D01*
X146513095Y-80685714D01*
G04 #@! TO.C,HL17*
X132342142Y-88717380D02*
X132342142Y-87717380D01*
X132342142Y-88193571D02*
X132913571Y-88193571D01*
X132913571Y-88717380D02*
X132913571Y-87717380D01*
X133865952Y-88717380D02*
X133389761Y-88717380D01*
X133389761Y-87717380D01*
X134723095Y-88717380D02*
X134151666Y-88717380D01*
X134437380Y-88717380D02*
X134437380Y-87717380D01*
X134342142Y-87860238D01*
X134246904Y-87955476D01*
X134151666Y-88003095D01*
X135056428Y-87717380D02*
X135723095Y-87717380D01*
X135294523Y-88717380D01*
X135427380Y-80114285D02*
X135427380Y-80685714D01*
X135427380Y-80400000D02*
X134427380Y-80400000D01*
X134570238Y-80495238D01*
X134665476Y-80590476D01*
X134713095Y-80685714D01*
G04 #@! TO.C,HL18*
X120912142Y-88717380D02*
X120912142Y-87717380D01*
X120912142Y-88193571D02*
X121483571Y-88193571D01*
X121483571Y-88717380D02*
X121483571Y-87717380D01*
X122435952Y-88717380D02*
X121959761Y-88717380D01*
X121959761Y-87717380D01*
X123293095Y-88717380D02*
X122721666Y-88717380D01*
X123007380Y-88717380D02*
X123007380Y-87717380D01*
X122912142Y-87860238D01*
X122816904Y-87955476D01*
X122721666Y-88003095D01*
X123864523Y-88145952D02*
X123769285Y-88098333D01*
X123721666Y-88050714D01*
X123674047Y-87955476D01*
X123674047Y-87907857D01*
X123721666Y-87812619D01*
X123769285Y-87765000D01*
X123864523Y-87717380D01*
X124055000Y-87717380D01*
X124150238Y-87765000D01*
X124197857Y-87812619D01*
X124245476Y-87907857D01*
X124245476Y-87955476D01*
X124197857Y-88050714D01*
X124150238Y-88098333D01*
X124055000Y-88145952D01*
X123864523Y-88145952D01*
X123769285Y-88193571D01*
X123721666Y-88241190D01*
X123674047Y-88336428D01*
X123674047Y-88526904D01*
X123721666Y-88622142D01*
X123769285Y-88669761D01*
X123864523Y-88717380D01*
X124055000Y-88717380D01*
X124150238Y-88669761D01*
X124197857Y-88622142D01*
X124245476Y-88526904D01*
X124245476Y-88336428D01*
X124197857Y-88241190D01*
X124150238Y-88193571D01*
X124055000Y-88145952D01*
X123677380Y-80114285D02*
X123677380Y-80685714D01*
X123677380Y-80400000D02*
X122677380Y-80400000D01*
X122820238Y-80495238D01*
X122915476Y-80590476D01*
X122963095Y-80685714D01*
G04 #@! TO.C,HL19*
X120912142Y-76652380D02*
X120912142Y-75652380D01*
X120912142Y-76128571D02*
X121483571Y-76128571D01*
X121483571Y-76652380D02*
X121483571Y-75652380D01*
X122435952Y-76652380D02*
X121959761Y-76652380D01*
X121959761Y-75652380D01*
X123293095Y-76652380D02*
X122721666Y-76652380D01*
X123007380Y-76652380D02*
X123007380Y-75652380D01*
X122912142Y-75795238D01*
X122816904Y-75890476D01*
X122721666Y-75938095D01*
X123769285Y-76652380D02*
X123959761Y-76652380D01*
X124055000Y-76604761D01*
X124102619Y-76557142D01*
X124197857Y-76414285D01*
X124245476Y-76223809D01*
X124245476Y-75842857D01*
X124197857Y-75747619D01*
X124150238Y-75700000D01*
X124055000Y-75652380D01*
X123864523Y-75652380D01*
X123769285Y-75700000D01*
X123721666Y-75747619D01*
X123674047Y-75842857D01*
X123674047Y-76080952D01*
X123721666Y-76176190D01*
X123769285Y-76223809D01*
X123864523Y-76271428D01*
X124055000Y-76271428D01*
X124150238Y-76223809D01*
X124197857Y-76176190D01*
X124245476Y-76080952D01*
X123677380Y-68014285D02*
X123677380Y-68585714D01*
X123677380Y-68300000D02*
X122677380Y-68300000D01*
X122820238Y-68395238D01*
X122915476Y-68490476D01*
X122963095Y-68585714D01*
G04 #@! TO.C,HL20*
X132342142Y-76652380D02*
X132342142Y-75652380D01*
X132342142Y-76128571D02*
X132913571Y-76128571D01*
X132913571Y-76652380D02*
X132913571Y-75652380D01*
X133865952Y-76652380D02*
X133389761Y-76652380D01*
X133389761Y-75652380D01*
X134151666Y-75747619D02*
X134199285Y-75700000D01*
X134294523Y-75652380D01*
X134532619Y-75652380D01*
X134627857Y-75700000D01*
X134675476Y-75747619D01*
X134723095Y-75842857D01*
X134723095Y-75938095D01*
X134675476Y-76080952D01*
X134104047Y-76652380D01*
X134723095Y-76652380D01*
X135342142Y-75652380D02*
X135437380Y-75652380D01*
X135532619Y-75700000D01*
X135580238Y-75747619D01*
X135627857Y-75842857D01*
X135675476Y-76033333D01*
X135675476Y-76271428D01*
X135627857Y-76461904D01*
X135580238Y-76557142D01*
X135532619Y-76604761D01*
X135437380Y-76652380D01*
X135342142Y-76652380D01*
X135246904Y-76604761D01*
X135199285Y-76557142D01*
X135151666Y-76461904D01*
X135104047Y-76271428D01*
X135104047Y-76033333D01*
X135151666Y-75842857D01*
X135199285Y-75747619D01*
X135246904Y-75700000D01*
X135342142Y-75652380D01*
X135427380Y-68014285D02*
X135427380Y-68585714D01*
X135427380Y-68300000D02*
X134427380Y-68300000D01*
X134570238Y-68395238D01*
X134665476Y-68490476D01*
X134713095Y-68585714D01*
G04 #@! TO.C,HL21*
X144407142Y-76652380D02*
X144407142Y-75652380D01*
X144407142Y-76128571D02*
X144978571Y-76128571D01*
X144978571Y-76652380D02*
X144978571Y-75652380D01*
X145930952Y-76652380D02*
X145454761Y-76652380D01*
X145454761Y-75652380D01*
X146216666Y-75747619D02*
X146264285Y-75700000D01*
X146359523Y-75652380D01*
X146597619Y-75652380D01*
X146692857Y-75700000D01*
X146740476Y-75747619D01*
X146788095Y-75842857D01*
X146788095Y-75938095D01*
X146740476Y-76080952D01*
X146169047Y-76652380D01*
X146788095Y-76652380D01*
X147740476Y-76652380D02*
X147169047Y-76652380D01*
X147454761Y-76652380D02*
X147454761Y-75652380D01*
X147359523Y-75795238D01*
X147264285Y-75890476D01*
X147169047Y-75938095D01*
X147227380Y-68014285D02*
X147227380Y-68585714D01*
X147227380Y-68300000D02*
X146227380Y-68300000D01*
X146370238Y-68395238D01*
X146465476Y-68490476D01*
X146513095Y-68585714D01*
G04 #@! TO.C,HL22*
X155837142Y-76652380D02*
X155837142Y-75652380D01*
X155837142Y-76128571D02*
X156408571Y-76128571D01*
X156408571Y-76652380D02*
X156408571Y-75652380D01*
X157360952Y-76652380D02*
X156884761Y-76652380D01*
X156884761Y-75652380D01*
X157646666Y-75747619D02*
X157694285Y-75700000D01*
X157789523Y-75652380D01*
X158027619Y-75652380D01*
X158122857Y-75700000D01*
X158170476Y-75747619D01*
X158218095Y-75842857D01*
X158218095Y-75938095D01*
X158170476Y-76080952D01*
X157599047Y-76652380D01*
X158218095Y-76652380D01*
X158599047Y-75747619D02*
X158646666Y-75700000D01*
X158741904Y-75652380D01*
X158980000Y-75652380D01*
X159075238Y-75700000D01*
X159122857Y-75747619D01*
X159170476Y-75842857D01*
X159170476Y-75938095D01*
X159122857Y-76080952D01*
X158551428Y-76652380D01*
X159170476Y-76652380D01*
X158977380Y-68014285D02*
X158977380Y-68585714D01*
X158977380Y-68300000D02*
X157977380Y-68300000D01*
X158120238Y-68395238D01*
X158215476Y-68490476D01*
X158263095Y-68585714D01*
G04 #@! TO.C,HL23*
X144407142Y-64587380D02*
X144407142Y-63587380D01*
X144407142Y-64063571D02*
X144978571Y-64063571D01*
X144978571Y-64587380D02*
X144978571Y-63587380D01*
X145930952Y-64587380D02*
X145454761Y-64587380D01*
X145454761Y-63587380D01*
X146216666Y-63682619D02*
X146264285Y-63635000D01*
X146359523Y-63587380D01*
X146597619Y-63587380D01*
X146692857Y-63635000D01*
X146740476Y-63682619D01*
X146788095Y-63777857D01*
X146788095Y-63873095D01*
X146740476Y-64015952D01*
X146169047Y-64587380D01*
X146788095Y-64587380D01*
X147121428Y-63587380D02*
X147740476Y-63587380D01*
X147407142Y-63968333D01*
X147550000Y-63968333D01*
X147645238Y-64015952D01*
X147692857Y-64063571D01*
X147740476Y-64158809D01*
X147740476Y-64396904D01*
X147692857Y-64492142D01*
X147645238Y-64539761D01*
X147550000Y-64587380D01*
X147264285Y-64587380D01*
X147169047Y-64539761D01*
X147121428Y-64492142D01*
X147227380Y-55914285D02*
X147227380Y-56485714D01*
X147227380Y-56200000D02*
X146227380Y-56200000D01*
X146370238Y-56295238D01*
X146465476Y-56390476D01*
X146513095Y-56485714D01*
G04 #@! TO.C,HL24*
X132342142Y-64587380D02*
X132342142Y-63587380D01*
X132342142Y-64063571D02*
X132913571Y-64063571D01*
X132913571Y-64587380D02*
X132913571Y-63587380D01*
X133865952Y-64587380D02*
X133389761Y-64587380D01*
X133389761Y-63587380D01*
X134151666Y-63682619D02*
X134199285Y-63635000D01*
X134294523Y-63587380D01*
X134532619Y-63587380D01*
X134627857Y-63635000D01*
X134675476Y-63682619D01*
X134723095Y-63777857D01*
X134723095Y-63873095D01*
X134675476Y-64015952D01*
X134104047Y-64587380D01*
X134723095Y-64587380D01*
X135580238Y-63920714D02*
X135580238Y-64587380D01*
X135342142Y-63539761D02*
X135104047Y-64254047D01*
X135723095Y-64254047D01*
X135427380Y-55914285D02*
X135427380Y-56485714D01*
X135427380Y-56200000D02*
X134427380Y-56200000D01*
X134570238Y-56295238D01*
X134665476Y-56390476D01*
X134713095Y-56485714D01*
G04 #@! TO.C,HL1*
D13*
X121388333Y-128087380D02*
X121388333Y-127087380D01*
X121388333Y-127563571D02*
X121959761Y-127563571D01*
X121959761Y-128087380D02*
X121959761Y-127087380D01*
X122912142Y-128087380D02*
X122435952Y-128087380D01*
X122435952Y-127087380D01*
X123769285Y-128087380D02*
X123197857Y-128087380D01*
X123483571Y-128087380D02*
X123483571Y-127087380D01*
X123388333Y-127230238D01*
X123293095Y-127325476D01*
X123197857Y-127373095D01*
D10*
X123655170Y-119369270D02*
X123655170Y-119940699D01*
X123655170Y-119654985D02*
X122655170Y-119654985D01*
X122798028Y-119750223D01*
X122893266Y-119845461D01*
X122940885Y-119940699D01*
G04 #@! TO.C,HL2*
D13*
X132818333Y-128087380D02*
X132818333Y-127087380D01*
X132818333Y-127563571D02*
X133389761Y-127563571D01*
X133389761Y-128087380D02*
X133389761Y-127087380D01*
X134342142Y-128087380D02*
X133865952Y-128087380D01*
X133865952Y-127087380D01*
X134627857Y-127182619D02*
X134675476Y-127135000D01*
X134770714Y-127087380D01*
X135008809Y-127087380D01*
X135104047Y-127135000D01*
X135151666Y-127182619D01*
X135199285Y-127277857D01*
X135199285Y-127373095D01*
X135151666Y-127515952D01*
X134580238Y-128087380D01*
X135199285Y-128087380D01*
D10*
X135375880Y-119404285D02*
X135375880Y-119975714D01*
X135375880Y-119690000D02*
X134375880Y-119690000D01*
X134518738Y-119785238D01*
X134613976Y-119880476D01*
X134661595Y-119975714D01*
G04 #@! TO.C,HL3*
D13*
X144883333Y-128087380D02*
X144883333Y-127087380D01*
X144883333Y-127563571D02*
X145454761Y-127563571D01*
X145454761Y-128087380D02*
X145454761Y-127087380D01*
X146407142Y-128087380D02*
X145930952Y-128087380D01*
X145930952Y-127087380D01*
X146645238Y-127087380D02*
X147264285Y-127087380D01*
X146930952Y-127468333D01*
X147073809Y-127468333D01*
X147169047Y-127515952D01*
X147216666Y-127563571D01*
X147264285Y-127658809D01*
X147264285Y-127896904D01*
X147216666Y-127992142D01*
X147169047Y-128039761D01*
X147073809Y-128087380D01*
X146788095Y-128087380D01*
X146692857Y-128039761D01*
X146645238Y-127992142D01*
D10*
X147205170Y-119369270D02*
X147205170Y-119940699D01*
X147205170Y-119654985D02*
X146205170Y-119654985D01*
X146348028Y-119750223D01*
X146443266Y-119845461D01*
X146490885Y-119940699D01*
G04 #@! TO.C,HL4*
D13*
X156313333Y-128087380D02*
X156313333Y-127087380D01*
X156313333Y-127563571D02*
X156884761Y-127563571D01*
X156884761Y-128087380D02*
X156884761Y-127087380D01*
X157837142Y-128087380D02*
X157360952Y-128087380D01*
X157360952Y-127087380D01*
X158599047Y-127420714D02*
X158599047Y-128087380D01*
X158360952Y-127039761D02*
X158122857Y-127754047D01*
X158741904Y-127754047D01*
D10*
X158955170Y-119369270D02*
X158955170Y-119940699D01*
X158955170Y-119654985D02*
X157955170Y-119654985D01*
X158098028Y-119750223D01*
X158193266Y-119845461D01*
X158240885Y-119940699D01*
G04 #@! TO.C,HL25*
X138692142Y-54427380D02*
X138692142Y-53427380D01*
X138692142Y-53903571D02*
X139263571Y-53903571D01*
X139263571Y-54427380D02*
X139263571Y-53427380D01*
X140215952Y-54427380D02*
X139739761Y-54427380D01*
X139739761Y-53427380D01*
X140501666Y-53522619D02*
X140549285Y-53475000D01*
X140644523Y-53427380D01*
X140882619Y-53427380D01*
X140977857Y-53475000D01*
X141025476Y-53522619D01*
X141073095Y-53617857D01*
X141073095Y-53713095D01*
X141025476Y-53855952D01*
X140454047Y-54427380D01*
X141073095Y-54427380D01*
X141977857Y-53427380D02*
X141501666Y-53427380D01*
X141454047Y-53903571D01*
X141501666Y-53855952D01*
X141596904Y-53808333D01*
X141835000Y-53808333D01*
X141930238Y-53855952D01*
X141977857Y-53903571D01*
X142025476Y-53998809D01*
X142025476Y-54236904D01*
X141977857Y-54332142D01*
X141930238Y-54379761D01*
X141835000Y-54427380D01*
X141596904Y-54427380D01*
X141501666Y-54379761D01*
X141454047Y-54332142D01*
X141217880Y-46061785D02*
X141217880Y-46633214D01*
X141217880Y-46347500D02*
X140217880Y-46347500D01*
X140360738Y-46442738D01*
X140455976Y-46537976D01*
X140503595Y-46633214D01*
G04 #@! TO.C,HL26*
X140152380Y-42282857D02*
X139152380Y-42282857D01*
X139628571Y-42282857D02*
X139628571Y-41711428D01*
X140152380Y-41711428D02*
X139152380Y-41711428D01*
X140152380Y-40759047D02*
X140152380Y-41235238D01*
X139152380Y-41235238D01*
X139247619Y-40473333D02*
X139200000Y-40425714D01*
X139152380Y-40330476D01*
X139152380Y-40092380D01*
X139200000Y-39997142D01*
X139247619Y-39949523D01*
X139342857Y-39901904D01*
X139438095Y-39901904D01*
X139580952Y-39949523D01*
X140152380Y-40520952D01*
X140152380Y-39901904D01*
X139152380Y-39044761D02*
X139152380Y-39235238D01*
X139200000Y-39330476D01*
X139247619Y-39378095D01*
X139390476Y-39473333D01*
X139580952Y-39520952D01*
X139961904Y-39520952D01*
X140057142Y-39473333D01*
X140104761Y-39425714D01*
X140152380Y-39330476D01*
X140152380Y-39140000D01*
X140104761Y-39044761D01*
X140057142Y-38997142D01*
X139961904Y-38949523D01*
X139723809Y-38949523D01*
X139628571Y-38997142D01*
X139580952Y-39044761D01*
X139533333Y-39140000D01*
X139533333Y-39330476D01*
X139580952Y-39425714D01*
X139628571Y-39473333D01*
X139723809Y-39520952D01*
X141281380Y-31520285D02*
X141281380Y-32091714D01*
X141281380Y-31806000D02*
X140281380Y-31806000D01*
X140424238Y-31901238D01*
X140519476Y-31996476D01*
X140567095Y-32091714D01*
G04 #@! TD*
M02*
